<svg class="main-svg" xmlns="http://www.w3.org/2000/svg" xmlns:xlink="http://www.w3.org/1999/xlink" width="1130" height="807" style="" viewBox="0 0 1130 807"><rect x="0" y="0" width="1130" height="807" style="fill: rgb(238, 238, 238); fill-opacity: 1;"/><defs id="defs-e49d94"><g class="clips"><clipPath class="plotclip" id="clipe49d94xyplot"><rect width="970" height="627"/></clipPath><clipPath class="axesclip" id="clipe49d94x"><rect x="80" y="0" width="970" height="807"/></clipPath><clipPath class="axesclip" id="clipe49d94y"><rect x="0" y="100" width="1130" height="627"/></clipPath><clipPath class="axesclip" id="clipe49d94xy"><rect x="80" y="100" width="970" height="627"/></clipPath></g><g class="gradients"/></defs><g class="bglayer"><rect class="bg" x="80" y="100" width="970" height="627" style="fill: rgb(255, 255, 255); fill-opacity: 1; stroke-width: 0;"/></g><g class="layer-below"><g class="imagelayer"/><g class="shapelayer"/></g><g class="cartesianlayer"><g class="subplot xy"><g class="layer-subplot"><g class="shapelayer"/><g class="imagelayer"/></g><g class="gridlayer"><g class="x"><path class="xgrid crisp" d="M0,100v627" transform="translate(434.74,0)" style="stroke: rgb(176, 176, 176); stroke-opacity: 1; stroke-width: 2px;"/><path class="xgrid crisp" d="M0,100v627" transform="translate(741.39,0)" style="stroke: rgb(176, 176, 176); stroke-opacity: 1; stroke-width: 2px;"/><path class="xgrid crisp" d="M0,100v627" transform="translate(1048.03,0)" style="stroke: rgb(176, 176, 176); stroke-opacity: 1; stroke-width: 2px;"/></g><g class="y"><path class="ygrid crisp" d="M80,0h970" transform="translate(0,695.88)" style="stroke: rgb(238, 238, 238); stroke-opacity: 1; stroke-width: 1px;"/><path class="ygrid crisp" d="M80,0h970" transform="translate(0,558.06)" style="stroke: rgb(238, 238, 238); stroke-opacity: 1; stroke-width: 1px;"/><path class="ygrid crisp" d="M80,0h970" transform="translate(0,420.25)" style="stroke: rgb(238, 238, 238); stroke-opacity: 1; stroke-width: 1px;"/><path class="ygrid crisp" d="M80,0h970" transform="translate(0,282.43)" style="stroke: rgb(238, 238, 238); stroke-opacity: 1; stroke-width: 1px;"/><path class="ygrid crisp" d="M80,0h970" transform="translate(0,144.62)" style="stroke: rgb(238, 238, 238); stroke-opacity: 1; stroke-width: 1px;"/></g></g><g class="zerolinelayer"/><path class="xlines-below"/><path class="ylines-below"/><g class="overlines-below"/><g class="xaxislayer-below"/><g class="yaxislayer-below"/><g class="overaxes-below"/><g class="plot" transform="translate(80, 100)" clip-path="url(#clipe49d94xyplot)"><g class="imagelayer"/><g class="maplayer"/><g class="barlayer"/><g class="carpetlayer"/><g class="violinlayer"/><g class="boxlayer"/><g class="scatterlayer"><g class="trace scatter tracee5de94" style="stroke-miterlimit: 2; opacity: 1;"><path class="js-line" d="M0.67,852.02L97.23,855.68L105.28,856.26L338.65,871.33L346.7,871.4L467.7,868.12L475.77,867.69L677.5,859.75L685.56,859.69L855.01,854.46L863.13,854.16L968,852.02" style="vector-effect: non-scaling-stroke; fill: none; stroke: rgb(0, 0, 0); stroke-opacity: 1; stroke-width: 2px; opacity: 1;"/><g class="points"/></g><g class="trace scatter tracead84aa" style="stroke-miterlimit: 2; opacity: 1;"><path class="js-line" d="M0.67,852.02L97.23,855.68L105.28,856.26L338.65,871.33L346.7,871.4L378.93,868.46L387,866.5L508.04,832.73L516.11,831.91L548.39,833.15L556.46,834.57L604.86,848.17L612.92,850.67L653.27,859.48L661.39,859.8L814.66,856.04L822.78,855.72L968,852.02" style="vector-effect: non-scaling-stroke; fill: none; stroke: rgb(0, 0, 0); stroke-opacity: 1; stroke-width: 2px; opacity: 1;"/><g class="points"/></g><g class="trace scatter traceb8449c" style="stroke-miterlimit: 2; opacity: 1;"><path class="js-line" d="M0.67,852.02L32.85,847.83L40.9,845.74L97.23,826.31L105.28,823.23L225.99,779.37L234.03,776.95L282.32,764.99L290.37,763.48L330.6,758.46L338.65,757.98L378.93,758.49L387,759.17L435.42,766.82L443.49,768.58L524.18,785.85L532.25,786.59L564.53,786.4L572.57,785.78L661.39,779.48L669.44,779.57L709.79,782.74L717.85,783.9L766.26,794.07L774.32,796.23L846.95,819.59L855.01,822.43L935.71,848.17L943.77,849.78L968,852.02" style="vector-effect: non-scaling-stroke; fill: none; stroke: rgb(0, 0, 0); stroke-opacity: 1; stroke-width: 2px; opacity: 1;"/><g class="points"/></g><g class="trace scatter tracebe6bb9" style="stroke-miterlimit: 2; opacity: 1;"><path class="js-line" d="M0.67,571.17L24.81,570.59L32.85,570.14L65.05,567.09L73.09,566.02L105.28,560.64L113.33,559.03L145.51,551.66L153.56,549.6L193.8,538.28L201.85,540.14L234.03,552.07L242.08,554.76L266.22,561.97L274.27,564.06L298.42,569.25L306.46,570.61L330.6,573.47L338.65,574.01L362.79,574.34L370.86,574.05L395.07,572.01L403.14,570.96L427.35,566.78L435.42,565.06L467.7,556.89L475.77,554.59L524.18,540.76L532.25,539.09L548.39,537.4L556.46,537.46L580.69,539.69L588.75,540.68L629.1,544.84L637.15,545.34L661.39,546.01L669.44,546.05L709.79,547.14L717.85,547.56L758.2,550.62L766.26,551.43L814.66,557.28L822.78,558.36L895.36,567.36L903.48,568.13L935.71,570.39L943.77,570.73L968,571.17" style="vector-effect: non-scaling-stroke; fill: none; stroke: rgb(0, 0, 0); stroke-opacity: 1; stroke-width: 2px; opacity: 1;"/><g class="points"/></g><g class="trace scatter trace9cd1f5" style="stroke-miterlimit: 2; opacity: 1;"><path class="js-line" d="M0.67,571.17L24.81,570.59L32.85,570.14L65.05,567.09L73.09,566.02L105.28,560.64L113.33,559.03L145.51,551.66L153.56,549.6L193.8,538.28L201.85,535.84L258.18,517.73L266.22,515.07L322.56,497.12L330.6,494.87L346.7,491.33L354.74,490.72L370.86,491.72L378.93,492.76L411.21,498.43L419.28,500.22L459.63,510.15L467.7,512.26L540.32,530.71L548.39,532.52L580.69,538.85L588.75,540.16L612.92,543.36L621.04,544.16L645.21,545.72L653.27,545.93L709.79,547.14L717.85,547.56L758.2,550.62L766.26,551.43L814.66,557.28L822.78,558.36L895.36,567.36L903.48,568.13L935.71,570.39L943.77,570.73L968,571.17" style="vector-effect: non-scaling-stroke; fill: none; stroke: rgb(0, 0, 0); stroke-opacity: 1; stroke-width: 2px; opacity: 1;"/><g class="points"/></g><g class="trace scatter traceeb9733" style="stroke-miterlimit: 2; opacity: 1;"><path class="js-line" d="M0.67,571.17L24.81,570.21L32.85,569.46L57,565.98L65.05,564.42L89.19,558.67L97.23,556.41L121.37,548.76L129.42,545.95L161.61,533.71L169.66,530.47L177.71,530.29L185.75,533.63L193.8,536.93L201.85,535.84L258.18,517.73L266.22,515.07L322.56,497.12L330.6,494.87L346.7,491.33L354.74,490.72L370.86,491.59L378.93,492.56L403.14,496.75L411.21,498.34L475.77,511.58L483.84,513.26L516.11,519.23L524.18,520.24L540.32,520.87L548.39,520.23L564.53,517.17L572.57,515.08L637.15,497.15L645.21,495.61L661.39,494.08L669.44,494.81L693.62,497.74L701.73,498.98L725.91,503.6L733.97,505.45L758.2,512L766.26,514.5L798.55,525.73L806.61,528.76L871.19,552.95L879.24,555.61L903.48,562.61L911.53,564.55L935.71,568.96L943.77,569.92L959.94,571.03L968,571.17" style="vector-effect: non-scaling-stroke; fill: none; stroke: rgb(0, 0, 0); stroke-opacity: 1; stroke-width: 2px; opacity: 1;"/><g class="points"/></g><g class="trace scatter trace79ba95" style="stroke-miterlimit: 2; opacity: 1;"><path class="js-line" d="M0.67,477.69L16.76,478.29L24.81,479.03L40.9,481.37L48.95,482.94L73.09,489.16L81.14,491.67L105.28,500.23L113.33,503.35L161.61,523.49L169.66,526.9L177.71,527.19L185.75,523.87L242.08,501.31L250.13,498.4L274.27,490.52L282.32,488.24L306.46,482.65L314.51,481.24L330.6,479.17L338.65,480.53L354.74,482.34L362.79,482.21L403.14,480.31L411.21,480.88L467.7,486.32L475.77,487.11L524.18,491.01L532.25,491.49L580.69,493.31L588.75,493.47L661.39,494.06L669.44,493.44L701.73,491.82L709.79,491.58L798.55,488.85L806.61,488.36L855.01,484.51L863.13,483.78L919.59,479.23L927.65,478.77L959.94,477.73L968,477.69" style="vector-effect: non-scaling-stroke; fill: none; stroke: rgb(0, 0, 0); stroke-opacity: 1; stroke-width: 2px; opacity: 1;"/><g class="points"/></g><g class="trace scatter traced40263" style="stroke-miterlimit: 2; opacity: 1;"><path class="js-line" d="M0.67,477.69L40.9,476.86L48.95,476.5L97.23,473.32L105.28,472.66L185.75,466.57L193.8,466.22L225.99,465.83L234.03,466.02L258.18,467.44L266.22,468.21L290.37,471.36L298.42,472.68L346.7,481.81L354.74,482.34L370.86,481.5L378.93,480.7L395.07,479.93L403.14,479.83L443.49,478.19L451.56,478.04L499.97,478.18L508.04,478.33L661.39,481.18L669.44,481.19L814.66,481.76L822.78,481.56L968,477.69" style="vector-effect: non-scaling-stroke; fill: none; stroke: rgb(0, 0, 0); stroke-opacity: 1; stroke-width: 2px; opacity: 1;"/><g class="points"/></g><g class="trace scatter tracee68200" style="stroke-miterlimit: 2; opacity: 1;"><path class="js-line" d="M0.67,477.69L40.9,476.86L48.95,476.5L97.23,473.32L105.28,472.66L185.75,466.57L193.8,466.22L225.99,465.83L234.03,466.02L258.18,467.44L266.22,468.21L290.37,471.36L298.42,472.68L330.6,478.95L338.65,478.51L362.79,478.03L370.86,478.16L387,478.33L395.07,477.78L475.77,468.49L483.84,467.93L516.11,466.79L524.18,466.81L548.39,467.63L556.46,468.16L588.75,471.51L596.81,472.62L653.27,480.88L661.39,481.18L733.97,481.95L742.08,482.06L798.55,482.06L806.61,481.92L871.19,479.93L879.24,479.64L943.77,477.86L951.88,477.76L968,477.69" style="vector-effect: non-scaling-stroke; fill: none; stroke: rgb(0, 0, 0); stroke-opacity: 1; stroke-width: 2px; opacity: 1;"/><g class="points"/></g><g class="trace scatter trace748558" style="stroke-miterlimit: 2; opacity: 1;"><path class="js-line" d="M0.67,394.56L65.05,395.38L73.09,395.58L201.85,399.84L209.89,400.09L298.42,402L306.46,402.09L378.93,402.15L387,402.01L508.04,399.72L516.11,399.85L669.44,402.19L677.5,402.03L709.79,400.41L717.85,399.77L742.08,397.94L750.14,397.81L951.88,394.57L959.94,394.56L968,394.56" style="vector-effect: non-scaling-stroke; fill: none; stroke: rgb(0, 0, 0); stroke-opacity: 1; stroke-width: 2px; opacity: 1;"/><g class="points"/></g><g class="trace scatter tracee7094e" style="stroke-miterlimit: 2; opacity: 1;"><path class="js-line" d="M0.67,394.56L201.85,394.63L209.89,394.86L346.7,399.36L354.74,399.38L580.69,398.91L588.75,398.85L782.43,397.18L790.49,397L911.53,394.79L919.59,394.73L968,394.56" style="vector-effect: non-scaling-stroke; fill: none; stroke: rgb(0, 0, 0); stroke-opacity: 1; stroke-width: 2px; opacity: 1;"/><g class="points"/></g><g class="trace scatter tracec998fa" style="stroke-miterlimit: 2; opacity: 1;"><path class="js-line" d="M0.67,394.56L201.85,394.63L209.89,394.86L346.7,399.36L354.74,399.38L419.28,398.69L427.35,398.47L532.25,395.1L540.32,395.46L612.92,398.07L621.04,398.22L685.56,398.52L693.62,398.47L742.08,397.45L750.14,396.56L774.32,394.46L782.43,394.47L968,394.56" style="vector-effect: non-scaling-stroke; fill: none; stroke: rgb(0, 0, 0); stroke-opacity: 1; stroke-width: 2px; opacity: 1;"/><g class="points"/></g><g class="trace scatter tracebb96e7" style="stroke-miterlimit: 2; opacity: 1;"><path class="js-line" d="M0.67,387.83L89.19,387.06L97.23,386.9L129.42,386.36L137.47,387.08L185.75,390.55L193.8,391L250.13,393.34L258.18,393.58L330.6,394.81L338.65,394.85L435.42,394.56L443.49,394.47L508.04,394.18L516.11,394.44L532.25,394.68L540.32,394.57L621.04,394.39L629.1,394.4L766.26,394.46L774.32,393.67L830.84,387.43L838.9,387.06L871.19,387.04L879.24,387.15L968,387.83" style="vector-effect: non-scaling-stroke; fill: none; stroke: rgb(0, 0, 0); stroke-opacity: 1; stroke-width: 2px; opacity: 1;"/><g class="points"/></g><g class="trace scatter trace5244d0" style="stroke-miterlimit: 2; opacity: 1;"><path class="js-line" d="M0.67,375.18L24.81,375.9L32.85,376.44L65.05,379.5L73.09,380.4L129.42,386.01L137.47,385.72L193.8,383.52L201.85,383.91L242.08,385.08L250.13,385.17L322.56,385.04L330.6,385.01L387,385.41L395.07,385.65L459.63,388.61L467.7,388.98L499.97,389.65L508.04,389.49L540.32,387.65L548.39,387L629.1,380.39L637.15,380.01L669.44,379.53L677.5,379.58L742.08,380.78L750.14,381.19L814.66,383.92L822.78,383.98L846.95,382.93L855.01,382.23L919.59,376.7L927.65,376.24L959.94,375.23L968,375.18" style="vector-effect: non-scaling-stroke; fill: none; stroke: rgb(0, 0, 0); stroke-opacity: 1; stroke-width: 2px; opacity: 1;"/><g class="points"/></g><g class="trace scatter tracee48357" style="stroke-miterlimit: 2; opacity: 1;"><path class="js-line" d="M0.67,375.18L57,376.07L65.05,376.33L121.37,379.08L129.42,379.57L217.94,384.53L225.99,384.77L274.27,385.25L282.32,385.23L419.28,385.37L427.35,385.45L491.9,385.36L499.97,385.19L556.46,382.91L564.53,382.5L629.1,379.91L637.15,379.74L685.56,379.65L693.62,379.74L814.66,380.82L822.78,380.68L871.19,378.92L879.24,378.51L951.88,375.33L959.94,375.22L968,375.18" style="vector-effect: non-scaling-stroke; fill: none; stroke: rgb(0, 0, 0); stroke-opacity: 1; stroke-width: 2px; opacity: 1;"/><g class="points"/></g><g class="trace scatter tracedca314" style="stroke-miterlimit: 2; opacity: 1;"><path class="js-line" d="M0.67,375.18L57,376.07L65.05,376.33L121.37,379.08L129.42,379.57L185.75,383.1L193.8,382.76L242.08,378.55L250.13,377.7L322.56,370.05L330.6,369.52L354.74,368.81L362.79,368.84L403.14,369.91L411.21,370.27L548.39,376.81L556.46,377.03L637.15,378.19L645.21,378.22L701.73,378.98L709.79,379.28L758.2,380.79L766.26,380.88L814.66,380.82L822.78,380.68L871.19,378.92L879.24,378.51L951.88,375.33L959.94,375.22L968,375.18" style="vector-effect: non-scaling-stroke; fill: none; stroke: rgb(0, 0, 0); stroke-opacity: 1; stroke-width: 2px; opacity: 1;"/><g class="points"/></g><g class="trace scatter trace53fcf9" style="stroke-miterlimit: 2; opacity: 1;"><path class="js-line" d="M0.67,290.23L24.81,289.66L32.85,289.21L65.05,286.2L73.09,285.16L113.33,279.27L121.37,278.69L145.51,277.94L153.56,278.04L177.71,279.37L185.75,280.13L217.94,284.46L225.99,285.77L298.42,297.34L306.46,298.27L330.6,300.26L338.65,300.65L362.79,300.86L370.86,300.6L395.07,298.84L403.14,297.97L443.49,292.35L451.56,291.09L524.18,280.3L532.25,279.24L588.75,272.83L596.81,272.08L637.15,269.32L645.21,269.04L701.73,268.57L709.79,268.51L758.2,268.87L766.26,269.16L798.55,271.24L806.61,272L846.95,277.04L855.01,278.23L919.59,287.38L927.65,288.21L951.88,289.9L959.94,290.14L968,290.23" style="vector-effect: non-scaling-stroke; fill: none; stroke: rgb(0, 0, 0); stroke-opacity: 1; stroke-width: 2px; opacity: 1;"/><g class="points"/></g><g class="trace scatter trace83ec07" style="stroke-miterlimit: 2; opacity: 1;"><path class="js-line" d="M0.67,290.23L24.81,289.33L32.85,288.66L65.05,284.87L73.09,283.8L113.33,278.35L121.37,276.7L161.61,267.36L169.66,265.31L274.27,238.37L282.32,236.69L306.46,232.48L314.51,231.39L338.65,229.24L346.7,228.93L370.86,229.13L378.93,229.51L403.14,231.51L411.21,232.45L443.49,237.28L451.56,238.72L508.04,249.91L516.11,251.53L564.53,260.44L572.57,261.7L604.86,265.83L612.92,266.6L645.21,268.57L653.27,268.75L709.79,268.51L717.85,268.45L758.2,268.87L766.26,269.16L798.55,271.24L806.61,272L846.95,277.04L855.01,278.23L919.59,287.38L927.65,288.21L951.88,289.9L959.94,290.14L968,290.23" style="vector-effect: non-scaling-stroke; fill: none; stroke: rgb(0, 0, 0); stroke-opacity: 1; stroke-width: 2px; opacity: 1;"/><g class="points"/></g><g class="trace scatter trace6008a1" style="stroke-miterlimit: 2; opacity: 1;"><path class="js-line" d="M0.67,107.93L24.81,108.82L32.85,109.51L57,112.78L65.05,114.26L89.19,119.89L97.23,122.15L121.37,130.01L129.42,132.98L153.56,142.83L161.61,146.4L193.8,161.79L201.85,165.84L266.22,198.01L274.27,201.62L298.42,211.14L306.46,213.77L322.56,217.98L330.6,219.51L346.7,221.31L354.74,221.53L378.93,220.59L387,219.87L411.21,216.61L419.28,215.2L451.56,208.46L459.63,206.66L483.84,201.71L491.9,200.4L508.04,198.62L516.11,198.15L540.32,198.07L548.39,198.3L621.04,200.29L629.1,200.37L677.5,200.26L685.56,199.99L717.85,197.68L725.91,196.77L750.14,193.18L758.2,191.67L782.43,186.03L790.49,183.72L806.61,178.27L814.66,175.07L830.84,167.52L838.9,163.1L855.01,152.93L863.13,147.29L887.3,130L895.36,124.99L911.53,117.22L919.59,114.44L935.71,110.63L943.77,109.4L959.94,108.08L968,107.93" style="vector-effect: non-scaling-stroke; fill: none; stroke: rgb(0, 0, 0); stroke-opacity: 1; stroke-width: 2px; opacity: 1;"/><g class="points"/></g><g class="trace scatter trace0e45bc" style="stroke-miterlimit: 2; opacity: 1;"><path class="js-line" d="M0.67,107.93L24.81,108.71L32.85,109.33L57,112.13L65.05,113.36L97.23,119.45L105.28,121.19L201.85,142.62L209.89,144.1L242.08,149.15L250.13,150.2L282.32,153.5L290.37,154.12L330.6,156.07L338.65,156.24L378.93,157.31L387,158.03L411.21,161.12L419.28,162.38L467.7,170.04L475.77,170.88L491.9,171.69L499.97,171.55L516.11,170.06L524.18,168.77L548.39,163.46L556.46,161.4L629.1,142.83L637.15,141.22L653.27,139.06L661.39,138.76L693.62,138.09L701.73,137.72L733.97,135.38L742.08,134.59L782.43,129.55L790.49,128.36L895.36,112.45L903.48,111.54L935.71,108.86L943.77,108.45L968,107.93" style="vector-effect: non-scaling-stroke; fill: none; stroke: rgb(0, 0, 0); stroke-opacity: 1; stroke-width: 2px; opacity: 1;"/><g class="points"/></g><g class="trace scatter trace72170f" style="stroke-miterlimit: 2; opacity: 1;"><path class="js-line" d="M0.67,107.93L24.81,108.71L32.85,109.33L57,112.13L65.05,113.36L97.23,119.45L105.28,121.19L201.85,142.62L209.89,144.1L242.08,149.15L250.13,150.2L282.32,153.5L290.37,154.12L330.6,156.07L338.65,156.24L378.93,156.22L387,156.09L435.42,154.42L443.49,153.98L491.9,150.39L499.97,149.67L604.86,140.54L612.92,140.08L653.27,138.8L661.39,138.76L693.62,138.09L701.73,137.72L733.97,135.38L742.08,134.59L782.43,129.55L790.49,128.36L895.36,112.45L903.48,111.54L935.71,108.86L943.77,108.45L968,107.93" style="vector-effect: non-scaling-stroke; fill: none; stroke: rgb(0, 0, 0); stroke-opacity: 1; stroke-width: 2px; opacity: 1;"/><g class="points"/></g><g class="trace scatter trace9708fb" style="stroke-miterlimit: 2; opacity: 1;"><path class="js-line" d="M0.67,-7.65L8.71,-5.87L16.76,-0.81L24.81,6.86L32.85,16.3L73.09,69.22L81.14,78.26L89.19,86.29L97.23,93.21L105.28,98.98L113.33,103.57L121.37,107L129.42,109.32L137.47,110.58L145.51,110.85L153.56,110.21L161.61,108.74L177.71,103.67L185.75,100.23L201.85,91.93L209.89,87.22L234.03,71.54L242.08,65.97L306.46,20.42L314.51,15.29L330.6,6.45L338.65,3.18L346.7,1.05L354.74,0.3L378.93,1.27L387,2L411.21,5.21L419.28,6.6L443.49,11.79L451.56,13.89L475.77,21.41L483.84,24.33L508.04,34.41L516.11,38.18L540.32,50.73L548.39,55.27L612.92,92.5L621.04,96.33L637.15,102.61L645.21,104.83L653.27,106.24L661.39,106.73L742.08,107.27L750.14,107.42L782.43,107.4L790.49,107.11L814.66,105.17L822.78,104.09L838.9,101.12L846.95,99.14L863.13,93.81L871.19,90.14L879.24,85.53L887.3,79.69L895.36,72.43L903.48,63.69L919.59,42.53L927.65,30.96L943.77,8.97L951.88,0.27L959.94,-5.58L968,-7.65" style="vector-effect: non-scaling-stroke; fill: none; stroke: rgb(0, 0, 0); stroke-opacity: 1; stroke-width: 2px; opacity: 1;"/><g class="points"/></g><g class="trace scatter trace1e7a34" style="stroke-miterlimit: 2; opacity: 1;"><path class="js-line" d="M0.67,-7.65L32.85,-8.52L40.9,-8.99L81.14,-12.73L89.19,-13.73L129.42,-19.71L137.47,-21.11L185.75,-30.82L193.8,-32.65L298.42,-56.73L306.46,-58L338.65,-61.29L346.7,-59.38L370.86,-58.72L378.93,-58.3L403.14,-54.64L411.21,-52.91L491.9,-34.07L499.97,-32.66L548.39,-25.78L556.46,-24.76L612.92,-18.57L621.04,-17.95L653.27,-16.54L661.39,-16.47L677.5,-17.27L685.56,-18.27L701.73,-21.53L709.79,-23.81L725.91,-29.7L733.97,-33.3L758.2,-46.59L766.26,-51.76L806.61,-78.72L814.66,-72.71L846.95,-49.94L855.01,-44.79L879.24,-31.05L887.3,-27.09L903.48,-20.22L911.53,-17.31L927.65,-12.61L935.71,-10.83L951.88,-8.45L959.94,-7.85L968,-7.65" style="vector-effect: non-scaling-stroke; fill: none; stroke: rgb(0, 0, 0); stroke-opacity: 1; stroke-width: 2px; opacity: 1;"/><g class="points"/></g><g class="trace scatter trace3e3559" style="stroke-miterlimit: 2; opacity: 1;"><path class="js-line" d="M0.67,-7.65L32.85,-8.52L40.9,-8.99L81.14,-12.73L89.19,-13.73L129.42,-19.71L137.47,-21.11L185.75,-30.82L193.8,-32.65L298.42,-56.73L306.46,-58L338.65,-61.29L346.7,-61.61L387,-63.31L395.07,-64.18L435.42,-71.01L443.49,-72.76L572.57,-100.42L580.69,-101.72L629.1,-107.57L637.15,-108.12L742.08,-112.87L750.14,-111.51L766.26,-105.65L774.32,-101.26L798.55,-84.71L806.61,-78.72L846.95,-49.94L855.01,-44.79L879.24,-31.05L887.3,-27.09L903.48,-20.22L911.53,-17.31L927.65,-12.61L935.71,-10.83L951.88,-8.45L959.94,-7.85L968,-7.65" style="vector-effect: non-scaling-stroke; fill: none; stroke: rgb(0, 0, 0); stroke-opacity: 1; stroke-width: 2px; opacity: 1;"/><g class="points"/></g><g class="trace scatter trace2968ad" style="stroke-miterlimit: 2; opacity: 1;"><path class="js-line" d="M0.67,-124.34L16.76,-128.36L24.81,-132.59L65.05,-154.35L73.09,-156.92L97.23,-159.94L105.28,-159.53L129.42,-154.98L137.47,-152.59L177.71,-137L185.75,-133.52L282.32,-89.98L290.37,-85.67L330.6,-64.41L338.65,-61.38L378.93,-63.3L387,-65.11L411.21,-73.78L419.28,-77.54L451.56,-95.66L459.63,-100.75L508.04,-130.47L516.11,-133.94L532.25,-137.41L540.32,-137.15L564.53,-130.73L572.57,-127.76L612.92,-114.68L621.04,-112.89L653.27,-109.01L661.39,-108.85L701.73,-111.15L709.79,-111.95L742.08,-112.87L750.14,-111.51L766.26,-105.65L774.32,-101.26L806.61,-81.54L814.66,-87.97L863.13,-124.98L871.19,-130.07L895.36,-140.87L903.48,-142.43L919.59,-141.65L927.65,-139.34L959.94,-125.4L968,-124.34" style="vector-effect: non-scaling-stroke; fill: none; stroke: rgb(0, 0, 0); stroke-opacity: 1; stroke-width: 2px; opacity: 1;"/><g class="points"/></g><g class="trace scatter trace3487d0" style="stroke-miterlimit: 2; opacity: 1;"><path class="js-line" d="M0.67,-309.59L32.85,-305.77L40.9,-303.67L97.23,-283L105.28,-278.2L169.66,-216.36L177.71,-208.42L234.03,-156.42L242.08,-149.87L274.27,-126.96L282.32,-122.19L306.46,-110.54L314.51,-107.62L338.65,-101.95L346.7,-101.13L378.93,-101.66L387,-102.29L427.35,-108.17L435.42,-109.91L475.77,-121.82L483.84,-124.89L524.18,-143.91L532.25,-148.43L580.69,-179.52L588.75,-185.22L653.27,-228.02L661.39,-229.37L677.5,-224.04L685.56,-218.74L742.08,-177.45L750.14,-174.29L766.26,-172.43L774.32,-173.71L798.55,-184.36L806.61,-189.62L838.9,-216.55L846.95,-224.43L919.59,-295.27L927.65,-300.22L951.88,-308.32L959.94,-309.29L968,-309.59" style="vector-effect: non-scaling-stroke; fill: none; stroke: rgb(0, 0, 0); stroke-opacity: 1; stroke-width: 2px; opacity: 1;"/><g class="points"/></g><g class="trace scatter tracea19173" style="stroke-miterlimit: 2; opacity: 1;"><path class="js-line" d="M0.67,-309.59L32.85,-305.77L40.9,-303.67L97.23,-283L105.28,-280.1L153.56,-262.41L161.61,-256.25L266.22,-173.41L274.27,-168.74L298.42,-157.84L306.46,-155.25L338.65,-149.39L346.7,-148.88L378.93,-150.21L387,-151.35L427.35,-161.28L435.42,-163.98L491.9,-182.8L499.97,-183.75L540.32,-187.77L548.39,-191.01L612.92,-224.82L621.04,-226.71L661.39,-229.37L669.44,-227.9L693.62,-212.67L701.73,-206.22L733.97,-181.88L742.08,-177.45L758.2,-172.59L766.26,-172.43L782.43,-176.25L790.49,-179.86L814.66,-195.54L822.78,-202.05L863.13,-241.06L871.19,-249.63L919.59,-295.27L927.65,-300.22L951.88,-308.32L959.94,-309.29L968,-309.59" style="vector-effect: non-scaling-stroke; fill: none; stroke: rgb(0, 0, 0); stroke-opacity: 1; stroke-width: 2px; opacity: 1;"/><g class="points"/></g><g class="trace scatter tracebecc41" style="stroke-miterlimit: 2; opacity: 1;"><path class="js-line" d="M0.67,-309.59L65.05,-309.29L73.09,-303.89L113.33,-277.43L121.37,-275.05L161.61,-268.35L169.66,-268.18L201.85,-271.67L209.89,-273.65L242.08,-286.4L250.13,-290.86L274.27,-305.39L282.32,-305.77L362.79,-307.04L370.86,-304.34L395.07,-289.02L403.14,-282.64L467.7,-233.97L475.77,-229.87L491.9,-224.86L499.97,-224.36L524.18,-229.61L532.25,-232.37L572.57,-242.3L580.69,-243.39L621.04,-252.17L629.1,-254.74L661.39,-260.41L669.44,-261.61L701.73,-277.21L709.79,-281.38L758.2,-300.89L766.26,-303.22L822.78,-314.09L830.84,-315.07L911.53,-320.77L919.59,-317.24L951.88,-310.19L959.94,-309.74L968,-309.59" style="vector-effect: non-scaling-stroke; fill: none; stroke: rgb(0, 0, 0); stroke-opacity: 1; stroke-width: 2px; opacity: 1;"/><g class="points"/></g><g class="trace scatter trace996fa1" style="stroke-miterlimit: 2; opacity: 1;"><path class="js-line" d="M0.67,-331.27L32.85,-325.49L40.9,-322.34L121.37,-284.64L129.42,-279.46L145.51,-269.9L153.56,-268.93L185.75,-269.07L193.8,-270.15L225.99,-279.03L234.03,-282.46L266.22,-301.34L274.27,-307.34L346.7,-363.97L354.74,-365.17L387,-358.95L395.07,-356.09L483.84,-316.87L491.9,-313.27L540.32,-295.34L548.39,-293.47L588.75,-289.96L596.81,-290.17L604.86,-290.62L612.92,-286.66L653.27,-261.76L661.39,-260.41L677.5,-264.64L685.56,-268.61L750.14,-298.34L758.2,-300.89L814.66,-313.04L822.78,-314.09L968,-331.27" style="vector-effect: non-scaling-stroke; fill: none; stroke: rgb(0, 0, 0); stroke-opacity: 1; stroke-width: 2px; opacity: 1;"/><g class="points"/></g><g class="trace scatter tracee159ec" style="stroke-miterlimit: 2; opacity: 1;"><path class="js-line" d="M0.67,-331.27L32.85,-326.24L40.9,-323.69L81.14,-310.27L89.19,-309.89L250.13,-304.34L258.18,-304.64L274.27,-307.34L282.32,-313.72L346.7,-363.97L354.74,-365.17L419.28,-359.47L427.35,-358.65L508.04,-346.72L516.11,-343.79L556.46,-324.22L564.53,-319.42L612.92,-291.27L621.04,-292.12L693.62,-301.57L701.73,-304.79L742.08,-329.24L750.14,-335.32L806.61,-374.62L814.66,-375.97L838.9,-368.25L846.95,-363.45L911.53,-322.64L919.59,-323.84L968,-331.27" style="vector-effect: non-scaling-stroke; fill: none; stroke: rgb(0, 0, 0); stroke-opacity: 1; stroke-width: 2px; opacity: 1;"/><g class="points"/></g><g class="trace scatter trace7bb47f" style="stroke-miterlimit: 2; opacity: 1;"><path class="js-line" d="M0.67,-435.3L65.05,-430.2L73.09,-428.55L145.51,-405.9L153.56,-403.27L225.99,-385.65L234.03,-384.45L314.51,-378L322.56,-377.7L499.97,-376.95L508.04,-378.75L564.53,-398.92L572.57,-402.45L645.21,-428.32L653.27,-429.3L742.08,-428.85L750.14,-425.77L806.61,-406.72L814.66,-407.25L846.95,-421.27L855.01,-425.25L895.36,-437.55L903.48,-438.22L968,-435.3" style="vector-effect: non-scaling-stroke; fill: none; stroke: rgb(0, 0, 0); stroke-opacity: 1; stroke-width: 2px; opacity: 1;"/><g class="points"/></g><g class="trace scatter trace463c5e" style="stroke-miterlimit: 2; opacity: 1;"><path class="js-line" d="M0.67,-435.3L65.05,-430.2L73.09,-428.55L145.51,-405.9L153.56,-403.27L225.99,-385.65L234.03,-384.45L314.51,-378L322.56,-377.7L370.86,-380.1L378.93,-383.47L491.9,-438.67L499.97,-440.7L556.46,-447.6L564.53,-447.67L612.92,-441.67L621.04,-439.5L669.44,-429.67L677.5,-429.67L798.55,-435.22L806.61,-436.2L895.36,-442.95L903.48,-442.27L968,-435.3" style="vector-effect: non-scaling-stroke; fill: none; stroke: rgb(0, 0, 0); stroke-opacity: 1; stroke-width: 2px; opacity: 1;"/><g class="points"/></g><g class="trace scatter tracec641ec" style="stroke-miterlimit: 2; opacity: 1;"><path class="js-line" d="M0.67,-435.3L24.81,-440.85L32.85,-444.97L73.09,-475.5L81.14,-482.55L121.37,-515.33L129.42,-513.9L234.03,-486.22L242.08,-483.6L322.56,-463.27L330.6,-462.37L387,-463.8L395.07,-464.77L556.46,-483.9L564.53,-483.15L596.81,-474.37L604.86,-469.95L645.21,-451.27L653.27,-450.07L701.73,-442.8L709.79,-440.32L750.14,-431.02L758.2,-431.47L911.53,-441.37L919.59,-440.32L968,-435.3" style="vector-effect: non-scaling-stroke; fill: none; stroke: rgb(0, 0, 0); stroke-opacity: 1; stroke-width: 2px; opacity: 1;"/><g class="points"/></g><g class="trace scatter trace6b5290" style="stroke-miterlimit: 2; opacity: 1;"><path class="js-line" d="M0.67,-559.13L32.85,-549.3L40.9,-545.1L97.23,-521.33L105.28,-519.23L129.42,-520.73L137.47,-525.6L185.75,-544.95L193.8,-546.75L266.22,-552.83L274.27,-552.83L306.46,-514.35L314.51,-504.75L346.7,-478.35L354.74,-476.92L387,-483.45L395.07,-486.9L451.56,-513.53L459.63,-513.53L612.92,-494.18L621.04,-493.05L677.5,-491.4L685.56,-492.9L814.66,-521.03L822.78,-521.4L895.36,-530.85L903.48,-533.85L968,-559.13" style="vector-effect: non-scaling-stroke; fill: none; stroke: rgb(0, 0, 0); stroke-opacity: 1; stroke-width: 2px; opacity: 1;"/><g class="points"/></g><g class="trace scatter traceb62331" style="stroke-miterlimit: 2; opacity: 1;"><path class="js-line" d="M0.67,-639.83L57,-630.31L65.05,-629.03L105.28,-633.68L113.33,-636.98L145.51,-645.53L153.56,-644.93L209.89,-632.48L217.94,-624.46L282.32,-545.33L290.37,-534.83L338.65,-482.25L346.7,-478.35L370.86,-479.1L378.93,-481.8L443.49,-516.83L451.56,-522.6L499.97,-548.18L508.04,-548.18L564.53,-533.48L572.57,-531.08L621.04,-510.38L629.1,-509.78L693.62,-513.98L701.73,-516.53L750.14,-541.8L758.2,-547.28L863.13,-614.93L871.19,-617.78L959.94,-639.61L968,-639.83" style="vector-effect: non-scaling-stroke; fill: none; stroke: rgb(0, 0, 0); stroke-opacity: 1; stroke-width: 2px; opacity: 1;"/><g class="points"/></g><g class="trace scatter trace6e6824" style="stroke-miterlimit: 2; opacity: 1;"><path class="js-line" d="M0.67,-639.83L57,-630.31L65.05,-629.03L105.28,-633.68L113.33,-636.98L169.66,-656.71L177.71,-654.76L209.89,-632.48L217.94,-624.46L282.32,-552.75L290.37,-552.68L435.42,-556.8L443.49,-560.63L483.84,-579.53L491.9,-578.1L524.18,-582.98L532.25,-574.5L580.69,-528.6L588.75,-526.05L661.39,-509.33L669.44,-509.63L709.79,-519.6L717.85,-523.2L774.32,-558.98L782.43,-564.98L855.01,-611.63L863.13,-614.93L951.88,-638.86L959.94,-639.61L968,-639.83" style="vector-effect: non-scaling-stroke; fill: none; stroke: rgb(0, 0, 0); stroke-opacity: 1; stroke-width: 2px; opacity: 1;"/><g class="points"/></g><g class="trace scatter traceccc801" style="stroke-miterlimit: 2; opacity: 1;"><path class="js-line" d="M0.67,-639.83L137.47,-648.91L145.51,-652.51L169.66,-656.71L177.71,-654.76L225.99,-636.68L234.03,-635.71L411.21,-615.23L419.28,-611.48L475.77,-582.45L483.84,-588.53L508.04,-598.35L516.11,-591.23L532.25,-593.18L540.32,-597.98L621.04,-636.31L629.1,-638.33L685.56,-641.93L693.62,-641.93L968,-639.83" style="vector-effect: non-scaling-stroke; fill: none; stroke: rgb(0, 0, 0); stroke-opacity: 1; stroke-width: 2px; opacity: 1;"/><g class="points"/></g><g class="trace scatter traceaa6b28" style="stroke-miterlimit: 2; opacity: 1;"><path class="js-line" d="M0.67,-733.88L40.9,-723.83L48.95,-719.78L169.66,-658.28L177.71,-656.48L234.03,-653.63L242.08,-654.31L387,-665.11L395.07,-663.83L451.56,-645.46L459.63,-641.03L508.04,-610.95L516.11,-616.43L612.92,-696.38L621.04,-696.91L871.19,-722.93L879.24,-724.28L968,-733.88" style="vector-effect: non-scaling-stroke; fill: none; stroke: rgb(0, 0, 0); stroke-opacity: 1; stroke-width: 2px; opacity: 1;"/><g class="points"/></g><g class="trace scatter traceda4967" style="stroke-miterlimit: 2; opacity: 1;"><path class="js-line" d="M0.67,-733.88L57,-742.96L65.05,-745.21L113.33,-749.93L121.37,-745.28L177.71,-724.36L185.75,-723.31L234.03,-727.96L242.08,-730.51L298.42,-746.11L306.46,-745.73L435.42,-732.46L443.49,-731.18L540.32,-708.53L548.39,-705.91L604.86,-696.16L612.92,-697.13L709.79,-700.73L717.85,-701.26L855.01,-720.23L863.13,-721.58L968,-733.88" style="vector-effect: non-scaling-stroke; fill: none; stroke: rgb(0, 0, 0); stroke-opacity: 1; stroke-width: 2px; opacity: 1;"/><g class="points"/></g></g></g><g class="overplot"/><path class="xlines-above crisp" d="M79,727.5H1051M79,99.5H1051" style="fill: none; stroke-width: 1px; stroke: rgb(68, 68, 68); stroke-opacity: 1;"/><path class="ylines-above crisp" d="M79.5,100V727M1050.5,100V727" style="fill: none; stroke-width: 1px; stroke: rgb(68, 68, 68); stroke-opacity: 1;"/><g class="overlines-above"/><g class="xaxislayer-above"><g class="xtick"><text text-anchor="middle" x="0" y="748.4" transform="translate(80.67,0)" style="font-family: 'Open Sans', verdana, arial, sans-serif; font-size: 17px; fill: rgb(68, 68, 68); fill-opacity: 1; white-space: pre;">Γ</text></g><g class="xtick"><text text-anchor="middle" x="0" y="748.4" transform="translate(434.74,0)" style="font-family: 'Open Sans', verdana, arial, sans-serif; font-size: 17px; fill: rgb(68, 68, 68); fill-opacity: 1; white-space: pre;">X</text></g><g class="xtick"><text text-anchor="middle" x="0" y="748.4" transform="translate(741.39,0)" style="font-family: 'Open Sans', verdana, arial, sans-serif; font-size: 17px; fill: rgb(68, 68, 68); fill-opacity: 1; white-space: pre;">L</text></g><g class="xtick"><text text-anchor="middle" x="0" y="748.4" transform="translate(1048.03,0)" style="font-family: 'Open Sans', verdana, arial, sans-serif; font-size: 17px; fill: rgb(68, 68, 68); fill-opacity: 1; white-space: pre;">Γ</text></g></g><g class="yaxislayer-above"><g class="ytick"><text text-anchor="end" x="75.6" y="5.949999999999999" transform="translate(0,695.88)" style="font-family: 'Open Sans', verdana, arial, sans-serif; font-size: 17px; fill: rgb(68, 68, 68); fill-opacity: 1; white-space: pre;">−5</text></g><g class="ytick"><text text-anchor="end" x="75.6" y="5.949999999999999" transform="translate(0,558.06)" style="font-family: 'Open Sans', verdana, arial, sans-serif; font-size: 17px; fill: rgb(68, 68, 68); fill-opacity: 1; white-space: pre;">0</text></g><g class="ytick"><text text-anchor="end" x="75.6" y="5.949999999999999" transform="translate(0,420.25)" style="font-family: 'Open Sans', verdana, arial, sans-serif; font-size: 17px; fill: rgb(68, 68, 68); fill-opacity: 1; white-space: pre;">5</text></g><g class="ytick"><text text-anchor="end" x="75.6" y="5.949999999999999" transform="translate(0,282.43)" style="font-family: 'Open Sans', verdana, arial, sans-serif; font-size: 17px; fill: rgb(68, 68, 68); fill-opacity: 1; white-space: pre;">10</text></g><g class="ytick"><text text-anchor="end" x="75.6" y="5.949999999999999" transform="translate(0,144.62)" style="font-family: 'Open Sans', verdana, arial, sans-serif; font-size: 17px; fill: rgb(68, 68, 68); fill-opacity: 1; white-space: pre;">15</text></g></g><g class="overaxes-above"/></g></g><g class="polarlayer"/><g class="ternarylayer"/><g class="geolayer"/><g class="pielayer"/><g class="glimages"/><defs id="topdefs-e49d94"><g class="clips"/></defs><g class="layer-above"><g class="imagelayer"/><g class="shapelayer"><path data-index="0" fill-rule="evenodd" d="M79.67,558.06L1049,558.06" clip-path="url(#clipe49d94xy)" style="opacity: 1; stroke: rgb(255, 0, 0); stroke-opacity: 1; fill: rgb(0, 0, 0); fill-opacity: 0; stroke-width: 2px;"/></g></g><g class="infolayer"><g class="g-gtitle"><text class="gtitle" x="565" y="50" text-anchor="middle" style="font-family: 'Open Sans', verdana, arial, sans-serif; font-size: 24px; fill: rgb(68, 68, 68); opacity: 1; font-weight: normal; white-space: pre;">BAND STRUCTURE SVWN</text></g><g class="g-xtitle"><text class="xtitle" x="565" y="797" text-anchor="middle" style="font-family: 'Open Sans', verdana, arial, sans-serif; font-size: 20px; fill: rgb(68, 68, 68); opacity: 1; font-weight: normal; white-space: pre;">k-points</text></g><g class="g-ytitle"><text class="ytitle" transform="rotate(-90,30,413.5)" x="30" y="413.5" text-anchor="middle" style="font-family: 'Open Sans', verdana, arial, sans-serif; font-size: 20px; fill: rgb(68, 68, 68); opacity: 1; font-weight: normal; white-space: pre;">E-EFERMI (eV)</text></g></g></svg>