<svg class="main-svg" xmlns="http://www.w3.org/2000/svg" xmlns:xlink="http://www.w3.org/1999/xlink" width="1130" height="807" style="" viewBox="0 0 1130 807"><rect x="0" y="0" width="1130" height="807" style="fill: rgb(238, 238, 238); fill-opacity: 1;"/><defs id="defs-e7687b"><g class="clips"><clipPath class="plotclip" id="clipe7687bxyplot"><rect width="970" height="627"/></clipPath><clipPath class="axesclip" id="clipe7687bx"><rect x="80" y="0" width="970" height="807"/></clipPath><clipPath class="axesclip" id="clipe7687by"><rect x="0" y="100" width="1130" height="627"/></clipPath><clipPath class="axesclip" id="clipe7687bxy"><rect x="80" y="100" width="970" height="627"/></clipPath></g><g class="gradients"/></defs><g class="bglayer"><rect class="bg" x="80" y="100" width="970" height="627" style="fill: rgb(255, 255, 255); fill-opacity: 1; stroke-width: 0;"/></g><g class="layer-below"><g class="imagelayer"/><g class="shapelayer"/></g><g class="cartesianlayer"><g class="subplot xy"><g class="layer-subplot"><g class="shapelayer"/><g class="imagelayer"/></g><g class="gridlayer"><g class="x"><path class="xgrid crisp" d="M0,100v627" transform="translate(435.38,0)" style="stroke: rgb(176, 176, 176); stroke-opacity: 1; stroke-width: 2px;"/><path class="xgrid crisp" d="M0,100v627" transform="translate(741.71,0)" style="stroke: rgb(176, 176, 176); stroke-opacity: 1; stroke-width: 2px;"/><path class="xgrid crisp" d="M0,100v627" transform="translate(1048.04,0)" style="stroke: rgb(176, 176, 176); stroke-opacity: 1; stroke-width: 2px;"/></g><g class="y"><path class="ygrid crisp" d="M80,0h970" transform="translate(0,665.83)" style="stroke: rgb(238, 238, 238); stroke-opacity: 1; stroke-width: 1px;"/><path class="ygrid crisp" d="M80,0h970" transform="translate(0,534.27)" style="stroke: rgb(238, 238, 238); stroke-opacity: 1; stroke-width: 1px;"/><path class="ygrid crisp" d="M80,0h970" transform="translate(0,402.72)" style="stroke: rgb(238, 238, 238); stroke-opacity: 1; stroke-width: 1px;"/><path class="ygrid crisp" d="M80,0h970" transform="translate(0,271.15999999999997)" style="stroke: rgb(238, 238, 238); stroke-opacity: 1; stroke-width: 1px;"/><path class="ygrid crisp" d="M80,0h970" transform="translate(0,139.61)" style="stroke: rgb(238, 238, 238); stroke-opacity: 1; stroke-width: 1px;"/></g></g><g class="zerolinelayer"><path class="xzl zl crisp" d="M0,100v627" transform="translate(81.67,0)" style="stroke: rgb(68, 68, 68); stroke-opacity: 1; stroke-width: 1px;"/></g><path class="xlines-below"/><path class="ylines-below"/><g class="overlines-below"/><g class="xaxislayer-below"/><g class="yaxislayer-below"/><g class="overaxes-below"/><g class="plot" transform="translate(80, 100)" clip-path="url(#clipe7687bxyplot)"><g class="imagelayer"/><g class="maplayer"/><g class="barlayer"/><g class="carpetlayer"/><g class="violinlayer"/><g class="boxlayer"/><g class="scatterlayer"><g class="trace scatter trace6ea19f" style="stroke-miterlimit: 2; opacity: 1;"><path class="js-line" d="M1.67,861.28L106.17,865.24L114.21,865.8L339.31,879.45L347.34,879.51L468.21,876.43L476.28,876.02L685.84,868.53L693.91,868.44L887.43,862.52L895.49,862.3L968,861.28" style="vector-effect: non-scaling-stroke; fill: none; stroke: rgb(0, 0, 0); stroke-opacity: 1; stroke-width: 2px; opacity: 1;"/><g class="points"/></g><g class="trace scatter tracec40897" style="stroke-miterlimit: 2; opacity: 1;"><path class="js-line" d="M1.67,861.28L106.17,865.24L114.21,865.8L339.31,879.45L347.34,879.51L379.54,876.68L387.6,874.77L508.52,841.62L516.58,840.85L548.83,842.24L556.89,843.67L613.33,859.67L621.39,862.01L653.65,868.32L661.71,868.64L822.92,864.76L830.98,864.46L968,861.28" style="vector-effect: non-scaling-stroke; fill: none; stroke: rgb(0, 0, 0); stroke-opacity: 1; stroke-width: 2px; opacity: 1;"/><g class="points"/></g><g class="trace scatter trace53d5e0" style="stroke-miterlimit: 2; opacity: 1;"><path class="js-line" d="M1.67,861.28L33.82,857.22L41.86,855.18L98.13,836.05L106.17,833.01L226.76,789.49L234.8,787.1L283.03,775.28L291.07,773.79L331.26,768.85L339.31,768.39L379.54,768.88L387.6,769.54L435.97,776.99L444.03,778.71L524.65,795.38L532.7,796.05L573.01,795.09L581.08,794.35L661.71,788.87L669.77,788.96L718.1,793.33L726.16,794.66L782.6,808.02L790.67,810.41L895.49,846L903.5,848.63L951.87,860.28L959.94,861.03L968,861.28" style="vector-effect: non-scaling-stroke; fill: none; stroke: rgb(0, 0, 0); stroke-opacity: 1; stroke-width: 2px; opacity: 1;"/><g class="points"/></g><g class="trace scatter trace186c50" style="stroke-miterlimit: 2; opacity: 1;"><path class="js-line" d="M1.67,556.33L25.78,555.73L33.82,555.27L57.94,553.11L65.98,552.14L98.13,547.06L106.17,545.5L138.33,538.26L146.37,536.21L178.53,527.2L186.56,524.75L194.6,522.26L202.64,521.12L234.8,533.83L242.84,536.68L266.95,544.31L274.99,546.52L299.11,552L307.15,553.43L331.26,556.44L339.31,557L363.42,557.35L371.48,557.05L395.66,554.96L403.73,553.89L427.91,549.59L435.97,547.84L468.21,539.46L476.28,537.11L524.65,523.37L532.7,521.86L548.83,520.53L556.89,520.7L581.08,522.94L589.14,523.9L629.46,527.91L637.52,528.4L661.71,529.04L669.77,529.08L710.03,530.34L718.1,530.8L758.41,534.26L766.48,535.15L814.86,541.54L822.92,542.71L887.43,551.45L895.49,552.33L927.68,555.05L935.75,555.5L968,556.33" style="vector-effect: non-scaling-stroke; fill: none; stroke: rgb(0, 0, 0); stroke-opacity: 1; stroke-width: 2px; opacity: 1;"/><g class="points"/></g><g class="trace scatter trace21c2a3" style="stroke-miterlimit: 2; opacity: 1;"><path class="js-line" d="M1.67,556.33L25.78,555.73L33.82,555.27L57.94,553.11L65.98,552.14L98.13,547.06L106.17,545.5L138.33,538.26L146.37,536.21L178.53,527.2L186.56,524.75L226.76,511.71L234.8,508.97L323.22,478.74L331.26,476.41L347.34,472.89L355.38,472.32L371.48,473.28L379.54,474.32L411.79,480.14L419.85,481.79L460.16,492.04L468.21,494.22L540.77,513.3L548.83,515.17L581.08,521.68L589.14,523.03L613.33,526.32L621.39,527.15L645.58,528.74L653.65,528.96L701.97,529.94L710.03,530.34L742.29,532.66L750.35,533.42L790.67,538.16L798.73,539.26L895.49,552.33L903.5,553.13L935.75,555.5L943.81,555.86L968,556.33" style="vector-effect: non-scaling-stroke; fill: none; stroke: rgb(0, 0, 0); stroke-opacity: 1; stroke-width: 2px; opacity: 1;"/><g class="points"/></g><g class="trace scatter traced728e8" style="stroke-miterlimit: 2; opacity: 1;"><path class="js-line" d="M1.67,556.33L25.78,555.3L33.82,554.5L57.94,550.78L65.98,549.11L90.09,542.93L98.13,540.5L122.25,532.21L130.29,529.16L162.44,515.81L170.49,512.25L178.53,510.59L186.56,514.17L194.6,517.69L202.64,519.69L250.87,503.4L258.91,500.59L323.22,478.74L331.26,476.41L347.34,472.89L355.38,472.32L371.48,473.13L379.54,474.06L403.73,478.24L411.79,479.96L476.28,493.88L484.34,495.56L508.52,500.03L516.58,501.16L532.7,502.24L540.77,501.93L556.89,499.41L564.95,497.43L597.2,487.65L605.27,485.14L629.46,478.2L637.52,476.29L645.58,474.76L653.65,474.03L669.77,474.39L677.78,475.19L701.97,478.66L710.03,480.17L734.22,485.83L742.29,488.1L766.48,495.92L774.54,498.83L806.79,511.52L814.86,514.84L863.24,534.33L871.3,537.28L895.49,545.17L903.5,547.41L927.68,552.76L935.75,554.03L951.87,555.75L959.94,556.19L968,556.33" style="vector-effect: non-scaling-stroke; fill: none; stroke: rgb(0, 0, 0); stroke-opacity: 1; stroke-width: 2px; opacity: 1;"/><g class="points"/></g><g class="trace scatter trace2115bf" style="stroke-miterlimit: 2; opacity: 1;"><path class="js-line" d="M1.67,452.86L17.74,453.55L25.78,454.4L41.86,457.07L49.9,458.86L74.02,465.85L82.06,468.64L106.17,478.06L114.21,481.48L162.44,503.28L170.49,506.96L178.53,508.64L186.56,504.99L242.84,479.75L250.87,476.43L274.99,467.36L283.03,464.71L307.15,458.13L315.18,456.45L323.22,456.01L331.26,457.77L347.34,460.62L355.38,461.11L379.54,460.26L387.6,459.75L427.91,457.77L435.97,458.65L524.65,468.81L532.7,469.5L573.01,472.07L581.08,472.43L629.46,473.64L637.52,473.71L661.71,473.13L669.77,472.81L726.16,470.32L734.22,470.01L782.6,467.45L790.67,466.87L839.05,462.45L847.11,461.61L911.56,455.23L919.62,454.63L951.87,453.07L959.94,452.91L968,452.86" style="vector-effect: non-scaling-stroke; fill: none; stroke: rgb(0, 0, 0); stroke-opacity: 1; stroke-width: 2px; opacity: 1;"/><g class="points"/></g><g class="trace scatter trace6fbd53" style="stroke-miterlimit: 2; opacity: 1;"><path class="js-line" d="M1.67,452.86L41.86,452L49.9,451.64L98.13,448.39L106.17,447.73L178.53,442.44L186.56,442.12L218.72,441.9L226.76,442.15L250.87,443.76L258.91,444.59L283.03,447.96L291.07,449.36L331.26,457.77L339.31,459.38L355.38,461.11L363.42,460.89L387.6,458.42L395.66,457.42L411.79,456.52L419.85,457.01L435.97,457.04L444.03,456.76L492.4,456.22L500.46,456.27L597.2,458.08L605.27,458.21L685.84,458.8L693.91,458.88L782.6,459.32L790.67,459.17L839.05,457.51L847.11,457.13L935.75,453.27L943.81,453.09L968,452.86" style="vector-effect: non-scaling-stroke; fill: none; stroke: rgb(0, 0, 0); stroke-opacity: 1; stroke-width: 2px; opacity: 1;"/><g class="points"/></g><g class="trace scatter trace08bb94" style="stroke-miterlimit: 2; opacity: 1;"><path class="js-line" d="M1.67,452.86L41.86,452L49.9,451.64L98.13,448.39L106.17,447.73L178.53,442.44L186.56,442.12L218.72,441.9L226.76,442.15L250.87,443.76L258.91,444.59L283.03,447.96L291.07,449.36L323.22,455.07L331.26,453.97L347.34,452.71L355.38,452.55L387.6,453.44L395.66,453.83L411.79,453.72L419.85,452.87L476.28,446.46L484.34,445.86L516.58,444.57L524.65,444.56L548.83,445.3L556.89,445.81L589.14,449.09L597.2,450.19L653.65,458.41L661.71,458.69L798.73,458.99L806.79,458.77L871.3,455.92L879.36,455.51L935.75,453.27L943.81,453.09L968,452.86" style="vector-effect: non-scaling-stroke; fill: none; stroke: rgb(0, 0, 0); stroke-opacity: 1; stroke-width: 2px; opacity: 1;"/><g class="points"/></g><g class="trace scatter trace04702b" style="stroke-miterlimit: 2; opacity: 1;"><path class="js-line" d="M1.67,317.82L90.09,317.17L98.13,316.99L122.25,316.78L130.29,317.09L242.84,320.89L250.87,321.09L339.31,322.27L347.34,322.29L492.4,322.5L500.46,322.67L661.71,326.42L669.77,326.37L701.97,325.18L710.03,324.66L750.35,321.1L758.41,320.29L790.67,317.42L798.73,317.05L830.98,316.43L839.05,316.52L959.94,317.82L968,317.82" style="vector-effect: non-scaling-stroke; fill: none; stroke: rgb(0, 0, 0); stroke-opacity: 1; stroke-width: 2px; opacity: 1;"/><g class="points"/></g><g class="trace scatter tracea6375a" style="stroke-miterlimit: 2; opacity: 1;"><path class="js-line" d="M1.67,313.91L57.94,314.65L65.98,314.86L122.25,316.29L130.29,316L178.53,314.25L186.56,314.55L242.84,317.78L250.87,318.29L307.15,321.03L315.18,321.26L363.42,321.8L371.48,321.8L508.52,320.97L516.58,320.88L685.84,319.74L693.91,319.67L766.48,318.11L774.54,317.86L903.5,314.28L911.56,314.18L968,313.91" style="vector-effect: non-scaling-stroke; fill: none; stroke: rgb(0, 0, 0); stroke-opacity: 1; stroke-width: 2px; opacity: 1;"/><g class="points"/></g><g class="trace scatter trace3f3265" style="stroke-miterlimit: 2; opacity: 1;"><path class="js-line" d="M1.67,313.91L178.53,314.25L186.56,314.55L242.84,317.78L250.87,318.29L307.15,321.03L315.18,321.26L363.42,321.79L371.48,321.76L411.79,320.83L419.85,320.48L500.46,316.3L508.52,316.34L556.89,317.6L564.95,317.88L637.52,319.7L645.58,319.78L710.03,319.45L718.1,319.32L790.67,317.33L798.73,316.95L863.24,315.01L871.3,314.82L951.87,313.93L959.94,313.92L968,313.91" style="vector-effect: non-scaling-stroke; fill: none; stroke: rgb(0, 0, 0); stroke-opacity: 1; stroke-width: 2px; opacity: 1;"/><g class="points"/></g><g class="trace scatter tracecc5c78" style="stroke-miterlimit: 2; opacity: 1;"><path class="js-line" d="M1.67,313.91L178.53,313.6L186.56,313.07L202.64,313.5L210.68,313.9L274.99,316.25L283.03,316.44L355.38,317.23L363.42,317.23L468.21,316.56L476.28,316.45L508.52,315.47L516.58,315.11L564.95,313.91L573.01,313.85L701.97,313.79L710.03,313.8L968,313.91" style="vector-effect: non-scaling-stroke; fill: none; stroke: rgb(0, 0, 0); stroke-opacity: 1; stroke-width: 2px; opacity: 1;"/><g class="points"/></g><g class="trace scatter trace97fe30" style="stroke-miterlimit: 2; opacity: 1;"><path class="js-line" d="M1.67,298.23L25.78,298.88L33.82,299.35L74.02,302.9L82.06,303.72L146.37,309.78L154.4,310.41L186.56,312.59L194.6,312.52L250.87,307.52L258.91,306.67L274.99,305.91L283.03,305.81L371.48,305.31L379.54,305.44L435.97,307.45L444.03,307.82L500.46,309.68L508.52,309.65L540.77,308.48L548.83,307.97L573.01,306.49L581.08,306.52L718.1,308.12L726.16,308.43L782.6,310.18L790.67,310.14L814.86,309.06L822.92,308.42L919.62,299.69L927.68,299.25L959.94,298.27L968,298.23" style="vector-effect: non-scaling-stroke; fill: none; stroke: rgb(0, 0, 0); stroke-opacity: 1; stroke-width: 2px; opacity: 1;"/><g class="points"/></g><g class="trace scatter trace9a88e8" style="stroke-miterlimit: 2; opacity: 1;"><path class="js-line" d="M1.67,298.23L49.9,298.97L57.94,299.23L114.21,301.98L122.25,302.46L186.56,305.84L194.6,306.05L234.8,306.35L242.84,306.29L395.66,305.41L403.73,305.49L508.52,306.12L516.58,305.98L548.83,305.94L556.89,306.08L573.01,306L581.08,305.42L629.46,302.07L637.52,301.72L669.77,301.28L677.78,301.31L839.05,302.7L847.11,302.5L903.5,300.17L911.56,299.79L959.94,298.27L968,298.23" style="vector-effect: non-scaling-stroke; fill: none; stroke: rgb(0, 0, 0); stroke-opacity: 1; stroke-width: 2px; opacity: 1;"/><g class="points"/></g><g class="trace scatter trace61cf9e" style="stroke-miterlimit: 2; opacity: 1;"><path class="js-line" d="M1.67,298.23L49.9,298.97L57.94,299.23L114.21,301.98L122.25,302.46L186.56,305.84L194.6,306.05L234.8,306.35L242.84,306.29L266.95,305.81L274.99,304.94L323.22,300.33L331.26,299.84L355.38,299.17L363.42,299.2L403.73,300.18L411.79,300.5L532.7,305.54L540.77,305.26L645.58,301.36L653.65,301.28L718.1,301.84L726.16,301.99L814.86,303.03L822.92,302.96L871.3,301.66L879.36,301.32L959.94,298.27L968,298.23" style="vector-effect: non-scaling-stroke; fill: none; stroke: rgb(0, 0, 0); stroke-opacity: 1; stroke-width: 2px; opacity: 1;"/><g class="points"/></g><g class="trace scatter trace435215" style="stroke-miterlimit: 2; opacity: 1;"><path class="js-line" d="M1.67,228.2L25.78,227.62L33.82,227.18L65.98,224.18L74.02,223.15L106.17,217.99L114.21,216.47L130.29,213.51L138.33,212.99L162.44,212.51L170.49,212.7L194.6,214.26L202.64,215.07L234.8,219.33L242.84,220.54L299.11,228.5L307.15,229.34L331.26,231.19L339.31,231.54L363.42,231.74L371.48,231.48L395.66,229.74L403.73,228.9L444.03,223.49L452.09,222.32L508.52,214.8L516.58,213.91L556.89,210.35L564.95,209.79L613.33,207.38L621.39,207.13L669.77,206.52L677.78,206.46L758.41,205.89L766.48,206.11L798.73,208.04L806.79,208.79L839.05,212.8L847.11,214L927.68,226L935.75,226.77L959.94,228.11L968,228.2" style="vector-effect: non-scaling-stroke; fill: none; stroke: rgb(0, 0, 0); stroke-opacity: 1; stroke-width: 2px; opacity: 1;"/><g class="points"/></g><g class="trace scatter trace3c9133" style="stroke-miterlimit: 2; opacity: 1;"><path class="js-line" d="M1.67,228.2L25.78,227.16L33.82,226.39L65.98,221.95L74.02,220.68L114.21,215L122.25,214.17L130.29,213.19L138.33,211.44L186.56,199.91L194.6,197.88L258.91,182.19L266.95,180.46L299.11,174.62L307.15,173.49L331.26,171.06L339.31,170.59L363.42,170.28L371.48,170.46L403.73,172.4L411.79,173.17L444.03,177.26L452.09,178.5L500.46,187.01L508.52,188.51L564.95,198.4L573.01,199.61L605.27,203.61L613.33,204.37L645.58,206.3L653.65,206.48L701.97,206.13L710.03,206L758.41,205.89L766.48,206.11L798.73,208.04L806.79,208.79L839.05,212.8L847.11,214L927.68,226L935.75,226.77L959.94,228.11L968,228.2" style="vector-effect: non-scaling-stroke; fill: none; stroke: rgb(0, 0, 0); stroke-opacity: 1; stroke-width: 2px; opacity: 1;"/><g class="points"/></g><g class="trace scatter tracec902e9" style="stroke-miterlimit: 2; opacity: 1;"><path class="js-line" d="M1.67,43.17L25.78,44.15L33.82,44.89L57.94,48.27L65.98,49.74L90.09,55.44L98.13,57.76L122.25,65.88L130.29,68.95L154.4,79.19L162.44,82.92L194.6,99.03L202.64,103.29L266.95,137.44L274.99,141.29L299.11,151.52L307.15,154.35L323.22,158.9L331.26,160.55L347.34,162.49L355.38,162.74L379.54,161.74L387.6,160.98L411.79,157.51L419.85,156.01L460.16,147.14L468.21,145.4L492.4,141.27L500.46,140.46L516.58,139.72L524.65,139.72L564.95,141.17L573.01,141.51L621.39,142.75L629.46,142.84L677.78,142.66L685.84,142.27L710.03,140.11L718.1,139.06L742.29,134.87L750.35,133.11L774.54,126.72L782.6,124.2L806.79,115.2L814.86,111.65L830.98,103.56L839.05,98.98L855.17,88.75L863.24,83.2L887.43,66.43L895.49,61.48L911.56,53.49L919.62,50.49L935.75,46.25L943.81,44.87L959.94,43.35L968,43.17" style="vector-effect: non-scaling-stroke; fill: none; stroke: rgb(0, 0, 0); stroke-opacity: 1; stroke-width: 2px; opacity: 1;"/><g class="points"/></g><g class="trace scatter trace505f3f" style="stroke-miterlimit: 2; opacity: 1;"><path class="js-line" d="M1.67,43.17L25.78,44.15L33.82,44.89L57.94,48.27L65.98,49.74L98.13,56.93L106.17,58.97L194.6,81.78L202.64,83.55L234.8,89.63L242.84,90.91L274.99,94.99L283.03,95.77L315.18,98L323.22,98.34L387.6,100.56L395.66,101.42L427.91,106.02L435.97,107.3L468.21,111.6L476.28,112.16L492.4,112.21L500.46,111.61L516.58,109.19L524.65,107.47L548.83,101.12L556.89,98.8L613.33,82.99L621.39,81.06L637.52,77.81L645.58,76.65L661.71,75.66L669.77,75.62L710.03,74.32L718.1,73.84L750.35,71.04L758.41,70.13L798.73,64.43L806.79,63.11L895.49,48.38L903.5,47.34L935.75,44.25L943.81,43.78L968,43.17" style="vector-effect: non-scaling-stroke; fill: none; stroke: rgb(0, 0, 0); stroke-opacity: 1; stroke-width: 2px; opacity: 1;"/><g class="points"/></g><g class="trace scatter tracec4b822" style="stroke-miterlimit: 2; opacity: 1;"><path class="js-line" d="M1.67,43.17L25.78,44.08L33.82,44.79L57.94,48.14L65.98,49.67L98.13,56.93L106.17,58.97L194.6,81.78L202.64,83.55L234.8,89.63L242.84,90.91L274.99,94.99L283.03,95.77L315.18,98L323.22,98.34L355.38,98.96L363.42,98.94L403.73,98.04L411.79,97.69L452.09,94.99L460.16,94.26L508.52,88.88L516.58,87.88L589.14,79.34L597.2,78.6L629.46,76.42L637.52,76.08L718.1,73.84L726.16,73.26L758.41,70.13L766.48,69.13L806.79,63.11L814.86,61.74L895.49,48.38L903.5,47.34L935.75,44.25L943.81,43.78L968,43.17" style="vector-effect: non-scaling-stroke; fill: none; stroke: rgb(0, 0, 0); stroke-opacity: 1; stroke-width: 2px; opacity: 1;"/><g class="points"/></g><g class="trace scatter trace64514b" style="stroke-miterlimit: 2; opacity: 1;"><path class="js-line" d="M1.67,-78.62L9.7,-76.84L17.74,-71.78L33.82,-54.72L41.86,-44.25L65.98,-11.76L74.02,-1.81L90.09,15.4L98.13,22.41L106.17,28.27L114.21,32.96L122.25,36.49L130.29,38.89L138.33,40.24L146.37,40.58L154.4,40.01L162.44,38.6L178.53,33.63L186.56,30.24L202.64,22.07L210.68,17.43L234.8,2.06L242.84,-3.38L315.18,-51.84L323.22,-56.2L339.31,-62.9L347.34,-64.79L363.42,-65.37L371.48,-65.15L411.79,-61.72L419.85,-60.58L452.09,-54.24L460.16,-52.17L492.4,-41.8L500.46,-38.68L524.65,-28.07L532.7,-24.13L564.95,-6.74L573.01,-2.16L605.27,15.41L613.33,19.28L629.46,25.86L637.52,28.4L653.65,31.52L661.71,31.92L726.16,32.65L734.22,32.93L782.6,34.49L790.67,34.44L814.86,33.08L822.92,32.12L839.05,29.23L847.11,27.18L863.24,21.48L871.3,17.56L879.36,12.67L887.43,6.64L895.49,-0.69L903.5,-9.35L919.62,-29.96L927.68,-41.17L943.81,-62.47L951.87,-70.92L959.94,-76.6L968,-78.62" style="vector-effect: non-scaling-stroke; fill: none; stroke: rgb(0, 0, 0); stroke-opacity: 1; stroke-width: 2px; opacity: 1;"/><g class="points"/></g><g class="trace scatter trace55383a" style="stroke-miterlimit: 2; opacity: 1;"><path class="js-line" d="M1.67,-78.62L41.86,-80.36L49.9,-81.1L98.13,-87.67L106.17,-89.04L178.53,-103.88L186.56,-105.79L315.18,-136.18L323.22,-137.2L339.31,-133.96L347.34,-132.17L371.48,-132.45L379.54,-133.49L395.66,-133.88L403.73,-132.36L532.7,-102.58L540.77,-101.22L613.33,-90.68L621.39,-89.92L661.71,-88.13L669.77,-88.31L693.91,-91.03L701.97,-92.72L726.16,-100.26L734.22,-103.61L766.48,-121.03L774.54,-126.24L798.73,-143.33L806.79,-145.3L855.17,-113.39L863.24,-108.84L895.49,-93.5L903.5,-90.44L927.68,-83.29L935.75,-81.62L959.94,-78.81L968,-78.62" style="vector-effect: non-scaling-stroke; fill: none; stroke: rgb(0, 0, 0); stroke-opacity: 1; stroke-width: 2px; opacity: 1;"/><g class="points"/></g><g class="trace scatter trace98b756" style="stroke-miterlimit: 2; opacity: 1;"><path class="js-line" d="M1.67,-78.62L41.86,-80.36L49.9,-81.1L98.13,-87.67L106.17,-89.04L178.53,-103.88L186.56,-105.79L315.18,-136.18L323.22,-137.2L363.42,-138.89L371.48,-138.37L395.66,-138.2L403.73,-140.48L427.91,-145.01L435.97,-146.33L548.83,-168.87L556.89,-170.37L629.46,-180.79L637.52,-181.38L734.22,-183.93L742.29,-182.53L766.48,-172.65L774.54,-167.78L863.24,-108.84L871.3,-104.56L903.5,-90.44L911.56,-87.71L935.75,-81.62L943.81,-80.31L968,-78.62" style="vector-effect: non-scaling-stroke; fill: none; stroke: rgb(0, 0, 0); stroke-opacity: 1; stroke-width: 2px; opacity: 1;"/><g class="points"/></g><g class="trace scatter trace19ef60" style="stroke-miterlimit: 2; opacity: 1;"><path class="js-line" d="M1.67,-188.33L17.74,-192.2L25.78,-196.24L65.98,-216.46L74.02,-218.7L98.13,-220.98L106.17,-220.39L138.33,-213.18L146.37,-210.51L291.07,-156.08L299.11,-152.14L331.26,-138.02L339.31,-138.6L411.79,-143.28L419.85,-146.47L460.16,-166.73L468.21,-171.36L516.58,-197.7L524.65,-200.54L540.77,-203.07L548.83,-202.68L581.08,-195.11L589.14,-192.84L629.46,-184.32L637.52,-183.38L677.78,-182.48L685.84,-182.86L734.22,-183.93L742.29,-182.53L766.48,-172.65L774.54,-167.78L798.73,-151.07L806.79,-149.36L871.3,-195.05L879.36,-199.14L903.5,-206.17L911.56,-206.28L927.68,-202.86L935.75,-199.6L959.94,-189.36L968,-188.33" style="vector-effect: non-scaling-stroke; fill: none; stroke: rgb(0, 0, 0); stroke-opacity: 1; stroke-width: 2px; opacity: 1;"/><g class="points"/></g><g class="trace scatter trace6c3f68" style="stroke-miterlimit: 2; opacity: 1;"><path class="js-line" d="M1.67,-373.04L41.86,-368.32L49.9,-366.31L74.02,-357.36L82.06,-352.07L130.29,-313.4L138.33,-306.24L242.84,-214.87L250.87,-209.05L291.07,-185.01L299.11,-181.39L331.26,-171.47L339.31,-170.2L371.48,-169.54L379.54,-169.99L427.91,-176.37L435.97,-178.05L484.34,-192.08L492.4,-195.09L540.77,-217.28L548.83,-221.62L621.39,-266.28L629.46,-271.33L653.65,-283.26L661.71,-284.41L677.78,-279.7L685.84,-274.96L742.29,-239.8L750.35,-237.93L766.48,-238.31L774.54,-240.33L798.73,-251.75L806.79,-256.94L847.11,-290.28L855.17,-298.08L927.68,-363.16L935.75,-367.17L959.94,-372.83L968,-373.04" style="vector-effect: non-scaling-stroke; fill: none; stroke: rgb(0, 0, 0); stroke-opacity: 1; stroke-width: 2px; opacity: 1;"/><g class="points"/></g><g class="trace scatter trace3bd771" style="stroke-miterlimit: 2; opacity: 1;"><path class="js-line" d="M1.67,-373.04L41.86,-368.32L49.9,-366.31L106.17,-347.84L114.21,-343.26L162.44,-309.68L170.49,-303.24L274.99,-218.3L283.03,-213.94L307.15,-204.63L315.18,-202.67L347.34,-198.99L355.38,-198.85L387.6,-202.1L395.66,-203.85L435.97,-217.01L444.03,-220.39L508.52,-245.77L516.58,-246.44L548.83,-251.62L556.89,-254.91L613.33,-280.51L621.39,-282.12L661.71,-284.41L669.77,-283.12L693.91,-269.49L701.97,-263.7L734.22,-242.97L742.29,-239.8L758.41,-237.45L766.48,-238.31L790.67,-247.18L798.73,-251.75L830.98,-275.67L839.05,-282.83L927.68,-363.16L935.75,-367.17L959.94,-372.83L968,-373.04" style="vector-effect: non-scaling-stroke; fill: none; stroke: rgb(0, 0, 0); stroke-opacity: 1; stroke-width: 2px; opacity: 1;"/><g class="points"/></g><g class="trace scatter trace69d616" style="stroke-miterlimit: 2; opacity: 1;"><path class="js-line" d="M1.67,-373.04L49.9,-370.68L57.94,-366.74L90.09,-353.86L98.13,-351.28L154.4,-339.18L162.44,-338.68L202.64,-341.9L210.68,-343.76L266.95,-357.79L274.99,-357.94L371.48,-355.86L379.54,-352.14L419.85,-323.64L427.91,-317.48L476.28,-285.12L484.34,-281.45L508.52,-277.28L516.58,-278.67L653.65,-315.69L661.71,-316.12L685.84,-323.43L693.91,-327.36L750.35,-351.85L758.41,-354.43L822.92,-368.68L830.98,-369.82L927.68,-377.84L935.75,-375.91L968,-373.04" style="vector-effect: non-scaling-stroke; fill: none; stroke: rgb(0, 0, 0); stroke-opacity: 1; stroke-width: 2px; opacity: 1;"/><g class="points"/></g><g class="trace scatter trace0873b9" style="stroke-miterlimit: 2; opacity: 1;"><path class="js-line" d="M1.67,-382.14L33.82,-376.91L41.86,-374.12L65.98,-367.03L74.02,-363.74L130.29,-342.69L138.33,-341.18L178.53,-338.82L186.56,-339.46L226.76,-348.77L234.8,-351.99L274.99,-375.12L283.03,-381.06L347.34,-428.67L355.38,-430.61L395.66,-421.3L403.73,-418.29L556.89,-355.65L564.95,-354.28L605.27,-345.62L613.33,-340.18L653.65,-317.27L661.71,-316.12L685.84,-323.43L693.91,-327.36L750.35,-351.85L758.41,-354.43L822.92,-368.68L830.98,-369.82L959.94,-381.78L968,-382.14" style="vector-effect: non-scaling-stroke; fill: none; stroke: rgb(0, 0, 0); stroke-opacity: 1; stroke-width: 2px; opacity: 1;"/><g class="points"/></g><g class="trace scatter trace66774a" style="stroke-miterlimit: 2; opacity: 1;"><path class="js-line" d="M1.67,-382.14L41.86,-375.62L49.9,-373.04L138.33,-365.31L146.37,-364.31L242.84,-357.72L250.87,-359.8L291.07,-387.43L299.11,-394.02L347.34,-428.67L355.38,-430.61L419.85,-420.22L427.91,-418.79L508.52,-399.82L516.58,-396.67L564.95,-371.83L573.01,-366.89L597.2,-352.28L605.27,-352.57L693.91,-363.23L701.97,-366.46L742.29,-390.66L750.35,-396.74L806.79,-436.62L814.86,-437.41L839.05,-428.32L847.11,-423.59L919.62,-380.42L927.68,-378.2L968,-382.14" style="vector-effect: non-scaling-stroke; fill: none; stroke: rgb(0, 0, 0); stroke-opacity: 1; stroke-width: 2px; opacity: 1;"/><g class="points"/></g><g class="trace scatter trace540d59" style="stroke-miterlimit: 2; opacity: 1;"><path class="js-line" d="M1.67,-497.83L65.98,-491.75L74.02,-489.96L170.49,-457.81L178.53,-455.38L250.87,-440.27L258.91,-439.27L363.42,-432.68L371.48,-433.33L524.65,-445.43L532.7,-447.57L653.65,-481.01L661.71,-481.3L750.35,-479.08L758.41,-476.07L806.79,-461.61L814.86,-463.11L903.5,-499.48L911.56,-499.98L968,-497.83" style="vector-effect: non-scaling-stroke; fill: none; stroke: rgb(0, 0, 0); stroke-opacity: 1; stroke-width: 2px; opacity: 1;"/><g class="points"/></g><g class="trace scatter trace14521e" style="stroke-miterlimit: 2; opacity: 1;"><path class="js-line" d="M1.67,-497.83L65.98,-491.75L74.02,-489.96L170.49,-457.81L178.53,-455.38L250.87,-440.27L258.91,-439.27L363.42,-433.33L371.48,-435.62L419.85,-460.82L427.91,-465.33L492.4,-492.75L500.46,-494.76L556.89,-501.2L564.95,-501.06L621.39,-491.68L629.46,-488.96L669.77,-481.3L677.78,-481.51L782.6,-491.68L790.67,-492.89L895.49,-504.14L903.5,-503.63L968,-497.83" style="vector-effect: non-scaling-stroke; fill: none; stroke: rgb(0, 0, 0); stroke-opacity: 1; stroke-width: 2px; opacity: 1;"/><g class="points"/></g><g class="trace scatter trace841de3" style="stroke-miterlimit: 2; opacity: 1;"><path class="js-line" d="M1.67,-497.83L33.82,-506.71L41.86,-511.29L130.29,-571.65L138.33,-570.36L218.72,-552.75L226.76,-550.17L323.22,-524.11L331.26,-523.18L387.6,-524.83L395.66,-525.9L548.83,-543.23L556.89,-542.22L589.14,-532.34L597.2,-527.76L645.58,-502.56L653.65,-501.41L710.03,-492.68L718.1,-490.25L742.29,-486.31L750.35,-487.24L903.5,-503.63L911.56,-502.85L968,-497.83" style="vector-effect: non-scaling-stroke; fill: none; stroke: rgb(0, 0, 0); stroke-opacity: 1; stroke-width: 2px; opacity: 1;"/><g class="points"/></g><g class="trace scatter tracee76d3a" style="stroke-miterlimit: 2; opacity: 1;"><path class="js-line" d="M1.67,-621.27L33.82,-611.03L41.86,-606.37L98.13,-578.67L106.17,-576.45L130.29,-578.59L138.33,-583.32L186.56,-601.72L194.6,-603.37L266.95,-608.67L274.99,-608.67L339.31,-539.86L347.34,-536.21L371.48,-536.5L379.54,-538.43L427.91,-562.13L435.97,-567.35L468.21,-571.79L476.28,-571.22L685.84,-554.18L693.91,-555.83L822.92,-580.46L830.98,-580.81L895.49,-591.55L903.5,-594.78L968,-621.27" style="vector-effect: non-scaling-stroke; fill: none; stroke: rgb(0, 0, 0); stroke-opacity: 1; stroke-width: 2px; opacity: 1;"/><g class="points"/></g><g class="trace scatter tracedc896d" style="stroke-miterlimit: 2; opacity: 1;"><path class="js-line" d="M1.67,-687.99L114.21,-687.42L122.25,-687.71L218.72,-674.39L226.76,-666.44L347.34,-536.21L355.38,-534.92L387.6,-542.73L395.66,-546.95L500.46,-601.22L508.52,-600.65L581.08,-581.17L589.14,-576.59L621.39,-569.22L629.46,-568.93L701.97,-574.3L710.03,-576.73L766.48,-603.94L774.54,-608.95L887.43,-670.09L895.49,-673.03L959.94,-687.78L968,-687.99" style="vector-effect: non-scaling-stroke; fill: none; stroke: rgb(0, 0, 0); stroke-opacity: 1; stroke-width: 2px; opacity: 1;"/><g class="points"/></g><g class="trace scatter tracedf426f" style="stroke-miterlimit: 2; opacity: 1;"><path class="js-line" d="M1.67,-687.99L114.21,-687.42L122.25,-690.64L170.49,-703.6L178.53,-702.38L210.68,-682.12L218.72,-674.6L283.03,-608.67L291.07,-608.52L435.97,-611.67L444.03,-615.11L476.28,-625.06L484.34,-623.41L508.52,-628.43L516.58,-632.65L524.65,-635.44L532.7,-626.56L581.08,-584.25L589.14,-582.25L669.77,-569.07L677.78,-569.72L726.16,-582.75L734.22,-586.33L814.86,-634.58L822.92,-639.52L895.49,-673.03L903.5,-675.89L968,-687.99" style="vector-effect: non-scaling-stroke; fill: none; stroke: rgb(0, 0, 0); stroke-opacity: 1; stroke-width: 2px; opacity: 1;"/><g class="points"/></g><g class="trace scatter tracefd6061" style="stroke-miterlimit: 2; opacity: 1;"><path class="js-line" d="M1.67,-687.99L130.29,-694.15L138.33,-697.66L170.49,-704.46L178.53,-702.74L210.68,-682.12L218.72,-674.6L331.26,-663.22L339.31,-663.01L403.73,-654.63L411.79,-651.84L468.21,-629.71L476.28,-635.3L508.52,-653.13L516.58,-644.39L524.65,-637.3L532.7,-642.1L613.33,-681.76L621.39,-684.2L677.78,-690L685.84,-690L968,-687.99" style="vector-effect: non-scaling-stroke; fill: none; stroke: rgb(0, 0, 0); stroke-opacity: 1; stroke-width: 2px; opacity: 1;"/><g class="points"/></g><g class="trace scatter trace0b73a9" style="stroke-miterlimit: 2; opacity: 1;"><path class="js-line" d="M1.67,-777.92L41.86,-769.11L49.9,-765.32L170.49,-704.46L178.53,-702.74L226.76,-705.68L234.8,-707.54L363.42,-734.1L371.48,-733.53L427.91,-718.42L435.97,-714.7L484.34,-679.33L492.4,-671.24L508.52,-659.5L516.58,-665.51L581.08,-728.52L589.14,-736.46L621.39,-750.21L629.46,-750.85L968,-777.92" style="vector-effect: non-scaling-stroke; fill: none; stroke: rgb(0, 0, 0); stroke-opacity: 1; stroke-width: 2px; opacity: 1;"/><g class="points"/></g><g class="trace scatter traceb9c1d4" style="stroke-miterlimit: 2; opacity: 1;"><path class="js-line" d="M1.67,-777.92L57.94,-787.65L65.98,-790.02L114.21,-794.31L122.25,-789.95L178.53,-770.11L186.56,-769.18L234.8,-774.34L242.84,-776.99L307.15,-796.6L315.18,-796.32L435.97,-783.07L444.03,-781.64L621.39,-751.07L629.46,-751.86L895.49,-773.19L903.5,-774.05L968,-777.92" style="vector-effect: non-scaling-stroke; fill: none; stroke: rgb(0, 0, 0); stroke-opacity: 1; stroke-width: 2px; opacity: 1;"/><g class="points"/></g></g></g><g class="overplot"/><path class="xlines-above crisp" d="M79,727.5H1051M79,99.5H1051" style="fill: none; stroke-width: 1px; stroke: rgb(68, 68, 68); stroke-opacity: 1;"/><path class="ylines-above crisp" d="M79.5,100V727M1050.5,100V727" style="fill: none; stroke-width: 1px; stroke: rgb(68, 68, 68); stroke-opacity: 1;"/><g class="overlines-above"/><g class="xaxislayer-above"><g class="xtick"><text text-anchor="middle" x="0" y="748.4" transform="translate(81.67,0)" style="font-family: 'Open Sans', verdana, arial, sans-serif; font-size: 17px; fill: rgb(68, 68, 68); fill-opacity: 1; white-space: pre;">Γ</text></g><g class="xtick"><text text-anchor="middle" x="0" y="748.4" transform="translate(435.38,0)" style="font-family: 'Open Sans', verdana, arial, sans-serif; font-size: 17px; fill: rgb(68, 68, 68); fill-opacity: 1; white-space: pre;">X</text></g><g class="xtick"><text text-anchor="middle" x="0" y="748.4" transform="translate(741.71,0)" style="font-family: 'Open Sans', verdana, arial, sans-serif; font-size: 17px; fill: rgb(68, 68, 68); fill-opacity: 1; white-space: pre;">L</text></g><g class="xtick"><text text-anchor="middle" x="0" y="748.4" transform="translate(1048.04,0)" style="font-family: 'Open Sans', verdana, arial, sans-serif; font-size: 17px; fill: rgb(68, 68, 68); fill-opacity: 1; white-space: pre;">Γ</text></g></g><g class="yaxislayer-above"><g class="ytick"><text text-anchor="end" x="75.6" y="5.949999999999999" transform="translate(0,665.83)" style="font-family: 'Open Sans', verdana, arial, sans-serif; font-size: 17px; fill: rgb(68, 68, 68); fill-opacity: 1; white-space: pre;">−5</text></g><g class="ytick"><text text-anchor="end" x="75.6" y="5.949999999999999" transform="translate(0,534.27)" style="font-family: 'Open Sans', verdana, arial, sans-serif; font-size: 17px; fill: rgb(68, 68, 68); fill-opacity: 1; white-space: pre;">0</text></g><g class="ytick"><text text-anchor="end" x="75.6" y="5.949999999999999" transform="translate(0,402.72)" style="font-family: 'Open Sans', verdana, arial, sans-serif; font-size: 17px; fill: rgb(68, 68, 68); fill-opacity: 1; white-space: pre;">5</text></g><g class="ytick"><text text-anchor="end" x="75.6" y="5.949999999999999" transform="translate(0,271.15999999999997)" style="font-family: 'Open Sans', verdana, arial, sans-serif; font-size: 17px; fill: rgb(68, 68, 68); fill-opacity: 1; white-space: pre;">10</text></g><g class="ytick"><text text-anchor="end" x="75.6" y="5.949999999999999" transform="translate(0,139.61)" style="font-family: 'Open Sans', verdana, arial, sans-serif; font-size: 17px; fill: rgb(68, 68, 68); fill-opacity: 1; white-space: pre;">15</text></g></g><g class="overaxes-above"/></g></g><g class="polarlayer"/><g class="ternarylayer"/><g class="geolayer"/><g class="pielayer"/><g class="glimages"/><defs id="topdefs-e7687b"><g class="clips"/></defs><g class="layer-above"><g class="imagelayer"/><g class="shapelayer"><path data-index="0" fill-rule="evenodd" d="M80.67,534.27L1049,534.27" clip-path="url(#clipe7687bxy)" style="opacity: 1; stroke: rgb(255, 0, 0); stroke-opacity: 1; fill: rgb(0, 0, 0); fill-opacity: 0; stroke-width: 2px;"/></g></g><g class="infolayer"><g class="g-gtitle"><text class="gtitle" x="565" y="50" text-anchor="middle" style="font-family: 'Open Sans', verdana, arial, sans-serif; font-size: 24px; fill: rgb(68, 68, 68); opacity: 1; font-weight: normal; white-space: pre;">BAND STRUCTURE PBE0-D3</text></g><g class="g-xtitle"><text class="xtitle" x="565" y="797" text-anchor="middle" style="font-family: 'Open Sans', verdana, arial, sans-serif; font-size: 20px; fill: rgb(68, 68, 68); opacity: 1; font-weight: normal; white-space: pre;">k-points</text></g><g class="g-ytitle"><text class="ytitle" transform="rotate(-90,30,413.5)" x="30" y="413.5" text-anchor="middle" style="font-family: 'Open Sans', verdana, arial, sans-serif; font-size: 20px; fill: rgb(68, 68, 68); opacity: 1; font-weight: normal; white-space: pre;">E-EFERMI (eV)</text></g></g></svg>