<svg class="main-svg" xmlns="http://www.w3.org/2000/svg" xmlns:xlink="http://www.w3.org/1999/xlink" width="1130" height="807" style="" viewBox="0 0 1130 807"><rect x="0" y="0" width="1130" height="807" style="fill: rgb(238, 238, 238); fill-opacity: 1;"/><defs id="defs-264745"><g class="clips"><clipPath class="plotclip" id="clip264745xyplot"><rect width="970" height="627"/></clipPath><clipPath class="axesclip" id="clip264745x"><rect x="80" y="0" width="970" height="807"/></clipPath><clipPath class="axesclip" id="clip264745y"><rect x="0" y="100" width="1130" height="627"/></clipPath><clipPath class="axesclip" id="clip264745xy"><rect x="80" y="100" width="970" height="627"/></clipPath></g><g class="gradients"/></defs><g class="bglayer"><rect class="bg" x="80" y="100" width="970" height="627" style="fill: rgb(255, 255, 255); fill-opacity: 1; stroke-width: 0;"/></g><g class="layer-below"><g class="imagelayer"/><g class="shapelayer"/></g><g class="cartesianlayer"><g class="subplot xy"><g class="layer-subplot"><g class="shapelayer"/><g class="imagelayer"/></g><g class="gridlayer"><g class="x"><path class="xgrid crisp" d="M0,100v627" transform="translate(434.95,0)" style="stroke: rgb(176, 176, 176); stroke-opacity: 1; stroke-width: 2px;"/><path class="xgrid crisp" d="M0,100v627" transform="translate(741.48,0)" style="stroke: rgb(176, 176, 176); stroke-opacity: 1; stroke-width: 2px;"/><path class="xgrid crisp" d="M0,100v627" transform="translate(1048.01,0)" style="stroke: rgb(176, 176, 176); stroke-opacity: 1; stroke-width: 2px;"/></g><g class="y"><path class="ygrid crisp" d="M80,0h970" transform="translate(0,705.73)" style="stroke: rgb(238, 238, 238); stroke-opacity: 1; stroke-width: 1px;"/><path class="ygrid crisp" d="M80,0h970" transform="translate(0,566.6800000000001)" style="stroke: rgb(238, 238, 238); stroke-opacity: 1; stroke-width: 1px;"/><path class="ygrid crisp" d="M80,0h970" transform="translate(0,427.63)" style="stroke: rgb(238, 238, 238); stroke-opacity: 1; stroke-width: 1px;"/><path class="ygrid crisp" d="M80,0h970" transform="translate(0,288.58000000000004)" style="stroke: rgb(238, 238, 238); stroke-opacity: 1; stroke-width: 1px;"/><path class="ygrid crisp" d="M80,0h970" transform="translate(0,149.53)" style="stroke: rgb(238, 238, 238); stroke-opacity: 1; stroke-width: 1px;"/></g></g><g class="zerolinelayer"/><path class="xlines-below"/><path class="ylines-below"/><g class="overlines-below"/><g class="xaxislayer-below"/><g class="yaxislayer-below"/><g class="overaxes-below"/><g class="plot" transform="translate(80, 100)" clip-path="url(#clip264745xyplot)"><g class="imagelayer"/><g class="maplayer"/><g class="barlayer"/><g class="carpetlayer"/><g class="violinlayer"/><g class="boxlayer"/><g class="scatterlayer"><g class="trace scatter trace2f3ef4" style="stroke-miterlimit: 2; opacity: 1;"><path class="js-line" d="M1,1018.19L121.66,1023.61L129.71,1024.25L354.95,1037.57L363,1037.54L524.33,1031.04L532.39,1030.57L717.93,1025.44L726.02,1025.27L968,1018.19" style="vector-effect: non-scaling-stroke; fill: none; stroke: rgb(0, 0, 0); stroke-opacity: 1; stroke-width: 2px; opacity: 1;"/><g class="points"/></g><g class="trace scatter trace527aaa" style="stroke-miterlimit: 2; opacity: 1;"><path class="js-line" d="M1,1018.19L121.66,1023.61L129.71,1024.25L354.95,1037.57L363,1037.3L411.39,1027.13L419.46,1024.6L508.19,999.66L516.26,998.82L556.59,1001.78L564.66,1003.65L661.46,1026.06L669.49,1026.04L887.32,1019.53L895.41,1019.28L968,1018.19" style="vector-effect: non-scaling-stroke; fill: none; stroke: rgb(0, 0, 0); stroke-opacity: 1; stroke-width: 2px; opacity: 1;"/><g class="points"/></g><g class="trace scatter trace5e0783" style="stroke-miterlimit: 2; opacity: 1;"><path class="js-line" d="M1,1018.19L41.22,1012.81L49.26,1010.66L121.66,983.98L129.71,980.65L250.38,934.93L258.42,932.61L314.73,920.95L322.77,920.02L371.06,918.78L379.13,919.31L435.59,928.32L443.66,930.22L532.39,949.26L540.46,949.61L596.91,945.35L605,944.45L669.49,941.11L677.59,941.44L734.05,949.47L742.14,951.37L814.73,974.42L822.76,977.42L935.69,1015.01L943.78,1016.37L968,1018.19" style="vector-effect: non-scaling-stroke; fill: none; stroke: rgb(0, 0, 0); stroke-opacity: 1; stroke-width: 2px; opacity: 1;"/><g class="points"/></g><g class="trace scatter trace8b5ba8" style="stroke-miterlimit: 2; opacity: 1;"><path class="js-line" d="M1,617.88L25.13,617.17L33.18,616.62L57.31,614.05L65.35,612.9L89.49,608.61L97.53,606.91L129.71,598.85L137.75,596.54L169.93,586.28L177.97,583.48L202.11,574.61L210.15,574.55L234.29,586.96L242.33,590.75L266.46,600.89L274.5,603.82L298.64,611.1L306.68,613L322.77,615.95L330.82,616.99L346.91,618.19L354.95,618.34L379.13,617.25L387.19,616.4L411.39,612.48L419.46,610.74L443.66,604.36L451.73,601.89L483.99,590.84L492.06,587.93L516.26,579.7L524.33,577.44L540.46,574.47L548.53,573.9L564.66,574.25L572.72,574.91L637.25,581L645.34,581.36L701.8,582.95L709.83,583.52L742.14,586.8L750.17,587.87L782.48,592.91L790.51,594.33L887.32,611.67L895.41,612.79L927.66,616.25L935.69,616.84L959.91,617.81L968,617.88" style="vector-effect: non-scaling-stroke; fill: none; stroke: rgb(0, 0, 0); stroke-opacity: 1; stroke-width: 2px; opacity: 1;"/><g class="points"/></g><g class="trace scatter traceb5d879" style="stroke-miterlimit: 2; opacity: 1;"><path class="js-line" d="M1,617.88L25.13,617.17L33.18,616.62L57.31,614.05L65.35,612.9L89.49,608.61L97.53,606.91L129.71,598.85L137.75,596.54L169.93,586.28L177.97,583.48L218.2,568.36L226.24,565.16L314.73,529.7L322.77,526.99L338.86,522.66L346.91,521.36L363,521.12L371.06,521.75L387.19,524.01L395.26,525.49L427.53,532.62L435.59,534.54L467.86,542.72L475.93,545.1L540.46,563.78L548.53,565.88L580.79,573.24L588.87,574.78L613.03,578.53L621.12,579.48L645.34,581.3L653.37,581.57L693.71,582.48L701.8,582.95L734.05,585.83L742.14,586.8L782.48,592.91L790.51,594.33L887.32,611.67L895.41,612.79L927.66,616.25L935.69,616.84L959.91,617.81L968,617.88" style="vector-effect: non-scaling-stroke; fill: none; stroke: rgb(0, 0, 0); stroke-opacity: 1; stroke-width: 2px; opacity: 1;"/><g class="points"/></g><g class="trace scatter traceb3c13b" style="stroke-miterlimit: 2; opacity: 1;"><path class="js-line" d="M1,617.88L17.09,617.26L25.13,616.48L41.22,614.01L49.26,612.33L65.35,608.09L73.4,605.55L97.53,596.36L105.58,592.81L129.71,580.9L137.75,576.56L169.93,557.78L177.97,556.18L202.11,570.12L210.15,571.52L266.46,548.68L274.5,545.38L314.73,529.7L322.77,526.99L338.86,522.66L346.91,521.36L363,521.06L371.06,521.54L387.19,523.35L395.26,524.64L419.46,529.62L427.53,531.58L475.93,543.97L483.99,545.7L508.19,550.03L516.26,550.98L532.39,551.49L540.46,550.82L556.59,547.53L564.66,545.14L596.91,533.74L605,530.87L629.21,523.2L637.25,521.19L653.37,518.61L661.46,518.25L685.68,518.66L693.71,519.38L709.83,522.23L717.93,524.23L734.05,529.14L742.14,532.01L766.3,542L774.39,545.7L806.64,561.77L814.73,565.95L855.07,586.48L863.1,590.32L887.32,600.78L895.41,603.84L911.54,609.19L919.57,611.43L935.69,614.97L943.78,616.23L959.91,617.69L968,617.88" style="vector-effect: non-scaling-stroke; fill: none; stroke: rgb(0, 0, 0); stroke-opacity: 1; stroke-width: 2px; opacity: 1;"/><g class="points"/></g><g class="trace scatter tracefe31e0" style="stroke-miterlimit: 2; opacity: 1;"><path class="js-line" d="M1,480.92L17.09,481.81L25.13,482.91L41.22,486.37L49.26,488.68L65.35,494.38L73.4,497.71L97.53,509.27L105.58,513.55L137.75,532.02L145.8,536.84L169.93,551.39L177.97,552.82L250.38,508.32L258.42,503.87L282.55,491.84L290.59,488.38L298.64,487.51L306.68,489.49L338.86,496.78L346.91,497.83L363,498.15L371.06,497.97L419.46,495.67L427.53,495.28L475.93,493.66L483.99,493.53L508.19,498.22L516.26,499.84L556.59,507.04L564.66,508.23L596.91,512.07L605,512.78L637.25,514.67L645.34,514.91L701.8,515.56L709.83,515.12L742.14,512.05L750.17,511.03L790.51,504.83L798.61,503.42L895.41,486.46L903.44,485.36L935.69,482.08L943.78,481.58L968,480.92" style="vector-effect: non-scaling-stroke; fill: none; stroke: rgb(0, 0, 0); stroke-opacity: 1; stroke-width: 2px; opacity: 1;"/><g class="points"/></g><g class="trace scatter tracef8ccca" style="stroke-miterlimit: 2; opacity: 1;"><path class="js-line" d="M1,480.92L41.22,480.03L49.26,479.66L105.58,475.92L113.62,475.34L161.88,472.69L169.93,472.5L202.11,472.87L210.15,473.29L234.29,475.43L242.33,476.45L266.46,480.41L274.5,482.01L306.68,489.49L314.73,491.5L338.86,496.78L346.91,497.83L363,498.02L371.06,497.49L395.26,494.45L403.32,493.19L435.59,488.34L443.66,487.59L451.73,487.58L459.79,488.51L483.99,493.18L492.06,493.43L556.59,493.63L564.66,493.72L685.68,494.49L693.71,494.47L758.27,493.43L766.3,493.13L814.73,490.29L822.76,489.67L927.66,481.85L935.69,481.53L968,480.92" style="vector-effect: non-scaling-stroke; fill: none; stroke: rgb(0, 0, 0); stroke-opacity: 1; stroke-width: 2px; opacity: 1;"/><g class="points"/></g><g class="trace scatter tracec246e9" style="stroke-miterlimit: 2; opacity: 1;"><path class="js-line" d="M1,480.92L41.22,480.03L49.26,479.66L105.58,475.92L113.62,475.34L161.88,472.69L169.93,472.5L202.11,472.87L210.15,473.29L234.29,475.43L242.33,476.45L266.46,480.41L274.5,482.01L290.59,485.58L298.64,485.25L314.73,480.07L322.77,478.07L338.86,475.36L346.91,474.67L363,474.53L371.06,474.8L395.26,476.63L403.32,477.55L451.73,483.84L459.79,483.54L508.19,480.44L516.26,480.3L540.46,480.73L548.53,481.16L572.72,483.25L580.79,484.2L613.03,488.94L621.12,490.25L645.34,493.64L653.37,494.28L685.68,494.49L693.71,494.47L758.27,493.43L766.3,493.13L814.73,490.29L822.76,489.67L927.66,481.85L935.69,481.53L968,480.92" style="vector-effect: non-scaling-stroke; fill: none; stroke: rgb(0, 0, 0); stroke-opacity: 1; stroke-width: 2px; opacity: 1;"/><g class="points"/></g><g class="trace scatter trace1b45d9" style="stroke-miterlimit: 2; opacity: 1;"><path class="js-line" d="M1,65.23L57.31,64.49L65.35,64.27L161.88,60.6L169.93,60.26L242.33,57.52L250.38,58.39L314.73,66.07L322.77,66.7L346.91,67.77L354.95,67.85L419.46,68.48L427.53,68.63L500.12,69.33L508.19,69.21L548.53,67.7L556.59,67.23L613.03,62.71L621.12,62.08L653.37,60.44L661.46,60.36L693.71,59.55L701.8,59.1L734.05,56.37L742.14,55.48L766.3,52.47L774.39,52.42L830.85,56.32L838.95,57L927.66,64.13L935.69,64.52L968,65.23" style="vector-effect: non-scaling-stroke; fill: none; stroke: rgb(0, 0, 0); stroke-opacity: 1; stroke-width: 2px; opacity: 1;"/><g class="points"/></g><g class="trace scatter trace407d37" style="stroke-miterlimit: 2; opacity: 1;"><path class="js-line" d="M1,65.23L25.13,64.58L33.18,64.08L65.35,61.16L73.4,60.3L121.66,55.51L129.71,54.93L161.88,53.5L169.93,53.38L202.11,54.04L210.15,54.49L250.38,57.27L258.42,57.02L330.82,55.63L338.86,55.58L419.46,54.56L427.53,54.32L556.59,50.33L564.66,50.2L661.46,49.12L669.49,49.15L717.93,50.08L726.02,50.33L782.48,52.88L790.51,53.37L846.98,57.7L855.07,58.42L919.57,63.67L927.66,64.13L959.91,65.19L968,65.23" style="vector-effect: non-scaling-stroke; fill: none; stroke: rgb(0, 0, 0); stroke-opacity: 1; stroke-width: 2px; opacity: 1;"/><g class="points"/></g><g class="trace scatter trace4183c1" style="stroke-miterlimit: 2; opacity: 1;"><path class="js-line" d="M1,41.37L137.75,42.01L145.8,42.44L266.46,49.81L274.5,50.08L330.82,51.02L338.86,51.05L459.79,50.86L467.86,50.78L516.26,49.49L524.33,49.09L548.53,48.24L556.59,48.45L621.12,49.25L629.21,49.24L693.71,49.46L701.8,49.65L758.27,51.61L766.3,52.01L782.48,50.29L790.51,49.19L830.85,44.3L838.95,43.58L871.2,41.95L879.23,41.78L959.91,41.37L968,41.37" style="vector-effect: non-scaling-stroke; fill: none; stroke: rgb(0, 0, 0); stroke-opacity: 1; stroke-width: 2px; opacity: 1;"/><g class="points"/></g><g class="trace scatter trace71f872" style="stroke-miterlimit: 2; opacity: 1;"><path class="js-line" d="M1,40.32L113.62,41.05L121.66,41.31L161.88,43.46L169.93,44.02L250.38,49.17L258.42,49.52L314.73,50.88L322.77,50.96L371.06,50.77L379.13,50.37L419.46,47.04L427.53,46.46L451.73,45.82L459.79,45.87L516.26,47.27L524.33,47.52L548.53,47.8L556.59,47.35L653.37,42.31L661.46,42.21L693.71,41.47L701.8,41.08L726.02,40.19L734.05,40.19L968,40.32" style="vector-effect: non-scaling-stroke; fill: none; stroke: rgb(0, 0, 0); stroke-opacity: 1; stroke-width: 2px; opacity: 1;"/><g class="points"/></g><g class="trace scatter trace9ea304" style="stroke-miterlimit: 2; opacity: 1;"><path class="js-line" d="M1,40.32L113.62,41.05L121.66,41.31L194.06,40.31L202.11,40.11L234.29,39.38L242.33,40L282.55,42.18L290.59,42.44L346.91,43.33L354.95,43.34L427.53,42.64L435.59,42.12L475.93,39.58L483.99,39.5L532.39,40.31L540.46,40.5L637.25,42.15L645.34,42.19L685.68,41.78L693.71,41.47L782.48,37.39L790.51,37.55L830.85,37.71L838.95,37.53L903.44,39.35L911.54,39.56L968,40.32" style="vector-effect: non-scaling-stroke; fill: none; stroke: rgb(0, 0, 0); stroke-opacity: 1; stroke-width: 2px; opacity: 1;"/><g class="points"/></g><g class="trace scatter traceeec785" style="stroke-miterlimit: 2; opacity: 1;"><path class="js-line" d="M1,40.32L41.22,39.47L49.26,39.09L89.49,36.18L97.53,35.4L105.58,34.77L113.62,35.09L161.88,36.16L169.93,36.18L202.11,36.39L210.15,37.18L234.29,39.11L242.33,38.79L290.59,36.18L298.64,35.63L322.77,34.4L330.82,34.34L403.32,34.65L411.39,34.82L532.39,37.24L540.46,37.41L685.68,40.18L693.71,40.18L726.02,39.71L734.05,39.23L782.48,37.16L790.51,37.04L838.95,37.47L846.98,37.67L959.91,40.31L968,40.32" style="vector-effect: non-scaling-stroke; fill: none; stroke: rgb(0, 0, 0); stroke-opacity: 1; stroke-width: 2px; opacity: 1;"/><g class="points"/></g><g class="trace scatter trace2854c3" style="stroke-miterlimit: 2; opacity: 1;"><path class="js-line" d="M1,31.67L49.26,32.46L57.31,32.73L161.88,36.16L169.93,36.18L242.33,35.46L250.38,35.34L354.95,34.28L363,34.28L443.66,35.3L451.73,35.46L483.99,35.5L492.06,35.42L669.49,34.56L677.59,34.63L734.05,36L742.14,36.26L790.51,37.04L798.61,36.99L855.07,36.86L863.1,36.4L935.69,32.21L943.78,31.98L968,31.67" style="vector-effect: non-scaling-stroke; fill: none; stroke: rgb(0, 0, 0); stroke-opacity: 1; stroke-width: 2px; opacity: 1;"/><g class="points"/></g><g class="trace scatter trace8e00e1" style="stroke-miterlimit: 2; opacity: 1;"><path class="js-line" d="M1,31.67L49.26,32.46L57.31,32.73L105.58,34.54L113.62,33.63L129.71,31.61L137.75,31.54L169.93,33.45L177.97,34.12L202.11,36L210.15,35.91L322.77,34.01L330.82,33.56L354.95,32.88L363,32.91L459.79,33.63L467.86,33.32L508.19,30.36L516.26,29.79L548.53,28.45L556.59,28.39L588.87,29.24L596.91,29.68L653.37,32.77L661.46,32.84L814.73,32.23L822.76,32.13L927.66,31.69L935.69,31.68L968,31.67" style="vector-effect: non-scaling-stroke; fill: none; stroke: rgb(0, 0, 0); stroke-opacity: 1; stroke-width: 2px; opacity: 1;"/><g class="points"/></g><g class="trace scatter trace797325" style="stroke-miterlimit: 2; opacity: 1;"><path class="js-line" d="M1,31.67L81.44,30.97L89.49,30.9L137.75,30.52L145.8,29.37L202.11,20.27L210.15,18.89L266.46,9.77L274.5,8.65L306.68,4.98L314.73,4.31L346.91,2.8L354.95,2.74L387.19,3.36L395.26,3.72L427.53,5.96L435.59,6.72L475.93,11.57L483.99,12.71L596.91,28.94L605,29.8L637.25,32.19L645.34,32.54L677.59,32.85L685.68,32.85L798.61,32.45L806.64,32.33L911.54,31.7L919.57,31.7L968,31.67" style="vector-effect: non-scaling-stroke; fill: none; stroke: rgb(0, 0, 0); stroke-opacity: 1; stroke-width: 2px; opacity: 1;"/><g class="points"/></g><g class="trace scatter tracef3b75d" style="stroke-miterlimit: 2; opacity: 1;"><path class="js-line" d="M1,-148.34L33.18,-145.78L41.22,-144.38L81.44,-133.96L89.49,-131.37L137.75,-113.52L145.8,-109.45L186.02,-86.62L194.06,-81.66L274.5,-31.42L282.55,-27.03L306.68,-15.57L314.73,-12.48L330.82,-7.72L338.86,-6.14L354.95,-4.86L363,-4.99L387.19,-7.09L395.26,-8.3L419.46,-13.16L427.53,-15.1L475.93,-26.81L483.99,-28.12L508.19,-29.9L516.26,-29.89L556.59,-28L564.66,-27.55L621.12,-25.53L629.21,-25.4L677.59,-25.65L685.68,-26.23L709.83,-29.36L717.93,-30.85L742.14,-36.63L750.17,-39.01L774.39,-47.48L782.48,-50.77L814.73,-66.62L822.76,-71.33L855.07,-93.49L863.1,-99.74L903.44,-129.71L911.54,-134.32L935.69,-144L943.78,-145.94L968,-148.34" style="vector-effect: non-scaling-stroke; fill: none; stroke: rgb(0, 0, 0); stroke-opacity: 1; stroke-width: 2px; opacity: 1;"/><g class="points"/></g><g class="trace scatter trace05ef1a" style="stroke-miterlimit: 2; opacity: 1;"><path class="js-line" d="M1,-148.34L33.18,-145.78L41.22,-144.38L81.44,-133.96L89.49,-131.37L210.15,-92.05L218.2,-90.02L258.42,-81.64L266.46,-80.32L306.68,-75.46L314.73,-74.84L363,-73.3L371.06,-72.96L403.32,-69.57L411.39,-68.35L459.79,-61.31L467.86,-60.78L492.06,-61.85L500.12,-63.21L524.33,-69.8L532.39,-72.55L621.12,-103.11L629.21,-105L653.37,-108.42L661.46,-108.66L726.02,-111.05L734.05,-111.73L782.48,-117.94L790.51,-119.34L871.2,-136.41L879.23,-138.09L935.69,-146.84L943.78,-147.49L968,-148.34" style="vector-effect: non-scaling-stroke; fill: none; stroke: rgb(0, 0, 0); stroke-opacity: 1; stroke-width: 2px; opacity: 1;"/><g class="points"/></g><g class="trace scatter tracef6e4b9" style="stroke-miterlimit: 2; opacity: 1;"><path class="js-line" d="M1,-148.34L41.22,-145.26L49.26,-143.91L89.49,-133.53L97.53,-130.74L177.97,-101.23L186.02,-98.78L234.29,-86.32L242.33,-84.64L282.55,-78.03L290.59,-77.06L330.82,-73.93L338.86,-73.64L387.19,-74.07L395.26,-74.44L443.66,-78.61L451.73,-79.64L508.19,-88.9L516.26,-90.41L605,-105.25L613.03,-106.13L661.46,-108.66L669.49,-108.7L726.02,-111.05L734.05,-111.73L782.48,-117.94L790.51,-119.34L871.2,-136.41L879.23,-138.09L935.69,-146.84L943.78,-147.49L968,-148.34" style="vector-effect: non-scaling-stroke; fill: none; stroke: rgb(0, 0, 0); stroke-opacity: 1; stroke-width: 2px; opacity: 1;"/><g class="points"/></g><g class="trace scatter trace61b01e" style="stroke-miterlimit: 2; opacity: 1;"><path class="js-line" d="M1,-290.14L17.09,-283.73L25.13,-276.39L49.26,-245.22L57.31,-233.71L89.49,-192.69L97.53,-184.82L113.62,-172.72L121.66,-168.54L137.75,-163.8L145.8,-163.12L169.93,-166.85L177.97,-169.7L210.15,-186.6L218.2,-191.76L322.77,-260.95L330.82,-264.31L354.95,-269.01L363,-269.01L451.73,-264.96L459.79,-263.75L508.19,-251.8L516.26,-248.97L564.66,-227.46L572.72,-223.37L621.12,-201.18L629.21,-198.56L653.37,-193.9L661.46,-193.57L701.8,-190.85L709.83,-189.74L798.61,-177.11L806.64,-177.02L838.95,-180.61L846.98,-182.77L871.2,-193.5L879.23,-198.9L903.44,-222.16L911.54,-232.21L951.88,-283.02L959.91,-288.27L968,-290.14" style="vector-effect: non-scaling-stroke; fill: none; stroke: rgb(0, 0, 0); stroke-opacity: 1; stroke-width: 2px; opacity: 1;"/><g class="points"/></g><g class="trace scatter trace175c62" style="stroke-miterlimit: 2; opacity: 1;"><path class="js-line" d="M1,-290.14L57.31,-294.91L65.35,-296.35L129.71,-313.6L137.75,-316.25L242.33,-357.8L250.38,-361.28L290.59,-377.02L298.64,-373.84L346.91,-357.11L354.95,-356.58L395.26,-361.35L403.32,-363.4L427.53,-366.57L435.59,-363.85L556.59,-323.97L564.66,-321.7L629.21,-308.99L637.25,-308.23L677.59,-308.3L685.68,-309.67L726.02,-324.27L734.05,-328.58L782.48,-361.96L790.51,-368.39L806.64,-358.7L814.73,-352.57L871.2,-316.55L879.23,-312.47L927.66,-294.91L935.69,-293.17L968,-290.14" style="vector-effect: non-scaling-stroke; fill: none; stroke: rgb(0, 0, 0); stroke-opacity: 1; stroke-width: 2px; opacity: 1;"/><g class="points"/></g><g class="trace scatter trace9c90af" style="stroke-miterlimit: 2; opacity: 1;"><path class="js-line" d="M1,-290.14L57.31,-294.91L65.35,-296.35L129.71,-313.6L137.75,-316.25L242.33,-357.8L250.38,-361.28L322.77,-385.95L330.82,-387.31L371.06,-387.38L379.13,-385.34L427.53,-373.23L435.59,-376.18L508.19,-405.17L516.26,-407.06L645.34,-431.88L653.37,-432.18L709.83,-428.55L717.93,-425.75L750.17,-405.24L758.27,-398.66L838.95,-335.55L846.98,-330.4L895.41,-305.28L903.44,-302.17L943.78,-291.88L951.88,-290.9L968,-290.14" style="vector-effect: non-scaling-stroke; fill: none; stroke: rgb(0, 0, 0); stroke-opacity: 1; stroke-width: 2px; opacity: 1;"/><g class="points"/></g><g class="trace scatter tracee7e18e" style="stroke-miterlimit: 2; opacity: 1;"><path class="js-line" d="M1,-434.98L33.18,-443.46L41.22,-446.56L73.4,-453.68L81.44,-453.68L121.66,-444.37L129.71,-441.19L266.46,-386.1L274.5,-383.3L298.64,-379.67L306.68,-382.09L354.95,-389.2L363,-389.2L451.73,-394.5L459.79,-395.71L492.06,-406.53L500.12,-411.37L548.53,-435.82L556.59,-437.86L596.91,-437.56L605,-436.57L726.02,-421.97L734.05,-417.12L790.51,-371.57L798.61,-375.05L879.23,-436.12L887.32,-439.98L919.57,-445.81L927.66,-444.59L968,-434.98" style="vector-effect: non-scaling-stroke; fill: none; stroke: rgb(0, 0, 0); stroke-opacity: 1; stroke-width: 2px; opacity: 1;"/><g class="points"/></g><g class="trace scatter tracefc0d80" style="stroke-miterlimit: 2; opacity: 1;"><path class="js-line" d="M1,-619.25L41.22,-611.99L49.26,-609.11L105.58,-580.96L113.62,-575.51L186.02,-515.43L194.06,-507.71L274.5,-436.27L282.55,-431.28L314.73,-418.03L322.77,-416.29L363,-414.02L371.06,-415.31L451.73,-433.77L459.79,-434.76L540.46,-451.78L548.53,-454.43L605,-479.33L613.03,-483.79L661.46,-507.48L669.49,-505.44L726.02,-474.56L734.05,-474.11L766.3,-482.66L774.39,-486.67L822.76,-521.25L830.85,-528.44L927.66,-610.55L935.69,-613.96L968,-619.25" style="vector-effect: non-scaling-stroke; fill: none; stroke: rgb(0, 0, 0); stroke-opacity: 1; stroke-width: 2px; opacity: 1;"/><g class="points"/></g><g class="trace scatter trace83c1fe" style="stroke-miterlimit: 2; opacity: 1;"><path class="js-line" d="M1,-619.25L49.26,-610.63L57.31,-607.6L113.62,-575.74L121.66,-570.22L202.11,-504.15L210.15,-497.64L274.5,-452.31L282.55,-448L330.82,-430.9L338.86,-429.61L403.32,-429.84L411.39,-430.29L451.73,-450.04L459.79,-454.89L524.33,-488.18L532.39,-487.81L572.72,-490.76L580.79,-493.4L629.21,-506.65L637.25,-507.18L669.49,-505.44L677.59,-500.75L717.93,-476.45L726.02,-474.56L750.17,-476.61L758.27,-479.25L798.61,-501.88L806.64,-507.93L887.32,-581.94L895.41,-588.83L935.69,-613.96L943.78,-616.45L968,-619.25" style="vector-effect: non-scaling-stroke; fill: none; stroke: rgb(0, 0, 0); stroke-opacity: 1; stroke-width: 2px; opacity: 1;"/><g class="points"/></g><g class="trace scatter tracef74903" style="stroke-miterlimit: 2; opacity: 1;"><path class="js-line" d="M1,-628.64L73.4,-619.63L81.44,-617.81L186.02,-601.39L194.06,-601.77L242.33,-597.53L250.38,-596.93L379.13,-586.33L387.19,-581.26L500.12,-506.72L508.19,-504.15L532.39,-506.27L540.46,-509.15L588.87,-519.29L596.91,-519.89L677.59,-534.35L685.68,-539.72L766.3,-585.5L774.39,-588.83L855.07,-612.9L863.1,-614.56L968,-628.64" style="vector-effect: non-scaling-stroke; fill: none; stroke: rgb(0, 0, 0); stroke-opacity: 1; stroke-width: 2px; opacity: 1;"/><g class="points"/></g><g class="trace scatter tracea9b986" style="stroke-miterlimit: 2; opacity: 1;"><path class="js-line" d="M1,-628.64L73.4,-619.63L81.44,-617.81L186.02,-601.39L194.06,-601.77L242.33,-612.44L250.38,-615.7L314.73,-654.06L322.77,-658.75L354.95,-668.44L363,-668.14L435.59,-652.17L443.66,-649.83L516.26,-620.77L524.33,-616.38L605,-562.04L613.03,-556.06L661.46,-527.91L669.49,-529.88L798.61,-597.69L806.64,-600.26L895.41,-620.16L903.44,-621.37L968,-628.64" style="vector-effect: non-scaling-stroke; fill: none; stroke: rgb(0, 0, 0); stroke-opacity: 1; stroke-width: 2px; opacity: 1;"/><g class="points"/></g><g class="trace scatter trace569cbf" style="stroke-miterlimit: 2; opacity: 1;"><path class="js-line" d="M1,-628.64L105.58,-620.16L113.62,-618.8L218.2,-605.18L226.24,-607.14L274.5,-628.11L282.55,-633.03L346.91,-667.76L354.95,-668.44L427.53,-674.8L435.59,-672.38L508.19,-638.47L516.26,-634.31L572.72,-613.2L580.79,-611.99L637.25,-613.05L645.34,-613.73L701.8,-622.05L709.83,-625.46L758.27,-658.53L766.3,-666.02L806.64,-704.16L814.73,-701.28L943.78,-630.3L951.88,-629.32L968,-628.64" style="vector-effect: non-scaling-stroke; fill: none; stroke: rgb(0, 0, 0); stroke-opacity: 1; stroke-width: 2px; opacity: 1;"/><g class="points"/></g><g class="trace scatter trace1c19ff" style="stroke-miterlimit: 2; opacity: 1;"><path class="js-line" d="M1,-762.05L81.44,-751.83L89.49,-749.56L298.64,-688.72L306.68,-688.19L395.26,-692.43L403.32,-694.7L653.37,-734.28L661.46,-734.28L742.14,-732.01L750.17,-729.36L806.64,-709.99L814.73,-716.95L871.2,-760.16L879.23,-763.19L919.57,-766.89L927.66,-765.99L968,-762.05" style="vector-effect: non-scaling-stroke; fill: none; stroke: rgb(0, 0, 0); stroke-opacity: 1; stroke-width: 2px; opacity: 1;"/><g class="points"/></g><g class="trace scatter traceed435d" style="stroke-miterlimit: 2; opacity: 1;"><path class="js-line" d="M1,-762.05L81.44,-751.83L89.49,-749.56L298.64,-688.72L306.68,-688.19L395.26,-693.19L403.32,-696.44L508.19,-750.4L516.26,-752.06L572.72,-753.65L580.79,-752.52L693.71,-737.08L701.8,-738.52L871.2,-775.82L879.23,-774.99L968,-762.05" style="vector-effect: non-scaling-stroke; fill: none; stroke: rgb(0, 0, 0); stroke-opacity: 1; stroke-width: 2px; opacity: 1;"/><g class="points"/></g><g class="trace scatter tracecf56f7" style="stroke-miterlimit: 2; opacity: 1;"><path class="js-line" d="M1,-762.05L33.18,-773.86L41.22,-779.91L129.71,-859.29L137.75,-858.16L218.2,-844.16L226.24,-840.98L330.82,-808.29L338.86,-807.46L403.32,-813.89L411.39,-815.63L532.39,-832.43L540.46,-829.4L580.79,-798.83L588.87,-790.73L637.25,-751.08L645.34,-748.88L734.05,-746.84L742.14,-749.26L855.07,-776.28L863.1,-776.2L968,-762.05" style="vector-effect: non-scaling-stroke; fill: none; stroke: rgb(0, 0, 0); stroke-opacity: 1; stroke-width: 2px; opacity: 1;"/><g class="points"/></g><g class="trace scatter traceccf657" style="stroke-miterlimit: 2; opacity: 1;"><path class="js-line" d="M1,-942.23L33.18,-928.91L41.22,-922.33L121.66,-861.11L129.71,-866.94L186.02,-898.19L194.06,-900.69L258.42,-906.44L266.46,-904.47L282.55,-891.83L290.59,-881.24L338.86,-832.2L346.91,-828.87L387.19,-833.19L395.26,-836.06L483.99,-870.72L492.06,-870.42L621.12,-851.8L629.21,-850.36L701.8,-849.99L709.83,-850.97L846.98,-876.93L855.07,-880.18L927.66,-924.15L935.69,-929.75L968,-942.23" style="vector-effect: non-scaling-stroke; fill: none; stroke: rgb(0, 0, 0); stroke-opacity: 1; stroke-width: 2px; opacity: 1;"/><g class="points"/></g><g class="trace scatter trace4c2f26" style="stroke-miterlimit: 2; opacity: 1;"><path class="js-line" d="M1,-1004.29L65.35,-989.23L73.4,-985.75L250.38,-910.3L258.42,-910.9L274.5,-902.58L282.55,-891.83L338.86,-832.2L346.91,-828.87L387.19,-834.24L395.26,-837.95L483.99,-879.65L492.06,-879.12L717.93,-872.23L726.02,-873.97L798.61,-903.34L806.64,-908.1L959.91,-1003.91L968,-1004.29" style="vector-effect: non-scaling-stroke; fill: none; stroke: rgb(0, 0, 0); stroke-opacity: 1; stroke-width: 2px; opacity: 1;"/><g class="points"/></g><g class="trace scatter trace789530" style="stroke-miterlimit: 2; opacity: 1;"><path class="js-line" d="M1,-1004.29L113.62,-992.56L121.66,-985.97L169.93,-963.5L177.97,-963.72L218.2,-974.62L226.24,-965.24L290.59,-899.63L298.64,-898.34L475.93,-885.7L483.99,-891.38L524.33,-908.71L532.39,-899.78L564.66,-877.38L572.72,-876.7L709.83,-870.8L717.93,-872.23L790.51,-898.87L798.61,-903.34L887.32,-969.93L895.41,-976.06L951.88,-1002.85L959.91,-1003.91L968,-1004.29" style="vector-effect: non-scaling-stroke; fill: none; stroke: rgb(0, 0, 0); stroke-opacity: 1; stroke-width: 2px; opacity: 1;"/><g class="points"/></g><g class="trace scatter trace0a9c07" style="stroke-miterlimit: 2; opacity: 1;"><path class="js-line" d="M1,-1004.29L129.71,-1007.39L137.75,-1010.34L177.97,-1010.72L186.02,-1005.65L234.29,-955.4L242.33,-945.18L274.5,-911.89L282.55,-912.27L467.86,-922.71L475.93,-927.1L500.12,-936.48L508.19,-928.54L524.33,-918.85L532.39,-924.22L669.49,-1005.95L677.59,-1005.95L968,-1004.29" style="vector-effect: non-scaling-stroke; fill: none; stroke: rgb(0, 0, 0); stroke-opacity: 1; stroke-width: 2px; opacity: 1;"/><g class="points"/></g><g class="trace scatter traceb01109" style="stroke-miterlimit: 2; opacity: 1;"><path class="js-line" d="M1,-1057.79L49.26,-1046.59L57.31,-1041.44L113.62,-1002.02L121.66,-1004.59L169.93,-1013.97L177.97,-1010.72L226.24,-986.2L234.29,-992.03L338.86,-1056.5L346.91,-1058.02L395.26,-1048.25L403.32,-1044.02L459.79,-995.58L467.86,-985.75L508.19,-948.97L516.26,-953.81L572.72,-1005.42L580.79,-1014.73L629.21,-1050.37L637.25,-1051.36L919.57,-1059.15L927.66,-1058.85L968,-1057.79" style="vector-effect: non-scaling-stroke; fill: none; stroke: rgb(0, 0, 0); stroke-opacity: 1; stroke-width: 2px; opacity: 1;"/><g class="points"/></g><g class="trace scatter trace1c393d" style="stroke-miterlimit: 2; opacity: 1;"><path class="js-line" d="M1,-1057.79L57.31,-1071.49L65.35,-1074.66L113.62,-1082.69L121.66,-1080.72L202.11,-1066.72L210.15,-1067.63L346.91,-1089.87L354.95,-1089.8L435.59,-1075.87L443.66,-1073.91L596.91,-1048.33L605,-1048.78L911.54,-1059.3L919.57,-1059.15L968,-1057.79" style="vector-effect: non-scaling-stroke; fill: none; stroke: rgb(0, 0, 0); stroke-opacity: 1; stroke-width: 2px; opacity: 1;"/><g class="points"/></g></g></g><g class="overplot"/><path class="xlines-above crisp" d="M79,727.5H1051M79,99.5H1051" style="fill: none; stroke-width: 1px; stroke: rgb(68, 68, 68); stroke-opacity: 1;"/><path class="ylines-above crisp" d="M79.5,100V727M1050.5,100V727" style="fill: none; stroke-width: 1px; stroke: rgb(68, 68, 68); stroke-opacity: 1;"/><g class="overlines-above"/><g class="xaxislayer-above"><g class="xtick"><text text-anchor="middle" x="0" y="748.4" transform="translate(81,0)" style="font-family: 'Open Sans', verdana, arial, sans-serif; font-size: 17px; fill: rgb(68, 68, 68); fill-opacity: 1; white-space: pre;">Γ</text></g><g class="xtick"><text text-anchor="middle" x="0" y="748.4" transform="translate(434.95,0)" style="font-family: 'Open Sans', verdana, arial, sans-serif; font-size: 17px; fill: rgb(68, 68, 68); fill-opacity: 1; white-space: pre;">X</text></g><g class="xtick"><text text-anchor="middle" x="0" y="748.4" transform="translate(741.48,0)" style="font-family: 'Open Sans', verdana, arial, sans-serif; font-size: 17px; fill: rgb(68, 68, 68); fill-opacity: 1; white-space: pre;">L</text></g><g class="xtick"><text text-anchor="middle" x="0" y="748.4" transform="translate(1048.01,0)" style="font-family: 'Open Sans', verdana, arial, sans-serif; font-size: 17px; fill: rgb(68, 68, 68); fill-opacity: 1; white-space: pre;">Γ</text></g></g><g class="yaxislayer-above"><g class="ytick"><text text-anchor="end" x="75.6" y="5.949999999999999" transform="translate(0,705.73)" style="font-family: 'Open Sans', verdana, arial, sans-serif; font-size: 17px; fill: rgb(68, 68, 68); fill-opacity: 1; white-space: pre;">−5</text></g><g class="ytick"><text text-anchor="end" x="75.6" y="5.949999999999999" transform="translate(0,566.6800000000001)" style="font-family: 'Open Sans', verdana, arial, sans-serif; font-size: 17px; fill: rgb(68, 68, 68); fill-opacity: 1; white-space: pre;">0</text></g><g class="ytick"><text text-anchor="end" x="75.6" y="5.949999999999999" transform="translate(0,427.63)" style="font-family: 'Open Sans', verdana, arial, sans-serif; font-size: 17px; fill: rgb(68, 68, 68); fill-opacity: 1; white-space: pre;">5</text></g><g class="ytick"><text text-anchor="end" x="75.6" y="5.949999999999999" transform="translate(0,288.58000000000004)" style="font-family: 'Open Sans', verdana, arial, sans-serif; font-size: 17px; fill: rgb(68, 68, 68); fill-opacity: 1; white-space: pre;">10</text></g><g class="ytick"><text text-anchor="end" x="75.6" y="5.949999999999999" transform="translate(0,149.53)" style="font-family: 'Open Sans', verdana, arial, sans-serif; font-size: 17px; fill: rgb(68, 68, 68); fill-opacity: 1; white-space: pre;">15</text></g></g><g class="overaxes-above"/></g></g><g class="polarlayer"/><g class="ternarylayer"/><g class="geolayer"/><g class="pielayer"/><g class="glimages"/><defs id="topdefs-264745"><g class="clips"/></defs><g class="layer-above"><g class="imagelayer"/><g class="shapelayer"><path data-index="0" fill-rule="evenodd" d="M80,566.6800000000001L1049,566.6800000000001" clip-path="url(#clip264745xy)" style="opacity: 1; stroke: rgb(255, 0, 0); stroke-opacity: 1; fill: rgb(0, 0, 0); fill-opacity: 0; stroke-width: 2px;"/></g></g><g class="infolayer"><g class="g-gtitle"><text class="gtitle" x="565" y="50" text-anchor="middle" style="font-family: 'Open Sans', verdana, arial, sans-serif; font-size: 24px; fill: rgb(68, 68, 68); opacity: 1; font-weight: normal; white-space: pre;">BAND STRUCTURE HF</text></g><g class="g-xtitle"><text class="xtitle" x="565" y="797" text-anchor="middle" style="font-family: 'Open Sans', verdana, arial, sans-serif; font-size: 20px; fill: rgb(68, 68, 68); opacity: 1; font-weight: normal; white-space: pre;">k-points</text></g><g class="g-ytitle"><text class="ytitle" transform="rotate(-90,30,413.5)" x="30" y="413.5" text-anchor="middle" style="font-family: 'Open Sans', verdana, arial, sans-serif; font-size: 20px; fill: rgb(68, 68, 68); opacity: 1; font-weight: normal; white-space: pre;">E-EFERMI (eV)</text></g></g></svg>