<svg class="main-svg" xmlns="http://www.w3.org/2000/svg" xmlns:xlink="http://www.w3.org/1999/xlink" width="1130" height="807" style="" viewBox="0 0 1130 807"><rect x="0" y="0" width="1130" height="807" style="fill: rgb(238, 238, 238); fill-opacity: 1;"/><defs id="defs-9235e1"><g class="clips"><clipPath class="plotclip" id="clip9235e1xyplot"><rect width="970" height="627"/></clipPath><clipPath class="axesclip" id="clip9235e1x"><rect x="80" y="0" width="970" height="807"/></clipPath><clipPath class="axesclip" id="clip9235e1y"><rect x="0" y="100" width="1130" height="627"/></clipPath><clipPath class="axesclip" id="clip9235e1xy"><rect x="80" y="100" width="970" height="627"/></clipPath></g><g class="gradients"/></defs><g class="bglayer"><rect class="bg" x="80" y="100" width="970" height="627" style="fill: rgb(255, 255, 255); fill-opacity: 1; stroke-width: 0;"/></g><g class="layer-below"><g class="imagelayer"/><g class="shapelayer"/></g><g class="cartesianlayer"><g class="subplot xy"><g class="layer-subplot"><g class="shapelayer"/><g class="imagelayer"/></g><g class="gridlayer"><g class="x"><path class="xgrid crisp" d="M0,100v627" transform="translate(434.73,0)" style="stroke: rgb(176, 176, 176); stroke-opacity: 1; stroke-width: 2px;"/><path class="xgrid crisp" d="M0,100v627" transform="translate(741.37,0)" style="stroke: rgb(176, 176, 176); stroke-opacity: 1; stroke-width: 2px;"/><path class="xgrid crisp" d="M0,100v627" transform="translate(1047.99,0)" style="stroke: rgb(176, 176, 176); stroke-opacity: 1; stroke-width: 2px;"/></g><g class="y"><path class="ygrid crisp" d="M80,0h970" transform="translate(0,721)" style="stroke: rgb(238, 238, 238); stroke-opacity: 1; stroke-width: 1px;"/><path class="ygrid crisp" d="M80,0h970" transform="translate(0,581)" style="stroke: rgb(238, 238, 238); stroke-opacity: 1; stroke-width: 1px;"/><path class="ygrid crisp" d="M80,0h970" transform="translate(0,441)" style="stroke: rgb(238, 238, 238); stroke-opacity: 1; stroke-width: 1px;"/><path class="ygrid crisp" d="M80,0h970" transform="translate(0,301)" style="stroke: rgb(238, 238, 238); stroke-opacity: 1; stroke-width: 1px;"/><path class="ygrid crisp" d="M80,0h970" transform="translate(0,161)" style="stroke: rgb(238, 238, 238); stroke-opacity: 1; stroke-width: 1px;"/></g></g><g class="zerolinelayer"/><path class="xlines-below"/><path class="ylines-below"/><g class="overlines-below"/><g class="xaxislayer-below"/><g class="yaxislayer-below"/><g class="overaxes-below"/><g class="plot" transform="translate(80, 100)" clip-path="url(#clip9235e1xyplot)"><g class="imagelayer"/><g class="maplayer"/><g class="barlayer"/><g class="carpetlayer"/><g class="violinlayer"/><g class="boxlayer"/><g class="scatterlayer"><g class="trace scatter trace58b17e" style="stroke-miterlimit: 2; opacity: 1;"><path class="js-line" d="M0.67,887.72L113.33,891.47L121.37,891.96L354.73,903.06L362.78,903.05L516.09,898.2L524.16,897.82L693.62,893.67L701.71,893.58L968,887.72" style="vector-effect: non-scaling-stroke; fill: none; stroke: rgb(0, 0, 0); stroke-opacity: 1; stroke-width: 2px; opacity: 1;"/><g class="points"/></g><g class="trace scatter trace9e096c" style="stroke-miterlimit: 2; opacity: 1;"><path class="js-line" d="M0.67,887.72L113.33,891.47L121.37,891.96L354.73,903.06L362.78,902.76L403.12,894.85L411.19,892.62L499.96,870.35L508.02,869.35L540.3,869.14L548.37,870.1L596.79,881.39L604.83,883.64L653.24,893.55L661.34,893.83L846.94,889.86L854.98,889.61L968,887.72" style="vector-effect: non-scaling-stroke; fill: none; stroke: rgb(0, 0, 0); stroke-opacity: 1; stroke-width: 2px; opacity: 1;"/><g class="points"/></g><g class="trace scatter trace5ece54" style="stroke-miterlimit: 2; opacity: 1;"><path class="js-line" d="M0.67,887.72L32.85,884.11L40.9,882.29L105.28,862.34L113.33,859.58L225.98,823.18L234.03,821.05L290.36,809.19L298.4,808.01L346.69,804.16L354.73,804.08L403.12,807.04L411.19,808.07L483.82,821.68L491.89,823.27L540.3,828.88L548.37,828.89L612.93,824.29L620.97,823.72L677.48,822.63L685.58,823.05L733.99,828.87L742.03,830.34L806.57,846.31L814.67,848.69L943.76,885.77L951.86,886.83L968,887.72" style="vector-effect: non-scaling-stroke; fill: none; stroke: rgb(0, 0, 0); stroke-opacity: 1; stroke-width: 2px; opacity: 1;"/><g class="points"/></g><g class="trace scatter trace4d2668" style="stroke-miterlimit: 2; opacity: 1;"><path class="js-line" d="M0.67,584.67L32.85,583.76L40.9,583.26L73.09,580.17L81.13,579.14L113.33,574.02L121.37,572.52L153.56,565.68L161.6,563.78L193.79,555.55L201.84,555.61L234.03,566.8L242.08,569.32L266.22,576.06L274.26,578L298.4,582.84L306.45,584.1L330.59,586.74L338.64,587.24L362.78,587.55L370.85,587.28L395.06,585.45L403.12,584.51L427.34,580.74L435.4,579.2L467.68,571.84L475.75,569.77L524.16,557.36L532.24,555.85L548.37,554.23L556.44,554.16L580.65,555.71L588.7,556.45L629.07,559.63L637.11,560.02L669.44,560.57L677.48,560.67L717.85,562.15L725.89,562.64L766.26,566.05L774.3,566.89L838.85,574.8L846.94,575.81L895.35,581.16L903.39,581.86L935.67,583.94L943.76,584.26L968,584.67" style="vector-effect: non-scaling-stroke; fill: none; stroke: rgb(0, 0, 0); stroke-opacity: 1; stroke-width: 2px; opacity: 1;"/><g class="points"/></g><g class="trace scatter tracec91814" style="stroke-miterlimit: 2; opacity: 1;"><path class="js-line" d="M0.67,584.67L32.85,583.76L40.9,583.26L73.09,580.17L81.13,579.14L113.33,574.02L121.37,572.52L153.56,565.68L161.6,563.78L201.84,553.36L209.88,551.12L282.31,529.89L290.36,527.55L322.55,518.87L330.59,517.06L346.69,514.52L354.73,514.14L370.85,514.82L378.92,515.59L411.19,520.25L419.27,521.62L451.54,527.75L459.61,529.52L548.37,548.84L556.44,550.33L588.7,555.46L596.79,556.5L629.07,559.51L637.11,559.96L669.44,560.57L677.48,560.67L717.85,562.15L725.89,562.64L766.26,566.05L774.3,566.89L838.85,574.8L846.94,575.81L895.35,581.16L903.39,581.86L935.67,583.94L943.76,584.26L968,584.67" style="vector-effect: non-scaling-stroke; fill: none; stroke: rgb(0, 0, 0); stroke-opacity: 1; stroke-width: 2px; opacity: 1;"/><g class="points"/></g><g class="trace scatter tracec0f7b1" style="stroke-miterlimit: 2; opacity: 1;"><path class="js-line" d="M0.67,584.67L24.81,583.77L32.85,583.08L56.99,579.85L65.04,578.41L89.18,573.08L97.23,570.98L129.42,561.25L137.46,558.53L169.65,546.81L177.7,546.35L193.79,552.59L201.84,553.36L266.22,534.65L274.26,532.26L314.5,520.88L322.55,518.87L338.64,515.56L346.69,514.52L362.78,514.28L370.85,514.68L395.06,517.22L403.12,518.42L435.4,524.34L443.47,525.95L508.02,537.09L516.09,538.1L532.24,539.23L540.3,539.12L556.44,537.24L564.51,535.61L596.79,527.28L604.83,525.11L637.11,517.32L645.21,515.97L661.34,515.46L669.44,515.74L693.62,518.08L701.71,519.17L725.89,523.38L733.99,525.11L758.16,531.23L766.26,533.56L798.53,543.93L806.57,546.71L871.12,568.53L879.22,570.9L903.39,577.11L911.49,578.82L935.67,582.72L943.76,583.56L968,584.67" style="vector-effect: non-scaling-stroke; fill: none; stroke: rgb(0, 0, 0); stroke-opacity: 1; stroke-width: 2px; opacity: 1;"/><g class="points"/></g><g class="trace scatter trace6be3d2" style="stroke-miterlimit: 2; opacity: 1;"><path class="js-line" d="M0.67,497.45L16.76,497.99L24.81,498.66L40.9,500.79L48.95,502.24L73.09,507.95L81.13,510.26L105.28,518.2L113.33,521.11L161.6,539.97L169.65,543.17L177.7,543.74L185.74,540.64L242.08,519.53L250.12,516.81L274.26,509.46L282.31,507.34L306.45,502.14L314.5,500.84L330.59,499.24L338.64,500.36L354.73,501.47L362.78,501.42L411.19,500.51L419.27,501.12L475.75,506.62L483.82,507.43L540.3,512.14L548.37,512.64L596.79,514.63L604.83,514.82L645.21,515.24L653.24,514.78L798.53,508.93L806.57,508.34L879.22,501.94L887.26,501.25L927.63,498.48L935.67,498.11L968,497.45" style="vector-effect: non-scaling-stroke; fill: none; stroke: rgb(0, 0, 0); stroke-opacity: 1; stroke-width: 2px; opacity: 1;"/><g class="points"/></g><g class="trace scatter trace24790d" style="stroke-miterlimit: 2; opacity: 1;"><path class="js-line" d="M0.67,497.45L40.9,496.74L48.95,496.43L97.23,493.72L105.28,493.16L185.74,488.14L193.79,487.88L225.98,487.74L234.03,487.96L266.22,490.07L274.26,490.9L306.45,495.33L314.5,496.64L346.69,501.17L354.73,501.47L378.92,500.38L386.99,499.85L451.54,499.38L459.61,499.37L516.09,500.13L524.16,500.32L645.21,502.67L653.24,502.7L790.44,502.38L798.53,502.19L879.22,499.36L887.26,499.06L951.86,497.52L959.9,497.46L968,497.45" style="vector-effect: non-scaling-stroke; fill: none; stroke: rgb(0, 0, 0); stroke-opacity: 1; stroke-width: 2px; opacity: 1;"/><g class="points"/></g><g class="trace scatter traced03ade" style="stroke-miterlimit: 2; opacity: 1;"><path class="js-line" d="M0.67,497.45L40.9,496.74L48.95,496.43L97.23,493.72L105.28,493.16L185.74,488.14L193.79,487.88L225.98,487.74L234.03,487.96L266.22,490.07L274.26,490.9L306.45,495.33L314.5,496.64L330.59,498.92L338.64,498.31L362.78,497.87L370.85,497.99L395.06,497.93L403.12,497.21L467.68,490.62L475.75,490.06L508.02,488.78L516.09,488.73L548.37,489.69L556.44,490.23L588.7,493.5L596.79,494.56L653.24,502.43L661.34,502.71L790.44,502.38L798.53,502.19L879.22,499.36L887.26,499.06L951.86,497.52L959.9,497.46L968,497.45" style="vector-effect: non-scaling-stroke; fill: none; stroke: rgb(0, 0, 0); stroke-opacity: 1; stroke-width: 2px; opacity: 1;"/><g class="points"/></g><g class="trace scatter tracefdd34c" style="stroke-miterlimit: 2; opacity: 1;"><path class="js-line" d="M0.67,421.05L73.09,421.88L81.13,422.06L314.5,427.36L322.55,427.42L395.06,427.11L403.12,426.97L499.96,426.11L508.02,426.2L677.48,428.1L685.58,427.89L717.85,426.22L725.89,425.63L750.12,424.22L758.16,424.06L919.53,421.18L927.63,421.14L968,421.05" style="vector-effect: non-scaling-stroke; fill: none; stroke: rgb(0, 0, 0); stroke-opacity: 1; stroke-width: 2px; opacity: 1;"/><g class="points"/></g><g class="trace scatter trace7c654d" style="stroke-miterlimit: 2; opacity: 1;"><path class="js-line" d="M0.67,421.05L201.84,421.28L209.88,421.53L338.64,426.06L346.69,426.12L516.09,425.85L524.16,425.79L782.4,423.53L790.44,423.34L903.39,421.29L911.49,421.23L968,421.05" style="vector-effect: non-scaling-stroke; fill: none; stroke: rgb(0, 0, 0); stroke-opacity: 1; stroke-width: 2px; opacity: 1;"/><g class="points"/></g><g class="trace scatter trace235805" style="stroke-miterlimit: 2; opacity: 1;"><path class="js-line" d="M0.67,421.05L201.84,421.28L209.88,421.53L338.64,426.06L346.69,426.12L411.19,425.54L419.27,425.29L524.16,421.68L532.24,421.96L629.07,424.87L637.11,424.97L709.75,424.82L717.85,424.73L742.03,424.26L750.12,423.51L774.3,421.03L782.4,420.98L968,421.05" style="vector-effect: non-scaling-stroke; fill: none; stroke: rgb(0, 0, 0); stroke-opacity: 1; stroke-width: 2px; opacity: 1;"/><g class="points"/></g><g class="trace scatter trace83fb42" style="stroke-miterlimit: 2; opacity: 1;"><path class="js-line" d="M0.67,417.04L81.13,416.39L89.18,416.24L137.46,415.08L145.51,415.74L201.84,419.28L209.88,419.65L274.26,421.75L282.31,421.91L354.73,422.6L362.78,422.6L459.61,421.8L467.68,421.64L508.02,421.3L516.09,421.45L572.58,420.86L580.65,420.86L774.3,420.98L782.4,420.16L822.71,416.34L830.81,415.99L863.08,416.05L871.12,416.18L968,417.04" style="vector-effect: non-scaling-stroke; fill: none; stroke: rgb(0, 0, 0); stroke-opacity: 1; stroke-width: 2px; opacity: 1;"/><g class="points"/></g><g class="trace scatter trace0c9f4b" style="stroke-miterlimit: 2; opacity: 1;"><path class="js-line" d="M0.67,403.93L24.81,404.58L32.85,405.06L73.09,408.72L81.13,409.57L137.46,414.87L145.51,414.55L201.84,411.87L209.88,412.16L258.17,412.94L266.22,412.95L395.06,413.23L403.12,413.47L499.96,416.83L508.02,416.73L540.3,415.13L548.37,414.54L629.07,408.58L637.11,408.26L669.44,407.83L677.48,407.87L717.85,408.91L725.89,409.28L814.67,413.01L822.71,412.95L846.94,411.49L854.98,410.75L919.53,405.39L927.63,404.95L959.9,403.97L968,403.93" style="vector-effect: non-scaling-stroke; fill: none; stroke: rgb(0, 0, 0); stroke-opacity: 1; stroke-width: 2px; opacity: 1;"/><g class="points"/></g><g class="trace scatter trace2b4379" style="stroke-miterlimit: 2; opacity: 1;"><path class="js-line" d="M0.67,403.93L56.99,404.75L65.04,404.99L129.42,407.97L137.46,408.44L217.94,412.4L225.98,412.59L282.31,412.91L290.36,412.88L411.19,412.94L419.27,413L491.89,412.97L499.96,412.82L556.44,410.79L564.51,410.43L637.11,408.01L645.21,407.91L701.71,408.11L709.75,408.22L806.57,409.12L814.67,409.03L863.08,407.63L871.12,407.27L951.86,404.06L959.9,403.96L968,403.93" style="vector-effect: non-scaling-stroke; fill: none; stroke: rgb(0, 0, 0); stroke-opacity: 1; stroke-width: 2px; opacity: 1;"/><g class="points"/></g><g class="trace scatter tracef6b4b6" style="stroke-miterlimit: 2; opacity: 1;"><path class="js-line" d="M0.67,403.93L56.99,404.75L65.04,404.99L129.42,407.97L137.46,408.44L193.79,411.54L201.84,411.27L250.12,406.74L258.17,405.84L322.55,399.02L330.59,398.48L354.73,397.77L362.78,397.8L403.12,398.87L411.19,399.22L556.44,406.18L564.51,406.4L637.11,407.48L645.21,407.52L717.85,408.34L725.89,408.48L806.57,409.12L814.67,409.03L863.08,407.63L871.12,407.27L951.86,404.06L959.9,403.96L968,403.93" style="vector-effect: non-scaling-stroke; fill: none; stroke: rgb(0, 0, 0); stroke-opacity: 1; stroke-width: 2px; opacity: 1;"/><g class="points"/></g><g class="trace scatter tracea5cf20" style="stroke-miterlimit: 2; opacity: 1;"><path class="js-line" d="M0.67,311.53L32.85,310.61L40.9,310.09L73.09,306.93L81.13,305.88L105.28,302.86L113.33,302.23L137.46,301.06L145.51,300.94L169.65,301.47L177.7,301.93L209.88,305L217.94,306.01L306.45,317.72L314.5,318.42L338.64,319.81L346.69,320.01L370.85,319.78L378.92,319.4L411.19,316.67L419.27,315.74L475.75,308.1L483.82,306.98L540.3,299.89L548.37,299.01L596.79,294.6L604.83,294.02L645.21,292.14L653.24,292L750.12,292.19L758.16,292.42L790.44,294.12L798.53,294.74L838.85,298.99L846.94,300.02L919.53,309.09L927.63,309.8L951.86,311.25L959.9,311.46L968,311.53" style="vector-effect: non-scaling-stroke; fill: none; stroke: rgb(0, 0, 0); stroke-opacity: 1; stroke-width: 2px; opacity: 1;"/><g class="points"/></g><g class="trace scatter trace7798b6" style="stroke-miterlimit: 2; opacity: 1;"><path class="js-line" d="M0.67,311.53L24.81,310.79L32.85,310.24L73.09,306.16L81.13,305.26L105.28,302.17L113.33,300.75L153.56,292.59L161.6,290.78L274.26,264.78L282.31,263.3L306.45,259.59L314.5,258.64L338.64,256.77L346.69,256.5L370.85,256.67L378.92,257L411.19,259.54L419.27,260.46L451.54,265.03L459.61,266.35L572.58,285.57L580.65,286.62L612.93,289.98L620.97,290.58L653.24,291.91L661.34,291.96L758.16,292.42L766.26,292.72L798.53,294.74L806.57,295.45L846.94,300.02L854.98,301.08L919.53,309.09L927.63,309.8L951.86,311.25L959.9,311.46L968,311.53" style="vector-effect: non-scaling-stroke; fill: none; stroke: rgb(0, 0, 0); stroke-opacity: 1; stroke-width: 2px; opacity: 1;"/><g class="points"/></g><g class="trace scatter tracecc7231" style="stroke-miterlimit: 2; opacity: 1;"><path class="js-line" d="M0.67,144.66L24.81,145.53L32.85,146.22L56.99,149.41L65.04,150.86L89.18,156.32L97.23,158.51L121.37,166.11L129.42,168.97L153.56,178.45L161.6,181.88L193.79,196.6L201.84,200.46L266.22,231.12L274.26,234.56L298.4,243.63L306.45,246.13L322.55,250.14L330.59,251.61L346.69,253.31L354.73,253.53L378.92,252.61L386.99,251.9L411.19,248.71L419.27,247.33L451.54,240.76L459.61,239.01L483.82,234.26L491.89,233.02L508.02,231.37L516.09,230.97L540.3,231.07L548.37,231.36L629.07,234.22L637.11,234.33L677.48,234.11L685.58,233.66L709.75,231.25L717.85,230.08L742.03,225.53L750.12,223.66L774.3,216.99L782.4,214.41L806.57,205.43L814.67,201.98L838.85,190.12L846.94,185.68L887.26,162.85L895.35,159.05L911.49,152.91L919.53,150.57L935.67,147.19L943.76,146.06L959.9,144.82L968,144.66" style="vector-effect: non-scaling-stroke; fill: none; stroke: rgb(0, 0, 0); stroke-opacity: 1; stroke-width: 2px; opacity: 1;"/><g class="points"/></g><g class="trace scatter trace9fb865" style="stroke-miterlimit: 2; opacity: 1;"><path class="js-line" d="M0.67,144.66L24.81,145.38L32.85,145.94L56.99,148.46L65.04,149.56L97.23,154.98L105.28,156.53L217.94,178.66L225.98,179.92L258.17,184.19L266.22,185.06L298.4,187.75L306.45,188.23L346.69,189.51L354.73,189.54L378.92,190.42L386.99,191.08L411.19,193.96L419.27,195.14L467.68,202.27L475.75,203.05L491.89,203.74L499.96,203.56L516.09,202.04L524.16,200.74L548.37,195.43L556.44,193.38L612.93,178.94L620.97,177.22L637.11,174.45L645.21,173.49L661.34,172.69L669.44,172.66L709.75,171.32L717.85,170.82L758.16,167.21L766.26,166.29L814.67,159.73L822.71,158.54L887.26,149.66L895.35,148.77L927.63,145.98L935.67,145.51L968,144.66" style="vector-effect: non-scaling-stroke; fill: none; stroke: rgb(0, 0, 0); stroke-opacity: 1; stroke-width: 2px; opacity: 1;"/><g class="points"/></g><g class="trace scatter traceb0c4e4" style="stroke-miterlimit: 2; opacity: 1;"><path class="js-line" d="M0.67,144.66L24.81,145.38L32.85,145.94L56.99,148.46L65.04,149.56L97.23,154.98L105.28,156.53L217.94,178.66L225.98,179.92L258.17,184.19L266.22,185.06L298.4,187.75L306.45,188.23L346.69,189.51L354.73,189.54L403.12,188.85L411.19,188.58L459.61,186.06L467.68,185.5L540.3,179.26L548.37,178.54L604.83,174.33L612.93,173.91L653.24,172.73L661.34,172.69L693.62,172.09L701.71,171.74L733.99,169.59L742.03,168.87L782.4,164.26L790.44,163.18L895.35,148.77L903.39,147.94L935.67,145.51L943.76,145.14L968,144.66" style="vector-effect: non-scaling-stroke; fill: none; stroke: rgb(0, 0, 0); stroke-opacity: 1; stroke-width: 2px; opacity: 1;"/><g class="points"/></g><g class="trace scatter trace6a8a0e" style="stroke-miterlimit: 2; opacity: 1;"><path class="js-line" d="M0.67,6.6L8.71,8.36L16.76,13.36L24.81,20.88L32.85,30.12L73.09,81.55L81.13,90.43L97.23,105.33L105.28,111.22L113.33,116.05L121.37,119.81L129.42,122.54L137.46,124.3L145.51,125.13L153.56,125.1L169.65,122.77L177.7,120.6L193.79,114.61L201.84,110.92L217.94,102.45L225.98,97.77L250.12,82.48L258.17,77.1L314.5,39.19L322.55,34.45L338.64,26.86L346.69,24.61L354.73,23.81L362.78,23.95L386.99,25.92L395.06,26.98L427.34,32.55L435.4,34.21L467.68,42.02L475.75,44.33L499.96,52.2L508.02,55.17L532.24,65.07L540.3,68.67L580.65,88.11L588.7,91.99L612.93,102.66L620.97,105.65L637.11,110.36L645.21,111.93L661.34,113.23L669.44,113.35L693.62,114.94L701.71,115.83L742.03,121.62L750.12,122.79L774.3,125.67L782.4,126.3L798.53,126.87L806.57,126.73L822.71,125.46L830.81,124.23L846.94,120.3L854.98,117.43L863.08,113.78L871.12,109.2L879.22,103.55L887.26,96.69L895.35,88.56L903.39,79.19L919.53,57.48L927.63,45.83L943.76,23.63L951.86,14.75L959.9,8.74L968,6.6" style="vector-effect: non-scaling-stroke; fill: none; stroke: rgb(0, 0, 0); stroke-opacity: 1; stroke-width: 2px; opacity: 1;"/><g class="points"/></g><g class="trace scatter trace4a09ed" style="stroke-miterlimit: 2; opacity: 1;"><path class="js-line" d="M0.67,6.6L56.99,6.28L65.04,5.92L89.18,3.96L97.23,3.01L129.42,-2.06L137.46,-3.61L177.7,-12.47L185.74,-14.4L274.26,-34.84L282.31,-36.29L314.5,-40.8L322.55,-36.7L338.64,-29.44L346.69,-27.27L362.78,-26.74L370.85,-27.41L395.06,-30.21L403.12,-30.27L419.27,-28.25L427.34,-26.55L499.96,-8.35L508.02,-6.65L548.37,0.82L556.44,2.18L596.79,8.17L604.83,9.13L637.11,11.83L645.21,12.17L669.44,12.17L677.48,11.32L693.62,7.96L701.71,5.49L717.85,-0.91L725.89,-4.79L742.03,-13.74L750.12,-18.76L782.4,-41.69L790.44,-47.97L806.57,-59.17L814.67,-53.42L846.94,-31.96L854.98,-27.16L879.22,-14.48L887.26,-10.87L903.39,-4.63L911.49,-2.01L927.63,2.2L935.67,3.78L951.86,5.89L959.9,6.43L968,6.6" style="vector-effect: non-scaling-stroke; fill: none; stroke: rgb(0, 0, 0); stroke-opacity: 1; stroke-width: 2px; opacity: 1;"/><g class="points"/></g><g class="trace scatter trace1f1e57" style="stroke-miterlimit: 2; opacity: 1;"><path class="js-line" d="M0.67,6.6L56.99,6.28L65.04,5.92L89.18,3.96L97.23,3.01L129.42,-2.06L137.46,-3.61L177.7,-12.47L185.74,-14.4L274.26,-34.84L282.31,-36.29L314.5,-40.8L322.55,-41.54L354.73,-42.9L362.78,-42.82L395.06,-42.94L403.12,-44.39L419.27,-48.55L427.34,-49.99L475.75,-61L483.82,-63.04L548.37,-77.96L556.44,-79.46L604.83,-86.57L612.93,-87.4L653.24,-89.8L661.34,-89.86L701.71,-92.25L709.75,-93.06L733.99,-94.32L742.03,-93.66L758.16,-89.41L766.26,-85.74L790.44,-70.63L798.53,-64.93L838.85,-37.01L846.94,-31.96L871.12,-18.4L879.22,-14.48L895.35,-7.58L903.39,-4.63L919.53,0.26L927.63,2.2L943.76,5.02L951.86,5.89L968,6.6" style="vector-effect: non-scaling-stroke; fill: none; stroke: rgb(0, 0, 0); stroke-opacity: 1; stroke-width: 2px; opacity: 1;"/><g class="points"/></g><g class="trace scatter trace887007" style="stroke-miterlimit: 2; opacity: 1;"><path class="js-line" d="M0.67,-103.78L16.76,-107.98L24.81,-112.39L65.04,-134.89L73.09,-137.53L97.23,-140.62L105.28,-140.18L129.42,-135.36L137.46,-132.82L169.65,-119.72L177.7,-115.97L242.08,-83.37L250.12,-79.01L298.4,-50.75L306.45,-45.89L314.5,-41.16L322.55,-41.54L354.73,-42.9L362.78,-42.99L395.06,-45.15L403.12,-46.12L411.19,-47.26L419.27,-50L443.47,-62.55L451.54,-67.33L516.09,-105.09L524.16,-108.04L540.3,-110.99L548.37,-110.86L572.58,-106.05L580.65,-103.75L620.97,-93.59L629.07,-92.26L661.34,-89.86L669.44,-89.97L709.75,-93.06L717.85,-93.79L742.03,-93.66L750.12,-92.07L766.26,-85.74L774.3,-81.24L806.57,-60.9L814.67,-67.47L863.08,-104.71L871.12,-109.8L887.26,-117.89L895.35,-120.58L911.49,-122.44L919.53,-121.42L935.67,-115.77L943.76,-111.78L959.9,-104.89L968,-103.78" style="vector-effect: non-scaling-stroke; fill: none; stroke: rgb(0, 0, 0); stroke-opacity: 1; stroke-width: 2px; opacity: 1;"/><g class="points"/></g><g class="trace scatter trace6d8836" style="stroke-miterlimit: 2; opacity: 1;"><path class="js-line" d="M0.67,-280.93L40.9,-276.1L48.95,-274.17L105.28,-255.87L113.33,-249.9L177.7,-196.46L185.74,-189.55L242.08,-144.42L250.12,-138.79L282.31,-119.4L290.36,-115.46L314.5,-106.16L322.55,-103.96L346.69,-100.26L354.73,-100.01L403.12,-101.66L411.19,-102.27L459.61,-108.31L467.68,-109.81L508.02,-120.38L516.09,-123.22L548.37,-137.26L556.44,-141.42L604.83,-170.51L612.93,-175.77L653.24,-198.33L661.34,-199.51L677.48,-194.76L685.58,-189.97L742.03,-152.91L750.12,-150.51L766.26,-150.14L774.3,-152.02L798.53,-163.63L806.57,-168.96L838.85,-195.06L846.94,-202.45L919.53,-267.39L927.63,-272.06L951.86,-279.81L959.9,-280.67L968,-280.93" style="vector-effect: non-scaling-stroke; fill: none; stroke: rgb(0, 0, 0); stroke-opacity: 1; stroke-width: 2px; opacity: 1;"/><g class="points"/></g><g class="trace scatter trace5b5033" style="stroke-miterlimit: 2; opacity: 1;"><path class="js-line" d="M0.67,-280.93L40.9,-276.1L48.95,-274.17L113.33,-254.17L121.37,-249.26L177.7,-209.65L185.74,-203.46L250.12,-156.56L258.17,-151.75L290.36,-136.54L298.4,-133.8L330.59,-126.81L338.64,-125.98L370.85,-125.97L378.92,-126.79L411.19,-133.14L419.27,-135.48L459.61,-150.9L467.68,-154.43L491.89,-163.51L499.96,-165.08L548.37,-168.5L556.44,-171.26L620.97,-197.07L629.07,-198.17L661.34,-199.51L669.44,-198.21L685.58,-189.97L693.62,-184.43L733.99,-156.6L742.03,-152.91L758.16,-149.59L766.26,-150.14L782.4,-155.02L790.44,-158.94L814.67,-174.84L822.71,-181.2L871.12,-225.63L879.22,-233.42L919.53,-267.39L927.63,-272.06L951.86,-279.81L959.9,-280.67L968,-280.93" style="vector-effect: non-scaling-stroke; fill: none; stroke: rgb(0, 0, 0); stroke-opacity: 1; stroke-width: 2px; opacity: 1;"/><g class="points"/></g><g class="trace scatter trace541947" style="stroke-miterlimit: 2; opacity: 1;"><path class="js-line" d="M0.67,-280.93L65.04,-279.63L73.09,-275.83L121.37,-253.17L129.42,-251.32L169.65,-246.49L177.7,-246.64L209.88,-251.87L217.94,-254.46L266.22,-274.25L274.26,-274.45L362.78,-275.2L370.85,-272.58L395.06,-258.11L403.12,-252.19L467.68,-207.29L475.75,-203.27L491.89,-197.88L499.96,-197.08L524.16,-201.91L532.24,-204.58L572.58,-214.17L580.65,-215.21L620.97,-222.93L629.07,-225.08L661.34,-229.89L669.44,-230.94L701.71,-245.08L709.75,-248.96L758.16,-267.81L766.26,-270.19L822.71,-281.99L830.81,-283.14L911.49,-290.83L919.53,-289.69L951.86,-281.76L959.9,-281.15L968,-280.93" style="vector-effect: non-scaling-stroke; fill: none; stroke: rgb(0, 0, 0); stroke-opacity: 1; stroke-width: 2px; opacity: 1;"/><g class="points"/></g><g class="trace scatter tracedb88e4" style="stroke-miterlimit: 2; opacity: 1;"><path class="js-line" d="M0.67,-298.15L32.85,-292.51L40.9,-289.76L89.18,-267.7L97.23,-263.38L121.37,-253.17L129.42,-251.32L169.65,-246.49L177.7,-246.64L209.88,-251.87L217.94,-254.46L250.12,-270.38L258.17,-275.74L298.4,-309.35L306.45,-316.81L338.64,-340.97L346.69,-342.41L395.06,-339.75L403.12,-336.93L499.96,-294.87L508.02,-291.44L556.44,-276.73L564.51,-275.55L588.7,-269.85L596.79,-264.59L653.24,-231.08L661.34,-229.89L677.48,-233.63L685.58,-237.21L750.12,-265.23L758.16,-267.81L814.67,-280.75L822.71,-281.99L959.9,-297.84L968,-298.15" style="vector-effect: non-scaling-stroke; fill: none; stroke: rgb(0, 0, 0); stroke-opacity: 1; stroke-width: 2px; opacity: 1;"/><g class="points"/></g><g class="trace scatter tracedcd12e" style="stroke-miterlimit: 2; opacity: 1;"><path class="js-line" d="M0.67,-298.15L32.85,-293.73L40.9,-291.29L73.09,-283.29L81.13,-283.21L161.6,-277.21L169.65,-276.54L250.12,-273.97L258.17,-275.74L298.4,-309.35L306.45,-316.81L338.64,-340.97L346.69,-342.41L386.99,-342.41L395.06,-339.82L475.75,-323.9L483.82,-321.54L532.24,-302.34L540.3,-298.3L588.7,-274.07L596.79,-274.11L685.58,-280.06L693.62,-281.99L725.89,-294.72L733.99,-299.14L814.67,-348.97L822.71,-348.43L846.94,-336.77L854.98,-331.37L911.49,-293.34L919.53,-291.74L968,-298.15" style="vector-effect: non-scaling-stroke; fill: none; stroke: rgb(0, 0, 0); stroke-opacity: 1; stroke-width: 2px; opacity: 1;"/><g class="points"/></g><g class="trace scatter trace4223ef" style="stroke-miterlimit: 2; opacity: 1;"><path class="js-line" d="M0.67,-392.24L81.13,-387.67L89.18,-386.3L169.65,-366.19L177.7,-363.98L258.17,-348.28L266.22,-347.44L338.64,-345.38L346.69,-347.14L395.06,-347.67L403.12,-347.67L467.68,-351.56L475.75,-353L532.24,-369.69L540.3,-372.81L645.21,-411.98L653.24,-413.04L701.71,-410.68L709.75,-408.24L814.67,-374.64L822.71,-376.24L887.26,-398.57L895.35,-399.18L943.76,-394.15L951.86,-393.08L968,-392.24" style="vector-effect: non-scaling-stroke; fill: none; stroke: rgb(0, 0, 0); stroke-opacity: 1; stroke-width: 2px; opacity: 1;"/><g class="points"/></g><g class="trace scatter tracedaccae" style="stroke-miterlimit: 2; opacity: 1;"><path class="js-line" d="M0.67,-392.24L81.13,-387.67L89.18,-386.3L169.65,-366.19L177.7,-363.98L258.17,-348.28L266.22,-347.44L338.64,-345.38L346.69,-347.14L386.99,-353.92L395.06,-358.64L475.75,-403.98L483.82,-407.02L532.24,-418.3L540.3,-419.22L604.83,-418.45L612.93,-417.84L790.44,-407.48L798.53,-407.56L895.35,-403.21L903.39,-401.77L968,-392.24" style="vector-effect: non-scaling-stroke; fill: none; stroke: rgb(0, 0, 0); stroke-opacity: 1; stroke-width: 2px; opacity: 1;"/><g class="points"/></g><g class="trace scatter trace15a581" style="stroke-miterlimit: 2; opacity: 1;"><path class="js-line" d="M0.67,-392.24L24.81,-398.57L32.85,-403.14L73.09,-437.12L81.13,-444.97L113.33,-475.29L121.37,-473.85L266.22,-443.22L274.26,-441.23L338.64,-430.72L346.69,-430.34L395.06,-434.07L403.12,-435.29L564.51,-457.16L572.58,-456.32L596.79,-447.79L604.83,-442.76L645.21,-419.37L653.24,-418L903.39,-401.77L911.49,-400.24L968,-392.24" style="vector-effect: non-scaling-stroke; fill: none; stroke: rgb(0, 0, 0); stroke-opacity: 1; stroke-width: 2px; opacity: 1;"/><g class="points"/></g><g class="trace scatter traced7124f" style="stroke-miterlimit: 2; opacity: 1;"><path class="js-line" d="M0.67,-523.9L24.81,-517.66L32.85,-513.39L97.23,-479.94L105.28,-477.5L113.33,-475.52L121.37,-482.07L169.65,-511.56L177.7,-514.61L225.98,-525.12L234.03,-525.88L282.31,-527.87L290.36,-519.33L338.64,-468.36L346.69,-464.63L370.85,-464.93L378.92,-466.91L419.27,-486.11L427.34,-491.14L459.61,-493.81L467.68,-492.59L653.24,-456.7L661.34,-456.55L717.85,-464.32L725.89,-465.77L903.39,-498.99L911.49,-502.42L968,-523.9" style="vector-effect: non-scaling-stroke; fill: none; stroke: rgb(0, 0, 0); stroke-opacity: 1; stroke-width: 2px; opacity: 1;"/><g class="points"/></g><g class="trace scatter trace414584" style="stroke-miterlimit: 2; opacity: 1;"><path class="js-line" d="M0.67,-625.54L169.65,-611.45L177.7,-609.85L225.98,-599.26L234.03,-590.04L338.64,-468.36L346.69,-464.63L370.85,-465.39L378.92,-467.9L443.47,-501.81L451.54,-507.14L491.89,-527.56L499.96,-528.09L548.37,-517.5L556.44,-515.14L604.83,-487.41L612.93,-486.11L677.48,-486.42L685.58,-488.25L725.89,-506.53L733.99,-511.71L863.08,-598.8L871.12,-601.39L968,-625.54" style="vector-effect: non-scaling-stroke; fill: none; stroke: rgb(0, 0, 0); stroke-opacity: 1; stroke-width: 2px; opacity: 1;"/><g class="points"/></g><g class="trace scatter trace378d7d" style="stroke-miterlimit: 2; opacity: 1;"><path class="js-line" d="M0.67,-625.54L97.23,-621.05L105.28,-623.79L137.46,-628.82L145.51,-625.39L193.79,-613.73L201.84,-613.28L217.94,-608.1L225.98,-599.26L290.36,-527.94L298.4,-527.94L435.4,-533.81L443.47,-538.08L475.75,-554.46L483.82,-553.31L516.09,-557.05L524.16,-549.28L572.58,-510.04L580.65,-507.29L661.34,-484.89L669.44,-485.27L709.75,-497.62L717.85,-501.81L774.3,-541.81L782.4,-548.36L846.94,-592.32L854.98,-595.83L951.86,-624.1L959.9,-625.16L968,-625.54" style="vector-effect: non-scaling-stroke; fill: none; stroke: rgb(0, 0, 0); stroke-opacity: 1; stroke-width: 2px; opacity: 1;"/><g class="points"/></g><g class="trace scatter trace990397" style="stroke-miterlimit: 2; opacity: 1;"><path class="js-line" d="M0.67,-625.54L121.37,-630.8L129.42,-634.61L169.65,-644.21L177.7,-641.39L209.88,-616.4L217.94,-608.1L234.03,-598.72L242.08,-597.28L346.69,-586.99L354.73,-586.92L403.12,-579.91L411.19,-577.47L475.75,-560.86L483.82,-566.72L499.96,-570.46L508.02,-564.44L524.16,-567.11L532.24,-571.68L637.11,-624.02L645.21,-625.7L717.85,-626.99L725.89,-626.92L968,-625.54" style="vector-effect: non-scaling-stroke; fill: none; stroke: rgb(0, 0, 0); stroke-opacity: 1; stroke-width: 2px; opacity: 1;"/><g class="points"/></g><g class="trace scatter trace81ab89" style="stroke-miterlimit: 2; opacity: 1;"><path class="js-line" d="M0.67,-692.75L40.9,-683.07L48.95,-679.18L129.42,-634.61L137.46,-638.35L169.65,-644.21L177.7,-641.39L225.98,-614.12L234.03,-615.03L378.92,-630.95L386.99,-629.89L443.47,-613.58L451.54,-609.62L499.96,-584.71L508.02,-590.04L572.58,-654.12L580.65,-661.89L604.83,-674.08L612.93,-674.31L968,-692.75" style="vector-effect: non-scaling-stroke; fill: none; stroke: rgb(0, 0, 0); stroke-opacity: 1; stroke-width: 2px; opacity: 1;"/><g class="points"/></g><g class="trace scatter trace4a7b18" style="stroke-miterlimit: 2; opacity: 1;"><path class="js-line" d="M0.67,-692.75L56.99,-703.57L65.04,-706.08L113.33,-713.09L121.37,-711.57L169.65,-703.34L177.7,-706.08L209.88,-712.79L217.94,-714L274.26,-717.97L282.31,-717.59L451.54,-701.81L459.61,-700.67L620.97,-676.14L629.07,-676.59L968,-692.75" style="vector-effect: non-scaling-stroke; fill: none; stroke: rgb(0, 0, 0); stroke-opacity: 1; stroke-width: 2px; opacity: 1;"/><g class="points"/></g></g></g><g class="overplot"/><path class="xlines-above crisp" d="M79,727.5H1051M79,99.5H1051" style="fill: none; stroke-width: 1px; stroke: rgb(68, 68, 68); stroke-opacity: 1;"/><path class="ylines-above crisp" d="M79.5,100V727M1050.5,100V727" style="fill: none; stroke-width: 1px; stroke: rgb(68, 68, 68); stroke-opacity: 1;"/><g class="overlines-above"/><g class="xaxislayer-above"><g class="xtick"><text text-anchor="middle" x="0" y="748.4" transform="translate(80.67,0)" style="font-family: 'Open Sans', verdana, arial, sans-serif; font-size: 17px; fill: rgb(68, 68, 68); fill-opacity: 1; white-space: pre;">Γ</text></g><g class="xtick"><text text-anchor="middle" x="0" y="748.4" transform="translate(434.73,0)" style="font-family: 'Open Sans', verdana, arial, sans-serif; font-size: 17px; fill: rgb(68, 68, 68); fill-opacity: 1; white-space: pre;">X</text></g><g class="xtick"><text text-anchor="middle" x="0" y="748.4" transform="translate(741.37,0)" style="font-family: 'Open Sans', verdana, arial, sans-serif; font-size: 17px; fill: rgb(68, 68, 68); fill-opacity: 1; white-space: pre;">L</text></g><g class="xtick"><text text-anchor="middle" x="0" y="748.4" transform="translate(1047.99,0)" style="font-family: 'Open Sans', verdana, arial, sans-serif; font-size: 17px; fill: rgb(68, 68, 68); fill-opacity: 1; white-space: pre;">Γ</text></g></g><g class="yaxislayer-above"><g class="ytick"><text text-anchor="end" x="75.6" y="5.949999999999999" transform="translate(0,721)" style="font-family: 'Open Sans', verdana, arial, sans-serif; font-size: 17px; fill: rgb(68, 68, 68); fill-opacity: 1; white-space: pre;">−5</text></g><g class="ytick"><text text-anchor="end" x="75.6" y="5.949999999999999" transform="translate(0,581)" style="font-family: 'Open Sans', verdana, arial, sans-serif; font-size: 17px; fill: rgb(68, 68, 68); fill-opacity: 1; white-space: pre;">0</text></g><g class="ytick"><text text-anchor="end" x="75.6" y="5.949999999999999" transform="translate(0,441)" style="font-family: 'Open Sans', verdana, arial, sans-serif; font-size: 17px; fill: rgb(68, 68, 68); fill-opacity: 1; white-space: pre;">5</text></g><g class="ytick"><text text-anchor="end" x="75.6" y="5.949999999999999" transform="translate(0,301)" style="font-family: 'Open Sans', verdana, arial, sans-serif; font-size: 17px; fill: rgb(68, 68, 68); fill-opacity: 1; white-space: pre;">10</text></g><g class="ytick"><text text-anchor="end" x="75.6" y="5.949999999999999" transform="translate(0,161)" style="font-family: 'Open Sans', verdana, arial, sans-serif; font-size: 17px; fill: rgb(68, 68, 68); fill-opacity: 1; white-space: pre;">15</text></g></g><g class="overaxes-above"/></g></g><g class="polarlayer"/><g class="ternarylayer"/><g class="geolayer"/><g class="pielayer"/><g class="glimages"/><defs id="topdefs-9235e1"><g class="clips"/></defs><g class="layer-above"><g class="imagelayer"/><g class="shapelayer"><path data-index="0" fill-rule="evenodd" d="M79.67,581L1049,581" clip-path="url(#clip9235e1xy)" style="opacity: 1; stroke: rgb(255, 0, 0); stroke-opacity: 1; fill: rgb(0, 0, 0); fill-opacity: 0; stroke-width: 2px;"/></g></g><g class="infolayer"><g class="g-gtitle"><text class="gtitle" x="565" y="50" text-anchor="middle" style="font-family: 'Open Sans', verdana, arial, sans-serif; font-size: 24px; fill: rgb(68, 68, 68); opacity: 1; font-weight: normal; white-space: pre;">BAND STRUCTURE PBE</text></g><g class="g-xtitle"><text class="xtitle" x="565" y="797" text-anchor="middle" style="font-family: 'Open Sans', verdana, arial, sans-serif; font-size: 20px; fill: rgb(68, 68, 68); opacity: 1; font-weight: normal; white-space: pre;">k-points</text></g><g class="g-ytitle"><text class="ytitle" transform="rotate(-90,30,413.5)" x="30" y="413.5" text-anchor="middle" style="font-family: 'Open Sans', verdana, arial, sans-serif; font-size: 20px; fill: rgb(68, 68, 68); opacity: 1; font-weight: normal; white-space: pre;">E-EFERMI (eV)</text></g></g></svg>