<svg class="main-svg" xmlns="http://www.w3.org/2000/svg" xmlns:xlink="http://www.w3.org/1999/xlink" width="1130" height="1413" style="" viewBox="0 0 1130 1413"><rect x="0" y="0" width="1130" height="1413" style="fill: rgb(238, 238, 238); fill-opacity: 1;"/><defs id="defs-a0ad5d"><g class="clips"><clipPath class="plotclip" id="clipa0ad5dxyplot"><rect width="917" height="277.425"/></clipPath><clipPath class="plotclip" id="clipa0ad5dx2y2plot"><rect width="917" height="277.42499999999995"/></clipPath><clipPath class="plotclip" id="clipa0ad5dx3y3plot"><rect width="917" height="277.42499999999995"/></clipPath><clipPath class="plotclip" id="clipa0ad5dx4y4plot"><rect width="917" height="277.42499999999995"/></clipPath><clipPath class="axesclip" id="clipa0ad5dx"><rect x="80" y="0" width="917" height="1413"/></clipPath><clipPath class="axesclip" id="clipa0ad5dy"><rect x="0" y="1055.575" width="1130" height="277.425"/></clipPath><clipPath class="axesclip" id="clipa0ad5dxy"><rect x="80" y="1055.575" width="917" height="277.425"/></clipPath><clipPath class="axesclip" id="clipa0ad5dy2"><rect x="0" y="747.325" width="1130" height="277.42499999999995"/></clipPath><clipPath class="axesclip" id="clipa0ad5dxy2"><rect x="80" y="747.325" width="917" height="277.42499999999995"/></clipPath><clipPath class="axesclip" id="clipa0ad5dy3"><rect x="0" y="439.07500000000005" width="1130" height="277.42499999999995"/></clipPath><clipPath class="axesclip" id="clipa0ad5dxy3"><rect x="80" y="439.07500000000005" width="917" height="277.42499999999995"/></clipPath><clipPath class="axesclip" id="clipa0ad5dy4"><rect x="0" y="130.82500000000002" width="1130" height="277.42499999999995"/></clipPath><clipPath class="axesclip" id="clipa0ad5dxy4"><rect x="80" y="130.82500000000002" width="917" height="277.42499999999995"/></clipPath><clipPath class="axesclip" id="clipa0ad5dx2"><rect x="80" y="0" width="917" height="1413"/></clipPath><clipPath class="axesclip" id="clipa0ad5dx2y"><rect x="80" y="1055.575" width="917" height="277.425"/></clipPath><clipPath class="axesclip" id="clipa0ad5dx2y2"><rect x="80" y="747.325" width="917" height="277.42499999999995"/></clipPath><clipPath class="axesclip" id="clipa0ad5dx2y3"><rect x="80" y="439.07500000000005" width="917" height="277.42499999999995"/></clipPath><clipPath class="axesclip" id="clipa0ad5dx2y4"><rect x="80" y="130.82500000000002" width="917" height="277.42499999999995"/></clipPath><clipPath class="axesclip" id="clipa0ad5dx3"><rect x="80" y="0" width="917" height="1413"/></clipPath><clipPath class="axesclip" id="clipa0ad5dx3y"><rect x="80" y="1055.575" width="917" height="277.425"/></clipPath><clipPath class="axesclip" id="clipa0ad5dx3y2"><rect x="80" y="747.325" width="917" height="277.42499999999995"/></clipPath><clipPath class="axesclip" id="clipa0ad5dx3y3"><rect x="80" y="439.07500000000005" width="917" height="277.42499999999995"/></clipPath><clipPath class="axesclip" id="clipa0ad5dx3y4"><rect x="80" y="130.82500000000002" width="917" height="277.42499999999995"/></clipPath><clipPath class="axesclip" id="clipa0ad5dx4"><rect x="80" y="0" width="917" height="1413"/></clipPath><clipPath class="axesclip" id="clipa0ad5dx4y"><rect x="80" y="1055.575" width="917" height="277.425"/></clipPath><clipPath class="axesclip" id="clipa0ad5dx4y2"><rect x="80" y="747.325" width="917" height="277.42499999999995"/></clipPath><clipPath class="axesclip" id="clipa0ad5dx4y3"><rect x="80" y="439.07500000000005" width="917" height="277.42499999999995"/></clipPath><clipPath class="axesclip" id="clipa0ad5dx4y4"><rect x="80" y="130.82500000000002" width="917" height="277.42499999999995"/></clipPath></g><g class="gradients"/></defs><g class="bglayer"><rect class="bg" x="80" y="1055.575" width="917" height="277.425" style="fill: rgb(255, 255, 255); fill-opacity: 1; stroke-width: 0;"/><rect class="bg" x="80" y="747.325" width="917" height="277.42499999999995" style="fill: rgb(255, 255, 255); fill-opacity: 1; stroke-width: 0;"/><rect class="bg" x="80" y="439.07500000000005" width="917" height="277.42499999999995" style="fill: rgb(255, 255, 255); fill-opacity: 1; stroke-width: 0;"/><rect class="bg" x="80" y="130.82500000000002" width="917" height="277.42499999999995" style="fill: rgb(255, 255, 255); fill-opacity: 1; stroke-width: 0;"/></g><g class="layer-below"><g class="imagelayer"/><g class="shapelayer"/></g><g class="cartesianlayer"><g class="subplot xy"><g class="layer-subplot"><g class="shapelayer"/><g class="imagelayer"/></g><g class="gridlayer"><g class="x"><path class="xgrid crisp" d="M0,1055.575v277.425" transform="translate(162.17000000000002,0)" style="stroke: rgb(238, 238, 238); stroke-opacity: 1; stroke-width: 1px;"/><path class="xgrid crisp" d="M0,1055.575v277.425" transform="translate(316.33000000000004,0)" style="stroke: rgb(238, 238, 238); stroke-opacity: 1; stroke-width: 1px;"/><path class="xgrid crisp" d="M0,1055.575v277.425" transform="translate(470.49,0)" style="stroke: rgb(238, 238, 238); stroke-opacity: 1; stroke-width: 1px;"/><path class="xgrid crisp" d="M0,1055.575v277.425" transform="translate(624.65,0)" style="stroke: rgb(238, 238, 238); stroke-opacity: 1; stroke-width: 1px;"/><path class="xgrid crisp" d="M0,1055.575v277.425" transform="translate(778.81,0)" style="stroke: rgb(238, 238, 238); stroke-opacity: 1; stroke-width: 1px;"/><path class="xgrid crisp" d="M0,1055.575v277.425" transform="translate(932.97,0)" style="stroke: rgb(238, 238, 238); stroke-opacity: 1; stroke-width: 1px;"/></g><g class="y"><path class="ygrid crisp" d="M80,0h917" transform="translate(0,1261.295)" style="stroke: rgb(238, 238, 238); stroke-opacity: 1; stroke-width: 1px;"/><path class="ygrid crisp" d="M80,0h917" transform="translate(0,1189.595)" style="stroke: rgb(238, 238, 238); stroke-opacity: 1; stroke-width: 1px;"/><path class="ygrid crisp" d="M80,0h917" transform="translate(0,1117.885)" style="stroke: rgb(238, 238, 238); stroke-opacity: 1; stroke-width: 1px;"/></g></g><g class="zerolinelayer"/><path class="xlines-below"/><path class="ylines-below"/><g class="overlines-below"/><g class="xaxislayer-below"/><g class="yaxislayer-below"/><g class="overaxes-below"/><g class="plot" transform="translate(80, 1055.575)" clip-path="url(#clipa0ad5dxyplot)"><g class="imagelayer"/><g class="maplayer"/><g class="barlayer"/><g class="carpetlayer"/><g class="violinlayer"/><g class="boxlayer"/><g class="scatterlayer"><g class="trace scatter trace4379c2" style="stroke-miterlimit: 2; opacity: 1;"><path class="js-line" d="M0,277.43L4.56,277.42L9.12,260.11L13.68,271.01L18.25,273.84L22.81,272.86L27.37,275.79L31.94,274.08L36.5,276.27L41.06,275.3L45.62,276.54L50.18,275.46L54.74,275.22L59.31,277.22L63.87,276.9L73,277.43L77.56,277.43L168.8,277.43L173.36,271.49L177.92,208.57L182.49,185.45L187.05,51.49L191.61,176.1L196.17,189.04L200.73,66.79L205.3,149.46L209.86,121.23L214.42,196.64L218.98,13.87L223.55,79.42L228.11,104.58L232.67,140.8L237.23,277.43L264.61,277.43L269.17,255.05L273.73,241.09L278.29,240.26L282.85,262.09L287.41,277.43L323.91,277.43L328.47,296.05L333.04,311.16L337.6,290.51L342.16,280.43L346.73,287.6L351.29,286.77L355.85,282.82L360.41,279.65L364.97,277.43L369.53,276.44L374.1,277.64L383.22,275.64L387.78,268.83L396.91,278.77L401.47,276.38L410.59,317.17L415.16,325.15L419.72,311.35L424.28,281.75L428.84,291.99L433.41,260.53L437.97,237.55L442.53,197.51L447.09,215.69L451.65,229.19L456.22,235.14L460.78,244.06L465.34,249.18L469.9,243.59L474.47,236.17L479.03,240.61L483.59,255.18L488.15,262.69L492.71,254.32L497.28,274.66L501.84,252.68L506.4,167.91L510.96,27.19L515.53,97.26L520.09,83.88L524.65,135.88L529.21,156.3L533.77,103.6L538.34,120.45L542.9,221.05L547.46,188.09L552.02,187.26L556.59,183.9L561.15,172.98L565.71,227.2L570.27,209.1L574.83,189.89L579.4,238.87L583.96,238.11L588.52,227.14L593.08,200.26L597.65,196.29L606.77,230.1L611.33,235.31L615.89,242.5L620.45,205.84L625.02,265.34L629.58,198.86L634.14,212.47L638.71,260.89L643.27,230.44L647.83,231.26L652.39,202.3L656.96,193.07L661.53,176.74L666.06,126.19L670.63,245.98L675.21,213.04L679.78,194.24L684.31,267.26L688.88,251.64L693.45,250.74L698.03,275.41L702.56,221.77L707.13,260.78L711.7,264.93L716.27,238.84L720.8,279.01L725.38,218.13L729.95,269.01L734.52,259.52L739.05,240.53L743.62,245.21L748.2,266.61L752.77,281.63L757.3,244.67L761.87,243L766.44,217.39L775.59,152.02L780.12,204.94L784.69,189.06L789.26,251.75L793.84,255.23L798.37,267.12L802.94,261.52L807.51,248.02L812.09,253.62L816.62,230.88L821.19,260.66L825.76,273.55L830.33,267.92L834.86,249.08L839.44,265.2L844.01,254.46L848.58,234.5L853.11,259.72L857.68,222.19L862.26,248.4L866.83,275.06L871.36,277.1L875.93,247.63L880.5,250.27L885.08,270.84L889.61,260.9L894.18,265.74L898.75,273.53L903.32,279.47L907.86,267.45L912.43,277.43L917,277.43" style="vector-effect: non-scaling-stroke; fill: none; stroke: rgb(31, 119, 180); stroke-opacity: 1; stroke-width: 2px; opacity: 1;"/><g class="points"/></g></g></g><g class="overplot"/><path class="xlines-above crisp" d="M79,1333.5H998M79,1055.075H998" style="fill: none; stroke-width: 1px; stroke: rgb(68, 68, 68); stroke-opacity: 1;"/><path class="ylines-above crisp" d="M79.5,1055.575V1333M997.5,1055.575V1333" style="fill: none; stroke-width: 1px; stroke: rgb(68, 68, 68); stroke-opacity: 1;"/><g class="overlines-above"/><g class="xaxislayer-above"><g class="xtick"><text text-anchor="middle" x="0" y="1348.4" transform="translate(162.17000000000002,0)" style="font-family: 'Open Sans', verdana, arial, sans-serif; font-size: 12px; fill: rgb(68, 68, 68); fill-opacity: 1; white-space: pre;">−10</text></g><g class="xtick"><text text-anchor="middle" x="0" y="1348.4" transform="translate(316.33000000000004,0)" style="font-family: 'Open Sans', verdana, arial, sans-serif; font-size: 12px; fill: rgb(68, 68, 68); fill-opacity: 1; white-space: pre;">0</text></g><g class="xtick"><text text-anchor="middle" x="0" y="1348.4" transform="translate(470.49,0)" style="font-family: 'Open Sans', verdana, arial, sans-serif; font-size: 12px; fill: rgb(68, 68, 68); fill-opacity: 1; white-space: pre;">10</text></g><g class="xtick"><text text-anchor="middle" x="0" y="1348.4" transform="translate(624.65,0)" style="font-family: 'Open Sans', verdana, arial, sans-serif; font-size: 12px; fill: rgb(68, 68, 68); fill-opacity: 1; white-space: pre;">20</text></g><g class="xtick"><text text-anchor="middle" x="0" y="1348.4" transform="translate(778.81,0)" style="font-family: 'Open Sans', verdana, arial, sans-serif; font-size: 12px; fill: rgb(68, 68, 68); fill-opacity: 1; white-space: pre;">30</text></g><g class="xtick"><text text-anchor="middle" x="0" y="1348.4" transform="translate(932.97,0)" style="font-family: 'Open Sans', verdana, arial, sans-serif; font-size: 12px; fill: rgb(68, 68, 68); fill-opacity: 1; white-space: pre;">40</text></g></g><g class="yaxislayer-above"><g class="ytick"><text text-anchor="end" x="76.6" y="4.199999999999999" transform="translate(0,1333.005)" style="font-family: 'Open Sans', verdana, arial, sans-serif; font-size: 12px; fill: rgb(68, 68, 68); fill-opacity: 1; white-space: pre;">0</text></g><g class="ytick"><text text-anchor="end" x="76.6" y="4.199999999999999" transform="translate(0,1261.295)" style="font-family: 'Open Sans', verdana, arial, sans-serif; font-size: 12px; fill: rgb(68, 68, 68); fill-opacity: 1; white-space: pre;">5</text></g><g class="ytick"><text text-anchor="end" x="76.6" y="4.199999999999999" transform="translate(0,1189.595)" style="font-family: 'Open Sans', verdana, arial, sans-serif; font-size: 12px; fill: rgb(68, 68, 68); fill-opacity: 1; white-space: pre;">10</text></g><g class="ytick"><text text-anchor="end" x="76.6" y="4.199999999999999" transform="translate(0,1117.885)" style="font-family: 'Open Sans', verdana, arial, sans-serif; font-size: 12px; fill: rgb(68, 68, 68); fill-opacity: 1; white-space: pre;">15</text></g></g><g class="overaxes-above"/></g><g class="subplot x2y2"><g class="layer-subplot"><g class="shapelayer"/><g class="imagelayer"/></g><g class="gridlayer"><g class="x2"><path class="x2grid crisp" d="M0,747.325v277.42499999999995" transform="translate(162.17000000000002,0)" style="stroke: rgb(238, 238, 238); stroke-opacity: 1; stroke-width: 1px;"/><path class="x2grid crisp" d="M0,747.325v277.42499999999995" transform="translate(316.33000000000004,0)" style="stroke: rgb(238, 238, 238); stroke-opacity: 1; stroke-width: 1px;"/><path class="x2grid crisp" d="M0,747.325v277.42499999999995" transform="translate(470.49,0)" style="stroke: rgb(238, 238, 238); stroke-opacity: 1; stroke-width: 1px;"/><path class="x2grid crisp" d="M0,747.325v277.42499999999995" transform="translate(624.65,0)" style="stroke: rgb(238, 238, 238); stroke-opacity: 1; stroke-width: 1px;"/><path class="x2grid crisp" d="M0,747.325v277.42499999999995" transform="translate(778.81,0)" style="stroke: rgb(238, 238, 238); stroke-opacity: 1; stroke-width: 1px;"/><path class="x2grid crisp" d="M0,747.325v277.42499999999995" transform="translate(932.97,0)" style="stroke: rgb(238, 238, 238); stroke-opacity: 1; stroke-width: 1px;"/></g><g class="y2"><path class="y2grid crisp" d="M80,0h917" transform="translate(0,971.355)" style="stroke: rgb(238, 238, 238); stroke-opacity: 1; stroke-width: 1px;"/><path class="y2grid crisp" d="M80,0h917" transform="translate(0,917.955)" style="stroke: rgb(238, 238, 238); stroke-opacity: 1; stroke-width: 1px;"/><path class="y2grid crisp" d="M80,0h917" transform="translate(0,864.5550000000001)" style="stroke: rgb(238, 238, 238); stroke-opacity: 1; stroke-width: 1px;"/><path class="y2grid crisp" d="M80,0h917" transform="translate(0,811.1650000000001)" style="stroke: rgb(238, 238, 238); stroke-opacity: 1; stroke-width: 1px;"/><path class="y2grid crisp" d="M80,0h917" transform="translate(0,757.7650000000001)" style="stroke: rgb(238, 238, 238); stroke-opacity: 1; stroke-width: 1px;"/></g></g><g class="zerolinelayer"/><path class="xlines-below"/><path class="ylines-below"/><g class="overlines-below"/><g class="xaxislayer-below"/><g class="yaxislayer-below"/><g class="overaxes-below"/><g class="plot" transform="translate(80, 747.325)" clip-path="url(#clipa0ad5dx2y2plot)"><g class="imagelayer"/><g class="maplayer"/><g class="barlayer"/><g class="carpetlayer"/><g class="violinlayer"/><g class="boxlayer"/><g class="scatterlayer"><g class="trace scatter trace613e72" style="stroke-miterlimit: 2; opacity: 1;"><path class="js-line" d="M0,277.42L4.56,277.42L9.12,275.2L13.68,275.81L18.25,274.44L22.81,271.86L27.37,274.75L31.94,270.68L36.5,273.73L41.06,273.28L45.62,271.77L50.18,270.13L54.74,272.72L59.31,277L63.87,276.54L68.43,277.63L73,277.42L168.8,277.42L173.36,275.08L177.92,249.29L182.49,244.4L187.05,226.09L191.61,257.77L196.17,258.71L200.73,246.67L205.3,264.85L209.86,263.36L214.42,273.9L218.98,259.37L223.55,274.39L228.11,273.66L232.67,276.32L237.23,277.42L264.61,277.42L269.17,250.4L273.73,253.39L278.29,268.57L282.85,275.82L287.41,277.42L323.91,277.42L328.47,187.23L333.04,66.83L337.6,13.87L342.16,183.63L346.73,141.81L351.29,153.83L355.85,178.89L360.41,215.69L364.97,277.42L369.53,268.88L374.1,249.35L378.66,185.41L383.22,152.02L387.78,163.28L392.35,187.87L396.91,147.38L401.47,191.07L406.03,111.51L410.59,100.48L415.16,160.4L419.72,188.41L424.28,271.23L428.84,242.54L433.41,277.34L437.97,285.38L442.53,288.62L447.09,283.34L451.65,280.53L456.22,280.91L460.78,281.13L465.34,280.11L469.9,279.02L474.47,278.77L483.59,278.47L488.15,277.69L492.71,277.3L497.28,275.96L501.84,278.88L506.4,280.33L510.96,300.06L515.53,296.47L520.09,299.04L524.65,290.41L529.21,291.36L533.77,303.35L538.34,298.59L542.9,277.27L547.46,284.48L552.02,278L556.59,288.9L561.15,280.98L565.71,277.54L570.27,289.75L574.83,287.1L579.4,280.18L583.96,264.99L588.52,269.62L593.08,276.19L597.65,277.97L602.21,279L606.77,282L611.33,285L615.89,309.49L620.45,253.8L625.02,288.57L629.58,278.19L634.14,289.85L638.71,272.1L643.27,275.48L647.83,294.03L652.39,255.88L656.96,259.25L661.53,246.4L666.06,237.91L670.63,259.76L675.21,257.09L679.78,264.68L684.31,279.88L688.88,275.37L693.45,278.91L698.03,274.62L702.56,273.47L707.13,269.71L711.7,269.62L716.27,273.28L720.8,255.73L725.38,254.41L729.95,271.15L734.52,271.22L739.05,253.17L743.62,260.61L748.2,273.17L752.77,254.66L757.3,266.44L761.87,262.27L766.44,270.43L771.02,264.41L775.59,263.8L780.12,267.49L784.69,275.58L789.26,250.09L793.84,244.45L798.37,240.52L802.94,242.91L807.51,247.46L812.09,249.8L816.62,232.2L821.19,250.82L825.76,254.51L830.33,236.04L834.86,211.88L839.44,192.45L844.01,189.04L848.58,258.17L853.11,243.28L857.68,288.6L862.26,276.34L866.83,277.64L871.36,274.29L875.93,262.3L880.5,263.31L889.61,267.03L894.18,260.88L898.75,263.73L903.32,277.6L907.86,273.26L912.43,277.42L917,277.42" style="vector-effect: non-scaling-stroke; fill: none; stroke: rgb(255, 127, 14); stroke-opacity: 1; stroke-width: 2px; opacity: 1;"/><g class="points"/></g></g></g><g class="overplot"/><path class="xlines-above crisp" d="M79,1025.25H998M79,746.825H998" style="fill: none; stroke-width: 1px; stroke: rgb(68, 68, 68); stroke-opacity: 1;"/><path class="ylines-above crisp" d="M79.5,747.325V1024.75M997.5,747.325V1024.75" style="fill: none; stroke-width: 1px; stroke: rgb(68, 68, 68); stroke-opacity: 1;"/><g class="overlines-above"/><g class="xaxislayer-above"><g class="x2tick"><text text-anchor="middle" x="0" y="1040.15" transform="translate(162.17000000000002,0)" style="font-family: 'Open Sans', verdana, arial, sans-serif; font-size: 12px; fill: rgb(68, 68, 68); fill-opacity: 1; white-space: pre;">−10</text></g><g class="x2tick"><text text-anchor="middle" x="0" y="1040.15" transform="translate(316.33000000000004,0)" style="font-family: 'Open Sans', verdana, arial, sans-serif; font-size: 12px; fill: rgb(68, 68, 68); fill-opacity: 1; white-space: pre;">0</text></g><g class="x2tick"><text text-anchor="middle" x="0" y="1040.15" transform="translate(470.49,0)" style="font-family: 'Open Sans', verdana, arial, sans-serif; font-size: 12px; fill: rgb(68, 68, 68); fill-opacity: 1; white-space: pre;">10</text></g><g class="x2tick"><text text-anchor="middle" x="0" y="1040.15" transform="translate(624.65,0)" style="font-family: 'Open Sans', verdana, arial, sans-serif; font-size: 12px; fill: rgb(68, 68, 68); fill-opacity: 1; white-space: pre;">20</text></g><g class="x2tick"><text text-anchor="middle" x="0" y="1040.15" transform="translate(778.81,0)" style="font-family: 'Open Sans', verdana, arial, sans-serif; font-size: 12px; fill: rgb(68, 68, 68); fill-opacity: 1; white-space: pre;">30</text></g><g class="x2tick"><text text-anchor="middle" x="0" y="1040.15" transform="translate(932.97,0)" style="font-family: 'Open Sans', verdana, arial, sans-serif; font-size: 12px; fill: rgb(68, 68, 68); fill-opacity: 1; white-space: pre;">40</text></g></g><g class="yaxislayer-above"><g class="y2tick"><text text-anchor="end" x="76.6" y="4.199999999999999" transform="translate(0,1024.7450000000001)" style="font-family: 'Open Sans', verdana, arial, sans-serif; font-size: 12px; fill: rgb(68, 68, 68); fill-opacity: 1; white-space: pre;">0</text></g><g class="y2tick"><text text-anchor="end" x="76.6" y="4.199999999999999" transform="translate(0,971.355)" style="font-family: 'Open Sans', verdana, arial, sans-serif; font-size: 12px; fill: rgb(68, 68, 68); fill-opacity: 1; white-space: pre;">10</text></g><g class="y2tick"><text text-anchor="end" x="76.6" y="4.199999999999999" transform="translate(0,917.955)" style="font-family: 'Open Sans', verdana, arial, sans-serif; font-size: 12px; fill: rgb(68, 68, 68); fill-opacity: 1; white-space: pre;">20</text></g><g class="y2tick"><text text-anchor="end" x="76.6" y="4.199999999999999" transform="translate(0,864.5550000000001)" style="font-family: 'Open Sans', verdana, arial, sans-serif; font-size: 12px; fill: rgb(68, 68, 68); fill-opacity: 1; white-space: pre;">30</text></g><g class="y2tick"><text text-anchor="end" x="76.6" y="4.199999999999999" transform="translate(0,811.1650000000001)" style="font-family: 'Open Sans', verdana, arial, sans-serif; font-size: 12px; fill: rgb(68, 68, 68); fill-opacity: 1; white-space: pre;">40</text></g><g class="y2tick"><text text-anchor="end" x="76.6" y="4.199999999999999" transform="translate(0,757.7650000000001)" style="font-family: 'Open Sans', verdana, arial, sans-serif; font-size: 12px; fill: rgb(68, 68, 68); fill-opacity: 1; white-space: pre;">50</text></g></g><g class="overaxes-above"/></g><g class="subplot x3y3"><g class="layer-subplot"><g class="shapelayer"/><g class="imagelayer"/></g><g class="gridlayer"><g class="x3"><path class="x3grid crisp" d="M0,439.07500000000005v277.42499999999995" transform="translate(162.17000000000002,0)" style="stroke: rgb(238, 238, 238); stroke-opacity: 1; stroke-width: 1px;"/><path class="x3grid crisp" d="M0,439.07500000000005v277.42499999999995" transform="translate(316.33000000000004,0)" style="stroke: rgb(238, 238, 238); stroke-opacity: 1; stroke-width: 1px;"/><path class="x3grid crisp" d="M0,439.07500000000005v277.42499999999995" transform="translate(470.49,0)" style="stroke: rgb(238, 238, 238); stroke-opacity: 1; stroke-width: 1px;"/><path class="x3grid crisp" d="M0,439.07500000000005v277.42499999999995" transform="translate(624.65,0)" style="stroke: rgb(238, 238, 238); stroke-opacity: 1; stroke-width: 1px;"/><path class="x3grid crisp" d="M0,439.07500000000005v277.42499999999995" transform="translate(778.81,0)" style="stroke: rgb(238, 238, 238); stroke-opacity: 1; stroke-width: 1px;"/><path class="x3grid crisp" d="M0,439.07500000000005v277.42499999999995" transform="translate(932.97,0)" style="stroke: rgb(238, 238, 238); stroke-opacity: 1; stroke-width: 1px;"/></g><g class="y3"><path class="y3grid crisp" d="M80,0h917" transform="translate(0,645.2650000000001)" style="stroke: rgb(238, 238, 238); stroke-opacity: 1; stroke-width: 1px;"/><path class="y3grid crisp" d="M80,0h917" transform="translate(0,574.0350000000001)" style="stroke: rgb(238, 238, 238); stroke-opacity: 1; stroke-width: 1px;"/><path class="y3grid crisp" d="M80,0h917" transform="translate(0,502.80500000000006)" style="stroke: rgb(238, 238, 238); stroke-opacity: 1; stroke-width: 1px;"/></g></g><g class="zerolinelayer"/><path class="xlines-below"/><path class="ylines-below"/><g class="overlines-below"/><g class="xaxislayer-below"/><g class="yaxislayer-below"/><g class="overaxes-below"/><g class="plot" transform="translate(80, 439.07500000000005)" clip-path="url(#clipa0ad5dx3y3plot)"><g class="imagelayer"/><g class="maplayer"/><g class="barlayer"/><g class="carpetlayer"/><g class="violinlayer"/><g class="boxlayer"/><g class="scatterlayer"><g class="trace scatter trace0a2c29" style="stroke-miterlimit: 2; opacity: 1;"><path class="js-line" d="M0,277.42L182.49,277.07L187.05,276.17L191.61,276.85L196.17,276.64L200.73,274.74L205.3,275.54L209.86,274.2L214.42,274.7L218.98,266.32L223.55,266.05L232.67,272.53L237.23,277.42L264.61,277.42L269.17,37.49L273.73,15.77L278.29,203.98L282.85,261.59L287.41,277.42L506.4,277.27L510.96,276.26L520.09,275.52L524.65,276.49L529.21,276.44L533.77,275.36L542.9,276.25L547.46,275.42L552.02,272.77L556.59,274.14L561.15,273.51L565.71,275.1L574.83,273.29L579.4,275.55L593.08,273.31L597.65,273.67L606.77,276.34L611.33,276.64L615.89,277.46L620.45,275.04L625.02,277.12L629.58,275.2L638.71,276.64L643.27,276.25L647.83,277.98L652.39,273.04L661.53,273.66L666.06,275.09L670.63,274.79L675.21,272.51L684.31,276.5L688.88,275.03L693.45,276.81L698.03,277.16L702.56,272.94L707.13,274.76L711.7,275.38L716.27,273.4L720.8,273.83L725.38,266.34L729.95,273.45L734.52,270.03L739.05,269.75L743.62,270.54L748.2,275.67L752.77,271.91L757.3,266.91L761.87,265.49L766.44,255.25L771.02,253.33L775.59,246.76L780.12,252.96L784.69,250.18L789.26,262.24L793.84,257.19L798.37,261.86L802.94,261.13L807.51,265.44L812.09,268.52L816.62,260.44L821.19,268.95L825.76,271.86L830.33,274.93L834.86,257.78L839.44,252.59L844.01,258.64L848.58,260.86L853.11,247.53L857.68,278.93L862.26,275.43L866.83,276.68L871.36,276.03L875.93,268.4L880.5,271.04L885.08,267.61L889.61,270.16L894.18,274.42L898.75,272.32L903.32,279.01L907.86,274.79L912.43,277.42L917,277.42" style="vector-effect: non-scaling-stroke; fill: none; stroke: rgb(44, 160, 44); stroke-opacity: 1; stroke-width: 2px; opacity: 1;"/><g class="points"/></g></g></g><g class="overplot"/><path class="xlines-above crisp" d="M79,717H998M79,438.57500000000005H998" style="fill: none; stroke-width: 1px; stroke: rgb(68, 68, 68); stroke-opacity: 1;"/><path class="ylines-above crisp" d="M79.5,439.07500000000005V716.5M997.5,439.07500000000005V716.5" style="fill: none; stroke-width: 1px; stroke: rgb(68, 68, 68); stroke-opacity: 1;"/><g class="overlines-above"/><g class="xaxislayer-above"><g class="x3tick"><text text-anchor="middle" x="0" y="731.9" transform="translate(162.17000000000002,0)" style="font-family: 'Open Sans', verdana, arial, sans-serif; font-size: 12px; fill: rgb(68, 68, 68); fill-opacity: 1; white-space: pre;">−10</text></g><g class="x3tick"><text text-anchor="middle" x="0" y="731.9" transform="translate(316.33000000000004,0)" style="font-family: 'Open Sans', verdana, arial, sans-serif; font-size: 12px; fill: rgb(68, 68, 68); fill-opacity: 1; white-space: pre;">0</text></g><g class="x3tick"><text text-anchor="middle" x="0" y="731.9" transform="translate(470.49,0)" style="font-family: 'Open Sans', verdana, arial, sans-serif; font-size: 12px; fill: rgb(68, 68, 68); fill-opacity: 1; white-space: pre;">10</text></g><g class="x3tick"><text text-anchor="middle" x="0" y="731.9" transform="translate(624.65,0)" style="font-family: 'Open Sans', verdana, arial, sans-serif; font-size: 12px; fill: rgb(68, 68, 68); fill-opacity: 1; white-space: pre;">20</text></g><g class="x3tick"><text text-anchor="middle" x="0" y="731.9" transform="translate(778.81,0)" style="font-family: 'Open Sans', verdana, arial, sans-serif; font-size: 12px; fill: rgb(68, 68, 68); fill-opacity: 1; white-space: pre;">30</text></g><g class="x3tick"><text text-anchor="middle" x="0" y="731.9" transform="translate(932.97,0)" style="font-family: 'Open Sans', verdana, arial, sans-serif; font-size: 12px; fill: rgb(68, 68, 68); fill-opacity: 1; white-space: pre;">40</text></g></g><g class="yaxislayer-above"><g class="y3tick"><text text-anchor="end" x="76.6" y="4.199999999999999" transform="translate(0,716.4950000000001)" style="font-family: 'Open Sans', verdana, arial, sans-serif; font-size: 12px; fill: rgb(68, 68, 68); fill-opacity: 1; white-space: pre;">0</text></g><g class="y3tick"><text text-anchor="end" x="76.6" y="4.199999999999999" transform="translate(0,645.2650000000001)" style="font-family: 'Open Sans', verdana, arial, sans-serif; font-size: 12px; fill: rgb(68, 68, 68); fill-opacity: 1; white-space: pre;">50</text></g><g class="y3tick"><text text-anchor="end" x="76.6" y="4.199999999999999" transform="translate(0,574.0350000000001)" style="font-family: 'Open Sans', verdana, arial, sans-serif; font-size: 12px; fill: rgb(68, 68, 68); fill-opacity: 1; white-space: pre;">100</text></g><g class="y3tick"><text text-anchor="end" x="76.6" y="4.199999999999999" transform="translate(0,502.80500000000006)" style="font-family: 'Open Sans', verdana, arial, sans-serif; font-size: 12px; fill: rgb(68, 68, 68); fill-opacity: 1; white-space: pre;">150</text></g></g><g class="overaxes-above"/></g><g class="subplot x4y4"><g class="layer-subplot"><g class="shapelayer"/><g class="imagelayer"/></g><g class="gridlayer"><g class="x4"><path class="x4grid crisp" d="M0,130.82500000000002v277.42499999999995" transform="translate(162.17000000000002,0)" style="stroke: rgb(238, 238, 238); stroke-opacity: 1; stroke-width: 1px;"/><path class="x4grid crisp" d="M0,130.82500000000002v277.42499999999995" transform="translate(316.33000000000004,0)" style="stroke: rgb(238, 238, 238); stroke-opacity: 1; stroke-width: 1px;"/><path class="x4grid crisp" d="M0,130.82500000000002v277.42499999999995" transform="translate(470.49,0)" style="stroke: rgb(238, 238, 238); stroke-opacity: 1; stroke-width: 1px;"/><path class="x4grid crisp" d="M0,130.82500000000002v277.42499999999995" transform="translate(624.65,0)" style="stroke: rgb(238, 238, 238); stroke-opacity: 1; stroke-width: 1px;"/><path class="x4grid crisp" d="M0,130.82500000000002v277.42499999999995" transform="translate(778.81,0)" style="stroke: rgb(238, 238, 238); stroke-opacity: 1; stroke-width: 1px;"/><path class="x4grid crisp" d="M0,130.82500000000002v277.42499999999995" transform="translate(932.97,0)" style="stroke: rgb(238, 238, 238); stroke-opacity: 1; stroke-width: 1px;"/></g><g class="y4"><path class="y4grid crisp" d="M80,0h917" transform="translate(0,362.06500000000005)" style="stroke: rgb(238, 238, 238); stroke-opacity: 1; stroke-width: 1px;"/><path class="y4grid crisp" d="M80,0h917" transform="translate(0,315.885)" style="stroke: rgb(238, 238, 238); stroke-opacity: 1; stroke-width: 1px;"/><path class="y4grid crisp" d="M80,0h917" transform="translate(0,269.70500000000004)" style="stroke: rgb(238, 238, 238); stroke-opacity: 1; stroke-width: 1px;"/><path class="y4grid crisp" d="M80,0h917" transform="translate(0,223.52500000000003)" style="stroke: rgb(238, 238, 238); stroke-opacity: 1; stroke-width: 1px;"/><path class="y4grid crisp" d="M80,0h917" transform="translate(0,177.34500000000003)" style="stroke: rgb(238, 238, 238); stroke-opacity: 1; stroke-width: 1px;"/></g></g><g class="zerolinelayer"/><path class="xlines-below"/><path class="ylines-below"/><g class="overlines-below"/><g class="xaxislayer-below"/><g class="yaxislayer-below"/><g class="overaxes-below"/><g class="plot" transform="translate(80, 130.82500000000002)" clip-path="url(#clipa0ad5dx4y4plot)"><g class="imagelayer"/><g class="maplayer"/><g class="barlayer"/><g class="carpetlayer"/><g class="violinlayer"/><g class="boxlayer"/><g class="scatterlayer"><g class="trace scatter trace444232" style="stroke-miterlimit: 2; opacity: 1;"><path class="js-line" d="M0,277.42L4.56,277.42L9.12,249.86L13.68,264.05L18.25,268.9L22.81,267.13L27.37,273.19L31.94,268.11L36.5,272.67L41.06,270.45L45.62,270.02L50.18,265.01L54.74,266.99L59.31,276.35L63.87,273L68.43,278.09L73,277.42L168.8,277.42L173.36,276.64L177.92,269.05L182.49,266.3L187.05,252.87L191.61,265.84L196.17,266.82L200.73,253.26L205.3,262.97L209.86,258.18L214.42,267.08L218.98,239.86L223.55,246.39L228.11,250.8L232.67,256.28L237.23,277.42L264.61,277.42L269.17,48.59L273.73,15.77L278.29,188.35L282.85,255.25L287.41,277.42L323.91,277.42L328.47,271.1L333.04,261.34L337.6,255.37L342.16,269.75L346.73,266.25L351.29,267.21L355.85,269.23L360.41,272.13L364.97,277.42L369.53,276.59L374.1,274.88L378.66,268.71L383.22,265.61L387.78,266.68L392.35,268.83L396.91,265.01L401.47,268.87L406.03,259.51L410.59,258.96L415.16,265.21L419.72,268.33L424.28,276.75L428.84,273.78L433.41,276.18L437.97,273.91L442.53,272.13L447.09,273.69L456.22,275L460.78,275.49L469.9,275.23L474.47,274.77L488.15,276.05L492.71,275.37L497.28,276.46L501.84,275.34L506.4,269.78L510.96,262.74L515.53,266.02L520.09,266.47L524.65,269.87L529.21,270.33L533.77,267.86L538.34,268.49L542.9,272.76L547.46,270.95L552.02,268.6L556.59,271.08L561.15,267.47L565.71,269.19L570.27,268.34L574.83,266.4L579.4,273.15L583.96,269.52L588.52,268.71L593.08,266.6L597.65,267.16L602.21,270.6L606.77,273.67L611.33,274.66L615.89,278.4L620.45,265.16L625.02,276.46L629.58,267.02L638.71,273.45L643.27,272.9L647.83,277.62L652.39,267.34L656.96,268.4L661.53,261.44L666.06,263.1L670.63,270.66L675.21,263.61L679.78,267.95L684.31,274.05L688.88,272.77L693.45,275.34L698.03,276.85L702.56,269.8L707.13,272.35L711.7,274.14L716.27,272.05L720.8,269.38L725.38,263.38L729.95,272.78L734.52,269.5L739.05,265.7L743.62,268.13L748.2,275.73L752.77,271.22L757.3,269.65L761.87,267.1L766.44,265.45L771.02,262.94L775.59,259.35L780.12,264.58L784.69,263.1L789.26,267.96L793.84,265.31L798.37,268.06L802.94,267.83L807.51,268.81L812.09,269.78L816.62,266.63L821.19,271.63L825.76,273.59L830.33,273.16L834.86,264.76L839.44,263.76L844.01,264.02L848.58,269.12L853.11,267.69L857.68,275.91L862.26,275.39L866.83,277.11L871.36,275.67L875.93,267.31L880.5,268.74L885.08,270.1L889.61,268.2L894.18,270.98L898.75,270.55L903.32,276.61L907.86,274.42L912.43,277.42L917,277.42" style="vector-effect: non-scaling-stroke; fill: none; stroke: rgb(214, 39, 40); stroke-opacity: 1; stroke-width: 2px; opacity: 1;"/><g class="points"/></g></g></g><g class="overplot"/><path class="xlines-above crisp" d="M79,408.75H998M79,130.32500000000002H998" style="fill: none; stroke-width: 1px; stroke: rgb(68, 68, 68); stroke-opacity: 1;"/><path class="ylines-above crisp" d="M79.5,130.82500000000002V408.25M997.5,130.82500000000002V408.25" style="fill: none; stroke-width: 1px; stroke: rgb(68, 68, 68); stroke-opacity: 1;"/><g class="overlines-above"/><g class="xaxislayer-above"><g class="x4tick"><text text-anchor="middle" x="0" y="423.65" transform="translate(162.17000000000002,0)" style="font-family: 'Open Sans', verdana, arial, sans-serif; font-size: 12px; fill: rgb(68, 68, 68); fill-opacity: 1; white-space: pre;">−10</text></g><g class="x4tick"><text text-anchor="middle" x="0" y="423.65" transform="translate(316.33000000000004,0)" style="font-family: 'Open Sans', verdana, arial, sans-serif; font-size: 12px; fill: rgb(68, 68, 68); fill-opacity: 1; white-space: pre;">0</text></g><g class="x4tick"><text text-anchor="middle" x="0" y="423.65" transform="translate(470.49,0)" style="font-family: 'Open Sans', verdana, arial, sans-serif; font-size: 12px; fill: rgb(68, 68, 68); fill-opacity: 1; white-space: pre;">10</text></g><g class="x4tick"><text text-anchor="middle" x="0" y="423.65" transform="translate(624.65,0)" style="font-family: 'Open Sans', verdana, arial, sans-serif; font-size: 12px; fill: rgb(68, 68, 68); fill-opacity: 1; white-space: pre;">20</text></g><g class="x4tick"><text text-anchor="middle" x="0" y="423.65" transform="translate(778.81,0)" style="font-family: 'Open Sans', verdana, arial, sans-serif; font-size: 12px; fill: rgb(68, 68, 68); fill-opacity: 1; white-space: pre;">30</text></g><g class="x4tick"><text text-anchor="middle" x="0" y="423.65" transform="translate(932.97,0)" style="font-family: 'Open Sans', verdana, arial, sans-serif; font-size: 12px; fill: rgb(68, 68, 68); fill-opacity: 1; white-space: pre;">40</text></g></g><g class="yaxislayer-above"><g class="y4tick"><text text-anchor="end" x="76.6" y="4.199999999999999" transform="translate(0,408.245)" style="font-family: 'Open Sans', verdana, arial, sans-serif; font-size: 12px; fill: rgb(68, 68, 68); fill-opacity: 1; white-space: pre;">0</text></g><g class="y4tick"><text text-anchor="end" x="76.6" y="4.199999999999999" transform="translate(0,362.06500000000005)" style="font-family: 'Open Sans', verdana, arial, sans-serif; font-size: 12px; fill: rgb(68, 68, 68); fill-opacity: 1; white-space: pre;">200</text></g><g class="y4tick"><text text-anchor="end" x="76.6" y="4.199999999999999" transform="translate(0,315.885)" style="font-family: 'Open Sans', verdana, arial, sans-serif; font-size: 12px; fill: rgb(68, 68, 68); fill-opacity: 1; white-space: pre;">400</text></g><g class="y4tick"><text text-anchor="end" x="76.6" y="4.199999999999999" transform="translate(0,269.70500000000004)" style="font-family: 'Open Sans', verdana, arial, sans-serif; font-size: 12px; fill: rgb(68, 68, 68); fill-opacity: 1; white-space: pre;">600</text></g><g class="y4tick"><text text-anchor="end" x="76.6" y="4.199999999999999" transform="translate(0,223.52500000000003)" style="font-family: 'Open Sans', verdana, arial, sans-serif; font-size: 12px; fill: rgb(68, 68, 68); fill-opacity: 1; white-space: pre;">800</text></g><g class="y4tick"><text text-anchor="end" x="76.6" y="4.199999999999999" transform="translate(0,177.34500000000003)" style="font-family: 'Open Sans', verdana, arial, sans-serif; font-size: 12px; fill: rgb(68, 68, 68); fill-opacity: 1; white-space: pre;">1000</text></g><g class="y4tick"><text text-anchor="end" x="76.6" y="4.199999999999999" transform="translate(0,131.16500000000002)" style="font-family: 'Open Sans', verdana, arial, sans-serif; font-size: 12px; fill: rgb(68, 68, 68); fill-opacity: 1; white-space: pre;">1200</text></g></g><g class="overaxes-above"/></g></g><g class="polarlayer"/><g class="ternarylayer"/><g class="geolayer"/><g class="pielayer"/><g class="glimages"/><defs id="topdefs-a0ad5d"><g class="clips"/><clipPath id="legenda0ad5d"><rect width="103" height="86" x="0" y="0"/></clipPath></defs><g class="layer-above"><g class="imagelayer"/><g class="shapelayer"><path data-index="0" fill-rule="evenodd" d="M316.33000000000004,1333.005L316.33000000000004,1055.575" clip-path="url(#clipa0ad5dxy)" style="opacity: 1; stroke: rgb(255, 0, 0); stroke-opacity: 1; fill: rgb(0, 0, 0); fill-opacity: 0; stroke-width: 2px;"/><path data-index="1" fill-rule="evenodd" d="M316.33000000000004,1024.7450000000001L316.33000000000004,747.325" clip-path="url(#clipa0ad5dxy2)" style="opacity: 1; stroke: rgb(255, 0, 0); stroke-opacity: 1; fill: rgb(0, 0, 0); fill-opacity: 0; stroke-width: 2px;"/><path data-index="2" fill-rule="evenodd" d="M316.33000000000004,716.4950000000001L316.33000000000004,440.07500000000005" clip-path="url(#clipa0ad5dxy3)" style="opacity: 1; stroke: rgb(255, 0, 0); stroke-opacity: 1; fill: rgb(0, 0, 0); fill-opacity: 0; stroke-width: 2px;"/><path data-index="3" fill-rule="evenodd" d="M316.33000000000004,408.245L316.33000000000004,131.82500000000002" clip-path="url(#clipa0ad5dxy4)" style="opacity: 1; stroke: rgb(255, 0, 0); stroke-opacity: 1; fill: rgb(0, 0, 0); fill-opacity: 0; stroke-width: 2px;"/></g></g><g class="infolayer"><g class="g-gtitle"><text class="gtitle" x="565" y="50" text-anchor="middle" style="font-family: 'Open Sans', verdana, arial, sans-serif; font-size: 17px; fill: rgb(68, 68, 68); opacity: 1; font-weight: normal; white-space: pre;">DENSITY OF STATES SVWN</text></g><g class="legend" pointer-events="all" transform="translate(1015.34, 100)"><rect class="bg" shape-rendering="crispEdges" width="103" height="86" x="0" y="0" style="stroke: rgb(68, 68, 68); stroke-opacity: 1; fill: rgb(238, 238, 238); fill-opacity: 1; stroke-width: 0px;"/><g class="scrollbox" transform="translate(0, 0)" clip-path="url(#legenda0ad5d)"><g class="groups"><g class="traces" transform="translate(0, 14.5)" style="opacity: 1;"><g class="layers" style="opacity: 1;"><g class="legendfill"/><g class="legendlines"><path class="js-line" d="M5,0h30" style="fill: none; stroke: rgb(31, 119, 180); stroke-opacity: 1; stroke-width: 2px;"/></g><g class="legendsymbols"><g class="legendpoints"/></g></g><text class="legendtext user-select-none" text-anchor="start" x="40" y="4.680000000000001" style="font-family: 'Open Sans', verdana, arial, sans-serif; font-size: 12px; fill: rgb(68, 68, 68); fill-opacity: 1; white-space: pre;">p Oxygen</text><rect class="legendtoggle" pointer-events="all" x="0" y="-9.5" width="143" height="19" style="cursor: pointer; fill: rgb(0, 0, 0); fill-opacity: 0;"/></g><g class="traces" transform="translate(0, 33.5)" style="opacity: 1;"><g class="layers" style="opacity: 1;"><g class="legendfill"/><g class="legendlines"><path class="js-line" d="M5,0h30" style="fill: none; stroke: rgb(255, 127, 14); stroke-opacity: 1; stroke-width: 2px;"/></g><g class="legendsymbols"><g class="legendpoints"/></g></g><text class="legendtext user-select-none" text-anchor="start" x="40" y="4.680000000000001" style="font-family: 'Open Sans', verdana, arial, sans-serif; font-size: 12px; fill: rgb(68, 68, 68); fill-opacity: 1; white-space: pre;">d Cerium</text><rect class="legendtoggle" pointer-events="all" x="0" y="-9.5" width="143" height="19" style="cursor: pointer; fill: rgb(0, 0, 0); fill-opacity: 0;"/></g><g class="traces" transform="translate(0, 52.5)" style="opacity: 1;"><g class="layers" style="opacity: 1;"><g class="legendfill"/><g class="legendlines"><path class="js-line" d="M5,0h30" style="fill: none; stroke: rgb(44, 160, 44); stroke-opacity: 1; stroke-width: 2px;"/></g><g class="legendsymbols"><g class="legendpoints"/></g></g><text class="legendtext user-select-none" text-anchor="start" x="40" y="4.680000000000001" style="font-family: 'Open Sans', verdana, arial, sans-serif; font-size: 12px; fill: rgb(68, 68, 68); fill-opacity: 1; white-space: pre;">f Cerium</text><rect class="legendtoggle" pointer-events="all" x="0" y="-9.5" width="143" height="19" style="cursor: pointer; fill: rgb(0, 0, 0); fill-opacity: 0;"/></g><g class="traces" transform="translate(0, 71.5)" style="opacity: 1;"><g class="layers" style="opacity: 1;"><g class="legendfill"/><g class="legendlines"><path class="js-line" d="M5,0h30" style="fill: none; stroke: rgb(214, 39, 40); stroke-opacity: 1; stroke-width: 2px;"/></g><g class="legendsymbols"><g class="legendpoints"/></g></g><text class="legendtext user-select-none" text-anchor="start" x="40" y="4.680000000000001" style="font-family: 'Open Sans', verdana, arial, sans-serif; font-size: 12px; fill: rgb(68, 68, 68); fill-opacity: 1; white-space: pre;">Total</text><rect class="legendtoggle" pointer-events="all" x="0" y="-9.5" width="143" height="19" style="cursor: pointer; fill: rgb(0, 0, 0); fill-opacity: 0;"/></g></g></g><rect class="scrollbar" rx="20" ry="3" width="0" height="0" x="0" y="0" style="fill: rgb(128, 139, 164); fill-opacity: 1;"/></g><g class="g-xtitle"><text class="xtitle" x="538.5" y="1385" text-anchor="middle" style="font-family: 'Open Sans', verdana, arial, sans-serif; font-size: 14px; fill: rgb(68, 68, 68); opacity: 1; font-weight: normal; white-space: pre;">E-EFERMI (eV)</text></g><g class="g-x2title"/><g class="g-x3title"/><g class="g-x4title"/><g class="g-ytitle"><text class="ytitle" transform="rotate(-90,48,1194.2875000000001)" x="48" y="1194.2875000000001" text-anchor="middle" style="font-family: 'Open Sans', verdana, arial, sans-serif; font-size: 11px; fill: rgb(68, 68, 68); opacity: 1; font-weight: normal; white-space: pre;">p Oxygen</text></g><g class="g-y2title"><text class="y2title" transform="rotate(-90,48,886.0375)" x="48" y="886.0375" text-anchor="middle" style="font-family: 'Open Sans', verdana, arial, sans-serif; font-size: 11px; fill: rgb(68, 68, 68); opacity: 1; font-weight: normal; white-space: pre;">d Cerium</text></g><g class="g-y3title"><text class="y3title" transform="rotate(-90,48,577.7875)" x="48" y="577.7875" text-anchor="middle" style="font-family: 'Open Sans', verdana, arial, sans-serif; font-size: 11px; fill: rgb(68, 68, 68); opacity: 1; font-weight: normal; white-space: pre;">f Cerium</text></g><g class="g-y4title"><text class="y4title" transform="rotate(-90,48,269.5375)" x="48" y="269.5375" text-anchor="middle" style="font-family: 'Open Sans', verdana, arial, sans-serif; font-size: 11px; fill: rgb(68, 68, 68); opacity: 1; font-weight: normal; white-space: pre;">Total</text></g></g></svg>