<svg class="main-svg" xmlns="http://www.w3.org/2000/svg" xmlns:xlink="http://www.w3.org/1999/xlink" width="1130" height="1413" style="" viewBox="0 0 1130 1413"><rect x="0" y="0" width="1130" height="1413" style="fill: rgb(238, 238, 238); fill-opacity: 1;"/><defs id="defs-b6c118"><g class="clips"><clipPath class="plotclip" id="clipb6c118xyplot"><rect width="944" height="277.425"/></clipPath><clipPath class="plotclip" id="clipb6c118x2y2plot"><rect width="944" height="277.42499999999995"/></clipPath><clipPath class="plotclip" id="clipb6c118x3y3plot"><rect width="944" height="277.42499999999995"/></clipPath><clipPath class="plotclip" id="clipb6c118x4y4plot"><rect width="944" height="277.42499999999995"/></clipPath><clipPath class="axesclip" id="clipb6c118x"><rect x="80" y="0" width="944" height="1413"/></clipPath><clipPath class="axesclip" id="clipb6c118y"><rect x="0" y="1055.575" width="1130" height="277.425"/></clipPath><clipPath class="axesclip" id="clipb6c118xy"><rect x="80" y="1055.575" width="944" height="277.425"/></clipPath><clipPath class="axesclip" id="clipb6c118y2"><rect x="0" y="747.325" width="1130" height="277.42499999999995"/></clipPath><clipPath class="axesclip" id="clipb6c118xy2"><rect x="80" y="747.325" width="944" height="277.42499999999995"/></clipPath><clipPath class="axesclip" id="clipb6c118y3"><rect x="0" y="439.07500000000005" width="1130" height="277.42499999999995"/></clipPath><clipPath class="axesclip" id="clipb6c118xy3"><rect x="80" y="439.07500000000005" width="944" height="277.42499999999995"/></clipPath><clipPath class="axesclip" id="clipb6c118y4"><rect x="0" y="130.82500000000002" width="1130" height="277.42499999999995"/></clipPath><clipPath class="axesclip" id="clipb6c118xy4"><rect x="80" y="130.82500000000002" width="944" height="277.42499999999995"/></clipPath><clipPath class="axesclip" id="clipb6c118x2"><rect x="80" y="0" width="944" height="1413"/></clipPath><clipPath class="axesclip" id="clipb6c118x2y"><rect x="80" y="1055.575" width="944" height="277.425"/></clipPath><clipPath class="axesclip" id="clipb6c118x2y2"><rect x="80" y="747.325" width="944" height="277.42499999999995"/></clipPath><clipPath class="axesclip" id="clipb6c118x2y3"><rect x="80" y="439.07500000000005" width="944" height="277.42499999999995"/></clipPath><clipPath class="axesclip" id="clipb6c118x2y4"><rect x="80" y="130.82500000000002" width="944" height="277.42499999999995"/></clipPath><clipPath class="axesclip" id="clipb6c118x3"><rect x="80" y="0" width="944" height="1413"/></clipPath><clipPath class="axesclip" id="clipb6c118x3y"><rect x="80" y="1055.575" width="944" height="277.425"/></clipPath><clipPath class="axesclip" id="clipb6c118x3y2"><rect x="80" y="747.325" width="944" height="277.42499999999995"/></clipPath><clipPath class="axesclip" id="clipb6c118x3y3"><rect x="80" y="439.07500000000005" width="944" height="277.42499999999995"/></clipPath><clipPath class="axesclip" id="clipb6c118x3y4"><rect x="80" y="130.82500000000002" width="944" height="277.42499999999995"/></clipPath><clipPath class="axesclip" id="clipb6c118x4"><rect x="80" y="0" width="944" height="1413"/></clipPath><clipPath class="axesclip" id="clipb6c118x4y"><rect x="80" y="1055.575" width="944" height="277.425"/></clipPath><clipPath class="axesclip" id="clipb6c118x4y2"><rect x="80" y="747.325" width="944" height="277.42499999999995"/></clipPath><clipPath class="axesclip" id="clipb6c118x4y3"><rect x="80" y="439.07500000000005" width="944" height="277.42499999999995"/></clipPath><clipPath class="axesclip" id="clipb6c118x4y4"><rect x="80" y="130.82500000000002" width="944" height="277.42499999999995"/></clipPath></g><g class="gradients"/></defs><g class="bglayer"><rect class="bg" x="80" y="1055.575" width="944" height="277.425" style="fill: rgb(255, 255, 255); fill-opacity: 1; stroke-width: 0;"/><rect class="bg" x="80" y="747.325" width="944" height="277.42499999999995" style="fill: rgb(255, 255, 255); fill-opacity: 1; stroke-width: 0;"/><rect class="bg" x="80" y="439.07500000000005" width="944" height="277.42499999999995" style="fill: rgb(255, 255, 255); fill-opacity: 1; stroke-width: 0;"/><rect class="bg" x="80" y="130.82500000000002" width="944" height="277.42499999999995" style="fill: rgb(255, 255, 255); fill-opacity: 1; stroke-width: 0;"/></g><g class="layer-below"><g class="imagelayer"/><g class="shapelayer"/></g><g class="cartesianlayer"><g class="subplot xy"><g class="layer-subplot"><g class="shapelayer"/><g class="imagelayer"/></g><g class="gridlayer"><g class="x"><path class="xgrid crisp" d="M0,1055.575v277.425" transform="translate(186.75,0)" style="stroke: rgb(238, 238, 238); stroke-opacity: 1; stroke-width: 1px;"/><path class="xgrid crisp" d="M0,1055.575v277.425" transform="translate(333.45,0)" style="stroke: rgb(238, 238, 238); stroke-opacity: 1; stroke-width: 1px;"/><path class="xgrid crisp" d="M0,1055.575v277.425" transform="translate(480.15,0)" style="stroke: rgb(238, 238, 238); stroke-opacity: 1; stroke-width: 1px;"/><path class="xgrid crisp" d="M0,1055.575v277.425" transform="translate(626.85,0)" style="stroke: rgb(238, 238, 238); stroke-opacity: 1; stroke-width: 1px;"/><path class="xgrid crisp" d="M0,1055.575v277.425" transform="translate(773.54,0)" style="stroke: rgb(238, 238, 238); stroke-opacity: 1; stroke-width: 1px;"/><path class="xgrid crisp" d="M0,1055.575v277.425" transform="translate(920.24,0)" style="stroke: rgb(238, 238, 238); stroke-opacity: 1; stroke-width: 1px;"/></g><g class="y"><path class="ygrid crisp" d="M80,0h944" transform="translate(0,1278.915)" style="stroke: rgb(238, 238, 238); stroke-opacity: 1; stroke-width: 1px;"/><path class="ygrid crisp" d="M80,0h944" transform="translate(0,1224.835)" style="stroke: rgb(238, 238, 238); stroke-opacity: 1; stroke-width: 1px;"/><path class="ygrid crisp" d="M80,0h944" transform="translate(0,1170.7450000000001)" style="stroke: rgb(238, 238, 238); stroke-opacity: 1; stroke-width: 1px;"/><path class="ygrid crisp" d="M80,0h944" transform="translate(0,1116.665)" style="stroke: rgb(238, 238, 238); stroke-opacity: 1; stroke-width: 1px;"/><path class="ygrid crisp" d="M80,0h944" transform="translate(0,1062.575)" style="stroke: rgb(238, 238, 238); stroke-opacity: 1; stroke-width: 1px;"/></g></g><g class="zerolinelayer"/><path class="xlines-below"/><path class="ylines-below"/><g class="overlines-below"/><g class="xaxislayer-below"/><g class="yaxislayer-below"/><g class="overaxes-below"/><g class="plot" transform="translate(80, 1055.575)" clip-path="url(#clipb6c118xyplot)"><g class="imagelayer"/><g class="maplayer"/><g class="barlayer"/><g class="carpetlayer"/><g class="violinlayer"/><g class="boxlayer"/><g class="scatterlayer"><g class="trace scatter trace05b9c4" style="stroke-miterlimit: 2; opacity: 1;"><path class="js-line" d="M0,277.43L4.7,277.43L9.39,266.02L14.09,274.31L18.79,274.4L23.48,274.68L28.18,276.19L32.88,274.86L37.58,277L42.27,276.14L46.97,276.78L51.66,276.14L56.36,276.8L65.75,277.56L70.45,277.43L183.17,277.43L187.86,263.6L192.56,234.6L197.25,200.78L201.95,68.03L206.65,13.87L211.34,193.65L216.04,127.21L220.74,202.9L225.43,166.48L230.13,228.1L234.83,129.93L239.52,118.49L244.22,190.11L248.92,150.85L253.61,277.43L309.97,277.43L314.67,241.28L319.36,245.56L324.06,255.13L328.76,267.45L333.45,277.43L366.33,277.32L371.03,287.03L375.72,330.33L380.42,292.29L385.12,284.66L389.81,284.64L394.51,280.23L399.2,278.11L403.9,277.43L408.6,278.04L413.3,276.58L417.99,276.2L427.38,273.39L432.08,277.9L436.78,277.99L441.47,286.11L450.87,308.23L455.56,299.35L469.65,277.37L474.35,277.43L479.05,258.56L483.74,224.13L488.44,227.46L493.14,239.9L497.83,242.58L502.53,249.72L507.22,256.18L511.92,253L516.62,247.37L521.32,251.65L526.01,263.37L530.71,267.3L535.4,258.66L540.1,244.29L544.8,249.72L549.49,198.99L558.89,102.16L563.58,195.72L568.28,197.46L572.98,198.27L577.67,165.88L582.37,165.57L587.06,244.25L591.76,203.34L596.46,244.74L601.16,177.72L605.85,226.31L610.55,222.21L615.24,232.76L619.94,232.34L624.64,236.16L629.33,227.04L634.03,224.4L638.73,228.17L643.42,234.42L648.12,239.2L652.83,219.98L657.51,259.01L662.22,248.62L666.93,226.1L671.6,254.03L676.31,263.08L680.98,245.38L685.69,248.69L695.07,214.23L699.78,192.37L704.49,182.6L709.16,224.55L713.87,227.79L718.58,254.8L723.25,265.37L727.96,255.2L732.67,282.02L737.34,170.92L742.05,248.83L746.76,274.59L751.43,251.8L756.14,269.21L760.85,247.11L765.52,266.93L770.23,266.84L774.95,248.73L779.62,252.55L784.33,285.06L789,267.02L793.71,261.67L798.42,250.93L803.09,245.2L812.51,185.89L817.18,208.27L821.89,221.57L826.6,269.53L831.27,258.77L835.98,271.05L840.69,261.92L845.36,259.81L850.07,245.95L854.78,275.63L859.45,269.4L864.16,259.33L868.87,291.76L873.54,244.73L878.25,234.06L882.96,281.91L887.64,266.01L892.35,247.31L897.02,252.55L901.73,262.38L906.44,256.01L911.11,258.72L915.82,264.46L920.53,267.05L925.2,268.55L929.91,278.89L934.62,266.4L939.29,277.42L944,277.43" style="vector-effect: non-scaling-stroke; fill: none; stroke: rgb(31, 119, 180); stroke-opacity: 1; stroke-width: 2px; opacity: 1;"/><g class="points"/></g></g></g><g class="overplot"/><path class="xlines-above crisp" d="M79,1333.5H1025M79,1055.075H1025" style="fill: none; stroke-width: 1px; stroke: rgb(68, 68, 68); stroke-opacity: 1;"/><path class="ylines-above crisp" d="M79.5,1055.575V1333M1024.5,1055.575V1333" style="fill: none; stroke-width: 1px; stroke: rgb(68, 68, 68); stroke-opacity: 1;"/><g class="overlines-above"/><g class="xaxislayer-above"><g class="xtick"><text text-anchor="middle" x="0" y="1348.4" transform="translate(186.75,0)" style="font-family: 'Open Sans', verdana, arial, sans-serif; font-size: 12px; fill: rgb(68, 68, 68); fill-opacity: 1; white-space: pre;">−10</text></g><g class="xtick"><text text-anchor="middle" x="0" y="1348.4" transform="translate(333.45,0)" style="font-family: 'Open Sans', verdana, arial, sans-serif; font-size: 12px; fill: rgb(68, 68, 68); fill-opacity: 1; white-space: pre;">0</text></g><g class="xtick"><text text-anchor="middle" x="0" y="1348.4" transform="translate(480.15,0)" style="font-family: 'Open Sans', verdana, arial, sans-serif; font-size: 12px; fill: rgb(68, 68, 68); fill-opacity: 1; white-space: pre;">10</text></g><g class="xtick"><text text-anchor="middle" x="0" y="1348.4" transform="translate(626.85,0)" style="font-family: 'Open Sans', verdana, arial, sans-serif; font-size: 12px; fill: rgb(68, 68, 68); fill-opacity: 1; white-space: pre;">20</text></g><g class="xtick"><text text-anchor="middle" x="0" y="1348.4" transform="translate(773.54,0)" style="font-family: 'Open Sans', verdana, arial, sans-serif; font-size: 12px; fill: rgb(68, 68, 68); fill-opacity: 1; white-space: pre;">30</text></g><g class="xtick"><text text-anchor="middle" x="0" y="1348.4" transform="translate(920.24,0)" style="font-family: 'Open Sans', verdana, arial, sans-serif; font-size: 12px; fill: rgb(68, 68, 68); fill-opacity: 1; white-space: pre;">40</text></g></g><g class="yaxislayer-above"><g class="ytick"><text text-anchor="end" x="76.6" y="4.199999999999999" transform="translate(0,1333.005)" style="font-family: 'Open Sans', verdana, arial, sans-serif; font-size: 12px; fill: rgb(68, 68, 68); fill-opacity: 1; white-space: pre;">0</text></g><g class="ytick"><text text-anchor="end" x="76.6" y="4.199999999999999" transform="translate(0,1278.915)" style="font-family: 'Open Sans', verdana, arial, sans-serif; font-size: 12px; fill: rgb(68, 68, 68); fill-opacity: 1; white-space: pre;">5</text></g><g class="ytick"><text text-anchor="end" x="76.6" y="4.199999999999999" transform="translate(0,1224.835)" style="font-family: 'Open Sans', verdana, arial, sans-serif; font-size: 12px; fill: rgb(68, 68, 68); fill-opacity: 1; white-space: pre;">10</text></g><g class="ytick"><text text-anchor="end" x="76.6" y="4.199999999999999" transform="translate(0,1170.7450000000001)" style="font-family: 'Open Sans', verdana, arial, sans-serif; font-size: 12px; fill: rgb(68, 68, 68); fill-opacity: 1; white-space: pre;">15</text></g><g class="ytick"><text text-anchor="end" x="76.6" y="4.199999999999999" transform="translate(0,1116.665)" style="font-family: 'Open Sans', verdana, arial, sans-serif; font-size: 12px; fill: rgb(68, 68, 68); fill-opacity: 1; white-space: pre;">20</text></g><g class="ytick"><text text-anchor="end" x="76.6" y="4.199999999999999" transform="translate(0,1062.575)" style="font-family: 'Open Sans', verdana, arial, sans-serif; font-size: 12px; fill: rgb(68, 68, 68); fill-opacity: 1; white-space: pre;">25</text></g></g><g class="overaxes-above"/></g><g class="subplot x2y2"><g class="layer-subplot"><g class="shapelayer"/><g class="imagelayer"/></g><g class="gridlayer"><g class="x2"><path class="x2grid crisp" d="M0,747.325v277.42499999999995" transform="translate(186.75,0)" style="stroke: rgb(238, 238, 238); stroke-opacity: 1; stroke-width: 1px;"/><path class="x2grid crisp" d="M0,747.325v277.42499999999995" transform="translate(333.45,0)" style="stroke: rgb(238, 238, 238); stroke-opacity: 1; stroke-width: 1px;"/><path class="x2grid crisp" d="M0,747.325v277.42499999999995" transform="translate(480.15,0)" style="stroke: rgb(238, 238, 238); stroke-opacity: 1; stroke-width: 1px;"/><path class="x2grid crisp" d="M0,747.325v277.42499999999995" transform="translate(626.85,0)" style="stroke: rgb(238, 238, 238); stroke-opacity: 1; stroke-width: 1px;"/><path class="x2grid crisp" d="M0,747.325v277.42499999999995" transform="translate(773.54,0)" style="stroke: rgb(238, 238, 238); stroke-opacity: 1; stroke-width: 1px;"/><path class="x2grid crisp" d="M0,747.325v277.42499999999995" transform="translate(920.24,0)" style="stroke: rgb(238, 238, 238); stroke-opacity: 1; stroke-width: 1px;"/></g><g class="y2"><path class="y2grid crisp" d="M80,0h944" transform="translate(0,987.455)" style="stroke: rgb(238, 238, 238); stroke-opacity: 1; stroke-width: 1px;"/><path class="y2grid crisp" d="M80,0h944" transform="translate(0,950.1650000000001)" style="stroke: rgb(238, 238, 238); stroke-opacity: 1; stroke-width: 1px;"/><path class="y2grid crisp" d="M80,0h944" transform="translate(0,912.875)" style="stroke: rgb(238, 238, 238); stroke-opacity: 1; stroke-width: 1px;"/><path class="y2grid crisp" d="M80,0h944" transform="translate(0,875.585)" style="stroke: rgb(238, 238, 238); stroke-opacity: 1; stroke-width: 1px;"/><path class="y2grid crisp" d="M80,0h944" transform="translate(0,838.2950000000001)" style="stroke: rgb(238, 238, 238); stroke-opacity: 1; stroke-width: 1px;"/><path class="y2grid crisp" d="M80,0h944" transform="translate(0,800.995)" style="stroke: rgb(238, 238, 238); stroke-opacity: 1; stroke-width: 1px;"/><path class="y2grid crisp" d="M80,0h944" transform="translate(0,763.705)" style="stroke: rgb(238, 238, 238); stroke-opacity: 1; stroke-width: 1px;"/></g></g><g class="zerolinelayer"/><path class="xlines-below"/><path class="ylines-below"/><g class="overlines-below"/><g class="xaxislayer-below"/><g class="yaxislayer-below"/><g class="overaxes-below"/><g class="plot" transform="translate(80, 747.325)" clip-path="url(#clipb6c118x2y2plot)"><g class="imagelayer"/><g class="maplayer"/><g class="barlayer"/><g class="carpetlayer"/><g class="violinlayer"/><g class="boxlayer"/><g class="scatterlayer"><g class="trace scatter trace94d606" style="stroke-miterlimit: 2; opacity: 1;"><path class="js-line" d="M0,277.42L4.7,277.42L9.39,276.51L14.09,276.44L18.79,275.15L23.48,274.5L28.18,275.84L32.88,272.62L37.58,277.59L42.27,273.63L46.97,273.36L51.66,273.38L56.36,276.23L65.75,277.68L70.45,277.42L183.17,277.42L187.86,271.44L192.56,264.98L197.25,256.76L201.95,234.44L206.65,233.4L211.34,263.87L216.04,258.81L220.74,272.73L225.43,267.29L230.13,275.87L234.83,267.22L244.22,275.86L248.92,276.11L253.61,277.42L258.31,277.42L309.97,277.42L314.67,260.02L319.36,261.63L324.06,270.92L328.76,275.54L333.45,277.42L366.33,276.98L371.03,192.49L375.72,13.87L380.42,122.14L385.12,188.26L389.81,186.95L394.51,235.29L399.2,264.96L403.9,277.42L408.6,267.51L417.99,197.88L422.69,193.16L427.38,231.38L432.08,202.64L436.78,212.03L441.47,196.38L446.17,167.96L450.87,188.45L455.56,232.32L460.26,238.04L464.95,269.38L469.65,277.51L474.35,277.42L479.05,279.93L483.74,285.97L488.44,282.37L493.14,279.65L497.83,279.94L502.53,280L507.22,279.17L516.62,278.32L521.32,278.22L535.4,277.15L540.1,275.76L544.8,279.49L549.49,278L554.19,289.67L558.89,290.49L563.58,288.98L568.28,282.98L572.98,284.93L577.67,294.04L582.37,288.05L587.06,273.9L591.76,286.3L596.46,280.5L601.16,282.13L605.85,278.67L610.55,287L615.24,270.54L619.94,276.54L624.64,272.6L629.33,272.26L634.03,274.08L643.42,283.24L648.12,283.84L652.83,264.44L657.51,281.63L662.22,275.62L666.93,279.87L671.6,274.5L676.31,279.03L680.98,286.99L685.69,274.71L690.4,268.26L695.07,250.01L699.78,261.02L704.49,257.01L709.16,266.55L713.87,263.58L718.58,273.76L723.25,278.78L727.96,275.53L732.67,278.73L737.34,283.18L742.05,273.54L746.76,270.55L751.43,269.51L756.14,258.77L760.85,263.19L765.52,268.28L770.23,254.23L774.95,266.33L779.62,266.28L784.33,262.77L789,268.5L793.71,274.86L798.42,273.64L803.09,268.87L807.8,261.74L812.51,266.52L817.18,276.9L821.89,252.47L826.6,246.27L831.27,249.1L835.98,253.71L840.69,252.65L845.36,249.03L850.07,249.36L854.78,247.86L859.45,255.24L864.16,223.6L868.87,208.55L873.54,246.94L878.25,263.94L882.96,251.74L887.64,275.29L892.35,275.89L901.73,273.53L906.44,266.21L911.11,268.92L915.82,269.36L920.53,271.01L925.2,263.57L929.91,277.99L934.62,272.85L939.29,277.42L944,277.42" style="vector-effect: non-scaling-stroke; fill: none; stroke: rgb(255, 127, 14); stroke-opacity: 1; stroke-width: 2px; opacity: 1;"/><g class="points"/></g></g></g><g class="overplot"/><path class="xlines-above crisp" d="M79,1025.25H1025M79,746.825H1025" style="fill: none; stroke-width: 1px; stroke: rgb(68, 68, 68); stroke-opacity: 1;"/><path class="ylines-above crisp" d="M79.5,747.325V1024.75M1024.5,747.325V1024.75" style="fill: none; stroke-width: 1px; stroke: rgb(68, 68, 68); stroke-opacity: 1;"/><g class="overlines-above"/><g class="xaxislayer-above"><g class="x2tick"><text text-anchor="middle" x="0" y="1040.15" transform="translate(186.75,0)" style="font-family: 'Open Sans', verdana, arial, sans-serif; font-size: 12px; fill: rgb(68, 68, 68); fill-opacity: 1; white-space: pre;">−10</text></g><g class="x2tick"><text text-anchor="middle" x="0" y="1040.15" transform="translate(333.45,0)" style="font-family: 'Open Sans', verdana, arial, sans-serif; font-size: 12px; fill: rgb(68, 68, 68); fill-opacity: 1; white-space: pre;">0</text></g><g class="x2tick"><text text-anchor="middle" x="0" y="1040.15" transform="translate(480.15,0)" style="font-family: 'Open Sans', verdana, arial, sans-serif; font-size: 12px; fill: rgb(68, 68, 68); fill-opacity: 1; white-space: pre;">10</text></g><g class="x2tick"><text text-anchor="middle" x="0" y="1040.15" transform="translate(626.85,0)" style="font-family: 'Open Sans', verdana, arial, sans-serif; font-size: 12px; fill: rgb(68, 68, 68); fill-opacity: 1; white-space: pre;">20</text></g><g class="x2tick"><text text-anchor="middle" x="0" y="1040.15" transform="translate(773.54,0)" style="font-family: 'Open Sans', verdana, arial, sans-serif; font-size: 12px; fill: rgb(68, 68, 68); fill-opacity: 1; white-space: pre;">30</text></g><g class="x2tick"><text text-anchor="middle" x="0" y="1040.15" transform="translate(920.24,0)" style="font-family: 'Open Sans', verdana, arial, sans-serif; font-size: 12px; fill: rgb(68, 68, 68); fill-opacity: 1; white-space: pre;">40</text></g></g><g class="yaxislayer-above"><g class="y2tick"><text text-anchor="end" x="76.6" y="4.199999999999999" transform="translate(0,1024.7450000000001)" style="font-family: 'Open Sans', verdana, arial, sans-serif; font-size: 12px; fill: rgb(68, 68, 68); fill-opacity: 1; white-space: pre;">0</text></g><g class="y2tick"><text text-anchor="end" x="76.6" y="4.199999999999999" transform="translate(0,987.455)" style="font-family: 'Open Sans', verdana, arial, sans-serif; font-size: 12px; fill: rgb(68, 68, 68); fill-opacity: 1; white-space: pre;">10</text></g><g class="y2tick"><text text-anchor="end" x="76.6" y="4.199999999999999" transform="translate(0,950.1650000000001)" style="font-family: 'Open Sans', verdana, arial, sans-serif; font-size: 12px; fill: rgb(68, 68, 68); fill-opacity: 1; white-space: pre;">20</text></g><g class="y2tick"><text text-anchor="end" x="76.6" y="4.199999999999999" transform="translate(0,912.875)" style="font-family: 'Open Sans', verdana, arial, sans-serif; font-size: 12px; fill: rgb(68, 68, 68); fill-opacity: 1; white-space: pre;">30</text></g><g class="y2tick"><text text-anchor="end" x="76.6" y="4.199999999999999" transform="translate(0,875.585)" style="font-family: 'Open Sans', verdana, arial, sans-serif; font-size: 12px; fill: rgb(68, 68, 68); fill-opacity: 1; white-space: pre;">40</text></g><g class="y2tick"><text text-anchor="end" x="76.6" y="4.199999999999999" transform="translate(0,838.2950000000001)" style="font-family: 'Open Sans', verdana, arial, sans-serif; font-size: 12px; fill: rgb(68, 68, 68); fill-opacity: 1; white-space: pre;">50</text></g><g class="y2tick"><text text-anchor="end" x="76.6" y="4.199999999999999" transform="translate(0,800.995)" style="font-family: 'Open Sans', verdana, arial, sans-serif; font-size: 12px; fill: rgb(68, 68, 68); fill-opacity: 1; white-space: pre;">60</text></g><g class="y2tick"><text text-anchor="end" x="76.6" y="4.199999999999999" transform="translate(0,763.705)" style="font-family: 'Open Sans', verdana, arial, sans-serif; font-size: 12px; fill: rgb(68, 68, 68); fill-opacity: 1; white-space: pre;">70</text></g></g><g class="overaxes-above"/></g><g class="subplot x3y3"><g class="layer-subplot"><g class="shapelayer"/><g class="imagelayer"/></g><g class="gridlayer"><g class="x3"><path class="x3grid crisp" d="M0,439.07500000000005v277.42499999999995" transform="translate(186.75,0)" style="stroke: rgb(238, 238, 238); stroke-opacity: 1; stroke-width: 1px;"/><path class="x3grid crisp" d="M0,439.07500000000005v277.42499999999995" transform="translate(333.45,0)" style="stroke: rgb(238, 238, 238); stroke-opacity: 1; stroke-width: 1px;"/><path class="x3grid crisp" d="M0,439.07500000000005v277.42499999999995" transform="translate(480.15,0)" style="stroke: rgb(238, 238, 238); stroke-opacity: 1; stroke-width: 1px;"/><path class="x3grid crisp" d="M0,439.07500000000005v277.42499999999995" transform="translate(626.85,0)" style="stroke: rgb(238, 238, 238); stroke-opacity: 1; stroke-width: 1px;"/><path class="x3grid crisp" d="M0,439.07500000000005v277.42499999999995" transform="translate(773.54,0)" style="stroke: rgb(238, 238, 238); stroke-opacity: 1; stroke-width: 1px;"/><path class="x3grid crisp" d="M0,439.07500000000005v277.42499999999995" transform="translate(920.24,0)" style="stroke: rgb(238, 238, 238); stroke-opacity: 1; stroke-width: 1px;"/></g><g class="y3"><path class="y3grid crisp" d="M80,0h944" transform="translate(0,645.885)" style="stroke: rgb(238, 238, 238); stroke-opacity: 1; stroke-width: 1px;"/><path class="y3grid crisp" d="M80,0h944" transform="translate(0,575.2650000000001)" style="stroke: rgb(238, 238, 238); stroke-opacity: 1; stroke-width: 1px;"/><path class="y3grid crisp" d="M80,0h944" transform="translate(0,504.65500000000003)" style="stroke: rgb(238, 238, 238); stroke-opacity: 1; stroke-width: 1px;"/></g></g><g class="zerolinelayer"/><path class="xlines-below"/><path class="ylines-below"/><g class="overlines-below"/><g class="xaxislayer-below"/><g class="yaxislayer-below"/><g class="overaxes-below"/><g class="plot" transform="translate(80, 439.07500000000005)" clip-path="url(#clipb6c118x3y3plot)"><g class="imagelayer"/><g class="maplayer"/><g class="barlayer"/><g class="carpetlayer"/><g class="violinlayer"/><g class="boxlayer"/><g class="scatterlayer"><g class="trace scatter trace022c48" style="stroke-miterlimit: 2; opacity: 1;"><path class="js-line" d="M0,277.42L197.25,277.18L201.95,276.23L211.34,276.52L216.04,275L220.74,276.04L225.43,275.02L230.13,275.35L234.83,271.03L239.52,269.45L244.22,274.23L248.92,273.52L253.61,277.42L309.97,277.42L314.67,85.85L319.36,15.77L324.06,135.29L328.76,243.7L333.45,277.42L554.19,276.78L558.89,275.74L568.28,276.68L572.98,276.19L582.37,275.84L587.06,276.2L591.76,273.85L596.46,274.63L601.16,272.61L605.85,274.63L610.55,273.78L615.24,273.8L619.94,274.53L624.64,273.9L629.33,273.43L634.03,274.01L643.42,276.16L648.12,276.58L652.83,274.73L657.51,276.7L666.93,275.43L671.6,276.31L680.98,277.29L685.69,276.45L695.07,272.4L699.78,274.56L709.16,273.77L713.87,273.5L718.58,275.53L723.25,276.33L727.96,275.82L732.67,277.36L737.34,272.94L742.05,274.5L746.76,276.69L751.43,272.19L756.14,273.37L760.85,268.9L765.52,272.87L770.23,269.95L779.62,272.26L784.33,276.35L789,270.38L793.71,271.14L803.09,257.29L807.8,255.22L812.51,241.41L817.18,249.16L821.89,250.7L826.6,256.75L831.27,258.4L835.98,265.41L840.69,266.82L845.36,264.14L850.07,263.65L854.78,271.59L859.45,271.85L864.16,256.01L868.87,252.03L873.54,266.55L878.25,254.98L882.96,256.83L887.64,276.28L892.35,274.83L901.73,273.9L906.44,269.46L911.11,270.77L915.82,265.6L920.53,274.07L925.2,271.44L929.91,279.29L934.62,273.59L939.29,277.42L944,277.42" style="vector-effect: non-scaling-stroke; fill: none; stroke: rgb(44, 160, 44); stroke-opacity: 1; stroke-width: 2px; opacity: 1;"/><g class="points"/></g></g></g><g class="overplot"/><path class="xlines-above crisp" d="M79,717H1025M79,438.57500000000005H1025" style="fill: none; stroke-width: 1px; stroke: rgb(68, 68, 68); stroke-opacity: 1;"/><path class="ylines-above crisp" d="M79.5,439.07500000000005V716.5M1024.5,439.07500000000005V716.5" style="fill: none; stroke-width: 1px; stroke: rgb(68, 68, 68); stroke-opacity: 1;"/><g class="overlines-above"/><g class="xaxislayer-above"><g class="x3tick"><text text-anchor="middle" x="0" y="731.9" transform="translate(186.75,0)" style="font-family: 'Open Sans', verdana, arial, sans-serif; font-size: 12px; fill: rgb(68, 68, 68); fill-opacity: 1; white-space: pre;">−10</text></g><g class="x3tick"><text text-anchor="middle" x="0" y="731.9" transform="translate(333.45,0)" style="font-family: 'Open Sans', verdana, arial, sans-serif; font-size: 12px; fill: rgb(68, 68, 68); fill-opacity: 1; white-space: pre;">0</text></g><g class="x3tick"><text text-anchor="middle" x="0" y="731.9" transform="translate(480.15,0)" style="font-family: 'Open Sans', verdana, arial, sans-serif; font-size: 12px; fill: rgb(68, 68, 68); fill-opacity: 1; white-space: pre;">10</text></g><g class="x3tick"><text text-anchor="middle" x="0" y="731.9" transform="translate(626.85,0)" style="font-family: 'Open Sans', verdana, arial, sans-serif; font-size: 12px; fill: rgb(68, 68, 68); fill-opacity: 1; white-space: pre;">20</text></g><g class="x3tick"><text text-anchor="middle" x="0" y="731.9" transform="translate(773.54,0)" style="font-family: 'Open Sans', verdana, arial, sans-serif; font-size: 12px; fill: rgb(68, 68, 68); fill-opacity: 1; white-space: pre;">30</text></g><g class="x3tick"><text text-anchor="middle" x="0" y="731.9" transform="translate(920.24,0)" style="font-family: 'Open Sans', verdana, arial, sans-serif; font-size: 12px; fill: rgb(68, 68, 68); fill-opacity: 1; white-space: pre;">40</text></g></g><g class="yaxislayer-above"><g class="y3tick"><text text-anchor="end" x="76.6" y="4.199999999999999" transform="translate(0,716.4950000000001)" style="font-family: 'Open Sans', verdana, arial, sans-serif; font-size: 12px; fill: rgb(68, 68, 68); fill-opacity: 1; white-space: pre;">0</text></g><g class="y3tick"><text text-anchor="end" x="76.6" y="4.199999999999999" transform="translate(0,645.885)" style="font-family: 'Open Sans', verdana, arial, sans-serif; font-size: 12px; fill: rgb(68, 68, 68); fill-opacity: 1; white-space: pre;">50</text></g><g class="y3tick"><text text-anchor="end" x="76.6" y="4.199999999999999" transform="translate(0,575.2650000000001)" style="font-family: 'Open Sans', verdana, arial, sans-serif; font-size: 12px; fill: rgb(68, 68, 68); fill-opacity: 1; white-space: pre;">100</text></g><g class="y3tick"><text text-anchor="end" x="76.6" y="4.199999999999999" transform="translate(0,504.65500000000003)" style="font-family: 'Open Sans', verdana, arial, sans-serif; font-size: 12px; fill: rgb(68, 68, 68); fill-opacity: 1; white-space: pre;">150</text></g></g><g class="overaxes-above"/></g><g class="subplot x4y4"><g class="layer-subplot"><g class="shapelayer"/><g class="imagelayer"/></g><g class="gridlayer"><g class="x4"><path class="x4grid crisp" d="M0,130.82500000000002v277.42499999999995" transform="translate(186.75,0)" style="stroke: rgb(238, 238, 238); stroke-opacity: 1; stroke-width: 1px;"/><path class="x4grid crisp" d="M0,130.82500000000002v277.42499999999995" transform="translate(333.45,0)" style="stroke: rgb(238, 238, 238); stroke-opacity: 1; stroke-width: 1px;"/><path class="x4grid crisp" d="M0,130.82500000000002v277.42499999999995" transform="translate(480.15,0)" style="stroke: rgb(238, 238, 238); stroke-opacity: 1; stroke-width: 1px;"/><path class="x4grid crisp" d="M0,130.82500000000002v277.42499999999995" transform="translate(626.85,0)" style="stroke: rgb(238, 238, 238); stroke-opacity: 1; stroke-width: 1px;"/><path class="x4grid crisp" d="M0,130.82500000000002v277.42499999999995" transform="translate(773.54,0)" style="stroke: rgb(238, 238, 238); stroke-opacity: 1; stroke-width: 1px;"/><path class="x4grid crisp" d="M0,130.82500000000002v277.42499999999995" transform="translate(920.24,0)" style="stroke: rgb(238, 238, 238); stroke-opacity: 1; stroke-width: 1px;"/></g><g class="y4"><path class="y4grid crisp" d="M80,0h944" transform="translate(0,360.275)" style="stroke: rgb(238, 238, 238); stroke-opacity: 1; stroke-width: 1px;"/><path class="y4grid crisp" d="M80,0h944" transform="translate(0,312.305)" style="stroke: rgb(238, 238, 238); stroke-opacity: 1; stroke-width: 1px;"/><path class="y4grid crisp" d="M80,0h944" transform="translate(0,264.33500000000004)" style="stroke: rgb(238, 238, 238); stroke-opacity: 1; stroke-width: 1px;"/><path class="y4grid crisp" d="M80,0h944" transform="translate(0,216.365)" style="stroke: rgb(238, 238, 238); stroke-opacity: 1; stroke-width: 1px;"/><path class="y4grid crisp" d="M80,0h944" transform="translate(0,168.395)" style="stroke: rgb(238, 238, 238); stroke-opacity: 1; stroke-width: 1px;"/></g></g><g class="zerolinelayer"/><path class="xlines-below"/><path class="ylines-below"/><g class="overlines-below"/><g class="xaxislayer-below"/><g class="yaxislayer-below"/><g class="overaxes-below"/><g class="plot" transform="translate(80, 130.82500000000002)" clip-path="url(#clipb6c118x4y4plot)"><g class="imagelayer"/><g class="maplayer"/><g class="barlayer"/><g class="carpetlayer"/><g class="violinlayer"/><g class="boxlayer"/><g class="scatterlayer"><g class="trace scatter trace83c0e2" style="stroke-miterlimit: 2; opacity: 1;"><path class="js-line" d="M0,277.42L4.7,277.42L9.39,252.03L14.09,265.76L18.79,267.37L23.48,268.67L28.18,273.14L32.88,266.75L37.58,276.45L42.27,268.6L46.97,267.68L51.66,264.13L56.36,272.92L61.06,274.98L65.75,279.33L70.45,277.42L75.15,277.42L183.17,277.42L187.86,274.78L197.25,265.29L201.95,245.14L206.65,238.8L211.34,264.11L216.04,253.65L220.74,265.91L225.43,258.97L230.13,268.87L234.83,249.54L239.52,245.4L244.22,260.13L248.92,252.74L253.61,277.42L258.31,277.42L309.97,277.42L314.67,95.21L319.36,15.77L324.06,120.47L328.76,234.52L333.45,277.42L366.33,277.36L371.03,267.42L375.72,247.25L380.42,257.54L385.12,265.97L389.81,265.82L394.51,271.97L399.2,275.79L403.9,277.42L408.6,276.06L417.99,265.74L422.69,264.97L427.38,270.51L432.08,266.29L436.78,267.54L441.47,263.73L446.17,259.69L450.87,263.28L455.56,270.05L460.26,271.35L464.95,275.98L469.65,277.47L474.35,277.42L479.05,275.29L483.74,272.5L488.44,273.26L493.14,274.52L497.83,274.68L507.22,275.69L511.92,275.29L516.62,274.67L521.32,274.98L526.01,275.92L530.71,276.08L540.1,273.46L544.8,274.48L549.49,269.51L554.19,267.04L558.89,261.41L563.58,270.68L568.28,271.72L572.98,270.21L582.37,268.3L587.06,271.99L591.76,270.23L596.46,272.9L601.16,264.07L605.85,267.83L615.24,266.96L619.94,269.79L629.33,266.56L634.03,267.52L643.42,273.22L648.12,274.19L652.83,265.68L657.51,274.5L662.22,270.07L666.93,268.21L671.6,272.5L676.31,275.52L680.98,276.05L685.69,273.05L690.4,269.74L695.07,256.73L699.78,268.95L704.49,263.18L709.16,267.57L713.87,266.18L723.25,275.53L727.96,273.32L732.67,277.98L737.34,268.49L746.76,274.88L751.43,270.13L756.14,267.42L760.85,266.88L765.52,270.51L770.23,265.1L774.95,267.42L779.62,270.59L784.33,273.67L789,271.55L793.71,272.71L798.42,269.94L807.8,263.24L812.51,256.43L817.18,262.99L821.89,260.79L826.6,265.1L831.27,266.19L835.98,270.23L840.69,268.12L845.36,269.13L850.07,267.82L854.78,272.2L859.45,272.44L864.16,264.14L868.87,264.14L873.54,268.04L878.25,267.12L882.96,269.87L887.64,276.25L892.35,274.46L897.02,274.16L901.73,272.68L906.44,267.37L911.11,269.59L915.82,267.25L920.53,270.27L925.2,268.32L929.91,277.72L934.62,271.36L939.29,277.42L944,277.42" style="vector-effect: non-scaling-stroke; fill: none; stroke: rgb(214, 39, 40); stroke-opacity: 1; stroke-width: 2px; opacity: 1;"/><g class="points"/></g></g></g><g class="overplot"/><path class="xlines-above crisp" d="M79,408.75H1025M79,130.32500000000002H1025" style="fill: none; stroke-width: 1px; stroke: rgb(68, 68, 68); stroke-opacity: 1;"/><path class="ylines-above crisp" d="M79.5,130.82500000000002V408.25M1024.5,130.82500000000002V408.25" style="fill: none; stroke-width: 1px; stroke: rgb(68, 68, 68); stroke-opacity: 1;"/><g class="overlines-above"/><g class="xaxislayer-above"><g class="x4tick"><text text-anchor="middle" x="0" y="423.65" transform="translate(186.75,0)" style="font-family: 'Open Sans', verdana, arial, sans-serif; font-size: 12px; fill: rgb(68, 68, 68); fill-opacity: 1; white-space: pre;">−10</text></g><g class="x4tick"><text text-anchor="middle" x="0" y="423.65" transform="translate(333.45,0)" style="font-family: 'Open Sans', verdana, arial, sans-serif; font-size: 12px; fill: rgb(68, 68, 68); fill-opacity: 1; white-space: pre;">0</text></g><g class="x4tick"><text text-anchor="middle" x="0" y="423.65" transform="translate(480.15,0)" style="font-family: 'Open Sans', verdana, arial, sans-serif; font-size: 12px; fill: rgb(68, 68, 68); fill-opacity: 1; white-space: pre;">10</text></g><g class="x4tick"><text text-anchor="middle" x="0" y="423.65" transform="translate(626.85,0)" style="font-family: 'Open Sans', verdana, arial, sans-serif; font-size: 12px; fill: rgb(68, 68, 68); fill-opacity: 1; white-space: pre;">20</text></g><g class="x4tick"><text text-anchor="middle" x="0" y="423.65" transform="translate(773.54,0)" style="font-family: 'Open Sans', verdana, arial, sans-serif; font-size: 12px; fill: rgb(68, 68, 68); fill-opacity: 1; white-space: pre;">30</text></g><g class="x4tick"><text text-anchor="middle" x="0" y="423.65" transform="translate(920.24,0)" style="font-family: 'Open Sans', verdana, arial, sans-serif; font-size: 12px; fill: rgb(68, 68, 68); fill-opacity: 1; white-space: pre;">40</text></g></g><g class="yaxislayer-above"><g class="y4tick"><text text-anchor="end" x="76.6" y="4.199999999999999" transform="translate(0,408.245)" style="font-family: 'Open Sans', verdana, arial, sans-serif; font-size: 12px; fill: rgb(68, 68, 68); fill-opacity: 1; white-space: pre;">0</text></g><g class="y4tick"><text text-anchor="end" x="76.6" y="4.199999999999999" transform="translate(0,360.275)" style="font-family: 'Open Sans', verdana, arial, sans-serif; font-size: 12px; fill: rgb(68, 68, 68); fill-opacity: 1; white-space: pre;">200</text></g><g class="y4tick"><text text-anchor="end" x="76.6" y="4.199999999999999" transform="translate(0,312.305)" style="font-family: 'Open Sans', verdana, arial, sans-serif; font-size: 12px; fill: rgb(68, 68, 68); fill-opacity: 1; white-space: pre;">400</text></g><g class="y4tick"><text text-anchor="end" x="76.6" y="4.199999999999999" transform="translate(0,264.33500000000004)" style="font-family: 'Open Sans', verdana, arial, sans-serif; font-size: 12px; fill: rgb(68, 68, 68); fill-opacity: 1; white-space: pre;">600</text></g><g class="y4tick"><text text-anchor="end" x="76.6" y="4.199999999999999" transform="translate(0,216.365)" style="font-family: 'Open Sans', verdana, arial, sans-serif; font-size: 12px; fill: rgb(68, 68, 68); fill-opacity: 1; white-space: pre;">800</text></g><g class="y4tick"><text text-anchor="end" x="76.6" y="4.199999999999999" transform="translate(0,168.395)" style="font-family: 'Open Sans', verdana, arial, sans-serif; font-size: 12px; fill: rgb(68, 68, 68); fill-opacity: 1; white-space: pre;">1000</text></g></g><g class="overaxes-above"/></g></g><g class="polarlayer"/><g class="ternarylayer"/><g class="geolayer"/><g class="pielayer"/><g class="glimages"/><defs id="topdefs-b6c118"><g class="clips"/><clipPath id="legendb6c118"><rect width="75" height="86" x="0" y="0"/></clipPath></defs><g class="layer-above"><g class="imagelayer"/><g class="shapelayer"><path data-index="0" fill-rule="evenodd" d="M333.45,1333.005L333.45,1055.575" clip-path="url(#clipb6c118xy)" style="opacity: 1; stroke: rgb(255, 0, 0); stroke-opacity: 1; fill: rgb(0, 0, 0); fill-opacity: 0; stroke-width: 2px;"/><path data-index="1" fill-rule="evenodd" d="M333.45,1024.7450000000001L333.45,747.325" clip-path="url(#clipb6c118xy2)" style="opacity: 1; stroke: rgb(255, 0, 0); stroke-opacity: 1; fill: rgb(0, 0, 0); fill-opacity: 0; stroke-width: 2px;"/><path data-index="2" fill-rule="evenodd" d="M333.45,716.4950000000001L333.45,440.07500000000005" clip-path="url(#clipb6c118xy3)" style="opacity: 1; stroke: rgb(255, 0, 0); stroke-opacity: 1; fill: rgb(0, 0, 0); fill-opacity: 0; stroke-width: 2px;"/><path data-index="3" fill-rule="evenodd" d="M333.45,408.245L333.45,131.82500000000002" clip-path="url(#clipb6c118xy4)" style="opacity: 1; stroke: rgb(255, 0, 0); stroke-opacity: 1; fill: rgb(0, 0, 0); fill-opacity: 0; stroke-width: 2px;"/></g></g><g class="infolayer"><g class="g-gtitle"><text class="gtitle" x="565" y="50" text-anchor="middle" style="font-family: 'Open Sans', verdana, arial, sans-serif; font-size: 17px; fill: rgb(68, 68, 68); opacity: 1; font-weight: normal; white-space: pre;">DENSITY OF STATES PBE0-D3</text></g><g class="legend" pointer-events="all" transform="translate(1042.88, 100)"><rect class="bg" shape-rendering="crispEdges" width="75" height="86" x="0" y="0" style="stroke: rgb(68, 68, 68); stroke-opacity: 1; fill: rgb(238, 238, 238); fill-opacity: 1; stroke-width: 0px;"/><g class="scrollbox" transform="translate(0, 0)" clip-path="url(#legendb6c118)"><g class="groups"><g class="traces" transform="translate(0, 14.5)" style="opacity: 1;"><g class="layers" style="opacity: 1;"><g class="legendfill"/><g class="legendlines"><path class="js-line" d="M5,0h30" style="fill: none; stroke: rgb(31, 119, 180); stroke-opacity: 1; stroke-width: 2px;"/></g><g class="legendsymbols"><g class="legendpoints"/></g></g><text class="legendtext user-select-none" text-anchor="start" x="40" y="4.680000000000001" style="font-family: 'Open Sans', verdana, arial, sans-serif; font-size: 12px; fill: rgb(68, 68, 68); fill-opacity: 1; white-space: pre;">p O</text><rect class="legendtoggle" pointer-events="all" x="0" y="-9.5" width="115" height="19" style="cursor: pointer; fill: rgb(0, 0, 0); fill-opacity: 0;"/></g><g class="traces" transform="translate(0, 33.5)" style="opacity: 1;"><g class="layers" style="opacity: 1;"><g class="legendfill"/><g class="legendlines"><path class="js-line" d="M5,0h30" style="fill: none; stroke: rgb(255, 127, 14); stroke-opacity: 1; stroke-width: 2px;"/></g><g class="legendsymbols"><g class="legendpoints"/></g></g><text class="legendtext user-select-none" text-anchor="start" x="40" y="4.680000000000001" style="font-family: 'Open Sans', verdana, arial, sans-serif; font-size: 12px; fill: rgb(68, 68, 68); fill-opacity: 1; white-space: pre;">d Ce</text><rect class="legendtoggle" pointer-events="all" x="0" y="-9.5" width="115" height="19" style="cursor: pointer; fill: rgb(0, 0, 0); fill-opacity: 0;"/></g><g class="traces" transform="translate(0, 52.5)" style="opacity: 1;"><g class="layers" style="opacity: 1;"><g class="legendfill"/><g class="legendlines"><path class="js-line" d="M5,0h30" style="fill: none; stroke: rgb(44, 160, 44); stroke-opacity: 1; stroke-width: 2px;"/></g><g class="legendsymbols"><g class="legendpoints"/></g></g><text class="legendtext user-select-none" text-anchor="start" x="40" y="4.680000000000001" style="font-family: 'Open Sans', verdana, arial, sans-serif; font-size: 12px; fill: rgb(68, 68, 68); fill-opacity: 1; white-space: pre;">f Ce</text><rect class="legendtoggle" pointer-events="all" x="0" y="-9.5" width="115" height="19" style="cursor: pointer; fill: rgb(0, 0, 0); fill-opacity: 0;"/></g><g class="traces" transform="translate(0, 71.5)" style="opacity: 1;"><g class="layers" style="opacity: 1;"><g class="legendfill"/><g class="legendlines"><path class="js-line" d="M5,0h30" style="fill: none; stroke: rgb(214, 39, 40); stroke-opacity: 1; stroke-width: 2px;"/></g><g class="legendsymbols"><g class="legendpoints"/></g></g><text class="legendtext user-select-none" text-anchor="start" x="40" y="4.680000000000001" style="font-family: 'Open Sans', verdana, arial, sans-serif; font-size: 12px; fill: rgb(68, 68, 68); fill-opacity: 1; white-space: pre;">Total</text><rect class="legendtoggle" pointer-events="all" x="0" y="-9.5" width="115" height="19" style="cursor: pointer; fill: rgb(0, 0, 0); fill-opacity: 0;"/></g></g></g><rect class="scrollbar" rx="20" ry="3" width="0" height="0" x="0" y="0" style="fill: rgb(128, 139, 164); fill-opacity: 1;"/></g><g class="g-xtitle"><text class="xtitle" x="552" y="1385" text-anchor="middle" style="font-family: 'Open Sans', verdana, arial, sans-serif; font-size: 14px; fill: rgb(68, 68, 68); opacity: 1; font-weight: normal; white-space: pre;">E-EFERMI (eV)</text></g><g class="g-x2title"/><g class="g-x3title"/><g class="g-x4title"/><g class="g-ytitle"><text class="ytitle" transform="rotate(-90,48,1194.2875000000001)" x="48" y="1194.2875000000001" text-anchor="middle" style="font-family: 'Open Sans', verdana, arial, sans-serif; font-size: 11px; fill: rgb(68, 68, 68); opacity: 1; font-weight: normal; white-space: pre;">p O</text></g><g class="g-y2title"><text class="y2title" transform="rotate(-90,48,886.0375)" x="48" y="886.0375" text-anchor="middle" style="font-family: 'Open Sans', verdana, arial, sans-serif; font-size: 11px; fill: rgb(68, 68, 68); opacity: 1; font-weight: normal; white-space: pre;">d Ce</text></g><g class="g-y3title"><text class="y3title" transform="rotate(-90,48,577.7875)" x="48" y="577.7875" text-anchor="middle" style="font-family: 'Open Sans', verdana, arial, sans-serif; font-size: 11px; fill: rgb(68, 68, 68); opacity: 1; font-weight: normal; white-space: pre;">f Ce</text></g><g class="g-y4title"><text class="y4title" transform="rotate(-90,48,269.5375)" x="48" y="269.5375" text-anchor="middle" style="font-family: 'Open Sans', verdana, arial, sans-serif; font-size: 11px; fill: rgb(68, 68, 68); opacity: 1; font-weight: normal; white-space: pre;">Total</text></g></g></svg>