<svg class="main-svg" xmlns="http://www.w3.org/2000/svg" xmlns:xlink="http://www.w3.org/1999/xlink" width="1130" height="1413" style="" viewBox="0 0 1130 1413"><rect x="0" y="0" width="1130" height="1413" style="fill: rgb(238, 238, 238); fill-opacity: 1;"/><defs id="defs-86992d"><g class="clips"><clipPath class="plotclip" id="clip86992dxyplot"><rect width="944" height="277.425"/></clipPath><clipPath class="plotclip" id="clip86992dx2y2plot"><rect width="944" height="277.42499999999995"/></clipPath><clipPath class="plotclip" id="clip86992dx3y3plot"><rect width="944" height="277.42499999999995"/></clipPath><clipPath class="plotclip" id="clip86992dx4y4plot"><rect width="944" height="277.42499999999995"/></clipPath><clipPath class="axesclip" id="clip86992dx"><rect x="80" y="0" width="944" height="1413"/></clipPath><clipPath class="axesclip" id="clip86992dy"><rect x="0" y="1055.575" width="1130" height="277.425"/></clipPath><clipPath class="axesclip" id="clip86992dxy"><rect x="80" y="1055.575" width="944" height="277.425"/></clipPath><clipPath class="axesclip" id="clip86992dy2"><rect x="0" y="747.325" width="1130" height="277.42499999999995"/></clipPath><clipPath class="axesclip" id="clip86992dxy2"><rect x="80" y="747.325" width="944" height="277.42499999999995"/></clipPath><clipPath class="axesclip" id="clip86992dy3"><rect x="0" y="439.07500000000005" width="1130" height="277.42499999999995"/></clipPath><clipPath class="axesclip" id="clip86992dxy3"><rect x="80" y="439.07500000000005" width="944" height="277.42499999999995"/></clipPath><clipPath class="axesclip" id="clip86992dy4"><rect x="0" y="130.82500000000002" width="1130" height="277.42499999999995"/></clipPath><clipPath class="axesclip" id="clip86992dxy4"><rect x="80" y="130.82500000000002" width="944" height="277.42499999999995"/></clipPath><clipPath class="axesclip" id="clip86992dx2"><rect x="80" y="0" width="944" height="1413"/></clipPath><clipPath class="axesclip" id="clip86992dx2y"><rect x="80" y="1055.575" width="944" height="277.425"/></clipPath><clipPath class="axesclip" id="clip86992dx2y2"><rect x="80" y="747.325" width="944" height="277.42499999999995"/></clipPath><clipPath class="axesclip" id="clip86992dx2y3"><rect x="80" y="439.07500000000005" width="944" height="277.42499999999995"/></clipPath><clipPath class="axesclip" id="clip86992dx2y4"><rect x="80" y="130.82500000000002" width="944" height="277.42499999999995"/></clipPath><clipPath class="axesclip" id="clip86992dx3"><rect x="80" y="0" width="944" height="1413"/></clipPath><clipPath class="axesclip" id="clip86992dx3y"><rect x="80" y="1055.575" width="944" height="277.425"/></clipPath><clipPath class="axesclip" id="clip86992dx3y2"><rect x="80" y="747.325" width="944" height="277.42499999999995"/></clipPath><clipPath class="axesclip" id="clip86992dx3y3"><rect x="80" y="439.07500000000005" width="944" height="277.42499999999995"/></clipPath><clipPath class="axesclip" id="clip86992dx3y4"><rect x="80" y="130.82500000000002" width="944" height="277.42499999999995"/></clipPath><clipPath class="axesclip" id="clip86992dx4"><rect x="80" y="0" width="944" height="1413"/></clipPath><clipPath class="axesclip" id="clip86992dx4y"><rect x="80" y="1055.575" width="944" height="277.425"/></clipPath><clipPath class="axesclip" id="clip86992dx4y2"><rect x="80" y="747.325" width="944" height="277.42499999999995"/></clipPath><clipPath class="axesclip" id="clip86992dx4y3"><rect x="80" y="439.07500000000005" width="944" height="277.42499999999995"/></clipPath><clipPath class="axesclip" id="clip86992dx4y4"><rect x="80" y="130.82500000000002" width="944" height="277.42499999999995"/></clipPath></g><g class="gradients"/></defs><g class="bglayer"><rect class="bg" x="80" y="1055.575" width="944" height="277.425" style="fill: rgb(255, 255, 255); fill-opacity: 1; stroke-width: 0;"/><rect class="bg" x="80" y="747.325" width="944" height="277.42499999999995" style="fill: rgb(255, 255, 255); fill-opacity: 1; stroke-width: 0;"/><rect class="bg" x="80" y="439.07500000000005" width="944" height="277.42499999999995" style="fill: rgb(255, 255, 255); fill-opacity: 1; stroke-width: 0;"/><rect class="bg" x="80" y="130.82500000000002" width="944" height="277.42499999999995" style="fill: rgb(255, 255, 255); fill-opacity: 1; stroke-width: 0;"/></g><g class="layer-below"><g class="imagelayer"/><g class="shapelayer"/></g><g class="cartesianlayer"><g class="subplot xy"><g class="layer-subplot"><g class="shapelayer"/><g class="imagelayer"/></g><g class="gridlayer"><g class="x"><path class="xgrid crisp" d="M0,1055.575v277.425" transform="translate(91.48,0)" style="stroke: rgb(238, 238, 238); stroke-opacity: 1; stroke-width: 1px;"/><path class="xgrid crisp" d="M0,1055.575v277.425" transform="translate(213.61,0)" style="stroke: rgb(238, 238, 238); stroke-opacity: 1; stroke-width: 1px;"/><path class="xgrid crisp" d="M0,1055.575v277.425" transform="translate(335.74,0)" style="stroke: rgb(238, 238, 238); stroke-opacity: 1; stroke-width: 1px;"/><path class="xgrid crisp" d="M0,1055.575v277.425" transform="translate(457.87,0)" style="stroke: rgb(238, 238, 238); stroke-opacity: 1; stroke-width: 1px;"/><path class="xgrid crisp" d="M0,1055.575v277.425" transform="translate(580,0)" style="stroke: rgb(238, 238, 238); stroke-opacity: 1; stroke-width: 1px;"/><path class="xgrid crisp" d="M0,1055.575v277.425" transform="translate(702.13,0)" style="stroke: rgb(238, 238, 238); stroke-opacity: 1; stroke-width: 1px;"/><path class="xgrid crisp" d="M0,1055.575v277.425" transform="translate(824.26,0)" style="stroke: rgb(238, 238, 238); stroke-opacity: 1; stroke-width: 1px;"/><path class="xgrid crisp" d="M0,1055.575v277.425" transform="translate(946.39,0)" style="stroke: rgb(238, 238, 238); stroke-opacity: 1; stroke-width: 1px;"/></g><g class="y"><path class="ygrid crisp" d="M80,0h944" transform="translate(0,1291.115)" style="stroke: rgb(238, 238, 238); stroke-opacity: 1; stroke-width: 1px;"/><path class="ygrid crisp" d="M80,0h944" transform="translate(0,1249.2250000000001)" style="stroke: rgb(238, 238, 238); stroke-opacity: 1; stroke-width: 1px;"/><path class="ygrid crisp" d="M80,0h944" transform="translate(0,1207.335)" style="stroke: rgb(238, 238, 238); stroke-opacity: 1; stroke-width: 1px;"/><path class="ygrid crisp" d="M80,0h944" transform="translate(0,1165.455)" style="stroke: rgb(238, 238, 238); stroke-opacity: 1; stroke-width: 1px;"/><path class="ygrid crisp" d="M80,0h944" transform="translate(0,1123.565)" style="stroke: rgb(238, 238, 238); stroke-opacity: 1; stroke-width: 1px;"/><path class="ygrid crisp" d="M80,0h944" transform="translate(0,1081.675)" style="stroke: rgb(238, 238, 238); stroke-opacity: 1; stroke-width: 1px;"/></g></g><g class="zerolinelayer"/><path class="xlines-below"/><path class="ylines-below"/><g class="overlines-below"/><g class="xaxislayer-below"/><g class="yaxislayer-below"/><g class="overaxes-below"/><g class="plot" transform="translate(80, 1055.575)" clip-path="url(#clip86992dxyplot)"><g class="imagelayer"/><g class="maplayer"/><g class="barlayer"/><g class="carpetlayer"/><g class="violinlayer"/><g class="boxlayer"/><g class="scatterlayer"><g class="trace scatter trace3b52a0" style="stroke-miterlimit: 2; opacity: 1;"><path class="js-line" d="M0,277.43L4.7,277.42L9.39,256.75L14.09,271.31L18.78,271.75L23.48,275.02L28.18,273.49L32.87,275.98L37.57,277.04L46.96,276.48L51.66,277.26L61.05,277.43L65.75,277.43L187.86,277.43L192.55,246.36L197.25,230.58L201.95,148.7L206.64,120.94L211.34,194.21L216.04,66.71L220.73,93.01L225.43,90.08L230.12,203.51L234.82,144.2L239.52,46.15L244.21,120.24L248.91,13.87L253.61,63.28L258.3,277.43L427.38,277.43L432.07,255.15L436.77,288.11L441.46,261.18L450.86,303.76L455.55,279.81L460.25,277.43L464.95,277.39L474.34,276.86L479.04,278.48L483.73,275.85L488.43,284.94L493.12,284.48L497.82,307.77L502.52,321.01L507.22,325.19L511.91,310.94L516.61,288.54L521.3,298.45L526,277.43L530.7,277.43L535.39,274.31L540.09,206.99L544.79,185.07L549.48,223.77L554.18,213.67L558.88,199.01L563.57,221.26L568.27,245.73L572.96,242.56L577.66,234.45L582.36,244.3L587.06,251.7L591.76,233.22L601.13,197.4L605.85,115.71L610.54,45.37L615.22,200.33L619.94,38.88L624.63,114.42L629.31,102.02L634.03,145.07L638.72,227.59L643.41,116.7L648.09,143.28L652.81,183.21L657.5,151.4L662.18,195.88L666.9,237.87L671.59,184.72L676.27,176.54L680.99,175.05L685.68,174.36L690.36,266.66L695.08,171.02L699.77,224.57L704.45,254.91L709.17,203.07L713.86,237.01L718.55,243.6L723.26,253.57L727.95,185.8L732.64,90.09L737.36,166.26L742.04,181.85L746.73,175.12L751.41,250.56L756.13,244.63L760.82,250.89L765.5,259.85L770.22,233.71L774.91,236.52L779.6,254.34L784.31,235.35L789,262.63L793.69,238.62L798.41,236.56L803.09,243.16L807.78,279.58L812.5,279.66L817.18,251.63L821.87,252.72L826.59,251.21L831.27,233.82L840.68,117.48L845.36,132.76L850.05,236.57L854.74,226.81L859.45,245.22L864.14,217.78L868.83,220.59L873.55,281.03L878.23,274.29L882.92,171.76L887.64,254.28L892.32,237.2L897.01,250.25L901.73,311.52L906.41,225.39L911.1,218.67L915.82,257.12L920.5,223.19L929.91,255.78L934.59,270.57L939.28,277.43L944,277.43" style="vector-effect: non-scaling-stroke; fill: none; stroke: rgb(31, 119, 180); stroke-opacity: 1; stroke-width: 2px; opacity: 1;"/><g class="points"/></g></g></g><g class="overplot"/><path class="xlines-above crisp" d="M79,1333.5H1025M79,1055.075H1025" style="fill: none; stroke-width: 1px; stroke: rgb(68, 68, 68); stroke-opacity: 1;"/><path class="ylines-above crisp" d="M79.5,1055.575V1333M1024.5,1055.575V1333" style="fill: none; stroke-width: 1px; stroke: rgb(68, 68, 68); stroke-opacity: 1;"/><g class="overlines-above"/><g class="xaxislayer-above"><g class="xtick"><text text-anchor="middle" x="0" y="1348.4" transform="translate(91.48,0)" style="font-family: 'Open Sans', verdana, arial, sans-serif; font-size: 12px; fill: rgb(68, 68, 68); fill-opacity: 1; white-space: pre;">−20</text></g><g class="xtick"><text text-anchor="middle" x="0" y="1348.4" transform="translate(213.61,0)" style="font-family: 'Open Sans', verdana, arial, sans-serif; font-size: 12px; fill: rgb(68, 68, 68); fill-opacity: 1; white-space: pre;">−10</text></g><g class="xtick"><text text-anchor="middle" x="0" y="1348.4" transform="translate(335.74,0)" style="font-family: 'Open Sans', verdana, arial, sans-serif; font-size: 12px; fill: rgb(68, 68, 68); fill-opacity: 1; white-space: pre;">0</text></g><g class="xtick"><text text-anchor="middle" x="0" y="1348.4" transform="translate(457.87,0)" style="font-family: 'Open Sans', verdana, arial, sans-serif; font-size: 12px; fill: rgb(68, 68, 68); fill-opacity: 1; white-space: pre;">10</text></g><g class="xtick"><text text-anchor="middle" x="0" y="1348.4" transform="translate(580,0)" style="font-family: 'Open Sans', verdana, arial, sans-serif; font-size: 12px; fill: rgb(68, 68, 68); fill-opacity: 1; white-space: pre;">20</text></g><g class="xtick"><text text-anchor="middle" x="0" y="1348.4" transform="translate(702.13,0)" style="font-family: 'Open Sans', verdana, arial, sans-serif; font-size: 12px; fill: rgb(68, 68, 68); fill-opacity: 1; white-space: pre;">30</text></g><g class="xtick"><text text-anchor="middle" x="0" y="1348.4" transform="translate(824.26,0)" style="font-family: 'Open Sans', verdana, arial, sans-serif; font-size: 12px; fill: rgb(68, 68, 68); fill-opacity: 1; white-space: pre;">40</text></g><g class="xtick"><text text-anchor="middle" x="0" y="1348.4" transform="translate(946.39,0)" style="font-family: 'Open Sans', verdana, arial, sans-serif; font-size: 12px; fill: rgb(68, 68, 68); fill-opacity: 1; white-space: pre;">50</text></g></g><g class="yaxislayer-above"><g class="ytick"><text text-anchor="end" x="76.6" y="4.199999999999999" transform="translate(0,1333.005)" style="font-family: 'Open Sans', verdana, arial, sans-serif; font-size: 12px; fill: rgb(68, 68, 68); fill-opacity: 1; white-space: pre;">0</text></g><g class="ytick"><text text-anchor="end" x="76.6" y="4.199999999999999" transform="translate(0,1291.115)" style="font-family: 'Open Sans', verdana, arial, sans-serif; font-size: 12px; fill: rgb(68, 68, 68); fill-opacity: 1; white-space: pre;">2</text></g><g class="ytick"><text text-anchor="end" x="76.6" y="4.199999999999999" transform="translate(0,1249.2250000000001)" style="font-family: 'Open Sans', verdana, arial, sans-serif; font-size: 12px; fill: rgb(68, 68, 68); fill-opacity: 1; white-space: pre;">4</text></g><g class="ytick"><text text-anchor="end" x="76.6" y="4.199999999999999" transform="translate(0,1207.335)" style="font-family: 'Open Sans', verdana, arial, sans-serif; font-size: 12px; fill: rgb(68, 68, 68); fill-opacity: 1; white-space: pre;">6</text></g><g class="ytick"><text text-anchor="end" x="76.6" y="4.199999999999999" transform="translate(0,1165.455)" style="font-family: 'Open Sans', verdana, arial, sans-serif; font-size: 12px; fill: rgb(68, 68, 68); fill-opacity: 1; white-space: pre;">8</text></g><g class="ytick"><text text-anchor="end" x="76.6" y="4.199999999999999" transform="translate(0,1123.565)" style="font-family: 'Open Sans', verdana, arial, sans-serif; font-size: 12px; fill: rgb(68, 68, 68); fill-opacity: 1; white-space: pre;">10</text></g><g class="ytick"><text text-anchor="end" x="76.6" y="4.199999999999999" transform="translate(0,1081.675)" style="font-family: 'Open Sans', verdana, arial, sans-serif; font-size: 12px; fill: rgb(68, 68, 68); fill-opacity: 1; white-space: pre;">12</text></g></g><g class="overaxes-above"/></g><g class="subplot x2y2"><g class="layer-subplot"><g class="shapelayer"/><g class="imagelayer"/></g><g class="gridlayer"><g class="x2"><path class="x2grid crisp" d="M0,747.325v277.42499999999995" transform="translate(91.48,0)" style="stroke: rgb(238, 238, 238); stroke-opacity: 1; stroke-width: 1px;"/><path class="x2grid crisp" d="M0,747.325v277.42499999999995" transform="translate(213.61,0)" style="stroke: rgb(238, 238, 238); stroke-opacity: 1; stroke-width: 1px;"/><path class="x2grid crisp" d="M0,747.325v277.42499999999995" transform="translate(335.74,0)" style="stroke: rgb(238, 238, 238); stroke-opacity: 1; stroke-width: 1px;"/><path class="x2grid crisp" d="M0,747.325v277.42499999999995" transform="translate(457.87,0)" style="stroke: rgb(238, 238, 238); stroke-opacity: 1; stroke-width: 1px;"/><path class="x2grid crisp" d="M0,747.325v277.42499999999995" transform="translate(580,0)" style="stroke: rgb(238, 238, 238); stroke-opacity: 1; stroke-width: 1px;"/><path class="x2grid crisp" d="M0,747.325v277.42499999999995" transform="translate(702.13,0)" style="stroke: rgb(238, 238, 238); stroke-opacity: 1; stroke-width: 1px;"/><path class="x2grid crisp" d="M0,747.325v277.42499999999995" transform="translate(824.26,0)" style="stroke: rgb(238, 238, 238); stroke-opacity: 1; stroke-width: 1px;"/><path class="x2grid crisp" d="M0,747.325v277.42499999999995" transform="translate(946.39,0)" style="stroke: rgb(238, 238, 238); stroke-opacity: 1; stroke-width: 1px;"/></g><g class="y2"><path class="y2grid crisp" d="M80,0h944" transform="translate(0,970.245)" style="stroke: rgb(238, 238, 238); stroke-opacity: 1; stroke-width: 1px;"/><path class="y2grid crisp" d="M80,0h944" transform="translate(0,915.745)" style="stroke: rgb(238, 238, 238); stroke-opacity: 1; stroke-width: 1px;"/><path class="y2grid crisp" d="M80,0h944" transform="translate(0,861.245)" style="stroke: rgb(238, 238, 238); stroke-opacity: 1; stroke-width: 1px;"/><path class="y2grid crisp" d="M80,0h944" transform="translate(0,806.745)" style="stroke: rgb(238, 238, 238); stroke-opacity: 1; stroke-width: 1px;"/><path class="y2grid crisp" d="M80,0h944" transform="translate(0,752.245)" style="stroke: rgb(238, 238, 238); stroke-opacity: 1; stroke-width: 1px;"/></g></g><g class="zerolinelayer"/><path class="xlines-below"/><path class="ylines-below"/><g class="overlines-below"/><g class="xaxislayer-below"/><g class="yaxislayer-below"/><g class="overaxes-below"/><g class="plot" transform="translate(80, 747.325)" clip-path="url(#clip86992dx2y2plot)"><g class="imagelayer"/><g class="maplayer"/><g class="barlayer"/><g class="carpetlayer"/><g class="violinlayer"/><g class="boxlayer"/><g class="scatterlayer"><g class="trace scatter tracedb843a" style="stroke-miterlimit: 2; opacity: 1;"><path class="js-line" d="M0,277.42L4.7,277.42L9.39,276.47L14.09,275.82L18.78,274.22L23.48,275.29L28.18,272.29L32.87,276.91L37.57,273.54L42.27,271.63L46.96,275.04L51.66,277.18L56.36,277.84L65.75,277.42L70.44,277.42L187.86,277.42L192.55,259.72L201.95,252.09L206.64,237.88L211.34,259.94L216.04,261.12L220.73,265.28L225.43,270.76L230.12,272.11L234.82,276.56L239.52,270.71L244.21,272.14L248.91,272.44L253.61,276.63L258.3,277.42L263,277.42L427.38,277.42L432.07,183.54L436.77,13.87L441.46,53.71L446.16,36.06L450.86,140L455.55,230.11L460.25,277.42L464.95,265.16L469.64,213.47L474.34,180L479.04,168.77L483.73,216.04L488.43,174.76L493.12,200.04L497.82,158.41L502.52,146.81L507.22,188.23L516.61,255.52L521.3,248.17L526,277.42L530.7,277.42L535.39,277.83L540.09,284.62L544.79,286.86L549.48,281.57L554.18,279.93L558.88,281.62L563.57,280.99L568.27,278.43L572.96,277.58L577.66,278.54L582.36,278.37L587.06,276.61L591.76,279.63L596.45,280.01L601.13,276.31L605.85,294.29L610.54,283.83L615.22,288.59L619.94,293.26L624.63,295.15L629.31,293.46L634.03,275.66L643.41,294.42L648.09,282.49L652.81,267.91L657.5,281.78L662.18,273.83L666.9,253.7L671.59,264.43L676.27,277.67L680.99,287.17L685.68,277.44L690.36,285.71L695.08,266.06L699.77,277.77L704.45,278.5L709.17,278.16L713.86,288.14L718.55,266.88L723.26,271.7L727.95,265.87L732.64,270.63L737.36,261.63L742.04,261.96L746.73,250.92L751.41,277.43L756.13,275.15L760.82,280.82L765.5,269.46L770.22,275.93L774.91,254.52L779.6,256.03L784.31,245.04L789,247.05L793.69,261.69L798.41,240.13L803.09,239.19L807.78,280.1L812.5,263.54L817.18,279.06L821.87,267.41L826.59,241.43L831.27,250.33L835.96,269.73L840.68,232.8L845.36,212.93L850.05,220.81L854.74,237.21L859.45,247.64L864.14,236.28L868.83,233.69L873.55,227.22L878.23,237.05L882.92,244.08L887.64,265.57L892.32,263.63L897.01,270.42L901.73,265.46L906.41,260.62L911.1,271.64L915.82,275.4L920.5,261.49L925.19,260.47L929.91,274.57L934.59,277.36L939.28,277.42L944,277.42" style="vector-effect: non-scaling-stroke; fill: none; stroke: rgb(255, 127, 14); stroke-opacity: 1; stroke-width: 2px; opacity: 1;"/><g class="points"/></g></g></g><g class="overplot"/><path class="xlines-above crisp" d="M79,1025.25H1025M79,746.825H1025" style="fill: none; stroke-width: 1px; stroke: rgb(68, 68, 68); stroke-opacity: 1;"/><path class="ylines-above crisp" d="M79.5,747.325V1024.75M1024.5,747.325V1024.75" style="fill: none; stroke-width: 1px; stroke: rgb(68, 68, 68); stroke-opacity: 1;"/><g class="overlines-above"/><g class="xaxislayer-above"><g class="x2tick"><text text-anchor="middle" x="0" y="1040.15" transform="translate(91.48,0)" style="font-family: 'Open Sans', verdana, arial, sans-serif; font-size: 12px; fill: rgb(68, 68, 68); fill-opacity: 1; white-space: pre;">−20</text></g><g class="x2tick"><text text-anchor="middle" x="0" y="1040.15" transform="translate(213.61,0)" style="font-family: 'Open Sans', verdana, arial, sans-serif; font-size: 12px; fill: rgb(68, 68, 68); fill-opacity: 1; white-space: pre;">−10</text></g><g class="x2tick"><text text-anchor="middle" x="0" y="1040.15" transform="translate(335.74,0)" style="font-family: 'Open Sans', verdana, arial, sans-serif; font-size: 12px; fill: rgb(68, 68, 68); fill-opacity: 1; white-space: pre;">0</text></g><g class="x2tick"><text text-anchor="middle" x="0" y="1040.15" transform="translate(457.87,0)" style="font-family: 'Open Sans', verdana, arial, sans-serif; font-size: 12px; fill: rgb(68, 68, 68); fill-opacity: 1; white-space: pre;">10</text></g><g class="x2tick"><text text-anchor="middle" x="0" y="1040.15" transform="translate(580,0)" style="font-family: 'Open Sans', verdana, arial, sans-serif; font-size: 12px; fill: rgb(68, 68, 68); fill-opacity: 1; white-space: pre;">20</text></g><g class="x2tick"><text text-anchor="middle" x="0" y="1040.15" transform="translate(702.13,0)" style="font-family: 'Open Sans', verdana, arial, sans-serif; font-size: 12px; fill: rgb(68, 68, 68); fill-opacity: 1; white-space: pre;">30</text></g><g class="x2tick"><text text-anchor="middle" x="0" y="1040.15" transform="translate(824.26,0)" style="font-family: 'Open Sans', verdana, arial, sans-serif; font-size: 12px; fill: rgb(68, 68, 68); fill-opacity: 1; white-space: pre;">40</text></g><g class="x2tick"><text text-anchor="middle" x="0" y="1040.15" transform="translate(946.39,0)" style="font-family: 'Open Sans', verdana, arial, sans-serif; font-size: 12px; fill: rgb(68, 68, 68); fill-opacity: 1; white-space: pre;">50</text></g></g><g class="yaxislayer-above"><g class="y2tick"><text text-anchor="end" x="76.6" y="4.199999999999999" transform="translate(0,1024.7450000000001)" style="font-family: 'Open Sans', verdana, arial, sans-serif; font-size: 12px; fill: rgb(68, 68, 68); fill-opacity: 1; white-space: pre;">0</text></g><g class="y2tick"><text text-anchor="end" x="76.6" y="4.199999999999999" transform="translate(0,970.245)" style="font-family: 'Open Sans', verdana, arial, sans-serif; font-size: 12px; fill: rgb(68, 68, 68); fill-opacity: 1; white-space: pre;">10</text></g><g class="y2tick"><text text-anchor="end" x="76.6" y="4.199999999999999" transform="translate(0,915.745)" style="font-family: 'Open Sans', verdana, arial, sans-serif; font-size: 12px; fill: rgb(68, 68, 68); fill-opacity: 1; white-space: pre;">20</text></g><g class="y2tick"><text text-anchor="end" x="76.6" y="4.199999999999999" transform="translate(0,861.245)" style="font-family: 'Open Sans', verdana, arial, sans-serif; font-size: 12px; fill: rgb(68, 68, 68); fill-opacity: 1; white-space: pre;">30</text></g><g class="y2tick"><text text-anchor="end" x="76.6" y="4.199999999999999" transform="translate(0,806.745)" style="font-family: 'Open Sans', verdana, arial, sans-serif; font-size: 12px; fill: rgb(68, 68, 68); fill-opacity: 1; white-space: pre;">40</text></g><g class="y2tick"><text text-anchor="end" x="76.6" y="4.199999999999999" transform="translate(0,752.245)" style="font-family: 'Open Sans', verdana, arial, sans-serif; font-size: 12px; fill: rgb(68, 68, 68); fill-opacity: 1; white-space: pre;">50</text></g></g><g class="overaxes-above"/></g><g class="subplot x3y3"><g class="layer-subplot"><g class="shapelayer"/><g class="imagelayer"/></g><g class="gridlayer"><g class="x3"><path class="x3grid crisp" d="M0,439.07500000000005v277.42499999999995" transform="translate(91.48,0)" style="stroke: rgb(238, 238, 238); stroke-opacity: 1; stroke-width: 1px;"/><path class="x3grid crisp" d="M0,439.07500000000005v277.42499999999995" transform="translate(213.61,0)" style="stroke: rgb(238, 238, 238); stroke-opacity: 1; stroke-width: 1px;"/><path class="x3grid crisp" d="M0,439.07500000000005v277.42499999999995" transform="translate(335.74,0)" style="stroke: rgb(238, 238, 238); stroke-opacity: 1; stroke-width: 1px;"/><path class="x3grid crisp" d="M0,439.07500000000005v277.42499999999995" transform="translate(457.87,0)" style="stroke: rgb(238, 238, 238); stroke-opacity: 1; stroke-width: 1px;"/><path class="x3grid crisp" d="M0,439.07500000000005v277.42499999999995" transform="translate(580,0)" style="stroke: rgb(238, 238, 238); stroke-opacity: 1; stroke-width: 1px;"/><path class="x3grid crisp" d="M0,439.07500000000005v277.42499999999995" transform="translate(702.13,0)" style="stroke: rgb(238, 238, 238); stroke-opacity: 1; stroke-width: 1px;"/><path class="x3grid crisp" d="M0,439.07500000000005v277.42499999999995" transform="translate(824.26,0)" style="stroke: rgb(238, 238, 238); stroke-opacity: 1; stroke-width: 1px;"/><path class="x3grid crisp" d="M0,439.07500000000005v277.42499999999995" transform="translate(946.39,0)" style="stroke: rgb(238, 238, 238); stroke-opacity: 1; stroke-width: 1px;"/></g><g class="y3"><path class="y3grid crisp" d="M80,0h944" transform="translate(0,649.065)" style="stroke: rgb(238, 238, 238); stroke-opacity: 1; stroke-width: 1px;"/><path class="y3grid crisp" d="M80,0h944" transform="translate(0,581.625)" style="stroke: rgb(238, 238, 238); stroke-opacity: 1; stroke-width: 1px;"/><path class="y3grid crisp" d="M80,0h944" transform="translate(0,514.1850000000001)" style="stroke: rgb(238, 238, 238); stroke-opacity: 1; stroke-width: 1px;"/><path class="y3grid crisp" d="M80,0h944" transform="translate(0,446.75500000000005)" style="stroke: rgb(238, 238, 238); stroke-opacity: 1; stroke-width: 1px;"/></g></g><g class="zerolinelayer"/><path class="xlines-below"/><path class="ylines-below"/><g class="overlines-below"/><g class="xaxislayer-below"/><g class="yaxislayer-below"/><g class="overaxes-below"/><g class="plot" transform="translate(80, 439.07500000000005)" clip-path="url(#clip86992dx3y3plot)"><g class="imagelayer"/><g class="maplayer"/><g class="barlayer"/><g class="carpetlayer"/><g class="violinlayer"/><g class="boxlayer"/><g class="scatterlayer"><g class="trace scatter tracee3d8bf" style="stroke-miterlimit: 2; opacity: 1;"><path class="js-line" d="M0,277.42L216.04,276.85L220.73,276.65L230.12,277.04L234.82,276.24L248.91,275.08L253.61,276.31L258.3,277.42L263,277.42L427.38,277.42L432.07,261.14L436.77,163.29L441.46,15.77L446.16,82.57L450.86,264.94L455.55,276.88L460.25,277.42L605.85,277.15L610.54,276.63L615.22,277.17L619.94,276.59L629.31,276.79L634.03,276.42L638.72,277.02L643.41,276.64L648.09,274.23L652.81,274.49L657.5,274.36L662.18,275.16L671.59,274.38L676.27,275.21L680.99,276.26L685.68,276.32L690.36,276.71L695.08,275.74L704.45,277.06L709.17,276.76L723.26,277.18L727.95,276.47L732.64,273.34L737.36,275.05L742.04,276L746.73,274.27L751.41,276.39L756.13,277.16L770.22,276.42L774.91,274.32L779.6,275.42L784.31,273.15L789,274.55L793.69,274.47L798.41,272.24L803.09,272.83L807.78,278.18L812.5,277.04L817.18,273.55L821.87,273.21L831.27,260.48L835.96,263.12L840.68,242.74L845.36,237.45L850.05,260.62L854.74,266.07L859.45,261.99L864.14,263.15L868.83,268.71L873.55,268.71L878.23,264.82L882.92,267.57L887.64,268.81L892.32,267.05L897.01,274.24L901.73,258.9L906.41,269.74L911.1,273.89L915.82,274.54L920.5,268.58L925.19,270.21L929.91,272.87L934.59,277.26L939.28,277.42L944,277.42" style="vector-effect: non-scaling-stroke; fill: none; stroke: rgb(44, 160, 44); stroke-opacity: 1; stroke-width: 2px; opacity: 1;"/><g class="points"/></g></g></g><g class="overplot"/><path class="xlines-above crisp" d="M79,717H1025M79,438.57500000000005H1025" style="fill: none; stroke-width: 1px; stroke: rgb(68, 68, 68); stroke-opacity: 1;"/><path class="ylines-above crisp" d="M79.5,439.07500000000005V716.5M1024.5,439.07500000000005V716.5" style="fill: none; stroke-width: 1px; stroke: rgb(68, 68, 68); stroke-opacity: 1;"/><g class="overlines-above"/><g class="xaxislayer-above"><g class="x3tick"><text text-anchor="middle" x="0" y="731.9" transform="translate(91.48,0)" style="font-family: 'Open Sans', verdana, arial, sans-serif; font-size: 12px; fill: rgb(68, 68, 68); fill-opacity: 1; white-space: pre;">−20</text></g><g class="x3tick"><text text-anchor="middle" x="0" y="731.9" transform="translate(213.61,0)" style="font-family: 'Open Sans', verdana, arial, sans-serif; font-size: 12px; fill: rgb(68, 68, 68); fill-opacity: 1; white-space: pre;">−10</text></g><g class="x3tick"><text text-anchor="middle" x="0" y="731.9" transform="translate(335.74,0)" style="font-family: 'Open Sans', verdana, arial, sans-serif; font-size: 12px; fill: rgb(68, 68, 68); fill-opacity: 1; white-space: pre;">0</text></g><g class="x3tick"><text text-anchor="middle" x="0" y="731.9" transform="translate(457.87,0)" style="font-family: 'Open Sans', verdana, arial, sans-serif; font-size: 12px; fill: rgb(68, 68, 68); fill-opacity: 1; white-space: pre;">10</text></g><g class="x3tick"><text text-anchor="middle" x="0" y="731.9" transform="translate(580,0)" style="font-family: 'Open Sans', verdana, arial, sans-serif; font-size: 12px; fill: rgb(68, 68, 68); fill-opacity: 1; white-space: pre;">20</text></g><g class="x3tick"><text text-anchor="middle" x="0" y="731.9" transform="translate(702.13,0)" style="font-family: 'Open Sans', verdana, arial, sans-serif; font-size: 12px; fill: rgb(68, 68, 68); fill-opacity: 1; white-space: pre;">30</text></g><g class="x3tick"><text text-anchor="middle" x="0" y="731.9" transform="translate(824.26,0)" style="font-family: 'Open Sans', verdana, arial, sans-serif; font-size: 12px; fill: rgb(68, 68, 68); fill-opacity: 1; white-space: pre;">40</text></g><g class="x3tick"><text text-anchor="middle" x="0" y="731.9" transform="translate(946.39,0)" style="font-family: 'Open Sans', verdana, arial, sans-serif; font-size: 12px; fill: rgb(68, 68, 68); fill-opacity: 1; white-space: pre;">50</text></g></g><g class="yaxislayer-above"><g class="y3tick"><text text-anchor="end" x="76.6" y="4.199999999999999" transform="translate(0,716.4950000000001)" style="font-family: 'Open Sans', verdana, arial, sans-serif; font-size: 12px; fill: rgb(68, 68, 68); fill-opacity: 1; white-space: pre;">0</text></g><g class="y3tick"><text text-anchor="end" x="76.6" y="4.199999999999999" transform="translate(0,649.065)" style="font-family: 'Open Sans', verdana, arial, sans-serif; font-size: 12px; fill: rgb(68, 68, 68); fill-opacity: 1; white-space: pre;">50</text></g><g class="y3tick"><text text-anchor="end" x="76.6" y="4.199999999999999" transform="translate(0,581.625)" style="font-family: 'Open Sans', verdana, arial, sans-serif; font-size: 12px; fill: rgb(68, 68, 68); fill-opacity: 1; white-space: pre;">100</text></g><g class="y3tick"><text text-anchor="end" x="76.6" y="4.199999999999999" transform="translate(0,514.1850000000001)" style="font-family: 'Open Sans', verdana, arial, sans-serif; font-size: 12px; fill: rgb(68, 68, 68); fill-opacity: 1; white-space: pre;">150</text></g><g class="y3tick"><text text-anchor="end" x="76.6" y="4.199999999999999" transform="translate(0,446.75500000000005)" style="font-family: 'Open Sans', verdana, arial, sans-serif; font-size: 12px; fill: rgb(68, 68, 68); fill-opacity: 1; white-space: pre;">200</text></g></g><g class="overaxes-above"/></g><g class="subplot x4y4"><g class="layer-subplot"><g class="shapelayer"/><g class="imagelayer"/></g><g class="gridlayer"><g class="x4"><path class="x4grid crisp" d="M0,130.82500000000002v277.42499999999995" transform="translate(91.48,0)" style="stroke: rgb(238, 238, 238); stroke-opacity: 1; stroke-width: 1px;"/><path class="x4grid crisp" d="M0,130.82500000000002v277.42499999999995" transform="translate(213.61,0)" style="stroke: rgb(238, 238, 238); stroke-opacity: 1; stroke-width: 1px;"/><path class="x4grid crisp" d="M0,130.82500000000002v277.42499999999995" transform="translate(335.74,0)" style="stroke: rgb(238, 238, 238); stroke-opacity: 1; stroke-width: 1px;"/><path class="x4grid crisp" d="M0,130.82500000000002v277.42499999999995" transform="translate(457.87,0)" style="stroke: rgb(238, 238, 238); stroke-opacity: 1; stroke-width: 1px;"/><path class="x4grid crisp" d="M0,130.82500000000002v277.42499999999995" transform="translate(580,0)" style="stroke: rgb(238, 238, 238); stroke-opacity: 1; stroke-width: 1px;"/><path class="x4grid crisp" d="M0,130.82500000000002v277.42499999999995" transform="translate(702.13,0)" style="stroke: rgb(238, 238, 238); stroke-opacity: 1; stroke-width: 1px;"/><path class="x4grid crisp" d="M0,130.82500000000002v277.42499999999995" transform="translate(824.26,0)" style="stroke: rgb(238, 238, 238); stroke-opacity: 1; stroke-width: 1px;"/><path class="x4grid crisp" d="M0,130.82500000000002v277.42499999999995" transform="translate(946.39,0)" style="stroke: rgb(238, 238, 238); stroke-opacity: 1; stroke-width: 1px;"/></g><g class="y4"><path class="y4grid crisp" d="M80,0h944" transform="translate(0,357.20500000000004)" style="stroke: rgb(238, 238, 238); stroke-opacity: 1; stroke-width: 1px;"/><path class="y4grid crisp" d="M80,0h944" transform="translate(0,306.165)" style="stroke: rgb(238, 238, 238); stroke-opacity: 1; stroke-width: 1px;"/><path class="y4grid crisp" d="M80,0h944" transform="translate(0,255.125)" style="stroke: rgb(238, 238, 238); stroke-opacity: 1; stroke-width: 1px;"/><path class="y4grid crisp" d="M80,0h944" transform="translate(0,204.08500000000004)" style="stroke: rgb(238, 238, 238); stroke-opacity: 1; stroke-width: 1px;"/><path class="y4grid crisp" d="M80,0h944" transform="translate(0,153.04500000000002)" style="stroke: rgb(238, 238, 238); stroke-opacity: 1; stroke-width: 1px;"/></g></g><g class="zerolinelayer"/><path class="xlines-below"/><path class="ylines-below"/><g class="overlines-below"/><g class="xaxislayer-below"/><g class="yaxislayer-below"/><g class="overaxes-below"/><g class="plot" transform="translate(80, 130.82500000000002)" clip-path="url(#clip86992dx4y4plot)"><g class="imagelayer"/><g class="maplayer"/><g class="barlayer"/><g class="carpetlayer"/><g class="violinlayer"/><g class="boxlayer"/><g class="scatterlayer"><g class="trace scatter tracef1e485" style="stroke-miterlimit: 2; opacity: 1;"><path class="js-line" d="M0,277.42L4.7,277.42L9.39,247.63L14.09,267.78L18.78,267.78L23.48,272.34L28.18,267.38L32.87,274.51L37.57,270.43L42.27,264.14L46.96,270.41L56.36,279.69L61.05,277.42L187.86,277.42L192.55,273.41L197.25,271.3L201.95,265.94L206.64,261.52L211.34,269.24L216.04,260.76L220.73,262.53L225.43,262.89L230.12,270.93L234.82,266.75L239.52,257.76L244.21,263.38L248.91,251.78L253.61,257.75L258.3,277.42L427.38,277.42L432.07,257.18L436.77,158.7L441.46,15.77L446.16,68.84L450.86,252.53L455.55,272.46L460.25,277.42L464.95,276.11L469.64,270.66L474.34,266.84L479.04,265.92L483.73,270.8L488.43,266.65L493.12,268.92L497.82,263.34L502.52,262.87L507.22,267.55L516.61,274.98L521.3,273.91L526,277.42L530.7,277.42L535.39,277.2L540.09,273.79L544.79,272.96L549.48,274.76L558.88,274.12L563.57,275.01L568.27,275.58L572.96,275.03L577.66,274.82L582.36,275.55L587.06,275.58L591.76,274.18L596.45,272.81L601.13,273.07L605.85,269.5L610.54,262.93L615.22,272.74L619.94,266.03L624.63,269.62L629.31,268.75L634.03,269.61L638.72,274.04L643.41,266.3L648.09,264.54L652.81,267.55L657.5,266.23L662.18,268.86L666.9,267.79L671.59,266.24L676.27,268.8L680.99,271.8L685.68,268.37L690.36,276.79L695.08,266.45L704.45,277.08L709.17,270L713.86,271.86L718.55,271.51L723.26,274.44L727.95,269.14L732.64,261.74L737.36,267.68L742.04,271.23L746.73,266.57L751.41,275.62L756.13,275.67L760.82,276.56L765.5,273.89L770.22,274.31L774.91,268.42L779.6,271.26L784.31,265.45L793.69,270.3L798.41,262.58L803.09,266.59L807.78,279.35L812.5,274.51L817.18,275.02L821.87,273.38L826.59,267L831.27,265.3L835.96,266.37L840.68,253.97L845.36,250.65L850.05,263.67L854.74,267.9L859.45,268.22L864.14,266.81L868.83,269.05L873.55,270.4L878.23,270.49L882.92,267.11L887.64,272.93L892.32,271.08L897.01,275.53L901.73,273.19L906.41,270.48L911.1,274.17L915.82,272.95L920.5,265.07L925.19,264.99L929.91,273.21L934.59,274.57L939.28,277.42L944,277.42" style="vector-effect: non-scaling-stroke; fill: none; stroke: rgb(214, 39, 40); stroke-opacity: 1; stroke-width: 2px; opacity: 1;"/><g class="points"/></g></g></g><g class="overplot"/><path class="xlines-above crisp" d="M79,408.75H1025M79,130.32500000000002H1025" style="fill: none; stroke-width: 1px; stroke: rgb(68, 68, 68); stroke-opacity: 1;"/><path class="ylines-above crisp" d="M79.5,130.82500000000002V408.25M1024.5,130.82500000000002V408.25" style="fill: none; stroke-width: 1px; stroke: rgb(68, 68, 68); stroke-opacity: 1;"/><g class="overlines-above"/><g class="xaxislayer-above"><g class="x4tick"><text text-anchor="middle" x="0" y="423.65" transform="translate(91.48,0)" style="font-family: 'Open Sans', verdana, arial, sans-serif; font-size: 12px; fill: rgb(68, 68, 68); fill-opacity: 1; white-space: pre;">−20</text></g><g class="x4tick"><text text-anchor="middle" x="0" y="423.65" transform="translate(213.61,0)" style="font-family: 'Open Sans', verdana, arial, sans-serif; font-size: 12px; fill: rgb(68, 68, 68); fill-opacity: 1; white-space: pre;">−10</text></g><g class="x4tick"><text text-anchor="middle" x="0" y="423.65" transform="translate(335.74,0)" style="font-family: 'Open Sans', verdana, arial, sans-serif; font-size: 12px; fill: rgb(68, 68, 68); fill-opacity: 1; white-space: pre;">0</text></g><g class="x4tick"><text text-anchor="middle" x="0" y="423.65" transform="translate(457.87,0)" style="font-family: 'Open Sans', verdana, arial, sans-serif; font-size: 12px; fill: rgb(68, 68, 68); fill-opacity: 1; white-space: pre;">10</text></g><g class="x4tick"><text text-anchor="middle" x="0" y="423.65" transform="translate(580,0)" style="font-family: 'Open Sans', verdana, arial, sans-serif; font-size: 12px; fill: rgb(68, 68, 68); fill-opacity: 1; white-space: pre;">20</text></g><g class="x4tick"><text text-anchor="middle" x="0" y="423.65" transform="translate(702.13,0)" style="font-family: 'Open Sans', verdana, arial, sans-serif; font-size: 12px; fill: rgb(68, 68, 68); fill-opacity: 1; white-space: pre;">30</text></g><g class="x4tick"><text text-anchor="middle" x="0" y="423.65" transform="translate(824.26,0)" style="font-family: 'Open Sans', verdana, arial, sans-serif; font-size: 12px; fill: rgb(68, 68, 68); fill-opacity: 1; white-space: pre;">40</text></g><g class="x4tick"><text text-anchor="middle" x="0" y="423.65" transform="translate(946.39,0)" style="font-family: 'Open Sans', verdana, arial, sans-serif; font-size: 12px; fill: rgb(68, 68, 68); fill-opacity: 1; white-space: pre;">50</text></g></g><g class="yaxislayer-above"><g class="y4tick"><text text-anchor="end" x="76.6" y="4.199999999999999" transform="translate(0,408.245)" style="font-family: 'Open Sans', verdana, arial, sans-serif; font-size: 12px; fill: rgb(68, 68, 68); fill-opacity: 1; white-space: pre;">0</text></g><g class="y4tick"><text text-anchor="end" x="76.6" y="4.199999999999999" transform="translate(0,357.20500000000004)" style="font-family: 'Open Sans', verdana, arial, sans-serif; font-size: 12px; fill: rgb(68, 68, 68); fill-opacity: 1; white-space: pre;">200</text></g><g class="y4tick"><text text-anchor="end" x="76.6" y="4.199999999999999" transform="translate(0,306.165)" style="font-family: 'Open Sans', verdana, arial, sans-serif; font-size: 12px; fill: rgb(68, 68, 68); fill-opacity: 1; white-space: pre;">400</text></g><g class="y4tick"><text text-anchor="end" x="76.6" y="4.199999999999999" transform="translate(0,255.125)" style="font-family: 'Open Sans', verdana, arial, sans-serif; font-size: 12px; fill: rgb(68, 68, 68); fill-opacity: 1; white-space: pre;">600</text></g><g class="y4tick"><text text-anchor="end" x="76.6" y="4.199999999999999" transform="translate(0,204.08500000000004)" style="font-family: 'Open Sans', verdana, arial, sans-serif; font-size: 12px; fill: rgb(68, 68, 68); fill-opacity: 1; white-space: pre;">800</text></g><g class="y4tick"><text text-anchor="end" x="76.6" y="4.199999999999999" transform="translate(0,153.04500000000002)" style="font-family: 'Open Sans', verdana, arial, sans-serif; font-size: 12px; fill: rgb(68, 68, 68); fill-opacity: 1; white-space: pre;">1000</text></g></g><g class="overaxes-above"/></g></g><g class="polarlayer"/><g class="ternarylayer"/><g class="geolayer"/><g class="pielayer"/><g class="glimages"/><defs id="topdefs-86992d"><g class="clips"/><clipPath id="legend86992d"><rect width="75" height="86" x="0" y="0"/></clipPath></defs><g class="layer-above"><g class="imagelayer"/><g class="shapelayer"><path data-index="0" fill-rule="evenodd" d="M335.74,1333.005L335.74,1055.575" clip-path="url(#clip86992dxy)" style="opacity: 1; stroke: rgb(255, 0, 0); stroke-opacity: 1; fill: rgb(0, 0, 0); fill-opacity: 0; stroke-width: 2px;"/><path data-index="1" fill-rule="evenodd" d="M335.74,1024.7450000000001L335.74,747.325" clip-path="url(#clip86992dxy2)" style="opacity: 1; stroke: rgb(255, 0, 0); stroke-opacity: 1; fill: rgb(0, 0, 0); fill-opacity: 0; stroke-width: 2px;"/><path data-index="2" fill-rule="evenodd" d="M335.74,716.4950000000001L335.74,440.07500000000005" clip-path="url(#clip86992dxy3)" style="opacity: 1; stroke: rgb(255, 0, 0); stroke-opacity: 1; fill: rgb(0, 0, 0); fill-opacity: 0; stroke-width: 2px;"/><path data-index="3" fill-rule="evenodd" d="M335.74,408.245L335.74,131.82500000000002" clip-path="url(#clip86992dxy4)" style="opacity: 1; stroke: rgb(255, 0, 0); stroke-opacity: 1; fill: rgb(0, 0, 0); fill-opacity: 0; stroke-width: 2px;"/></g></g><g class="infolayer"><g class="g-gtitle"><text class="gtitle" x="565" y="50" text-anchor="middle" style="font-family: 'Open Sans', verdana, arial, sans-serif; font-size: 17px; fill: rgb(68, 68, 68); opacity: 1; font-weight: normal; white-space: pre;">DENSITY OF STATES HF</text></g><g class="legend" pointer-events="all" transform="translate(1042.88, 100)"><rect class="bg" shape-rendering="crispEdges" width="75" height="86" x="0" y="0" style="stroke: rgb(68, 68, 68); stroke-opacity: 1; fill: rgb(238, 238, 238); fill-opacity: 1; stroke-width: 0px;"/><g class="scrollbox" transform="translate(0, 0)" clip-path="url(#legend86992d)"><g class="groups"><g class="traces" transform="translate(0, 14.5)" style="opacity: 1;"><g class="layers" style="opacity: 1;"><g class="legendfill"/><g class="legendlines"><path class="js-line" d="M5,0h30" style="fill: none; stroke: rgb(31, 119, 180); stroke-opacity: 1; stroke-width: 2px;"/></g><g class="legendsymbols"><g class="legendpoints"/></g></g><text class="legendtext user-select-none" text-anchor="start" x="40" y="4.680000000000001" style="font-family: 'Open Sans', verdana, arial, sans-serif; font-size: 12px; fill: rgb(68, 68, 68); fill-opacity: 1; white-space: pre;">p O</text><rect class="legendtoggle" pointer-events="all" x="0" y="-9.5" width="115" height="19" style="cursor: pointer; fill: rgb(0, 0, 0); fill-opacity: 0;"/></g><g class="traces" transform="translate(0, 33.5)" style="opacity: 1;"><g class="layers" style="opacity: 1;"><g class="legendfill"/><g class="legendlines"><path class="js-line" d="M5,0h30" style="fill: none; stroke: rgb(255, 127, 14); stroke-opacity: 1; stroke-width: 2px;"/></g><g class="legendsymbols"><g class="legendpoints"/></g></g><text class="legendtext user-select-none" text-anchor="start" x="40" y="4.680000000000001" style="font-family: 'Open Sans', verdana, arial, sans-serif; font-size: 12px; fill: rgb(68, 68, 68); fill-opacity: 1; white-space: pre;">d Ce</text><rect class="legendtoggle" pointer-events="all" x="0" y="-9.5" width="115" height="19" style="cursor: pointer; fill: rgb(0, 0, 0); fill-opacity: 0;"/></g><g class="traces" transform="translate(0, 52.5)" style="opacity: 1;"><g class="layers" style="opacity: 1;"><g class="legendfill"/><g class="legendlines"><path class="js-line" d="M5,0h30" style="fill: none; stroke: rgb(44, 160, 44); stroke-opacity: 1; stroke-width: 2px;"/></g><g class="legendsymbols"><g class="legendpoints"/></g></g><text class="legendtext user-select-none" text-anchor="start" x="40" y="4.680000000000001" style="font-family: 'Open Sans', verdana, arial, sans-serif; font-size: 12px; fill: rgb(68, 68, 68); fill-opacity: 1; white-space: pre;">f Ce</text><rect class="legendtoggle" pointer-events="all" x="0" y="-9.5" width="115" height="19" style="cursor: pointer; fill: rgb(0, 0, 0); fill-opacity: 0;"/></g><g class="traces" transform="translate(0, 71.5)" style="opacity: 1;"><g class="layers" style="opacity: 1;"><g class="legendfill"/><g class="legendlines"><path class="js-line" d="M5,0h30" style="fill: none; stroke: rgb(214, 39, 40); stroke-opacity: 1; stroke-width: 2px;"/></g><g class="legendsymbols"><g class="legendpoints"/></g></g><text class="legendtext user-select-none" text-anchor="start" x="40" y="4.680000000000001" style="font-family: 'Open Sans', verdana, arial, sans-serif; font-size: 12px; fill: rgb(68, 68, 68); fill-opacity: 1; white-space: pre;">Total</text><rect class="legendtoggle" pointer-events="all" x="0" y="-9.5" width="115" height="19" style="cursor: pointer; fill: rgb(0, 0, 0); fill-opacity: 0;"/></g></g></g><rect class="scrollbar" rx="20" ry="3" width="0" height="0" x="0" y="0" style="fill: rgb(128, 139, 164); fill-opacity: 1;"/></g><g class="g-xtitle"><text class="xtitle" x="552" y="1385" text-anchor="middle" style="font-family: 'Open Sans', verdana, arial, sans-serif; font-size: 14px; fill: rgb(68, 68, 68); opacity: 1; font-weight: normal; white-space: pre;">E-EFERMI (eV)</text></g><g class="g-x2title"/><g class="g-x3title"/><g class="g-x4title"/><g class="g-ytitle"><text class="ytitle" transform="rotate(-90,48,1194.2875000000001)" x="48" y="1194.2875000000001" text-anchor="middle" style="font-family: 'Open Sans', verdana, arial, sans-serif; font-size: 11px; fill: rgb(68, 68, 68); opacity: 1; font-weight: normal; white-space: pre;">p O</text></g><g class="g-y2title"><text class="y2title" transform="rotate(-90,48,886.0375)" x="48" y="886.0375" text-anchor="middle" style="font-family: 'Open Sans', verdana, arial, sans-serif; font-size: 11px; fill: rgb(68, 68, 68); opacity: 1; font-weight: normal; white-space: pre;">d Ce</text></g><g class="g-y3title"><text class="y3title" transform="rotate(-90,48,577.7875)" x="48" y="577.7875" text-anchor="middle" style="font-family: 'Open Sans', verdana, arial, sans-serif; font-size: 11px; fill: rgb(68, 68, 68); opacity: 1; font-weight: normal; white-space: pre;">f Ce</text></g><g class="g-y4title"><text class="y4title" transform="rotate(-90,48,269.5375)" x="48" y="269.5375" text-anchor="middle" style="font-family: 'Open Sans', verdana, arial, sans-serif; font-size: 11px; fill: rgb(68, 68, 68); opacity: 1; font-weight: normal; white-space: pre;">Total</text></g></g></svg>