<svg class="main-svg" xmlns="http://www.w3.org/2000/svg" xmlns:xlink="http://www.w3.org/1999/xlink" width="1130" height="1413" style="" viewBox="0 0 1130 1413"><rect x="0" y="0" width="1130" height="1413" style="fill: rgb(238, 238, 238); fill-opacity: 1;"/><defs id="defs-9b5f84"><g class="clips"><clipPath class="plotclip" id="clip9b5f84xyplot"><rect width="944" height="277.425"/></clipPath><clipPath class="plotclip" id="clip9b5f84x2y2plot"><rect width="944" height="277.42499999999995"/></clipPath><clipPath class="plotclip" id="clip9b5f84x3y3plot"><rect width="944" height="277.42499999999995"/></clipPath><clipPath class="plotclip" id="clip9b5f84x4y4plot"><rect width="944" height="277.42499999999995"/></clipPath><clipPath class="axesclip" id="clip9b5f84x"><rect x="80" y="0" width="944" height="1413"/></clipPath><clipPath class="axesclip" id="clip9b5f84y"><rect x="0" y="1055.575" width="1130" height="277.425"/></clipPath><clipPath class="axesclip" id="clip9b5f84xy"><rect x="80" y="1055.575" width="944" height="277.425"/></clipPath><clipPath class="axesclip" id="clip9b5f84y2"><rect x="0" y="747.325" width="1130" height="277.42499999999995"/></clipPath><clipPath class="axesclip" id="clip9b5f84xy2"><rect x="80" y="747.325" width="944" height="277.42499999999995"/></clipPath><clipPath class="axesclip" id="clip9b5f84y3"><rect x="0" y="439.07500000000005" width="1130" height="277.42499999999995"/></clipPath><clipPath class="axesclip" id="clip9b5f84xy3"><rect x="80" y="439.07500000000005" width="944" height="277.42499999999995"/></clipPath><clipPath class="axesclip" id="clip9b5f84y4"><rect x="0" y="130.82500000000002" width="1130" height="277.42499999999995"/></clipPath><clipPath class="axesclip" id="clip9b5f84xy4"><rect x="80" y="130.82500000000002" width="944" height="277.42499999999995"/></clipPath><clipPath class="axesclip" id="clip9b5f84x2"><rect x="80" y="0" width="944" height="1413"/></clipPath><clipPath class="axesclip" id="clip9b5f84x2y"><rect x="80" y="1055.575" width="944" height="277.425"/></clipPath><clipPath class="axesclip" id="clip9b5f84x2y2"><rect x="80" y="747.325" width="944" height="277.42499999999995"/></clipPath><clipPath class="axesclip" id="clip9b5f84x2y3"><rect x="80" y="439.07500000000005" width="944" height="277.42499999999995"/></clipPath><clipPath class="axesclip" id="clip9b5f84x2y4"><rect x="80" y="130.82500000000002" width="944" height="277.42499999999995"/></clipPath><clipPath class="axesclip" id="clip9b5f84x3"><rect x="80" y="0" width="944" height="1413"/></clipPath><clipPath class="axesclip" id="clip9b5f84x3y"><rect x="80" y="1055.575" width="944" height="277.425"/></clipPath><clipPath class="axesclip" id="clip9b5f84x3y2"><rect x="80" y="747.325" width="944" height="277.42499999999995"/></clipPath><clipPath class="axesclip" id="clip9b5f84x3y3"><rect x="80" y="439.07500000000005" width="944" height="277.42499999999995"/></clipPath><clipPath class="axesclip" id="clip9b5f84x3y4"><rect x="80" y="130.82500000000002" width="944" height="277.42499999999995"/></clipPath><clipPath class="axesclip" id="clip9b5f84x4"><rect x="80" y="0" width="944" height="1413"/></clipPath><clipPath class="axesclip" id="clip9b5f84x4y"><rect x="80" y="1055.575" width="944" height="277.425"/></clipPath><clipPath class="axesclip" id="clip9b5f84x4y2"><rect x="80" y="747.325" width="944" height="277.42499999999995"/></clipPath><clipPath class="axesclip" id="clip9b5f84x4y3"><rect x="80" y="439.07500000000005" width="944" height="277.42499999999995"/></clipPath><clipPath class="axesclip" id="clip9b5f84x4y4"><rect x="80" y="130.82500000000002" width="944" height="277.42499999999995"/></clipPath></g><g class="gradients"/></defs><g class="bglayer"><rect class="bg" x="80" y="1055.575" width="944" height="277.425" style="fill: rgb(255, 255, 255); fill-opacity: 1; stroke-width: 0;"/><rect class="bg" x="80" y="747.325" width="944" height="277.42499999999995" style="fill: rgb(255, 255, 255); fill-opacity: 1; stroke-width: 0;"/><rect class="bg" x="80" y="439.07500000000005" width="944" height="277.42499999999995" style="fill: rgb(255, 255, 255); fill-opacity: 1; stroke-width: 0;"/><rect class="bg" x="80" y="130.82500000000002" width="944" height="277.42499999999995" style="fill: rgb(255, 255, 255); fill-opacity: 1; stroke-width: 0;"/></g><g class="layer-below"><g class="imagelayer"/><g class="shapelayer"/></g><g class="cartesianlayer"><g class="subplot xy"><g class="layer-subplot"><g class="shapelayer"/><g class="imagelayer"/></g><g class="gridlayer"><g class="x"><path class="xgrid crisp" d="M0,1055.575v277.425" transform="translate(166.93,0)" style="stroke: rgb(238, 238, 238); stroke-opacity: 1; stroke-width: 1px;"/><path class="xgrid crisp" d="M0,1055.575v277.425" transform="translate(328.25,0)" style="stroke: rgb(238, 238, 238); stroke-opacity: 1; stroke-width: 1px;"/><path class="xgrid crisp" d="M0,1055.575v277.425" transform="translate(489.58,0)" style="stroke: rgb(238, 238, 238); stroke-opacity: 1; stroke-width: 1px;"/><path class="xgrid crisp" d="M0,1055.575v277.425" transform="translate(650.9,0)" style="stroke: rgb(238, 238, 238); stroke-opacity: 1; stroke-width: 1px;"/><path class="xgrid crisp" d="M0,1055.575v277.425" transform="translate(812.23,0)" style="stroke: rgb(238, 238, 238); stroke-opacity: 1; stroke-width: 1px;"/><path class="xgrid crisp" d="M0,1055.575v277.425" transform="translate(973.55,0)" style="stroke: rgb(238, 238, 238); stroke-opacity: 1; stroke-width: 1px;"/></g><g class="y"><path class="ygrid crisp" d="M80,0h944" transform="translate(0,1283.7250000000001)" style="stroke: rgb(238, 238, 238); stroke-opacity: 1; stroke-width: 1px;"/><path class="ygrid crisp" d="M80,0h944" transform="translate(0,1234.455)" style="stroke: rgb(238, 238, 238); stroke-opacity: 1; stroke-width: 1px;"/><path class="ygrid crisp" d="M80,0h944" transform="translate(0,1185.185)" style="stroke: rgb(238, 238, 238); stroke-opacity: 1; stroke-width: 1px;"/><path class="ygrid crisp" d="M80,0h944" transform="translate(0,1135.915)" style="stroke: rgb(238, 238, 238); stroke-opacity: 1; stroke-width: 1px;"/><path class="ygrid crisp" d="M80,0h944" transform="translate(0,1086.645)" style="stroke: rgb(238, 238, 238); stroke-opacity: 1; stroke-width: 1px;"/></g></g><g class="zerolinelayer"/><path class="xlines-below"/><path class="ylines-below"/><g class="overlines-below"/><g class="xaxislayer-below"/><g class="yaxislayer-below"/><g class="overaxes-below"/><g class="plot" transform="translate(80, 1055.575)" clip-path="url(#clip9b5f84xyplot)"><g class="imagelayer"/><g class="maplayer"/><g class="barlayer"/><g class="carpetlayer"/><g class="violinlayer"/><g class="boxlayer"/><g class="scatterlayer"><g class="trace scatter trace83bdbb" style="stroke-miterlimit: 2; opacity: 1;"><path class="js-line" d="M0,277.43L4.7,277.43L9.39,266.54L14.09,275.18L18.79,274.13L23.49,275.57L28.18,275.48L42.27,276.56L46.97,275.87L61.06,277.6L65.76,277.43L183.17,277.43L187.86,282.77L192.56,221.42L197.26,204.35L201.95,90.07L206.65,13.87L211.35,176.55L216.04,114.62L220.74,189.07L225.43,184.93L230.13,142.68L234.83,167.78L239.52,220.74L244.22,97.54L248.92,277.43L253.61,277.43L272.4,277.43L277.1,269.28L286.49,242.03L291.19,255.61L295.88,269.74L300.58,277.43L338.15,277.43L342.85,279.5L347.54,276.62L352.24,292.94L356.94,276.55L361.64,282.95L366.33,283.09L371.03,278.82L380.42,277.17L385.12,277.66L394.51,276.59L399.21,276.68L403.9,277.85L408.6,281.67L413.29,280.61L417.99,298.38L422.69,306.64L427.39,299.39L432.08,297.79L436.78,287.44L441.48,276.81L446.17,277.43L450.87,277.43L455.56,237.32L460.26,224.91L464.96,256.05L469.66,245.07L474.35,228.35L479.05,239.78L483.74,260.73L488.44,264.43L493.14,253L497.83,246.89L502.53,254.68L507.23,264.13L511.92,262.51L516.62,256.52L521.32,196.43L526.01,259.72L530.71,135.62L535.41,175.65L540.1,135.06L544.8,123.9L549.49,230.13L554.19,209.64L558.89,131.84L563.59,234.94L568.28,241.48L572.98,196.87L577.68,246.2L582.37,190.36L587.07,233.54L591.76,250.87L596.46,209.71L601.16,244.91L605.86,258.17L610.55,237.03L615.24,224.77L619.94,221.19L624.64,229.1L629.34,238.81L634.03,244.83L638.73,233.91L643.43,254.46L648.12,253.16L652.82,220.37L657.51,260.78L662.21,259.13L666.91,231.79L671.61,260.31L676.3,250.27L681,234.4L685.69,169.82L690.4,205.49L695.1,229.89L699.79,237.55L704.49,258.32L709.19,252.39L713.88,258.38L718.58,276.98L723.28,264.64L727.98,275.08L732.67,248.48L737.37,272.29L742.07,256.49L746.76,264.37L751.46,271.66L756.16,228.99L760.86,264.1L765.55,285.68L770.25,261.3L774.95,256.88L779.64,264.86L784.34,265.37L789.04,188.69L793.74,199.2L798.43,206.23L803.09,194.17L807.78,245.01L812.48,249.44L817.18,272.14L821.87,265.34L826.57,267.66L831.27,266.74L835.97,269.39L840.66,267.56L845.36,240.66L850.06,257.4L859.45,300.47L864.15,212.5L868.85,266.72L873.54,277.55L878.24,239.24L882.94,247.71L887.63,278.82L892.33,281.55L897.03,272.35L901.73,273.5L906.42,251.28L911.12,262.88L915.82,264.99L920.51,263.08L925.21,267.35L929.91,273.06L934.61,270.65L939.3,277.42L944,277.43" style="vector-effect: non-scaling-stroke; fill: none; stroke: rgb(31, 119, 180); stroke-opacity: 1; stroke-width: 2px; opacity: 1;"/><g class="points"/></g></g></g><g class="overplot"/><path class="xlines-above crisp" d="M79,1333.5H1025M79,1055.075H1025" style="fill: none; stroke-width: 1px; stroke: rgb(68, 68, 68); stroke-opacity: 1;"/><path class="ylines-above crisp" d="M79.5,1055.575V1333M1024.5,1055.575V1333" style="fill: none; stroke-width: 1px; stroke: rgb(68, 68, 68); stroke-opacity: 1;"/><g class="overlines-above"/><g class="xaxislayer-above"><g class="xtick"><text text-anchor="middle" x="0" y="1348.4" transform="translate(166.93,0)" style="font-family: 'Open Sans', verdana, arial, sans-serif; font-size: 12px; fill: rgb(68, 68, 68); fill-opacity: 1; white-space: pre;">−10</text></g><g class="xtick"><text text-anchor="middle" x="0" y="1348.4" transform="translate(328.25,0)" style="font-family: 'Open Sans', verdana, arial, sans-serif; font-size: 12px; fill: rgb(68, 68, 68); fill-opacity: 1; white-space: pre;">0</text></g><g class="xtick"><text text-anchor="middle" x="0" y="1348.4" transform="translate(489.58,0)" style="font-family: 'Open Sans', verdana, arial, sans-serif; font-size: 12px; fill: rgb(68, 68, 68); fill-opacity: 1; white-space: pre;">10</text></g><g class="xtick"><text text-anchor="middle" x="0" y="1348.4" transform="translate(650.9,0)" style="font-family: 'Open Sans', verdana, arial, sans-serif; font-size: 12px; fill: rgb(68, 68, 68); fill-opacity: 1; white-space: pre;">20</text></g><g class="xtick"><text text-anchor="middle" x="0" y="1348.4" transform="translate(812.23,0)" style="font-family: 'Open Sans', verdana, arial, sans-serif; font-size: 12px; fill: rgb(68, 68, 68); fill-opacity: 1; white-space: pre;">30</text></g><g class="xtick"><text text-anchor="middle" x="0" y="1348.4" transform="translate(973.55,0)" style="font-family: 'Open Sans', verdana, arial, sans-serif; font-size: 12px; fill: rgb(68, 68, 68); fill-opacity: 1; white-space: pre;">40</text></g></g><g class="yaxislayer-above"><g class="ytick"><text text-anchor="end" x="76.6" y="4.199999999999999" transform="translate(0,1333.005)" style="font-family: 'Open Sans', verdana, arial, sans-serif; font-size: 12px; fill: rgb(68, 68, 68); fill-opacity: 1; white-space: pre;">0</text></g><g class="ytick"><text text-anchor="end" x="76.6" y="4.199999999999999" transform="translate(0,1283.7250000000001)" style="font-family: 'Open Sans', verdana, arial, sans-serif; font-size: 12px; fill: rgb(68, 68, 68); fill-opacity: 1; white-space: pre;">5</text></g><g class="ytick"><text text-anchor="end" x="76.6" y="4.199999999999999" transform="translate(0,1234.455)" style="font-family: 'Open Sans', verdana, arial, sans-serif; font-size: 12px; fill: rgb(68, 68, 68); fill-opacity: 1; white-space: pre;">10</text></g><g class="ytick"><text text-anchor="end" x="76.6" y="4.199999999999999" transform="translate(0,1185.185)" style="font-family: 'Open Sans', verdana, arial, sans-serif; font-size: 12px; fill: rgb(68, 68, 68); fill-opacity: 1; white-space: pre;">15</text></g><g class="ytick"><text text-anchor="end" x="76.6" y="4.199999999999999" transform="translate(0,1135.915)" style="font-family: 'Open Sans', verdana, arial, sans-serif; font-size: 12px; fill: rgb(68, 68, 68); fill-opacity: 1; white-space: pre;">20</text></g><g class="ytick"><text text-anchor="end" x="76.6" y="4.199999999999999" transform="translate(0,1086.645)" style="font-family: 'Open Sans', verdana, arial, sans-serif; font-size: 12px; fill: rgb(68, 68, 68); fill-opacity: 1; white-space: pre;">25</text></g></g><g class="overaxes-above"/></g><g class="subplot x2y2"><g class="layer-subplot"><g class="shapelayer"/><g class="imagelayer"/></g><g class="gridlayer"><g class="x2"><path class="x2grid crisp" d="M0,747.325v277.42499999999995" transform="translate(166.93,0)" style="stroke: rgb(238, 238, 238); stroke-opacity: 1; stroke-width: 1px;"/><path class="x2grid crisp" d="M0,747.325v277.42499999999995" transform="translate(328.25,0)" style="stroke: rgb(238, 238, 238); stroke-opacity: 1; stroke-width: 1px;"/><path class="x2grid crisp" d="M0,747.325v277.42499999999995" transform="translate(489.58,0)" style="stroke: rgb(238, 238, 238); stroke-opacity: 1; stroke-width: 1px;"/><path class="x2grid crisp" d="M0,747.325v277.42499999999995" transform="translate(650.9,0)" style="stroke: rgb(238, 238, 238); stroke-opacity: 1; stroke-width: 1px;"/><path class="x2grid crisp" d="M0,747.325v277.42499999999995" transform="translate(812.23,0)" style="stroke: rgb(238, 238, 238); stroke-opacity: 1; stroke-width: 1px;"/><path class="x2grid crisp" d="M0,747.325v277.42499999999995" transform="translate(973.55,0)" style="stroke: rgb(238, 238, 238); stroke-opacity: 1; stroke-width: 1px;"/></g><g class="y2"><path class="y2grid crisp" d="M80,0h944" transform="translate(0,979.605)" style="stroke: rgb(238, 238, 238); stroke-opacity: 1; stroke-width: 1px;"/><path class="y2grid crisp" d="M80,0h944" transform="translate(0,934.455)" style="stroke: rgb(238, 238, 238); stroke-opacity: 1; stroke-width: 1px;"/><path class="y2grid crisp" d="M80,0h944" transform="translate(0,889.315)" style="stroke: rgb(238, 238, 238); stroke-opacity: 1; stroke-width: 1px;"/><path class="y2grid crisp" d="M80,0h944" transform="translate(0,844.1650000000001)" style="stroke: rgb(238, 238, 238); stroke-opacity: 1; stroke-width: 1px;"/><path class="y2grid crisp" d="M80,0h944" transform="translate(0,799.0150000000001)" style="stroke: rgb(238, 238, 238); stroke-opacity: 1; stroke-width: 1px;"/><path class="y2grid crisp" d="M80,0h944" transform="translate(0,753.875)" style="stroke: rgb(238, 238, 238); stroke-opacity: 1; stroke-width: 1px;"/></g></g><g class="zerolinelayer"/><path class="xlines-below"/><path class="ylines-below"/><g class="overlines-below"/><g class="xaxislayer-below"/><g class="yaxislayer-below"/><g class="overaxes-below"/><g class="plot" transform="translate(80, 747.325)" clip-path="url(#clip9b5f84x2y2plot)"><g class="imagelayer"/><g class="maplayer"/><g class="barlayer"/><g class="carpetlayer"/><g class="violinlayer"/><g class="boxlayer"/><g class="scatterlayer"><g class="trace scatter tracecd9763" style="stroke-miterlimit: 2; opacity: 1;"><path class="js-line" d="M0,277.42L4.7,277.42L9.39,276.55L14.09,275.87L18.79,273.62L23.49,274.56L28.18,273.6L37.57,274.16L42.27,273L46.97,272.07L51.66,275.39L56.36,277.23L61.06,278L70.45,277.42L75.15,277.42L183.17,277.42L187.86,279.34L192.56,249.28L197.26,246.22L201.95,224.73L206.65,215.28L211.35,255.99L216.04,249.43L220.74,271.15L225.43,267.74L230.13,268.18L234.83,270.56L239.52,274.74L244.22,271.83L248.92,277.42L253.61,277.42L272.4,277.42L277.1,267.91L281.79,258.84L286.49,262.73L291.19,272.03L295.88,277.27L324.06,277.42L328.76,277.42L338.15,277.42L342.85,258.77L347.54,279.25L352.24,13.87L356.94,217.34L361.64,155.89L366.33,150.84L371.03,234.46L375.72,248.73L380.42,268.82L385.12,253.22L389.81,184.66L394.51,178.29L399.21,189.78L403.9,199.53L408.6,159.35L413.29,220.13L417.99,91.92L422.69,118.14L427.39,210.27L432.08,203.89L436.78,260.2L441.48,277.67L446.17,277.42L450.87,277.42L455.56,284.56L460.26,286.34L464.96,280.38L469.66,279.95L474.35,281.37L479.05,280.69L483.74,279.09L488.44,278.44L493.14,278.61L507.23,277.78L511.92,277.57L521.32,277.04L526.01,275.16L535.41,296.02L540.1,293.15L544.8,297.73L549.49,280.14L554.19,284.12L558.89,300.51L563.59,282.77L568.28,276.61L572.98,284.54L577.68,279.36L582.37,285.79L587.07,275.97L591.76,280.76L596.46,289.14L601.16,282.07L605.86,260.19L610.55,270.1L615.24,273.75L619.94,272.97L624.64,274.45L634.03,283.93L638.73,271.47L648.12,281.13L652.82,278.07L657.51,274.83L662.21,273.15L666.91,289.45L671.61,279.89L676.3,269.08L681,260.51L685.69,233.14L690.4,254.7L695.1,266.97L699.79,261.93L704.49,272.39L709.19,279.5L713.88,272.95L718.58,281.64L723.28,277.84L727.98,278.89L732.67,263.23L737.37,274.97L742.07,267.98L746.76,264.62L751.46,262.61L756.16,262.19L760.86,249.17L765.55,264.56L770.25,268.35L774.95,261.13L779.64,272.88L784.34,265.79L789.04,264.07L793.74,271.05L798.43,280.66L803.09,269.4L807.78,268L812.48,270.87L817.18,258.88L821.87,251.18L831.27,237.24L835.97,240.78L840.66,245.03L845.36,252.95L850.06,249.6L854.75,238.85L859.45,242.07L864.15,215.13L868.85,225.31L873.54,228.42L882.94,255.35L887.63,263.76L892.33,278.75L897.03,272.34L901.73,270.18L906.42,260.97L911.12,270.14L915.82,267.63L920.51,256.51L925.21,270L929.91,268.64L934.61,273.78L939.3,277.43L944,277.42" style="vector-effect: non-scaling-stroke; fill: none; stroke: rgb(255, 127, 14); stroke-opacity: 1; stroke-width: 2px; opacity: 1;"/><g class="points"/></g></g></g><g class="overplot"/><path class="xlines-above crisp" d="M79,1025.25H1025M79,746.825H1025" style="fill: none; stroke-width: 1px; stroke: rgb(68, 68, 68); stroke-opacity: 1;"/><path class="ylines-above crisp" d="M79.5,747.325V1024.75M1024.5,747.325V1024.75" style="fill: none; stroke-width: 1px; stroke: rgb(68, 68, 68); stroke-opacity: 1;"/><g class="overlines-above"/><g class="xaxislayer-above"><g class="x2tick"><text text-anchor="middle" x="0" y="1040.15" transform="translate(166.93,0)" style="font-family: 'Open Sans', verdana, arial, sans-serif; font-size: 12px; fill: rgb(68, 68, 68); fill-opacity: 1; white-space: pre;">−10</text></g><g class="x2tick"><text text-anchor="middle" x="0" y="1040.15" transform="translate(328.25,0)" style="font-family: 'Open Sans', verdana, arial, sans-serif; font-size: 12px; fill: rgb(68, 68, 68); fill-opacity: 1; white-space: pre;">0</text></g><g class="x2tick"><text text-anchor="middle" x="0" y="1040.15" transform="translate(489.58,0)" style="font-family: 'Open Sans', verdana, arial, sans-serif; font-size: 12px; fill: rgb(68, 68, 68); fill-opacity: 1; white-space: pre;">10</text></g><g class="x2tick"><text text-anchor="middle" x="0" y="1040.15" transform="translate(650.9,0)" style="font-family: 'Open Sans', verdana, arial, sans-serif; font-size: 12px; fill: rgb(68, 68, 68); fill-opacity: 1; white-space: pre;">20</text></g><g class="x2tick"><text text-anchor="middle" x="0" y="1040.15" transform="translate(812.23,0)" style="font-family: 'Open Sans', verdana, arial, sans-serif; font-size: 12px; fill: rgb(68, 68, 68); fill-opacity: 1; white-space: pre;">30</text></g><g class="x2tick"><text text-anchor="middle" x="0" y="1040.15" transform="translate(973.55,0)" style="font-family: 'Open Sans', verdana, arial, sans-serif; font-size: 12px; fill: rgb(68, 68, 68); fill-opacity: 1; white-space: pre;">40</text></g></g><g class="yaxislayer-above"><g class="y2tick"><text text-anchor="end" x="76.6" y="4.199999999999999" transform="translate(0,1024.7450000000001)" style="font-family: 'Open Sans', verdana, arial, sans-serif; font-size: 12px; fill: rgb(68, 68, 68); fill-opacity: 1; white-space: pre;">0</text></g><g class="y2tick"><text text-anchor="end" x="76.6" y="4.199999999999999" transform="translate(0,979.605)" style="font-family: 'Open Sans', verdana, arial, sans-serif; font-size: 12px; fill: rgb(68, 68, 68); fill-opacity: 1; white-space: pre;">10</text></g><g class="y2tick"><text text-anchor="end" x="76.6" y="4.199999999999999" transform="translate(0,934.455)" style="font-family: 'Open Sans', verdana, arial, sans-serif; font-size: 12px; fill: rgb(68, 68, 68); fill-opacity: 1; white-space: pre;">20</text></g><g class="y2tick"><text text-anchor="end" x="76.6" y="4.199999999999999" transform="translate(0,889.315)" style="font-family: 'Open Sans', verdana, arial, sans-serif; font-size: 12px; fill: rgb(68, 68, 68); fill-opacity: 1; white-space: pre;">30</text></g><g class="y2tick"><text text-anchor="end" x="76.6" y="4.199999999999999" transform="translate(0,844.1650000000001)" style="font-family: 'Open Sans', verdana, arial, sans-serif; font-size: 12px; fill: rgb(68, 68, 68); fill-opacity: 1; white-space: pre;">40</text></g><g class="y2tick"><text text-anchor="end" x="76.6" y="4.199999999999999" transform="translate(0,799.0150000000001)" style="font-family: 'Open Sans', verdana, arial, sans-serif; font-size: 12px; fill: rgb(68, 68, 68); fill-opacity: 1; white-space: pre;">50</text></g><g class="y2tick"><text text-anchor="end" x="76.6" y="4.199999999999999" transform="translate(0,753.875)" style="font-family: 'Open Sans', verdana, arial, sans-serif; font-size: 12px; fill: rgb(68, 68, 68); fill-opacity: 1; white-space: pre;">60</text></g></g><g class="overaxes-above"/></g><g class="subplot x3y3"><g class="layer-subplot"><g class="shapelayer"/><g class="imagelayer"/></g><g class="gridlayer"><g class="x3"><path class="x3grid crisp" d="M0,439.07500000000005v277.42499999999995" transform="translate(166.93,0)" style="stroke: rgb(238, 238, 238); stroke-opacity: 1; stroke-width: 1px;"/><path class="x3grid crisp" d="M0,439.07500000000005v277.42499999999995" transform="translate(328.25,0)" style="stroke: rgb(238, 238, 238); stroke-opacity: 1; stroke-width: 1px;"/><path class="x3grid crisp" d="M0,439.07500000000005v277.42499999999995" transform="translate(489.58,0)" style="stroke: rgb(238, 238, 238); stroke-opacity: 1; stroke-width: 1px;"/><path class="x3grid crisp" d="M0,439.07500000000005v277.42499999999995" transform="translate(650.9,0)" style="stroke: rgb(238, 238, 238); stroke-opacity: 1; stroke-width: 1px;"/><path class="x3grid crisp" d="M0,439.07500000000005v277.42499999999995" transform="translate(812.23,0)" style="stroke: rgb(238, 238, 238); stroke-opacity: 1; stroke-width: 1px;"/><path class="x3grid crisp" d="M0,439.07500000000005v277.42499999999995" transform="translate(973.55,0)" style="stroke: rgb(238, 238, 238); stroke-opacity: 1; stroke-width: 1px;"/></g><g class="y3"><path class="y3grid crisp" d="M80,0h944" transform="translate(0,643.2550000000001)" style="stroke: rgb(238, 238, 238); stroke-opacity: 1; stroke-width: 1px;"/><path class="y3grid crisp" d="M80,0h944" transform="translate(0,570.0150000000001)" style="stroke: rgb(238, 238, 238); stroke-opacity: 1; stroke-width: 1px;"/><path class="y3grid crisp" d="M80,0h944" transform="translate(0,496.76500000000004)" style="stroke: rgb(238, 238, 238); stroke-opacity: 1; stroke-width: 1px;"/></g></g><g class="zerolinelayer"/><path class="xlines-below"/><path class="ylines-below"/><g class="overlines-below"/><g class="xaxislayer-below"/><g class="yaxislayer-below"/><g class="overaxes-below"/><g class="plot" transform="translate(80, 439.07500000000005)" clip-path="url(#clip9b5f84x3y3plot)"><g class="imagelayer"/><g class="maplayer"/><g class="barlayer"/><g class="carpetlayer"/><g class="violinlayer"/><g class="boxlayer"/><g class="scatterlayer"><g class="trace scatter trace0fdaaa" style="stroke-miterlimit: 2; opacity: 1;"><path class="js-line" d="M0,277.42L197.26,277.08L201.95,276.03L211.35,276.01L216.04,274.21L220.74,275.14L225.43,274.07L230.13,270.73L234.83,270.17L239.52,274.17L244.22,269.48L248.92,277.42L253.61,277.42L272.4,277.42L277.1,158.02L281.79,15.77L286.49,81.5L291.19,225.99L295.88,272.27L300.58,277.42L305.28,277.42L526.01,277.43L530.71,276.6L540.1,275.96L544.8,275.67L549.49,276.79L554.19,276.77L558.89,275.37L563.59,276.79L572.98,275.39L577.68,276.81L582.37,274.57L587.07,274.29L596.46,273.41L601.16,274.34L610.55,273.82L615.24,272.91L619.94,273.11L624.64,274.56L629.34,275.9L634.03,276.45L648.12,276.49L652.82,274.8L666.91,277.09L671.61,277.11L676.3,275.79L681,276.34L685.69,269.07L690.4,274.62L695.1,272.59L699.79,275.27L704.49,274.05L709.19,274.39L713.88,276.21L718.58,276.41L727.98,277.6L732.67,272.97L737.37,276.29L742.07,271.41L746.76,271.8L751.46,276.56L756.16,264.08L760.86,268.92L765.55,276.13L770.25,272.08L774.95,269.54L779.64,272.79L784.34,270.13L789.04,238.96L798.43,259.17L803.09,243.15L807.78,257.79L812.48,252.38L817.18,266.35L821.87,254.27L826.57,261.03L831.27,261.8L835.97,262.88L840.66,268.08L845.36,262.95L850.06,266.97L854.75,268.71L859.45,274.63L864.15,258.31L868.85,262.49L873.54,253.25L878.24,260.07L882.94,260.17L887.63,253.71L892.33,280.74L897.03,272.56L901.73,272.27L906.42,268.08L911.12,274.26L915.82,263.56L925.21,274.33L929.91,274.26L939.3,277.43L944,277.42" style="vector-effect: non-scaling-stroke; fill: none; stroke: rgb(44, 160, 44); stroke-opacity: 1; stroke-width: 2px; opacity: 1;"/><g class="points"/></g></g></g><g class="overplot"/><path class="xlines-above crisp" d="M79,717H1025M79,438.57500000000005H1025" style="fill: none; stroke-width: 1px; stroke: rgb(68, 68, 68); stroke-opacity: 1;"/><path class="ylines-above crisp" d="M79.5,439.07500000000005V716.5M1024.5,439.07500000000005V716.5" style="fill: none; stroke-width: 1px; stroke: rgb(68, 68, 68); stroke-opacity: 1;"/><g class="overlines-above"/><g class="xaxislayer-above"><g class="x3tick"><text text-anchor="middle" x="0" y="731.9" transform="translate(166.93,0)" style="font-family: 'Open Sans', verdana, arial, sans-serif; font-size: 12px; fill: rgb(68, 68, 68); fill-opacity: 1; white-space: pre;">−10</text></g><g class="x3tick"><text text-anchor="middle" x="0" y="731.9" transform="translate(328.25,0)" style="font-family: 'Open Sans', verdana, arial, sans-serif; font-size: 12px; fill: rgb(68, 68, 68); fill-opacity: 1; white-space: pre;">0</text></g><g class="x3tick"><text text-anchor="middle" x="0" y="731.9" transform="translate(489.58,0)" style="font-family: 'Open Sans', verdana, arial, sans-serif; font-size: 12px; fill: rgb(68, 68, 68); fill-opacity: 1; white-space: pre;">10</text></g><g class="x3tick"><text text-anchor="middle" x="0" y="731.9" transform="translate(650.9,0)" style="font-family: 'Open Sans', verdana, arial, sans-serif; font-size: 12px; fill: rgb(68, 68, 68); fill-opacity: 1; white-space: pre;">20</text></g><g class="x3tick"><text text-anchor="middle" x="0" y="731.9" transform="translate(812.23,0)" style="font-family: 'Open Sans', verdana, arial, sans-serif; font-size: 12px; fill: rgb(68, 68, 68); fill-opacity: 1; white-space: pre;">30</text></g><g class="x3tick"><text text-anchor="middle" x="0" y="731.9" transform="translate(973.55,0)" style="font-family: 'Open Sans', verdana, arial, sans-serif; font-size: 12px; fill: rgb(68, 68, 68); fill-opacity: 1; white-space: pre;">40</text></g></g><g class="yaxislayer-above"><g class="y3tick"><text text-anchor="end" x="76.6" y="4.199999999999999" transform="translate(0,716.4950000000001)" style="font-family: 'Open Sans', verdana, arial, sans-serif; font-size: 12px; fill: rgb(68, 68, 68); fill-opacity: 1; white-space: pre;">0</text></g><g class="y3tick"><text text-anchor="end" x="76.6" y="4.199999999999999" transform="translate(0,643.2550000000001)" style="font-family: 'Open Sans', verdana, arial, sans-serif; font-size: 12px; fill: rgb(68, 68, 68); fill-opacity: 1; white-space: pre;">50</text></g><g class="y3tick"><text text-anchor="end" x="76.6" y="4.199999999999999" transform="translate(0,570.0150000000001)" style="font-family: 'Open Sans', verdana, arial, sans-serif; font-size: 12px; fill: rgb(68, 68, 68); fill-opacity: 1; white-space: pre;">100</text></g><g class="y3tick"><text text-anchor="end" x="76.6" y="4.199999999999999" transform="translate(0,496.76500000000004)" style="font-family: 'Open Sans', verdana, arial, sans-serif; font-size: 12px; fill: rgb(68, 68, 68); fill-opacity: 1; white-space: pre;">150</text></g></g><g class="overaxes-above"/></g><g class="subplot x4y4"><g class="layer-subplot"><g class="shapelayer"/><g class="imagelayer"/></g><g class="gridlayer"><g class="x4"><path class="x4grid crisp" d="M0,130.82500000000002v277.42499999999995" transform="translate(166.93,0)" style="stroke: rgb(238, 238, 238); stroke-opacity: 1; stroke-width: 1px;"/><path class="x4grid crisp" d="M0,130.82500000000002v277.42499999999995" transform="translate(328.25,0)" style="stroke: rgb(238, 238, 238); stroke-opacity: 1; stroke-width: 1px;"/><path class="x4grid crisp" d="M0,130.82500000000002v277.42499999999995" transform="translate(489.58,0)" style="stroke: rgb(238, 238, 238); stroke-opacity: 1; stroke-width: 1px;"/><path class="x4grid crisp" d="M0,130.82500000000002v277.42499999999995" transform="translate(650.9,0)" style="stroke: rgb(238, 238, 238); stroke-opacity: 1; stroke-width: 1px;"/><path class="x4grid crisp" d="M0,130.82500000000002v277.42499999999995" transform="translate(812.23,0)" style="stroke: rgb(238, 238, 238); stroke-opacity: 1; stroke-width: 1px;"/><path class="x4grid crisp" d="M0,130.82500000000002v277.42499999999995" transform="translate(973.55,0)" style="stroke: rgb(238, 238, 238); stroke-opacity: 1; stroke-width: 1px;"/></g><g class="y4"><path class="y4grid crisp" d="M80,0h944" transform="translate(0,359.505)" style="stroke: rgb(238, 238, 238); stroke-opacity: 1; stroke-width: 1px;"/><path class="y4grid crisp" d="M80,0h944" transform="translate(0,310.765)" style="stroke: rgb(238, 238, 238); stroke-opacity: 1; stroke-width: 1px;"/><path class="y4grid crisp" d="M80,0h944" transform="translate(0,262.015)" style="stroke: rgb(238, 238, 238); stroke-opacity: 1; stroke-width: 1px;"/><path class="y4grid crisp" d="M80,0h944" transform="translate(0,213.27500000000003)" style="stroke: rgb(238, 238, 238); stroke-opacity: 1; stroke-width: 1px;"/><path class="y4grid crisp" d="M80,0h944" transform="translate(0,164.53500000000003)" style="stroke: rgb(238, 238, 238); stroke-opacity: 1; stroke-width: 1px;"/></g></g><g class="zerolinelayer"/><path class="xlines-below"/><path class="ylines-below"/><g class="overlines-below"/><g class="xaxislayer-below"/><g class="yaxislayer-below"/><g class="overaxes-below"/><g class="plot" transform="translate(80, 130.82500000000002)" clip-path="url(#clip9b5f84x4y4plot)"><g class="imagelayer"/><g class="maplayer"/><g class="barlayer"/><g class="carpetlayer"/><g class="violinlayer"/><g class="boxlayer"/><g class="scatterlayer"><g class="trace scatter trace097376" style="stroke-miterlimit: 2; opacity: 1;"><path class="js-line" d="M0,277.42L4.7,277.42L9.39,245.18L14.09,269.24L18.79,264.7L23.49,270.21L28.18,268.81L32.88,269.44L37.57,268.69L42.27,267.68L46.97,261.09L51.66,270.14L56.36,274.6L61.06,280.51L65.76,277.42L183.17,277.42L187.86,278.26L192.56,267.29L197.26,263.95L201.95,245.52L206.65,234.07L211.35,259.57L216.04,248.33L220.74,261.94L225.43,259.22L230.13,249.71L234.83,252.58L239.52,264.34L244.22,235.43L248.92,277.42L253.61,277.42L272.4,277.42L277.1,164.48L281.79,15.77L286.49,59.23L291.19,210.1L295.88,268.23L300.58,277.42L305.28,277.42L338.15,277.42L342.85,275.58L347.54,277.59L352.24,250.13L356.94,271.14L361.64,264.6L366.33,263.97L371.03,272.82L380.42,276.39L385.12,274.7L389.81,266.48L394.51,265.81L403.9,268.04L408.6,263.32L413.29,270.19L417.99,252.01L422.69,256.37L427.39,268.17L432.08,267.82L436.78,274.76L441.48,277.43L446.17,277.42L450.87,277.42L455.56,272.93L460.26,272.24L464.96,275.2L474.35,272.95L479.05,274.05L483.74,275.84L488.44,275.99L497.83,274.27L502.53,274.98L507.23,275.75L511.92,275.4L516.62,274.65L521.32,268.42L526.01,275.04L530.71,262.75L535.41,269.22L540.1,264.21L544.8,264.03L549.49,273.68L554.19,272.03L558.89,263.76L563.59,273.37L568.28,272.26L572.98,269.97L577.68,274.3L582.37,266.76L587.07,269.14L591.76,269.83L596.46,264.62L601.16,271.03L605.86,268.1L610.55,267.64L615.24,265.71L619.94,265.53L624.64,268.52L629.34,272.09L634.03,274.16L638.73,268L643.43,272.82L648.12,271.48L652.82,265.55L657.51,272.17L662.21,273.34L671.61,276.36L676.3,270.38L681,269.53L685.69,254.95L690.4,266.65L695.1,265.66L704.49,269.2L709.19,272.23L713.88,273.76L718.58,276.43L723.28,276.19L727.98,277.12L732.67,270.2L737.37,275.16L742.07,267.61L746.76,269.17L751.46,273.04L756.16,261.35L760.86,264.56L765.55,273.65L770.25,270.02L774.95,268.48L779.64,273.68L784.34,270.79L789.04,255.74L793.74,260.3L798.43,264.74L803.09,259.11L807.78,267.46L812.48,264.61L817.18,270.61L821.87,264.85L826.57,267.44L831.27,266.93L840.66,269.56L845.36,267.47L850.06,269.85L854.75,271.14L859.45,275.75L864.15,259.24L868.85,267.32L873.54,266.63L878.24,266.31L882.94,268.63L887.63,271.24L892.33,278.94L897.03,274.8L901.73,272.59L906.42,264.97L911.12,272.27L915.82,267.3L920.51,264.57L925.21,271L929.91,273.1L934.61,273.76L939.3,277.42L944,277.42" style="vector-effect: non-scaling-stroke; fill: none; stroke: rgb(214, 39, 40); stroke-opacity: 1; stroke-width: 2px; opacity: 1;"/><g class="points"/></g></g></g><g class="overplot"/><path class="xlines-above crisp" d="M79,408.75H1025M79,130.32500000000002H1025" style="fill: none; stroke-width: 1px; stroke: rgb(68, 68, 68); stroke-opacity: 1;"/><path class="ylines-above crisp" d="M79.5,130.82500000000002V408.25M1024.5,130.82500000000002V408.25" style="fill: none; stroke-width: 1px; stroke: rgb(68, 68, 68); stroke-opacity: 1;"/><g class="overlines-above"/><g class="xaxislayer-above"><g class="x4tick"><text text-anchor="middle" x="0" y="423.65" transform="translate(166.93,0)" style="font-family: 'Open Sans', verdana, arial, sans-serif; font-size: 12px; fill: rgb(68, 68, 68); fill-opacity: 1; white-space: pre;">−10</text></g><g class="x4tick"><text text-anchor="middle" x="0" y="423.65" transform="translate(328.25,0)" style="font-family: 'Open Sans', verdana, arial, sans-serif; font-size: 12px; fill: rgb(68, 68, 68); fill-opacity: 1; white-space: pre;">0</text></g><g class="x4tick"><text text-anchor="middle" x="0" y="423.65" transform="translate(489.58,0)" style="font-family: 'Open Sans', verdana, arial, sans-serif; font-size: 12px; fill: rgb(68, 68, 68); fill-opacity: 1; white-space: pre;">10</text></g><g class="x4tick"><text text-anchor="middle" x="0" y="423.65" transform="translate(650.9,0)" style="font-family: 'Open Sans', verdana, arial, sans-serif; font-size: 12px; fill: rgb(68, 68, 68); fill-opacity: 1; white-space: pre;">20</text></g><g class="x4tick"><text text-anchor="middle" x="0" y="423.65" transform="translate(812.23,0)" style="font-family: 'Open Sans', verdana, arial, sans-serif; font-size: 12px; fill: rgb(68, 68, 68); fill-opacity: 1; white-space: pre;">30</text></g><g class="x4tick"><text text-anchor="middle" x="0" y="423.65" transform="translate(973.55,0)" style="font-family: 'Open Sans', verdana, arial, sans-serif; font-size: 12px; fill: rgb(68, 68, 68); fill-opacity: 1; white-space: pre;">40</text></g></g><g class="yaxislayer-above"><g class="y4tick"><text text-anchor="end" x="76.6" y="4.199999999999999" transform="translate(0,408.245)" style="font-family: 'Open Sans', verdana, arial, sans-serif; font-size: 12px; fill: rgb(68, 68, 68); fill-opacity: 1; white-space: pre;">0</text></g><g class="y4tick"><text text-anchor="end" x="76.6" y="4.199999999999999" transform="translate(0,359.505)" style="font-family: 'Open Sans', verdana, arial, sans-serif; font-size: 12px; fill: rgb(68, 68, 68); fill-opacity: 1; white-space: pre;">200</text></g><g class="y4tick"><text text-anchor="end" x="76.6" y="4.199999999999999" transform="translate(0,310.765)" style="font-family: 'Open Sans', verdana, arial, sans-serif; font-size: 12px; fill: rgb(68, 68, 68); fill-opacity: 1; white-space: pre;">400</text></g><g class="y4tick"><text text-anchor="end" x="76.6" y="4.199999999999999" transform="translate(0,262.015)" style="font-family: 'Open Sans', verdana, arial, sans-serif; font-size: 12px; fill: rgb(68, 68, 68); fill-opacity: 1; white-space: pre;">600</text></g><g class="y4tick"><text text-anchor="end" x="76.6" y="4.199999999999999" transform="translate(0,213.27500000000003)" style="font-family: 'Open Sans', verdana, arial, sans-serif; font-size: 12px; fill: rgb(68, 68, 68); fill-opacity: 1; white-space: pre;">800</text></g><g class="y4tick"><text text-anchor="end" x="76.6" y="4.199999999999999" transform="translate(0,164.53500000000003)" style="font-family: 'Open Sans', verdana, arial, sans-serif; font-size: 12px; fill: rgb(68, 68, 68); fill-opacity: 1; white-space: pre;">1000</text></g></g><g class="overaxes-above"/></g></g><g class="polarlayer"/><g class="ternarylayer"/><g class="geolayer"/><g class="pielayer"/><g class="glimages"/><defs id="topdefs-9b5f84"><g class="clips"/><clipPath id="legend9b5f84"><rect width="75" height="86" x="0" y="0"/></clipPath></defs><g class="layer-above"><g class="imagelayer"/><g class="shapelayer"><path data-index="0" fill-rule="evenodd" d="M328.25,1333.005L328.25,1055.575" clip-path="url(#clip9b5f84xy)" style="opacity: 1; stroke: rgb(255, 0, 0); stroke-opacity: 1; fill: rgb(0, 0, 0); fill-opacity: 0; stroke-width: 2px;"/><path data-index="1" fill-rule="evenodd" d="M328.25,1024.7450000000001L328.25,747.325" clip-path="url(#clip9b5f84xy2)" style="opacity: 1; stroke: rgb(255, 0, 0); stroke-opacity: 1; fill: rgb(0, 0, 0); fill-opacity: 0; stroke-width: 2px;"/><path data-index="2" fill-rule="evenodd" d="M328.25,716.4950000000001L328.25,440.07500000000005" clip-path="url(#clip9b5f84xy3)" style="opacity: 1; stroke: rgb(255, 0, 0); stroke-opacity: 1; fill: rgb(0, 0, 0); fill-opacity: 0; stroke-width: 2px;"/><path data-index="3" fill-rule="evenodd" d="M328.25,408.245L328.25,131.82500000000002" clip-path="url(#clip9b5f84xy4)" style="opacity: 1; stroke: rgb(255, 0, 0); stroke-opacity: 1; fill: rgb(0, 0, 0); fill-opacity: 0; stroke-width: 2px;"/></g></g><g class="infolayer"><g class="g-gtitle"><text class="gtitle" x="565" y="50" text-anchor="middle" style="font-family: 'Open Sans', verdana, arial, sans-serif; font-size: 17px; fill: rgb(68, 68, 68); opacity: 1; font-weight: normal; white-space: pre;">DENSITY OF STATES PBE</text></g><g class="legend" pointer-events="all" transform="translate(1042.88, 100)"><rect class="bg" shape-rendering="crispEdges" width="75" height="86" x="0" y="0" style="stroke: rgb(68, 68, 68); stroke-opacity: 1; fill: rgb(238, 238, 238); fill-opacity: 1; stroke-width: 0px;"/><g class="scrollbox" transform="translate(0, 0)" clip-path="url(#legend9b5f84)"><g class="groups"><g class="traces" transform="translate(0, 14.5)" style="opacity: 1;"><g class="layers" style="opacity: 1;"><g class="legendfill"/><g class="legendlines"><path class="js-line" d="M5,0h30" style="fill: none; stroke: rgb(31, 119, 180); stroke-opacity: 1; stroke-width: 2px;"/></g><g class="legendsymbols"><g class="legendpoints"/></g></g><text class="legendtext user-select-none" text-anchor="start" x="40" y="4.680000000000001" style="font-family: 'Open Sans', verdana, arial, sans-serif; font-size: 12px; fill: rgb(68, 68, 68); fill-opacity: 1; white-space: pre;">p O</text><rect class="legendtoggle" pointer-events="all" x="0" y="-9.5" width="115" height="19" style="cursor: pointer; fill: rgb(0, 0, 0); fill-opacity: 0;"/></g><g class="traces" transform="translate(0, 33.5)" style="opacity: 1;"><g class="layers" style="opacity: 1;"><g class="legendfill"/><g class="legendlines"><path class="js-line" d="M5,0h30" style="fill: none; stroke: rgb(255, 127, 14); stroke-opacity: 1; stroke-width: 2px;"/></g><g class="legendsymbols"><g class="legendpoints"/></g></g><text class="legendtext user-select-none" text-anchor="start" x="40" y="4.680000000000001" style="font-family: 'Open Sans', verdana, arial, sans-serif; font-size: 12px; fill: rgb(68, 68, 68); fill-opacity: 1; white-space: pre;">d Ce</text><rect class="legendtoggle" pointer-events="all" x="0" y="-9.5" width="115" height="19" style="cursor: pointer; fill: rgb(0, 0, 0); fill-opacity: 0;"/></g><g class="traces" transform="translate(0, 52.5)" style="opacity: 1;"><g class="layers" style="opacity: 1;"><g class="legendfill"/><g class="legendlines"><path class="js-line" d="M5,0h30" style="fill: none; stroke: rgb(44, 160, 44); stroke-opacity: 1; stroke-width: 2px;"/></g><g class="legendsymbols"><g class="legendpoints"/></g></g><text class="legendtext user-select-none" text-anchor="start" x="40" y="4.680000000000001" style="font-family: 'Open Sans', verdana, arial, sans-serif; font-size: 12px; fill: rgb(68, 68, 68); fill-opacity: 1; white-space: pre;">f Ce</text><rect class="legendtoggle" pointer-events="all" x="0" y="-9.5" width="115" height="19" style="cursor: pointer; fill: rgb(0, 0, 0); fill-opacity: 0;"/></g><g class="traces" transform="translate(0, 71.5)" style="opacity: 1;"><g class="layers" style="opacity: 1;"><g class="legendfill"/><g class="legendlines"><path class="js-line" d="M5,0h30" style="fill: none; stroke: rgb(214, 39, 40); stroke-opacity: 1; stroke-width: 2px;"/></g><g class="legendsymbols"><g class="legendpoints"/></g></g><text class="legendtext user-select-none" text-anchor="start" x="40" y="4.680000000000001" style="font-family: 'Open Sans', verdana, arial, sans-serif; font-size: 12px; fill: rgb(68, 68, 68); fill-opacity: 1; white-space: pre;">Total</text><rect class="legendtoggle" pointer-events="all" x="0" y="-9.5" width="115" height="19" style="cursor: pointer; fill: rgb(0, 0, 0); fill-opacity: 0;"/></g></g></g><rect class="scrollbar" rx="20" ry="3" width="0" height="0" x="0" y="0" style="fill: rgb(128, 139, 164); fill-opacity: 1;"/></g><g class="g-xtitle"><text class="xtitle" x="552" y="1385" text-anchor="middle" style="font-family: 'Open Sans', verdana, arial, sans-serif; font-size: 14px; fill: rgb(68, 68, 68); opacity: 1; font-weight: normal; white-space: pre;">E-EFERMI (eV)</text></g><g class="g-x2title"/><g class="g-x3title"/><g class="g-x4title"/><g class="g-ytitle"><text class="ytitle" transform="rotate(-90,48,1194.2875000000001)" x="48" y="1194.2875000000001" text-anchor="middle" style="font-family: 'Open Sans', verdana, arial, sans-serif; font-size: 11px; fill: rgb(68, 68, 68); opacity: 1; font-weight: normal; white-space: pre;">p O</text></g><g class="g-y2title"><text class="y2title" transform="rotate(-90,48,886.0375)" x="48" y="886.0375" text-anchor="middle" style="font-family: 'Open Sans', verdana, arial, sans-serif; font-size: 11px; fill: rgb(68, 68, 68); opacity: 1; font-weight: normal; white-space: pre;">d Ce</text></g><g class="g-y3title"><text class="y3title" transform="rotate(-90,48,577.7875)" x="48" y="577.7875" text-anchor="middle" style="font-family: 'Open Sans', verdana, arial, sans-serif; font-size: 11px; fill: rgb(68, 68, 68); opacity: 1; font-weight: normal; white-space: pre;">f Ce</text></g><g class="g-y4title"><text class="y4title" transform="rotate(-90,48,269.5375)" x="48" y="269.5375" text-anchor="middle" style="font-family: 'Open Sans', verdana, arial, sans-serif; font-size: 11px; fill: rgb(68, 68, 68); opacity: 1; font-weight: normal; white-space: pre;">Total</text></g></g></svg>