<svg class="main-svg" xmlns="http://www.w3.org/2000/svg" xmlns:xlink="http://www.w3.org/1999/xlink" width="1130" height="2260" style="" viewBox="0 0 1130 2260"><rect x="0" y="0" width="1130" height="2260" style="fill: rgb(238, 238, 238); fill-opacity: 1;"/><defs id="defs-aa8263"><g class="clips"><clipPath class="plotclip" id="clipaa8263xyplot"><rect width="970" height="208"/></clipPath><clipPath class="plotclip" id="clipaa8263x2y2plot"><rect width="970" height="208"/></clipPath><clipPath class="plotclip" id="clipaa8263x3y3plot"><rect width="970" height="207.99999999999994"/></clipPath><clipPath class="plotclip" id="clipaa8263x4y4plot"><rect width="970" height="207.99999999999994"/></clipPath><clipPath class="plotclip" id="clipaa8263x5y5plot"><rect width="970" height="207.99999999999994"/></clipPath><clipPath class="plotclip" id="clipaa8263x6y6plot"><rect width="970" height="207.99999999999994"/></clipPath><clipPath class="plotclip" id="clipaa8263x7y7plot"><rect width="970" height="207.99999999999994"/></clipPath><clipPath class="plotclip" id="clipaa8263x8y8plot"><rect width="970" height="207.99999999999994"/></clipPath><clipPath class="axesclip" id="clipaa8263x"><rect x="80" y="0" width="970" height="2260"/></clipPath><clipPath class="axesclip" id="clipaa8263y"><rect x="0" y="1972" width="1130" height="208"/></clipPath><clipPath class="axesclip" id="clipaa8263xy"><rect x="80" y="1972" width="970" height="208"/></clipPath><clipPath class="axesclip" id="clipaa8263y2"><rect x="0" y="1712" width="1130" height="208"/></clipPath><clipPath class="axesclip" id="clipaa8263xy2"><rect x="80" y="1712" width="970" height="208"/></clipPath><clipPath class="axesclip" id="clipaa8263y3"><rect x="0" y="1452" width="1130" height="207.99999999999994"/></clipPath><clipPath class="axesclip" id="clipaa8263xy3"><rect x="80" y="1452" width="970" height="207.99999999999994"/></clipPath><clipPath class="axesclip" id="clipaa8263y4"><rect x="0" y="1192" width="1130" height="207.99999999999994"/></clipPath><clipPath class="axesclip" id="clipaa8263xy4"><rect x="80" y="1192" width="970" height="207.99999999999994"/></clipPath><clipPath class="axesclip" id="clipaa8263y5"><rect x="0" y="932" width="1130" height="207.99999999999994"/></clipPath><clipPath class="axesclip" id="clipaa8263xy5"><rect x="80" y="932" width="970" height="207.99999999999994"/></clipPath><clipPath class="axesclip" id="clipaa8263y6"><rect x="0" y="672" width="1130" height="207.99999999999994"/></clipPath><clipPath class="axesclip" id="clipaa8263xy6"><rect x="80" y="672" width="970" height="207.99999999999994"/></clipPath><clipPath class="axesclip" id="clipaa8263y7"><rect x="0" y="412.00000000000006" width="1130" height="207.99999999999994"/></clipPath><clipPath class="axesclip" id="clipaa8263xy7"><rect x="80" y="412.00000000000006" width="970" height="207.99999999999994"/></clipPath><clipPath class="axesclip" id="clipaa8263y8"><rect x="0" y="152.00000000000006" width="1130" height="207.99999999999994"/></clipPath><clipPath class="axesclip" id="clipaa8263xy8"><rect x="80" y="152.00000000000006" width="970" height="207.99999999999994"/></clipPath><clipPath class="axesclip" id="clipaa8263x2"><rect x="80" y="0" width="970" height="2260"/></clipPath><clipPath class="axesclip" id="clipaa8263x2y"><rect x="80" y="1972" width="970" height="208"/></clipPath><clipPath class="axesclip" id="clipaa8263x2y2"><rect x="80" y="1712" width="970" height="208"/></clipPath><clipPath class="axesclip" id="clipaa8263x2y3"><rect x="80" y="1452" width="970" height="207.99999999999994"/></clipPath><clipPath class="axesclip" id="clipaa8263x2y4"><rect x="80" y="1192" width="970" height="207.99999999999994"/></clipPath><clipPath class="axesclip" id="clipaa8263x2y5"><rect x="80" y="932" width="970" height="207.99999999999994"/></clipPath><clipPath class="axesclip" id="clipaa8263x2y6"><rect x="80" y="672" width="970" height="207.99999999999994"/></clipPath><clipPath class="axesclip" id="clipaa8263x2y7"><rect x="80" y="412.00000000000006" width="970" height="207.99999999999994"/></clipPath><clipPath class="axesclip" id="clipaa8263x2y8"><rect x="80" y="152.00000000000006" width="970" height="207.99999999999994"/></clipPath><clipPath class="axesclip" id="clipaa8263x3"><rect x="80" y="0" width="970" height="2260"/></clipPath><clipPath class="axesclip" id="clipaa8263x3y"><rect x="80" y="1972" width="970" height="208"/></clipPath><clipPath class="axesclip" id="clipaa8263x3y2"><rect x="80" y="1712" width="970" height="208"/></clipPath><clipPath class="axesclip" id="clipaa8263x3y3"><rect x="80" y="1452" width="970" height="207.99999999999994"/></clipPath><clipPath class="axesclip" id="clipaa8263x3y4"><rect x="80" y="1192" width="970" height="207.99999999999994"/></clipPath><clipPath class="axesclip" id="clipaa8263x3y5"><rect x="80" y="932" width="970" height="207.99999999999994"/></clipPath><clipPath class="axesclip" id="clipaa8263x3y6"><rect x="80" y="672" width="970" height="207.99999999999994"/></clipPath><clipPath class="axesclip" id="clipaa8263x3y7"><rect x="80" y="412.00000000000006" width="970" height="207.99999999999994"/></clipPath><clipPath class="axesclip" id="clipaa8263x3y8"><rect x="80" y="152.00000000000006" width="970" height="207.99999999999994"/></clipPath><clipPath class="axesclip" id="clipaa8263x4"><rect x="80" y="0" width="970" height="2260"/></clipPath><clipPath class="axesclip" id="clipaa8263x4y"><rect x="80" y="1972" width="970" height="208"/></clipPath><clipPath class="axesclip" id="clipaa8263x4y2"><rect x="80" y="1712" width="970" height="208"/></clipPath><clipPath class="axesclip" id="clipaa8263x4y3"><rect x="80" y="1452" width="970" height="207.99999999999994"/></clipPath><clipPath class="axesclip" id="clipaa8263x4y4"><rect x="80" y="1192" width="970" height="207.99999999999994"/></clipPath><clipPath class="axesclip" id="clipaa8263x4y5"><rect x="80" y="932" width="970" height="207.99999999999994"/></clipPath><clipPath class="axesclip" id="clipaa8263x4y6"><rect x="80" y="672" width="970" height="207.99999999999994"/></clipPath><clipPath class="axesclip" id="clipaa8263x4y7"><rect x="80" y="412.00000000000006" width="970" height="207.99999999999994"/></clipPath><clipPath class="axesclip" id="clipaa8263x4y8"><rect x="80" y="152.00000000000006" width="970" height="207.99999999999994"/></clipPath><clipPath class="axesclip" id="clipaa8263x5"><rect x="80" y="0" width="970" height="2260"/></clipPath><clipPath class="axesclip" id="clipaa8263x5y"><rect x="80" y="1972" width="970" height="208"/></clipPath><clipPath class="axesclip" id="clipaa8263x5y2"><rect x="80" y="1712" width="970" height="208"/></clipPath><clipPath class="axesclip" id="clipaa8263x5y3"><rect x="80" y="1452" width="970" height="207.99999999999994"/></clipPath><clipPath class="axesclip" id="clipaa8263x5y4"><rect x="80" y="1192" width="970" height="207.99999999999994"/></clipPath><clipPath class="axesclip" id="clipaa8263x5y5"><rect x="80" y="932" width="970" height="207.99999999999994"/></clipPath><clipPath class="axesclip" id="clipaa8263x5y6"><rect x="80" y="672" width="970" height="207.99999999999994"/></clipPath><clipPath class="axesclip" id="clipaa8263x5y7"><rect x="80" y="412.00000000000006" width="970" height="207.99999999999994"/></clipPath><clipPath class="axesclip" id="clipaa8263x5y8"><rect x="80" y="152.00000000000006" width="970" height="207.99999999999994"/></clipPath><clipPath class="axesclip" id="clipaa8263x6"><rect x="80" y="0" width="970" height="2260"/></clipPath><clipPath class="axesclip" id="clipaa8263x6y"><rect x="80" y="1972" width="970" height="208"/></clipPath><clipPath class="axesclip" id="clipaa8263x6y2"><rect x="80" y="1712" width="970" height="208"/></clipPath><clipPath class="axesclip" id="clipaa8263x6y3"><rect x="80" y="1452" width="970" height="207.99999999999994"/></clipPath><clipPath class="axesclip" id="clipaa8263x6y4"><rect x="80" y="1192" width="970" height="207.99999999999994"/></clipPath><clipPath class="axesclip" id="clipaa8263x6y5"><rect x="80" y="932" width="970" height="207.99999999999994"/></clipPath><clipPath class="axesclip" id="clipaa8263x6y6"><rect x="80" y="672" width="970" height="207.99999999999994"/></clipPath><clipPath class="axesclip" id="clipaa8263x6y7"><rect x="80" y="412.00000000000006" width="970" height="207.99999999999994"/></clipPath><clipPath class="axesclip" id="clipaa8263x6y8"><rect x="80" y="152.00000000000006" width="970" height="207.99999999999994"/></clipPath><clipPath class="axesclip" id="clipaa8263x7"><rect x="80" y="0" width="970" height="2260"/></clipPath><clipPath class="axesclip" id="clipaa8263x7y"><rect x="80" y="1972" width="970" height="208"/></clipPath><clipPath class="axesclip" id="clipaa8263x7y2"><rect x="80" y="1712" width="970" height="208"/></clipPath><clipPath class="axesclip" id="clipaa8263x7y3"><rect x="80" y="1452" width="970" height="207.99999999999994"/></clipPath><clipPath class="axesclip" id="clipaa8263x7y4"><rect x="80" y="1192" width="970" height="207.99999999999994"/></clipPath><clipPath class="axesclip" id="clipaa8263x7y5"><rect x="80" y="932" width="970" height="207.99999999999994"/></clipPath><clipPath class="axesclip" id="clipaa8263x7y6"><rect x="80" y="672" width="970" height="207.99999999999994"/></clipPath><clipPath class="axesclip" id="clipaa8263x7y7"><rect x="80" y="412.00000000000006" width="970" height="207.99999999999994"/></clipPath><clipPath class="axesclip" id="clipaa8263x7y8"><rect x="80" y="152.00000000000006" width="970" height="207.99999999999994"/></clipPath><clipPath class="axesclip" id="clipaa8263x8"><rect x="80" y="0" width="970" height="2260"/></clipPath><clipPath class="axesclip" id="clipaa8263x8y"><rect x="80" y="1972" width="970" height="208"/></clipPath><clipPath class="axesclip" id="clipaa8263x8y2"><rect x="80" y="1712" width="970" height="208"/></clipPath><clipPath class="axesclip" id="clipaa8263x8y3"><rect x="80" y="1452" width="970" height="207.99999999999994"/></clipPath><clipPath class="axesclip" id="clipaa8263x8y4"><rect x="80" y="1192" width="970" height="207.99999999999994"/></clipPath><clipPath class="axesclip" id="clipaa8263x8y5"><rect x="80" y="932" width="970" height="207.99999999999994"/></clipPath><clipPath class="axesclip" id="clipaa8263x8y6"><rect x="80" y="672" width="970" height="207.99999999999994"/></clipPath><clipPath class="axesclip" id="clipaa8263x8y7"><rect x="80" y="412.00000000000006" width="970" height="207.99999999999994"/></clipPath><clipPath class="axesclip" id="clipaa8263x8y8"><rect x="80" y="152.00000000000006" width="970" height="207.99999999999994"/></clipPath></g><g class="gradients"/></defs><g class="bglayer"><rect class="bg" x="80" y="1972" width="970" height="208" style="fill: rgb(255, 255, 255); fill-opacity: 1; stroke-width: 0;"/><rect class="bg" x="80" y="1712" width="970" height="208" style="fill: rgb(255, 255, 255); fill-opacity: 1; stroke-width: 0;"/><rect class="bg" x="80" y="1452" width="970" height="207.99999999999994" style="fill: rgb(255, 255, 255); fill-opacity: 1; stroke-width: 0;"/><rect class="bg" x="80" y="1192" width="970" height="207.99999999999994" style="fill: rgb(255, 255, 255); fill-opacity: 1; stroke-width: 0;"/><rect class="bg" x="80" y="932" width="970" height="207.99999999999994" style="fill: rgb(255, 255, 255); fill-opacity: 1; stroke-width: 0;"/><rect class="bg" x="80" y="672" width="970" height="207.99999999999994" style="fill: rgb(255, 255, 255); fill-opacity: 1; stroke-width: 0;"/><rect class="bg" x="80" y="412.00000000000006" width="970" height="207.99999999999994" style="fill: rgb(255, 255, 255); fill-opacity: 1; stroke-width: 0;"/><rect class="bg" x="80" y="152.00000000000006" width="970" height="207.99999999999994" style="fill: rgb(255, 255, 255); fill-opacity: 1; stroke-width: 0;"/></g><g class="layer-below"><g class="imagelayer"/><g class="shapelayer"/></g><g class="cartesianlayer"><g class="subplot xy"><g class="layer-subplot"><g class="shapelayer"/><g class="imagelayer"/></g><g class="gridlayer"><g class="x"><path class="xgrid crisp" d="M0,1972v208" transform="translate(189.69,0)" style="stroke: rgb(238, 238, 238); stroke-opacity: 1; stroke-width: 1px;"/><path class="xgrid crisp" d="M0,1972v208" transform="translate(340.43,0)" style="stroke: rgb(238, 238, 238); stroke-opacity: 1; stroke-width: 1px;"/><path class="xgrid crisp" d="M0,1972v208" transform="translate(491.17,0)" style="stroke: rgb(238, 238, 238); stroke-opacity: 1; stroke-width: 1px;"/><path class="xgrid crisp" d="M0,1972v208" transform="translate(641.91,0)" style="stroke: rgb(238, 238, 238); stroke-opacity: 1; stroke-width: 1px;"/><path class="xgrid crisp" d="M0,1972v208" transform="translate(792.65,0)" style="stroke: rgb(238, 238, 238); stroke-opacity: 1; stroke-width: 1px;"/><path class="xgrid crisp" d="M0,1972v208" transform="translate(943.38,0)" style="stroke: rgb(238, 238, 238); stroke-opacity: 1; stroke-width: 1px;"/></g><g class="y"><path class="ygrid crisp" d="M80,0h970" transform="translate(0,2143.24)" style="stroke: rgb(238, 238, 238); stroke-opacity: 1; stroke-width: 1px;"/><path class="ygrid crisp" d="M80,0h970" transform="translate(0,2106.49)" style="stroke: rgb(238, 238, 238); stroke-opacity: 1; stroke-width: 1px;"/><path class="ygrid crisp" d="M80,0h970" transform="translate(0,2069.73)" style="stroke: rgb(238, 238, 238); stroke-opacity: 1; stroke-width: 1px;"/><path class="ygrid crisp" d="M80,0h970" transform="translate(0,2032.98)" style="stroke: rgb(238, 238, 238); stroke-opacity: 1; stroke-width: 1px;"/><path class="ygrid crisp" d="M80,0h970" transform="translate(0,1996.22)" style="stroke: rgb(238, 238, 238); stroke-opacity: 1; stroke-width: 1px;"/></g></g><g class="zerolinelayer"/><path class="xlines-below"/><path class="ylines-below"/><g class="overlines-below"/><g class="xaxislayer-below"/><g class="yaxislayer-below"/><g class="overaxes-below"/><g class="plot" transform="translate(80, 1972)" clip-path="url(#clipaa8263xyplot)"><g class="imagelayer"/><g class="maplayer"/><g class="barlayer"/><g class="carpetlayer"/><g class="violinlayer"/><g class="boxlayer"/><g class="scatterlayer"><g class="trace scatter trace9c3d8c" style="stroke-miterlimit: 2;"><path class="js-fill js-tozero" d="M970,208L0,208L0,208L14.48,208.57L19.31,205.36L24.13,203.51L28.96,204.65L33.78,201.64L38.61,201.7L43.43,196.87L48.26,197.8L53.09,200.78L57.91,204.7L62.74,207.75L67.56,208.65L77.22,208L82.04,208L188.21,208L193.03,212.83L197.86,205.92L202.69,177.93L207.51,138.25L212.34,126.53L217.17,182.02L221.99,158.47L226.82,172.77L231.64,180.77L236.47,202.29L241.29,197.9L246.12,206.57L250.95,197.32L255.77,194.97L260.6,208L318.51,208L323.34,205.72L328.16,197.08L332.99,197.73L337.81,204.54L342.64,208L376.42,208.09L381.25,194.25L386.07,180.9L390.9,201.58L395.72,206.31L400.55,206.28L405.38,205.1L410.2,207.16L419.85,208.52L424.68,207.28L429.5,207.09L434.33,205.52L448.81,203.99L453.63,202.66L458.46,203.68L463.29,207.47L468.11,207.59L472.94,206.39L477.76,208.6L482.59,207.96L487.42,208L492.24,198.49L497.07,174.58L501.89,186.5L506.72,195.27L511.54,192.89L516.37,193.45L521.19,196.12L530.85,198.41L535.67,201.6L540.5,203.08L545.33,200.4L550.15,198.07L554.98,183.13L559.8,193.51L564.63,69.74L569.45,98.24L574.28,10.4L579.11,226.77L583.93,117.45L588.76,158.09L593.58,148.28L598.41,107.11L603.23,186.01L608.06,200.46L612.89,205.62L617.71,139.13L622.54,108L627.37,150.77L632.19,164.02L637.02,168.32L641.84,164.77L646.67,150.18L651.49,157.34L661.14,198.48L665.97,205.7L670.82,146.28L675.61,235.74L680.45,148.42L685.29,161.61L694.93,198.36L699.73,225.31L704.57,192.34L709.41,204.79L714.21,188.41L719.05,219.39L723.89,163.46L728.69,184.47L733.53,163.83L738.37,187.97L743.17,215.13L748.01,198.54L752.85,214.49L757.65,220.28L762.49,207.96L767.33,207.14L772.13,205.14L776.97,186.39L781.81,199.89L786.61,187.23L791.45,194.49L796.29,174.5L801.09,203.34L805.93,194.86L810.73,178.1L815.57,198.37L820.41,201.7L825.21,212.85L830.05,191.69L834.89,189.63L839.69,200.39L844.53,192.35L849.37,200.71L854.17,203.82L859.01,205.37L863.85,198.07L868.64,201.15L873.48,205.98L878.32,206.37L883.12,205.89L887.96,204.97L892.8,205.99L897.6,206.49L902.44,208.18L907.28,207.3L912.08,208.01L926.56,207.68L931.4,205.31L936.2,208.34L941.04,197.31L945.88,202.86L950.68,198.86L955.52,211.19L960.36,197.58L965.16,208L970,208" style="fill: rgb(31, 119, 180); fill-opacity: 0.5; stroke-width: 0;"/><path class="js-line" d="M0,208L14.48,208.57L19.31,205.36L24.13,203.51L28.96,204.65L33.78,201.64L38.61,201.7L43.43,196.87L48.26,197.8L53.09,200.78L57.91,204.7L62.74,207.75L67.56,208.65L77.22,208L82.04,208L188.21,208L193.03,212.83L197.86,205.92L202.69,177.93L207.51,138.25L212.34,126.53L217.17,182.02L221.99,158.47L226.82,172.77L231.64,180.77L236.47,202.29L241.29,197.9L246.12,206.57L250.95,197.32L255.77,194.97L260.6,208L318.51,208L323.34,205.72L328.16,197.08L332.99,197.73L337.81,204.54L342.64,208L376.42,208.09L381.25,194.25L386.07,180.9L390.9,201.58L395.72,206.31L400.55,206.28L405.38,205.1L410.2,207.16L419.85,208.52L424.68,207.28L429.5,207.09L434.33,205.52L448.81,203.99L453.63,202.66L458.46,203.68L463.29,207.47L468.11,207.59L472.94,206.39L477.76,208.6L482.59,207.96L487.42,208L492.24,198.49L497.07,174.58L501.89,186.5L506.72,195.27L511.54,192.89L516.37,193.45L521.19,196.12L530.85,198.41L535.67,201.6L540.5,203.08L545.33,200.4L550.15,198.07L554.98,183.13L559.8,193.51L564.63,69.74L569.45,98.24L574.28,10.4L579.11,226.77L583.93,117.45L588.76,158.09L593.58,148.28L598.41,107.11L603.23,186.01L608.06,200.46L612.89,205.62L617.71,139.13L622.54,108L627.37,150.77L632.19,164.02L637.02,168.32L641.84,164.77L646.67,150.18L651.49,157.34L661.14,198.48L665.97,205.7L670.82,146.28L675.61,235.74L680.45,148.42L685.29,161.61L694.93,198.36L699.73,225.31L704.57,192.34L709.41,204.79L714.21,188.41L719.05,219.39L723.89,163.46L728.69,184.47L733.53,163.83L738.37,187.97L743.17,215.13L748.01,198.54L752.85,214.49L757.65,220.28L762.49,207.96L767.33,207.14L772.13,205.14L776.97,186.39L781.81,199.89L786.61,187.23L791.45,194.49L796.29,174.5L801.09,203.34L805.93,194.86L810.73,178.1L815.57,198.37L820.41,201.7L825.21,212.85L830.05,191.69L834.89,189.63L839.69,200.39L844.53,192.35L849.37,200.71L854.17,203.82L859.01,205.37L863.85,198.07L868.64,201.15L873.48,205.98L878.32,206.37L883.12,205.89L887.96,204.97L892.8,205.99L897.6,206.49L902.44,208.18L907.28,207.3L912.08,208.01L926.56,207.68L931.4,205.31L936.2,208.34L941.04,197.31L945.88,202.86L950.68,198.86L955.52,211.19L960.36,197.58L965.16,208L970,208" style="vector-effect: non-scaling-stroke; fill: none; stroke: rgb(31, 119, 180); stroke-opacity: 1; stroke-width: 2px; opacity: 1;"/><g class="points"/></g></g></g><g class="overplot"/><path class="xlines-above crisp" d="M79,2180.5H1051M79,1971.5H1051" style="fill: none; stroke-width: 1px; stroke: rgb(68, 68, 68); stroke-opacity: 1;"/><path class="ylines-above crisp" d="M79.5,1972V2180M1050.5,1972V2180" style="fill: none; stroke-width: 1px; stroke: rgb(68, 68, 68); stroke-opacity: 1;"/><g class="overlines-above"/><g class="xaxislayer-above"><g class="xtick"><text text-anchor="middle" x="0" y="2195.4" transform="translate(189.69,0)" style="font-family: 'Open Sans', verdana, arial, sans-serif; font-size: 12px; fill: rgb(68, 68, 68); fill-opacity: 1; white-space: pre;">−10</text></g><g class="xtick"><text text-anchor="middle" x="0" y="2195.4" transform="translate(340.43,0)" style="font-family: 'Open Sans', verdana, arial, sans-serif; font-size: 12px; fill: rgb(68, 68, 68); fill-opacity: 1; white-space: pre;">0</text></g><g class="xtick"><text text-anchor="middle" x="0" y="2195.4" transform="translate(491.17,0)" style="font-family: 'Open Sans', verdana, arial, sans-serif; font-size: 12px; fill: rgb(68, 68, 68); fill-opacity: 1; white-space: pre;">10</text></g><g class="xtick"><text text-anchor="middle" x="0" y="2195.4" transform="translate(641.91,0)" style="font-family: 'Open Sans', verdana, arial, sans-serif; font-size: 12px; fill: rgb(68, 68, 68); fill-opacity: 1; white-space: pre;">20</text></g><g class="xtick"><text text-anchor="middle" x="0" y="2195.4" transform="translate(792.65,0)" style="font-family: 'Open Sans', verdana, arial, sans-serif; font-size: 12px; fill: rgb(68, 68, 68); fill-opacity: 1; white-space: pre;">30</text></g><g class="xtick"><text text-anchor="middle" x="0" y="2195.4" transform="translate(943.38,0)" style="font-family: 'Open Sans', verdana, arial, sans-serif; font-size: 12px; fill: rgb(68, 68, 68); fill-opacity: 1; white-space: pre;">40</text></g></g><g class="yaxislayer-above"><g class="ytick"><text text-anchor="end" x="76.6" y="4.199999999999999" transform="translate(0,2180)" style="font-family: 'Open Sans', verdana, arial, sans-serif; font-size: 12px; fill: rgb(68, 68, 68); fill-opacity: 1; white-space: pre;">0</text></g><g class="ytick"><text text-anchor="end" x="76.6" y="4.199999999999999" transform="translate(0,2143.24)" style="font-family: 'Open Sans', verdana, arial, sans-serif; font-size: 12px; fill: rgb(68, 68, 68); fill-opacity: 1; white-space: pre;">0.02</text></g><g class="ytick"><text text-anchor="end" x="76.6" y="4.199999999999999" transform="translate(0,2106.49)" style="font-family: 'Open Sans', verdana, arial, sans-serif; font-size: 12px; fill: rgb(68, 68, 68); fill-opacity: 1; white-space: pre;">0.04</text></g><g class="ytick"><text text-anchor="end" x="76.6" y="4.199999999999999" transform="translate(0,2069.73)" style="font-family: 'Open Sans', verdana, arial, sans-serif; font-size: 12px; fill: rgb(68, 68, 68); fill-opacity: 1; white-space: pre;">0.06</text></g><g class="ytick"><text text-anchor="end" x="76.6" y="4.199999999999999" transform="translate(0,2032.98)" style="font-family: 'Open Sans', verdana, arial, sans-serif; font-size: 12px; fill: rgb(68, 68, 68); fill-opacity: 1; white-space: pre;">0.08</text></g><g class="ytick"><text text-anchor="end" x="76.6" y="4.199999999999999" transform="translate(0,1996.22)" style="font-family: 'Open Sans', verdana, arial, sans-serif; font-size: 12px; fill: rgb(68, 68, 68); fill-opacity: 1; white-space: pre;">0.1</text></g></g><g class="overaxes-above"/></g><g class="subplot x2y2"><g class="layer-subplot"><g class="shapelayer"/><g class="imagelayer"/></g><g class="gridlayer"><g class="x2"><path class="x2grid crisp" d="M0,1712v208" transform="translate(189.69,0)" style="stroke: rgb(238, 238, 238); stroke-opacity: 1; stroke-width: 1px;"/><path class="x2grid crisp" d="M0,1712v208" transform="translate(340.43,0)" style="stroke: rgb(238, 238, 238); stroke-opacity: 1; stroke-width: 1px;"/><path class="x2grid crisp" d="M0,1712v208" transform="translate(491.17,0)" style="stroke: rgb(238, 238, 238); stroke-opacity: 1; stroke-width: 1px;"/><path class="x2grid crisp" d="M0,1712v208" transform="translate(641.91,0)" style="stroke: rgb(238, 238, 238); stroke-opacity: 1; stroke-width: 1px;"/><path class="x2grid crisp" d="M0,1712v208" transform="translate(792.65,0)" style="stroke: rgb(238, 238, 238); stroke-opacity: 1; stroke-width: 1px;"/><path class="x2grid crisp" d="M0,1712v208" transform="translate(943.38,0)" style="stroke: rgb(238, 238, 238); stroke-opacity: 1; stroke-width: 1px;"/></g><g class="y2"><path class="y2grid crisp" d="M80,0h970" transform="translate(0,1854.31)" style="stroke: rgb(238, 238, 238); stroke-opacity: 1; stroke-width: 1px;"/><path class="y2grid crisp" d="M80,0h970" transform="translate(0,1788.63)" style="stroke: rgb(238, 238, 238); stroke-opacity: 1; stroke-width: 1px;"/><path class="y2grid crisp" d="M80,0h970" transform="translate(0,1722.94)" style="stroke: rgb(238, 238, 238); stroke-opacity: 1; stroke-width: 1px;"/></g></g><g class="zerolinelayer"/><path class="xlines-below"/><path class="ylines-below"/><g class="overlines-below"/><g class="xaxislayer-below"/><g class="yaxislayer-below"/><g class="overaxes-below"/><g class="plot" transform="translate(80, 1712)" clip-path="url(#clipaa8263x2y2plot)"><g class="imagelayer"/><g class="maplayer"/><g class="barlayer"/><g class="carpetlayer"/><g class="violinlayer"/><g class="boxlayer"/><g class="scatterlayer"><g class="trace scatter trace0e8191" style="stroke-miterlimit: 2;"><path class="js-fill js-tozero" d="M970,208L0,208L0,208L4.83,208L9.65,206.75L14.48,207.51L19.31,207.11L28.96,207.51L33.78,206.78L38.61,207.9L43.43,206.88L53.09,206.21L57.91,207.42L72.39,208L77.22,208L188.21,208L193.03,205.01L202.69,193.86L207.51,168.78L212.34,161.43L217.17,190.61L221.99,176.15L226.82,191.57L231.64,181.55L236.47,195.59L241.29,165.58L246.12,156.33L250.95,177.68L255.77,164.42L260.6,208L265.42,208L318.51,208L323.34,49.93L328.16,12.3L332.99,107.81L337.81,179.57L342.64,208L376.42,208.01L381.25,204.33L386.07,191.49L390.9,200.74L395.72,205.51L400.55,205.91L410.2,207.77L415.03,208L424.68,207.03L429.5,206.18L434.33,205.12L439.15,206.03L443.98,203.84L448.81,204.2L458.46,198.05L463.29,198.56L468.11,202.11L472.94,203.51L477.76,206.36L482.59,208.2L487.42,208L492.24,206.46L497.07,204.43L501.89,205.36L506.72,206.36L511.54,206.31L526.02,206.78L530.85,206.43L545.33,207.36L550.15,206.73L554.98,205.33L559.8,206.64L564.63,203.16L569.45,201.08L574.28,197.3L579.11,203.5L583.93,202.59L588.76,203.24L598.41,201.02L603.23,204.58L608.06,203.11L612.89,205.35L617.71,200.54L622.54,203.73L627.37,204.36L632.19,204.01L637.02,205.02L641.84,204.68L651.49,204.55L656.32,205.38L665.97,206.79L670.82,205.38L675.61,206.94L680.45,206.44L685.29,205.66L690.09,206.87L699.73,207.26L704.57,206.46L714.21,201.56L719.05,203.41L723.89,202.63L728.69,203.88L733.53,203.53L738.37,205.92L743.17,207.31L748.01,206.51L752.85,208.27L757.65,200.15L767.33,206.01L772.13,201.7L776.97,203.17L781.81,198.83L786.61,202.71L791.45,199.15L796.29,200.35L801.09,202.82L805.93,208.32L810.73,202.24L815.57,204.75L820.41,197.66L825.21,192.95L830.05,197.32L834.89,179.01L839.69,185.77L849.37,189.18L854.17,191.67L859.01,196.76L863.85,196.55L873.48,195.12L878.32,203.57L883.12,202.84L887.96,190.24L892.8,191.32L897.6,197.6L902.44,191.2L907.28,193.74L912.08,206.6L916.92,204.59L926.56,204.47L931.4,200.95L936.2,202.42L941.04,197.7L945.88,204.82L950.68,202.28L955.52,209.74L960.36,204.26L965.16,208L970,208" style="fill: rgb(255, 127, 14); fill-opacity: 0.5; stroke-width: 0;"/><path class="js-line" d="M0,208L4.83,208L9.65,206.75L14.48,207.51L19.31,207.11L28.96,207.51L33.78,206.78L38.61,207.9L43.43,206.88L53.09,206.21L57.91,207.42L72.39,208L77.22,208L188.21,208L193.03,205.01L202.69,193.86L207.51,168.78L212.34,161.43L217.17,190.61L221.99,176.15L226.82,191.57L231.64,181.55L236.47,195.59L241.29,165.58L246.12,156.33L250.95,177.68L255.77,164.42L260.6,208L265.42,208L318.51,208L323.34,49.93L328.16,12.3L332.99,107.81L337.81,179.57L342.64,208L376.42,208.01L381.25,204.33L386.07,191.49L390.9,200.74L395.72,205.51L400.55,205.91L410.2,207.77L415.03,208L424.68,207.03L429.5,206.18L434.33,205.12L439.15,206.03L443.98,203.84L448.81,204.2L458.46,198.05L463.29,198.56L468.11,202.11L472.94,203.51L477.76,206.36L482.59,208.2L487.42,208L492.24,206.46L497.07,204.43L501.89,205.36L506.72,206.36L511.54,206.31L526.02,206.78L530.85,206.43L545.33,207.36L550.15,206.73L554.98,205.33L559.8,206.64L564.63,203.16L569.45,201.08L574.28,197.3L579.11,203.5L583.93,202.59L588.76,203.24L598.41,201.02L603.23,204.58L608.06,203.11L612.89,205.35L617.71,200.54L622.54,203.73L627.37,204.36L632.19,204.01L637.02,205.02L641.84,204.68L651.49,204.55L656.32,205.38L665.97,206.79L670.82,205.38L675.61,206.94L680.45,206.44L685.29,205.66L690.09,206.87L699.73,207.26L704.57,206.46L714.21,201.56L719.05,203.41L723.89,202.63L728.69,203.88L733.53,203.53L738.37,205.92L743.17,207.31L748.01,206.51L752.85,208.27L757.65,200.15L767.33,206.01L772.13,201.7L776.97,203.17L781.81,198.83L786.61,202.71L791.45,199.15L796.29,200.35L801.09,202.82L805.93,208.32L810.73,202.24L815.57,204.75L820.41,197.66L825.21,192.95L830.05,197.32L834.89,179.01L839.69,185.77L849.37,189.18L854.17,191.67L859.01,196.76L863.85,196.55L873.48,195.12L878.32,203.57L883.12,202.84L887.96,190.24L892.8,191.32L897.6,197.6L902.44,191.2L907.28,193.74L912.08,206.6L916.92,204.59L926.56,204.47L931.4,200.95L936.2,202.42L941.04,197.7L945.88,204.82L950.68,202.28L955.52,209.74L960.36,204.26L965.16,208L970,208" style="vector-effect: non-scaling-stroke; fill: none; stroke: rgb(255, 127, 14); stroke-opacity: 1; stroke-width: 2px; opacity: 1;"/><g class="points"/></g></g></g><g class="overplot"/><path class="xlines-above crisp" d="M79,1920.5H1051M79,1711.5H1051" style="fill: none; stroke-width: 1px; stroke: rgb(68, 68, 68); stroke-opacity: 1;"/><path class="ylines-above crisp" d="M79.5,1712V1920M1050.5,1712V1920" style="fill: none; stroke-width: 1px; stroke: rgb(68, 68, 68); stroke-opacity: 1;"/><g class="overlines-above"/><g class="xaxislayer-above"><g class="x2tick"><text text-anchor="middle" x="0" y="1935.4" transform="translate(189.69,0)" style="font-family: 'Open Sans', verdana, arial, sans-serif; font-size: 12px; fill: rgb(68, 68, 68); fill-opacity: 1; white-space: pre;">−10</text></g><g class="x2tick"><text text-anchor="middle" x="0" y="1935.4" transform="translate(340.43,0)" style="font-family: 'Open Sans', verdana, arial, sans-serif; font-size: 12px; fill: rgb(68, 68, 68); fill-opacity: 1; white-space: pre;">0</text></g><g class="x2tick"><text text-anchor="middle" x="0" y="1935.4" transform="translate(491.17,0)" style="font-family: 'Open Sans', verdana, arial, sans-serif; font-size: 12px; fill: rgb(68, 68, 68); fill-opacity: 1; white-space: pre;">10</text></g><g class="x2tick"><text text-anchor="middle" x="0" y="1935.4" transform="translate(641.91,0)" style="font-family: 'Open Sans', verdana, arial, sans-serif; font-size: 12px; fill: rgb(68, 68, 68); fill-opacity: 1; white-space: pre;">20</text></g><g class="x2tick"><text text-anchor="middle" x="0" y="1935.4" transform="translate(792.65,0)" style="font-family: 'Open Sans', verdana, arial, sans-serif; font-size: 12px; fill: rgb(68, 68, 68); fill-opacity: 1; white-space: pre;">30</text></g><g class="x2tick"><text text-anchor="middle" x="0" y="1935.4" transform="translate(943.38,0)" style="font-family: 'Open Sans', verdana, arial, sans-serif; font-size: 12px; fill: rgb(68, 68, 68); fill-opacity: 1; white-space: pre;">40</text></g></g><g class="yaxislayer-above"><g class="y2tick"><text text-anchor="end" x="76.6" y="4.199999999999999" transform="translate(0,1920)" style="font-family: 'Open Sans', verdana, arial, sans-serif; font-size: 12px; fill: rgb(68, 68, 68); fill-opacity: 1; white-space: pre;">0</text></g><g class="y2tick"><text text-anchor="end" x="76.6" y="4.199999999999999" transform="translate(0,1854.31)" style="font-family: 'Open Sans', verdana, arial, sans-serif; font-size: 12px; fill: rgb(68, 68, 68); fill-opacity: 1; white-space: pre;">10</text></g><g class="y2tick"><text text-anchor="end" x="76.6" y="4.199999999999999" transform="translate(0,1788.63)" style="font-family: 'Open Sans', verdana, arial, sans-serif; font-size: 12px; fill: rgb(68, 68, 68); fill-opacity: 1; white-space: pre;">20</text></g><g class="y2tick"><text text-anchor="end" x="76.6" y="4.199999999999999" transform="translate(0,1722.94)" style="font-family: 'Open Sans', verdana, arial, sans-serif; font-size: 12px; fill: rgb(68, 68, 68); fill-opacity: 1; white-space: pre;">30</text></g></g><g class="overaxes-above"/></g><g class="subplot x3y3"><g class="layer-subplot"><g class="shapelayer"/><g class="imagelayer"/></g><g class="gridlayer"><g class="x3"><path class="x3grid crisp" d="M0,1452v207.99999999999994" transform="translate(189.69,0)" style="stroke: rgb(238, 238, 238); stroke-opacity: 1; stroke-width: 1px;"/><path class="x3grid crisp" d="M0,1452v207.99999999999994" transform="translate(340.43,0)" style="stroke: rgb(238, 238, 238); stroke-opacity: 1; stroke-width: 1px;"/><path class="x3grid crisp" d="M0,1452v207.99999999999994" transform="translate(491.17,0)" style="stroke: rgb(238, 238, 238); stroke-opacity: 1; stroke-width: 1px;"/><path class="x3grid crisp" d="M0,1452v207.99999999999994" transform="translate(641.91,0)" style="stroke: rgb(238, 238, 238); stroke-opacity: 1; stroke-width: 1px;"/><path class="x3grid crisp" d="M0,1452v207.99999999999994" transform="translate(792.65,0)" style="stroke: rgb(238, 238, 238); stroke-opacity: 1; stroke-width: 1px;"/><path class="x3grid crisp" d="M0,1452v207.99999999999994" transform="translate(943.38,0)" style="stroke: rgb(238, 238, 238); stroke-opacity: 1; stroke-width: 1px;"/></g><g class="y3"><path class="y3grid crisp" d="M80,0h970" transform="translate(0,1620.51)" style="stroke: rgb(238, 238, 238); stroke-opacity: 1; stroke-width: 1px;"/><path class="y3grid crisp" d="M80,0h970" transform="translate(0,1581.03)" style="stroke: rgb(238, 238, 238); stroke-opacity: 1; stroke-width: 1px;"/><path class="y3grid crisp" d="M80,0h970" transform="translate(0,1541.54)" style="stroke: rgb(238, 238, 238); stroke-opacity: 1; stroke-width: 1px;"/><path class="y3grid crisp" d="M80,0h970" transform="translate(0,1502.06)" style="stroke: rgb(238, 238, 238); stroke-opacity: 1; stroke-width: 1px;"/><path class="y3grid crisp" d="M80,0h970" transform="translate(0,1462.57)" style="stroke: rgb(238, 238, 238); stroke-opacity: 1; stroke-width: 1px;"/></g></g><g class="zerolinelayer"/><path class="xlines-below"/><path class="ylines-below"/><g class="overlines-below"/><g class="xaxislayer-below"/><g class="yaxislayer-below"/><g class="overaxes-below"/><g class="plot" transform="translate(80, 1452)" clip-path="url(#clipaa8263x3y3plot)"><g class="imagelayer"/><g class="maplayer"/><g class="barlayer"/><g class="carpetlayer"/><g class="violinlayer"/><g class="boxlayer"/><g class="scatterlayer"><g class="trace scatter trace41e79c" style="stroke-miterlimit: 2;"><path class="js-fill js-tozero" d="M970,208L0,208L0,208L14.48,208.58L19.31,205.34L24.13,203.27L28.96,204.44L33.78,201.46L38.61,201.56L43.43,196.85L48.26,197.96L62.74,207.78L67.56,208.61L77.22,208L82.04,208L188.21,208L193.03,212.31L197.86,206.26L202.69,180.85L207.51,146.46L212.34,137L217.17,185.45L221.99,165.46L226.82,178.16L231.64,185.24L236.47,203.29L241.29,199.87L246.12,206.82L250.95,199.17L255.77,197.08L260.6,208L318.51,208L323.34,205.54L328.16,195.17L332.99,195.72L337.81,203.88L342.64,208L376.42,208.08L381.25,196.33L386.07,184.12L390.9,201.33L395.72,206.52L400.55,206.52L405.38,205.36L410.2,207.22L419.85,208.38L424.68,207.45L429.5,207.31L434.33,206.4L448.81,205.37L453.63,204.36L458.46,204.99L463.29,207.64L468.11,207.68L472.94,206.7L477.76,208.42L482.59,207.91L487.42,208L492.24,199.13L497.07,182.4L501.89,190.89L506.72,197.31L511.54,196.07L516.37,196.57L521.19,198.25L530.85,200L535.67,202.56L540.5,203.6L545.33,201.24L550.15,199.1L554.98,183.06L559.8,193.1L564.63,71.76L569.45,102.23L574.28,10.4L579.11,227.87L583.93,120.45L588.76,156.51L593.58,147.2L598.41,101.07L603.23,187.82L608.06,199.67L612.89,198L617.71,130.74L622.54,86.72L627.37,133.69L632.19,157.35L641.84,148.34L646.67,128.97L651.49,138.93L656.32,167.79L661.14,194.59L665.97,205.15L670.82,128L675.61,242.61L680.45,127.21L685.29,143.02L694.93,196.13L699.73,230.63L704.57,188.1L709.41,203.43L714.21,180.86L719.05,223.48L723.89,147.53L728.69,173.5L733.53,143.44L738.37,178.39L743.17,218.68L748.01,193.49L752.85,218.13L757.65,227.02L762.49,207.87L767.33,206.71L772.13,203.54L776.97,178.66L781.81,196.54L786.61,178.21L791.45,186.66L796.29,159.94L801.09,201.18L805.93,189.39L810.73,165.75L815.57,195.03L820.41,199.11L825.21,214.86L830.05,185.25L834.89,181.83L839.69,196.61L844.53,185.56L849.37,198.15L854.17,202.43L859.01,204.85L863.85,194.94L868.64,198.61L873.48,205.17L878.32,206.14L883.12,204.94L887.96,203.85L892.8,206.11L897.6,206.32L902.44,208.09L907.28,207.3L912.08,208.01L926.56,207.63L931.4,204.12L936.2,208.39L941.04,192.39L945.88,200.03L950.68,195.16L955.52,212.58L960.36,192.52L965.16,208L970,208" style="fill: rgb(44, 160, 44); fill-opacity: 0.5; stroke-width: 0;"/><path class="js-line" d="M0,208L14.48,208.58L19.31,205.34L24.13,203.27L28.96,204.44L33.78,201.46L38.61,201.56L43.43,196.85L48.26,197.96L62.74,207.78L67.56,208.61L77.22,208L82.04,208L188.21,208L193.03,212.31L197.86,206.26L202.69,180.85L207.51,146.46L212.34,137L217.17,185.45L221.99,165.46L226.82,178.16L231.64,185.24L236.47,203.29L241.29,199.87L246.12,206.82L250.95,199.17L255.77,197.08L260.6,208L318.51,208L323.34,205.54L328.16,195.17L332.99,195.72L337.81,203.88L342.64,208L376.42,208.08L381.25,196.33L386.07,184.12L390.9,201.33L395.72,206.52L400.55,206.52L405.38,205.36L410.2,207.22L419.85,208.38L424.68,207.45L429.5,207.31L434.33,206.4L448.81,205.37L453.63,204.36L458.46,204.99L463.29,207.64L468.11,207.68L472.94,206.7L477.76,208.42L482.59,207.91L487.42,208L492.24,199.13L497.07,182.4L501.89,190.89L506.72,197.31L511.54,196.07L516.37,196.57L521.19,198.25L530.85,200L535.67,202.56L540.5,203.6L545.33,201.24L550.15,199.1L554.98,183.06L559.8,193.1L564.63,71.76L569.45,102.23L574.28,10.4L579.11,227.87L583.93,120.45L588.76,156.51L593.58,147.2L598.41,101.07L603.23,187.82L608.06,199.67L612.89,198L617.71,130.74L622.54,86.72L627.37,133.69L632.19,157.35L641.84,148.34L646.67,128.97L651.49,138.93L656.32,167.79L661.14,194.59L665.97,205.15L670.82,128L675.61,242.61L680.45,127.21L685.29,143.02L694.93,196.13L699.73,230.63L704.57,188.1L709.41,203.43L714.21,180.86L719.05,223.48L723.89,147.53L728.69,173.5L733.53,143.44L738.37,178.39L743.17,218.68L748.01,193.49L752.85,218.13L757.65,227.02L762.49,207.87L767.33,206.71L772.13,203.54L776.97,178.66L781.81,196.54L786.61,178.21L791.45,186.66L796.29,159.94L801.09,201.18L805.93,189.39L810.73,165.75L815.57,195.03L820.41,199.11L825.21,214.86L830.05,185.25L834.89,181.83L839.69,196.61L844.53,185.56L849.37,198.15L854.17,202.43L859.01,204.85L863.85,194.94L868.64,198.61L873.48,205.17L878.32,206.14L883.12,204.94L887.96,203.85L892.8,206.11L897.6,206.32L902.44,208.09L907.28,207.3L912.08,208.01L926.56,207.63L931.4,204.12L936.2,208.39L941.04,192.39L945.88,200.03L950.68,195.16L955.52,212.58L960.36,192.52L965.16,208L970,208" style="vector-effect: non-scaling-stroke; fill: none; stroke: rgb(44, 160, 44); stroke-opacity: 1; stroke-width: 2px; opacity: 1;"/><g class="points"/></g></g></g><g class="overplot"/><path class="xlines-above crisp" d="M79,1660.5H1051M79,1451.5H1051" style="fill: none; stroke-width: 1px; stroke: rgb(68, 68, 68); stroke-opacity: 1;"/><path class="ylines-above crisp" d="M79.5,1452V1660M1050.5,1452V1660" style="fill: none; stroke-width: 1px; stroke: rgb(68, 68, 68); stroke-opacity: 1;"/><g class="overlines-above"/><g class="xaxislayer-above"><g class="x3tick"><text text-anchor="middle" x="0" y="1675.4" transform="translate(189.69,0)" style="font-family: 'Open Sans', verdana, arial, sans-serif; font-size: 12px; fill: rgb(68, 68, 68); fill-opacity: 1; white-space: pre;">−10</text></g><g class="x3tick"><text text-anchor="middle" x="0" y="1675.4" transform="translate(340.43,0)" style="font-family: 'Open Sans', verdana, arial, sans-serif; font-size: 12px; fill: rgb(68, 68, 68); fill-opacity: 1; white-space: pre;">0</text></g><g class="x3tick"><text text-anchor="middle" x="0" y="1675.4" transform="translate(491.17,0)" style="font-family: 'Open Sans', verdana, arial, sans-serif; font-size: 12px; fill: rgb(68, 68, 68); fill-opacity: 1; white-space: pre;">10</text></g><g class="x3tick"><text text-anchor="middle" x="0" y="1675.4" transform="translate(641.91,0)" style="font-family: 'Open Sans', verdana, arial, sans-serif; font-size: 12px; fill: rgb(68, 68, 68); fill-opacity: 1; white-space: pre;">20</text></g><g class="x3tick"><text text-anchor="middle" x="0" y="1675.4" transform="translate(792.65,0)" style="font-family: 'Open Sans', verdana, arial, sans-serif; font-size: 12px; fill: rgb(68, 68, 68); fill-opacity: 1; white-space: pre;">30</text></g><g class="x3tick"><text text-anchor="middle" x="0" y="1675.4" transform="translate(943.38,0)" style="font-family: 'Open Sans', verdana, arial, sans-serif; font-size: 12px; fill: rgb(68, 68, 68); fill-opacity: 1; white-space: pre;">40</text></g></g><g class="yaxislayer-above"><g class="y3tick"><text text-anchor="end" x="76.6" y="4.199999999999999" transform="translate(0,1660)" style="font-family: 'Open Sans', verdana, arial, sans-serif; font-size: 12px; fill: rgb(68, 68, 68); fill-opacity: 1; white-space: pre;">0</text></g><g class="y3tick"><text text-anchor="end" x="76.6" y="4.199999999999999" transform="translate(0,1620.51)" style="font-family: 'Open Sans', verdana, arial, sans-serif; font-size: 12px; fill: rgb(68, 68, 68); fill-opacity: 1; white-space: pre;">0.5</text></g><g class="y3tick"><text text-anchor="end" x="76.6" y="4.199999999999999" transform="translate(0,1581.03)" style="font-family: 'Open Sans', verdana, arial, sans-serif; font-size: 12px; fill: rgb(68, 68, 68); fill-opacity: 1; white-space: pre;">1</text></g><g class="y3tick"><text text-anchor="end" x="76.6" y="4.199999999999999" transform="translate(0,1541.54)" style="font-family: 'Open Sans', verdana, arial, sans-serif; font-size: 12px; fill: rgb(68, 68, 68); fill-opacity: 1; white-space: pre;">1.5</text></g><g class="y3tick"><text text-anchor="end" x="76.6" y="4.199999999999999" transform="translate(0,1502.06)" style="font-family: 'Open Sans', verdana, arial, sans-serif; font-size: 12px; fill: rgb(68, 68, 68); fill-opacity: 1; white-space: pre;">2</text></g><g class="y3tick"><text text-anchor="end" x="76.6" y="4.199999999999999" transform="translate(0,1462.57)" style="font-family: 'Open Sans', verdana, arial, sans-serif; font-size: 12px; fill: rgb(68, 68, 68); fill-opacity: 1; white-space: pre;">2.5</text></g></g><g class="overaxes-above"/></g><g class="subplot x4y4"><g class="layer-subplot"><g class="shapelayer"/><g class="imagelayer"/></g><g class="gridlayer"><g class="x4"><path class="x4grid crisp" d="M0,1192v207.99999999999994" transform="translate(189.69,0)" style="stroke: rgb(238, 238, 238); stroke-opacity: 1; stroke-width: 1px;"/><path class="x4grid crisp" d="M0,1192v207.99999999999994" transform="translate(340.43,0)" style="stroke: rgb(238, 238, 238); stroke-opacity: 1; stroke-width: 1px;"/><path class="x4grid crisp" d="M0,1192v207.99999999999994" transform="translate(491.17,0)" style="stroke: rgb(238, 238, 238); stroke-opacity: 1; stroke-width: 1px;"/><path class="x4grid crisp" d="M0,1192v207.99999999999994" transform="translate(641.91,0)" style="stroke: rgb(238, 238, 238); stroke-opacity: 1; stroke-width: 1px;"/><path class="x4grid crisp" d="M0,1192v207.99999999999994" transform="translate(792.65,0)" style="stroke: rgb(238, 238, 238); stroke-opacity: 1; stroke-width: 1px;"/><path class="x4grid crisp" d="M0,1192v207.99999999999994" transform="translate(943.38,0)" style="stroke: rgb(238, 238, 238); stroke-opacity: 1; stroke-width: 1px;"/></g><g class="y4"><path class="y4grid crisp" d="M80,0h970" transform="translate(0,1333.62)" style="stroke: rgb(238, 238, 238); stroke-opacity: 1; stroke-width: 1px;"/><path class="y4grid crisp" d="M80,0h970" transform="translate(0,1267.25)" style="stroke: rgb(238, 238, 238); stroke-opacity: 1; stroke-width: 1px;"/><path class="y4grid crisp" d="M80,0h970" transform="translate(0,1200.87)" style="stroke: rgb(238, 238, 238); stroke-opacity: 1; stroke-width: 1px;"/></g></g><g class="zerolinelayer"/><path class="xlines-below"/><path class="ylines-below"/><g class="overlines-below"/><g class="xaxislayer-below"/><g class="yaxislayer-below"/><g class="overaxes-below"/><g class="plot" transform="translate(80, 1192)" clip-path="url(#clipaa8263x4y4plot)"><g class="imagelayer"/><g class="maplayer"/><g class="barlayer"/><g class="carpetlayer"/><g class="violinlayer"/><g class="boxlayer"/><g class="scatterlayer"><g class="trace scatter trace1a3a3b" style="stroke-miterlimit: 2;"><path class="js-fill js-tozero" d="M970,208L0,208L0,208L4.83,208L9.65,203.2L14.48,200.67L19.31,182.3L24.13,183.68L28.96,192.99L33.78,171.29L38.61,205.1L43.43,173.41L48.26,168.21L53.09,151.86L57.91,189.23L62.74,197.62L67.56,216.21L72.39,208L77.22,208L188.21,208L193.03,195.8L197.86,171.37L202.69,151.38L207.51,51.56L212.34,21.51L217.17,139.57L221.99,82.78L226.82,143.81L231.64,104.87L236.47,158.5L241.29,45.71L246.12,12.3L250.95,96.02L255.77,45.84L260.6,208L318.51,208L323.34,196.29L328.16,165.36L332.99,142.27L337.81,171.68L342.64,208L376.42,208.05L381.25,193.07L386.07,139.9L390.9,178.58L395.72,197.79L400.55,199.37L405.38,204.39L410.2,207.02L415.03,208L419.85,205.27L429.5,187.79L434.33,184.96L439.15,195.22L443.98,184.71L448.81,187.25L453.63,179.54L458.46,165.24L463.29,168.46L468.11,184.31L472.94,188.82L477.76,201.67L482.59,208.28L487.42,208L492.24,200.22L497.07,190.21L501.89,194.9L506.72,199.81L511.54,199.83L521.19,203.08L526.02,202.47L530.85,201.05L535.67,201.98L540.5,204.46L545.33,204.73L550.15,202.19L554.98,197.51L559.8,202.27L564.63,185.8L569.45,179.7L574.28,163.98L579.11,193.33L583.93,188.2L588.76,192.46L593.58,188.54L598.41,183.1L603.23,197.67L608.06,197.39L612.89,202.78L617.71,189.24L622.54,195.45L627.37,200.58L632.19,200.76L637.02,200.54L641.84,202.36L651.49,201.34L656.32,201.9L665.97,204.94L670.82,203.4L675.61,204.79L680.45,205.05L685.29,202.31L690.09,205.59L694.93,206.97L699.73,205.25L704.57,203.55L709.41,198.48L714.21,191.17L719.05,194.85L723.89,193.31L728.69,198.11L733.53,194.45L738.37,203.52L743.17,207.62L748.01,204.4L752.85,209.61L757.65,191.52L762.49,199.63L767.33,201.3L772.13,197.71L776.97,196.96L781.81,195.59L786.61,200.08L791.45,193.33L796.29,198.12L801.09,201.89L805.93,208.3L810.73,204.95L815.57,202.81L820.41,198.68L825.21,193.13L830.05,183.08L834.89,169.69L839.69,178L844.53,183.54L849.37,198.21L854.17,195.63L859.01,202.27L863.85,204.59L868.64,203.95L873.48,201.07L878.32,206.68L883.12,204.72L887.96,201.45L892.8,204.92L897.6,200.96L902.44,200.11L907.28,205.4L912.08,205.84L916.92,202.3L921.72,202.89L926.56,204.22L931.4,202.32L941.04,202.89L945.88,205.85L950.68,203.09L955.52,209.1L960.36,205.25L965.16,208L970,208" style="fill: rgb(214, 39, 40); fill-opacity: 0.5; stroke-width: 0;"/><path class="js-line" d="M0,208L4.83,208L9.65,203.2L14.48,200.67L19.31,182.3L24.13,183.68L28.96,192.99L33.78,171.29L38.61,205.1L43.43,173.41L48.26,168.21L53.09,151.86L57.91,189.23L62.74,197.62L67.56,216.21L72.39,208L77.22,208L188.21,208L193.03,195.8L197.86,171.37L202.69,151.38L207.51,51.56L212.34,21.51L217.17,139.57L221.99,82.78L226.82,143.81L231.64,104.87L236.47,158.5L241.29,45.71L246.12,12.3L250.95,96.02L255.77,45.84L260.6,208L318.51,208L323.34,196.29L328.16,165.36L332.99,142.27L337.81,171.68L342.64,208L376.42,208.05L381.25,193.07L386.07,139.9L390.9,178.58L395.72,197.79L400.55,199.37L405.38,204.39L410.2,207.02L415.03,208L419.85,205.27L429.5,187.79L434.33,184.96L439.15,195.22L443.98,184.71L448.81,187.25L453.63,179.54L458.46,165.24L463.29,168.46L468.11,184.31L472.94,188.82L477.76,201.67L482.59,208.28L487.42,208L492.24,200.22L497.07,190.21L501.89,194.9L506.72,199.81L511.54,199.83L521.19,203.08L526.02,202.47L530.85,201.05L535.67,201.98L540.5,204.46L545.33,204.73L550.15,202.19L554.98,197.51L559.8,202.27L564.63,185.8L569.45,179.7L574.28,163.98L579.11,193.33L583.93,188.2L588.76,192.46L593.58,188.54L598.41,183.1L603.23,197.67L608.06,197.39L612.89,202.78L617.71,189.24L622.54,195.45L627.37,200.58L632.19,200.76L637.02,200.54L641.84,202.36L651.49,201.34L656.32,201.9L665.97,204.94L670.82,203.4L675.61,204.79L680.45,205.05L685.29,202.31L690.09,205.59L694.93,206.97L699.73,205.25L704.57,203.55L709.41,198.48L714.21,191.17L719.05,194.85L723.89,193.31L728.69,198.11L733.53,194.45L738.37,203.52L743.17,207.62L748.01,204.4L752.85,209.61L757.65,191.52L762.49,199.63L767.33,201.3L772.13,197.71L776.97,196.96L781.81,195.59L786.61,200.08L791.45,193.33L796.29,198.12L801.09,201.89L805.93,208.3L810.73,204.95L815.57,202.81L820.41,198.68L825.21,193.13L830.05,183.08L834.89,169.69L839.69,178L844.53,183.54L849.37,198.21L854.17,195.63L859.01,202.27L863.85,204.59L868.64,203.95L873.48,201.07L878.32,206.68L883.12,204.72L887.96,201.45L892.8,204.92L897.6,200.96L902.44,200.11L907.28,205.4L912.08,205.84L916.92,202.3L921.72,202.89L926.56,204.22L931.4,202.32L941.04,202.89L945.88,205.85L950.68,203.09L955.52,209.1L960.36,205.25L965.16,208L970,208" style="vector-effect: non-scaling-stroke; fill: none; stroke: rgb(214, 39, 40); stroke-opacity: 1; stroke-width: 2px; opacity: 1;"/><g class="points"/></g></g></g><g class="overplot"/><path class="xlines-above crisp" d="M79,1400.5H1051M79,1191.5H1051" style="fill: none; stroke-width: 1px; stroke: rgb(68, 68, 68); stroke-opacity: 1;"/><path class="ylines-above crisp" d="M79.5,1192V1400M1050.5,1192V1400" style="fill: none; stroke-width: 1px; stroke: rgb(68, 68, 68); stroke-opacity: 1;"/><g class="overlines-above"/><g class="xaxislayer-above"><g class="x4tick"><text text-anchor="middle" x="0" y="1415.4" transform="translate(189.69,0)" style="font-family: 'Open Sans', verdana, arial, sans-serif; font-size: 12px; fill: rgb(68, 68, 68); fill-opacity: 1; white-space: pre;">−10</text></g><g class="x4tick"><text text-anchor="middle" x="0" y="1415.4" transform="translate(340.43,0)" style="font-family: 'Open Sans', verdana, arial, sans-serif; font-size: 12px; fill: rgb(68, 68, 68); fill-opacity: 1; white-space: pre;">0</text></g><g class="x4tick"><text text-anchor="middle" x="0" y="1415.4" transform="translate(491.17,0)" style="font-family: 'Open Sans', verdana, arial, sans-serif; font-size: 12px; fill: rgb(68, 68, 68); fill-opacity: 1; white-space: pre;">10</text></g><g class="x4tick"><text text-anchor="middle" x="0" y="1415.4" transform="translate(641.91,0)" style="font-family: 'Open Sans', verdana, arial, sans-serif; font-size: 12px; fill: rgb(68, 68, 68); fill-opacity: 1; white-space: pre;">20</text></g><g class="x4tick"><text text-anchor="middle" x="0" y="1415.4" transform="translate(792.65,0)" style="font-family: 'Open Sans', verdana, arial, sans-serif; font-size: 12px; fill: rgb(68, 68, 68); fill-opacity: 1; white-space: pre;">30</text></g><g class="x4tick"><text text-anchor="middle" x="0" y="1415.4" transform="translate(943.38,0)" style="font-family: 'Open Sans', verdana, arial, sans-serif; font-size: 12px; fill: rgb(68, 68, 68); fill-opacity: 1; white-space: pre;">40</text></g></g><g class="yaxislayer-above"><g class="y4tick"><text text-anchor="end" x="76.6" y="4.199999999999999" transform="translate(0,1400)" style="font-family: 'Open Sans', verdana, arial, sans-serif; font-size: 12px; fill: rgb(68, 68, 68); fill-opacity: 1; white-space: pre;">0</text></g><g class="y4tick"><text text-anchor="end" x="76.6" y="4.199999999999999" transform="translate(0,1333.62)" style="font-family: 'Open Sans', verdana, arial, sans-serif; font-size: 12px; fill: rgb(68, 68, 68); fill-opacity: 1; white-space: pre;">5</text></g><g class="y4tick"><text text-anchor="end" x="76.6" y="4.199999999999999" transform="translate(0,1267.25)" style="font-family: 'Open Sans', verdana, arial, sans-serif; font-size: 12px; fill: rgb(68, 68, 68); fill-opacity: 1; white-space: pre;">10</text></g><g class="y4tick"><text text-anchor="end" x="76.6" y="4.199999999999999" transform="translate(0,1200.87)" style="font-family: 'Open Sans', verdana, arial, sans-serif; font-size: 12px; fill: rgb(68, 68, 68); fill-opacity: 1; white-space: pre;">15</text></g></g><g class="overaxes-above"/></g><g class="subplot x5y5"><g class="layer-subplot"><g class="shapelayer"/><g class="imagelayer"/></g><g class="gridlayer"><g class="x5"><path class="x5grid crisp" d="M0,932v207.99999999999994" transform="translate(189.69,0)" style="stroke: rgb(238, 238, 238); stroke-opacity: 1; stroke-width: 1px;"/><path class="x5grid crisp" d="M0,932v207.99999999999994" transform="translate(340.43,0)" style="stroke: rgb(238, 238, 238); stroke-opacity: 1; stroke-width: 1px;"/><path class="x5grid crisp" d="M0,932v207.99999999999994" transform="translate(491.17,0)" style="stroke: rgb(238, 238, 238); stroke-opacity: 1; stroke-width: 1px;"/><path class="x5grid crisp" d="M0,932v207.99999999999994" transform="translate(641.91,0)" style="stroke: rgb(238, 238, 238); stroke-opacity: 1; stroke-width: 1px;"/><path class="x5grid crisp" d="M0,932v207.99999999999994" transform="translate(792.65,0)" style="stroke: rgb(238, 238, 238); stroke-opacity: 1; stroke-width: 1px;"/><path class="x5grid crisp" d="M0,932v207.99999999999994" transform="translate(943.38,0)" style="stroke: rgb(238, 238, 238); stroke-opacity: 1; stroke-width: 1px;"/></g><g class="y5"><path class="y5grid crisp" d="M80,0h970" transform="translate(0,1083.07)" style="stroke: rgb(238, 238, 238); stroke-opacity: 1; stroke-width: 1px;"/><path class="y5grid crisp" d="M80,0h970" transform="translate(0,1026.14)" style="stroke: rgb(238, 238, 238); stroke-opacity: 1; stroke-width: 1px;"/><path class="y5grid crisp" d="M80,0h970" transform="translate(0,969.21)" style="stroke: rgb(238, 238, 238); stroke-opacity: 1; stroke-width: 1px;"/></g></g><g class="zerolinelayer"/><path class="xlines-below"/><path class="ylines-below"/><g class="overlines-below"/><g class="xaxislayer-below"/><g class="yaxislayer-below"/><g class="overaxes-below"/><g class="plot" transform="translate(80, 932)" clip-path="url(#clipaa8263x5y5plot)"><g class="imagelayer"/><g class="maplayer"/><g class="barlayer"/><g class="carpetlayer"/><g class="violinlayer"/><g class="boxlayer"/><g class="scatterlayer"><g class="trace scatter traceb8a894" style="stroke-miterlimit: 2;"><path class="js-fill js-tozero" d="M970,208L0,208L0,208L9.65,207.85L14.48,205.03L19.31,221.79L24.13,231.74L28.96,225.82L33.78,241.57L38.61,241.33L43.43,266.73L48.26,261.71L53.09,245.97L57.91,225.36L62.74,209.34L67.56,204.57L72.39,208L188.21,208L193.03,181.23L197.86,219.53L202.69,374.99L212.34,659.12L217.17,352.07L221.99,482.32L226.82,402.91L231.64,358.46L236.47,239.55L241.29,263.52L246.12,215.93L250.95,267.24L255.77,280.54L260.6,208L318.51,208L323.34,221.91L328.16,275.69L332.99,271.92L337.81,229.52L342.64,208L376.42,207.45L381.25,288.68L386.07,368.43L390.9,247.5L395.72,218.01L400.55,218.15L405.38,225.35L410.2,213.03L415.03,208L419.85,204.97L424.68,212.21L429.5,213.27L434.33,222.03L439.15,225.05L443.98,226.06L448.81,230.84L453.63,238.73L458.46,232.91L463.29,211.03L468.11,210.47L472.94,217.6L477.76,204.51L482.59,208.35L487.42,208L497.07,407.58L501.89,337.72L506.72,286.11L511.54,299.37L516.37,295.88L521.19,280.66L530.85,267.16L535.67,247.67L540.5,239.04L545.33,255.93L550.15,270.61L554.98,370.46L559.8,303L564.63,1105.45L569.45,919.06L574.28,1501.49L579.11,84.22L598.41,885.42L603.23,350.44L608.06,259.54L612.89,237.98L622.54,909.95L627.37,618.95L632.19,511.78L637.02,500.22L641.84,523.85L646.67,629.74L651.49,577.93L656.32,422.39L661.14,278.8L665.97,224.41L670.82,653.4L675.61,10.4L680.45,646.25L685.29,555.96L690.09,418.93L694.93,276.1L699.73,82.6L704.57,321.03L709.41,232.48L714.21,356.09L719.05,122.79L733.53,551.43L738.37,365.03L743.17,151.2L748.01,283.76L752.85,155.29L757.65,108.9L762.49,208.55L767.33,215.17L772.13,230.42L776.97,374.75L781.81,270.8L786.61,371.75L791.45,319.08L796.29,472.99L801.09,245.27L805.93,312.2L810.73,444.59L815.57,283.55L820.41,258.25L825.21,169.71L834.89,356.01L839.69,270.17L844.53,334.43L849.37,266L854.17,241.08L859.01,228.37L863.85,286.77L868.64,263.25L873.48,224.66L878.32,220.54L887.96,232.66L892.8,222.78L897.6,219.56L902.44,206.92L907.28,213.19L912.08,207.94L921.72,208.12L926.56,210.57L931.4,231.12L936.2,205.14L941.04,300.11L945.88,253.28L950.68,286.03L955.52,180.67L960.36,298.15L965.16,208L970,208" style="fill: rgb(148, 103, 189); fill-opacity: 0.5; stroke-width: 0;"/><path class="js-line" d="M0,208L9.65,207.85L14.48,205.03L19.31,221.79L24.13,231.74L28.96,225.82L33.78,241.57L38.61,241.33L43.43,266.73L48.26,261.71L53.09,245.97L57.91,225.36L62.74,209.34L67.56,204.57L72.39,208L188.21,208L193.03,181.23L197.86,219.53L202.69,374.99L212.34,659.12L217.17,352.07L221.99,482.32L226.82,402.91L231.64,358.46L236.47,239.55L241.29,263.52L246.12,215.93L250.95,267.24L255.77,280.54L260.6,208L318.51,208L323.34,221.91L328.16,275.69L332.99,271.92L337.81,229.52L342.64,208L376.42,207.45L381.25,288.68L386.07,368.43L390.9,247.5L395.72,218.01L400.55,218.15L405.38,225.35L410.2,213.03L415.03,208L419.85,204.97L424.68,212.21L429.5,213.27L434.33,222.03L439.15,225.05L443.98,226.06L448.81,230.84L453.63,238.73L458.46,232.91L463.29,211.03L468.11,210.47L472.94,217.6L477.76,204.51L482.59,208.35L487.42,208L497.07,407.58L501.89,337.72L506.72,286.11L511.54,299.37L516.37,295.88L521.19,280.66L530.85,267.16L535.67,247.67L540.5,239.04L545.33,255.93L550.15,270.61L554.98,370.46L559.8,303L564.63,1105.45L569.45,919.06L574.28,1501.49L579.11,84.22L598.41,885.42L603.23,350.44L608.06,259.54L612.89,237.98L622.54,909.95L627.37,618.95L632.19,511.78L637.02,500.22L641.84,523.85L646.67,629.74L651.49,577.93L656.32,422.39L661.14,278.8L665.97,224.41L670.82,653.4L675.61,10.4L680.45,646.25L685.29,555.96L690.09,418.93L694.93,276.1L699.73,82.6L704.57,321.03L709.41,232.48L714.21,356.09L719.05,122.79L733.53,551.43L738.37,365.03L743.17,151.2L748.01,283.76L752.85,155.29L757.65,108.9L762.49,208.55L767.33,215.17L772.13,230.42L776.97,374.75L781.81,270.8L786.61,371.75L791.45,319.08L796.29,472.99L801.09,245.27L805.93,312.2L810.73,444.59L815.57,283.55L820.41,258.25L825.21,169.71L834.89,356.01L839.69,270.17L844.53,334.43L849.37,266L854.17,241.08L859.01,228.37L863.85,286.77L868.64,263.25L873.48,224.66L878.32,220.54L887.96,232.66L892.8,222.78L897.6,219.56L902.44,206.92L907.28,213.19L912.08,207.94L921.72,208.12L926.56,210.57L931.4,231.12L936.2,205.14L941.04,300.11L945.88,253.28L950.68,286.03L955.52,180.67L960.36,298.15L965.16,208L970,208" style="vector-effect: non-scaling-stroke; fill: none; stroke: rgb(148, 103, 189); stroke-opacity: 1; stroke-width: 2px; opacity: 1;"/><g class="points"/></g></g></g><g class="overplot"/><path class="xlines-above crisp" d="M79,1140.5H1051M79,931.5H1051" style="fill: none; stroke-width: 1px; stroke: rgb(68, 68, 68); stroke-opacity: 1;"/><path class="ylines-above crisp" d="M79.5,932V1140M1050.5,932V1140" style="fill: none; stroke-width: 1px; stroke: rgb(68, 68, 68); stroke-opacity: 1;"/><g class="overlines-above"/><g class="xaxislayer-above"><g class="x5tick"><text text-anchor="middle" x="0" y="1155.4" transform="translate(189.69,0)" style="font-family: 'Open Sans', verdana, arial, sans-serif; font-size: 12px; fill: rgb(68, 68, 68); fill-opacity: 1; white-space: pre;">−10</text></g><g class="x5tick"><text text-anchor="middle" x="0" y="1155.4" transform="translate(340.43,0)" style="font-family: 'Open Sans', verdana, arial, sans-serif; font-size: 12px; fill: rgb(68, 68, 68); fill-opacity: 1; white-space: pre;">0</text></g><g class="x5tick"><text text-anchor="middle" x="0" y="1155.4" transform="translate(491.17,0)" style="font-family: 'Open Sans', verdana, arial, sans-serif; font-size: 12px; fill: rgb(68, 68, 68); fill-opacity: 1; white-space: pre;">10</text></g><g class="x5tick"><text text-anchor="middle" x="0" y="1155.4" transform="translate(641.91,0)" style="font-family: 'Open Sans', verdana, arial, sans-serif; font-size: 12px; fill: rgb(68, 68, 68); fill-opacity: 1; white-space: pre;">20</text></g><g class="x5tick"><text text-anchor="middle" x="0" y="1155.4" transform="translate(792.65,0)" style="font-family: 'Open Sans', verdana, arial, sans-serif; font-size: 12px; fill: rgb(68, 68, 68); fill-opacity: 1; white-space: pre;">30</text></g><g class="x5tick"><text text-anchor="middle" x="0" y="1155.4" transform="translate(943.38,0)" style="font-family: 'Open Sans', verdana, arial, sans-serif; font-size: 12px; fill: rgb(68, 68, 68); fill-opacity: 1; white-space: pre;">40</text></g></g><g class="yaxislayer-above"><g class="y5tick"><text text-anchor="end" x="76.6" y="4.199999999999999" transform="translate(0,1140)" style="font-family: 'Open Sans', verdana, arial, sans-serif; font-size: 12px; fill: rgb(68, 68, 68); fill-opacity: 1; white-space: pre;">0</text></g><g class="y5tick"><text text-anchor="end" x="76.6" y="4.199999999999999" transform="translate(0,1083.07)" style="font-family: 'Open Sans', verdana, arial, sans-serif; font-size: 12px; fill: rgb(68, 68, 68); fill-opacity: 1; white-space: pre;">0.02</text></g><g class="y5tick"><text text-anchor="end" x="76.6" y="4.199999999999999" transform="translate(0,1026.14)" style="font-family: 'Open Sans', verdana, arial, sans-serif; font-size: 12px; fill: rgb(68, 68, 68); fill-opacity: 1; white-space: pre;">0.04</text></g><g class="y5tick"><text text-anchor="end" x="76.6" y="4.199999999999999" transform="translate(0,969.21)" style="font-family: 'Open Sans', verdana, arial, sans-serif; font-size: 12px; fill: rgb(68, 68, 68); fill-opacity: 1; white-space: pre;">0.06</text></g></g><g class="overaxes-above"/></g><g class="subplot x6y6"><g class="layer-subplot"><g class="shapelayer"/><g class="imagelayer"/></g><g class="gridlayer"><g class="x6"><path class="x6grid crisp" d="M0,672v207.99999999999994" transform="translate(189.69,0)" style="stroke: rgb(238, 238, 238); stroke-opacity: 1; stroke-width: 1px;"/><path class="x6grid crisp" d="M0,672v207.99999999999994" transform="translate(340.43,0)" style="stroke: rgb(238, 238, 238); stroke-opacity: 1; stroke-width: 1px;"/><path class="x6grid crisp" d="M0,672v207.99999999999994" transform="translate(491.17,0)" style="stroke: rgb(238, 238, 238); stroke-opacity: 1; stroke-width: 1px;"/><path class="x6grid crisp" d="M0,672v207.99999999999994" transform="translate(641.91,0)" style="stroke: rgb(238, 238, 238); stroke-opacity: 1; stroke-width: 1px;"/><path class="x6grid crisp" d="M0,672v207.99999999999994" transform="translate(792.65,0)" style="stroke: rgb(238, 238, 238); stroke-opacity: 1; stroke-width: 1px;"/><path class="x6grid crisp" d="M0,672v207.99999999999994" transform="translate(943.38,0)" style="stroke: rgb(238, 238, 238); stroke-opacity: 1; stroke-width: 1px;"/></g><g class="y6"><path class="y6grid crisp" d="M80,0h970" transform="translate(0,825.09)" style="stroke: rgb(238, 238, 238); stroke-opacity: 1; stroke-width: 1px;"/><path class="y6grid crisp" d="M80,0h970" transform="translate(0,770.1800000000001)" style="stroke: rgb(238, 238, 238); stroke-opacity: 1; stroke-width: 1px;"/><path class="y6grid crisp" d="M80,0h970" transform="translate(0,715.27)" style="stroke: rgb(238, 238, 238); stroke-opacity: 1; stroke-width: 1px;"/></g></g><g class="zerolinelayer"/><path class="xlines-below"/><path class="ylines-below"/><g class="overlines-below"/><g class="xaxislayer-below"/><g class="yaxislayer-below"/><g class="overaxes-below"/><g class="plot" transform="translate(80, 672)" clip-path="url(#clipaa8263x6y6plot)"><g class="imagelayer"/><g class="maplayer"/><g class="barlayer"/><g class="carpetlayer"/><g class="violinlayer"/><g class="boxlayer"/><g class="scatterlayer"><g class="trace scatter trace67727f" style="stroke-miterlimit: 2;"><path class="js-fill js-tozero" d="M970,208L0,208L0,208L4.83,208L9.65,199.63L14.48,183.7L19.31,119.01L24.13,124.75L28.96,156.87L33.78,87.09L38.61,195.32L43.43,93.68L48.26,77.42L53.09,26.81L57.91,148.36L62.74,175.49L67.56,233.79L72.39,208L77.22,208L188.21,208L193.03,194.45L197.86,167.73L202.69,145.69L207.51,39.83L212.34,10.4L217.17,136.26L221.99,77.73L226.82,143L231.64,103.85L236.47,159.52L241.29,48.21L246.12,20.22L250.95,103.91L255.77,58.78L260.6,208L318.51,208L323.34,201.8L328.16,181.24L332.99,165L337.81,183.53L342.64,208L376.42,208.03L381.25,197.97L386.07,164.2L390.9,188.98L395.72,201.97L400.55,203.14L405.38,205.94L410.2,207.42L424.68,209.37L429.5,210.83L439.15,209L443.98,206.58L448.81,206.45L453.63,199.2L458.46,193.04L463.29,192.76L468.11,198.26L472.94,201.47L482.59,208.41L487.42,208L497.07,201.78L501.89,203.72L506.72,205.44L511.54,206.17L521.19,208.1L526.02,208.05L535.67,208.48L540.5,209.29L550.15,209.78L554.98,209.34L559.8,208.76L564.63,205.91L569.45,205.09L574.28,198.92L579.11,206.75L583.93,202.55L593.58,204.5L598.41,205.09L603.23,207.99L608.06,206.03L617.71,209.64L622.54,208.41L627.37,208.61L632.19,209.92L637.02,209.13L641.84,211.47L646.67,212.31L651.49,211.3L661.14,208.75L665.97,209.02L670.82,214.69L675.61,210.26L680.45,208.39L685.29,213.69L690.09,212.78L694.93,209.09L699.73,207.56L704.57,211.83L709.41,225.73L714.21,234.06L719.05,222.69L723.89,221.89L728.69,220.27L733.53,221.17L738.37,211.56L743.17,209.5L748.01,209.5L752.85,207.98L757.65,214.78L762.49,210.89L767.33,209.33L772.13,209.83L776.97,213.21L781.81,209.07L786.61,209.98L791.45,209.25L796.29,210.17L801.09,209.66L805.93,210.64L810.73,210.48L815.57,209.86L820.41,210.99L825.21,210.05L830.05,223.92L839.69,221.65L844.53,223.57L849.37,208.08L854.17,211.75L859.01,208.28L863.85,210.11L868.64,212.47L873.48,213.44L878.32,209.96L883.12,210.05L887.96,215.7L892.8,214.46L902.44,218.8L907.28,212.29L912.08,211.15L916.92,214.13L921.72,215.08L926.56,213.89L931.4,215.11L936.2,213.08L941.04,213.4L945.88,210.49L950.68,214.36L955.52,206.67L960.36,211.15L965.16,208L970,208" style="fill: rgb(140, 86, 75); fill-opacity: 0.5; stroke-width: 0;"/><path class="js-line" d="M0,208L4.83,208L9.65,199.63L14.48,183.7L19.31,119.01L24.13,124.75L28.96,156.87L33.78,87.09L38.61,195.32L43.43,93.68L48.26,77.42L53.09,26.81L57.91,148.36L62.74,175.49L67.56,233.79L72.39,208L77.22,208L188.21,208L193.03,194.45L197.86,167.73L202.69,145.69L207.51,39.83L212.34,10.4L217.17,136.26L221.99,77.73L226.82,143L231.64,103.85L236.47,159.52L241.29,48.21L246.12,20.22L250.95,103.91L255.77,58.78L260.6,208L318.51,208L323.34,201.8L328.16,181.24L332.99,165L337.81,183.53L342.64,208L376.42,208.03L381.25,197.97L386.07,164.2L390.9,188.98L395.72,201.97L400.55,203.14L405.38,205.94L410.2,207.42L424.68,209.37L429.5,210.83L439.15,209L443.98,206.58L448.81,206.45L453.63,199.2L458.46,193.04L463.29,192.76L468.11,198.26L472.94,201.47L482.59,208.41L487.42,208L497.07,201.78L501.89,203.72L506.72,205.44L511.54,206.17L521.19,208.1L526.02,208.05L535.67,208.48L540.5,209.29L550.15,209.78L554.98,209.34L559.8,208.76L564.63,205.91L569.45,205.09L574.28,198.92L579.11,206.75L583.93,202.55L593.58,204.5L598.41,205.09L603.23,207.99L608.06,206.03L617.71,209.64L622.54,208.41L627.37,208.61L632.19,209.92L637.02,209.13L641.84,211.47L646.67,212.31L651.49,211.3L661.14,208.75L665.97,209.02L670.82,214.69L675.61,210.26L680.45,208.39L685.29,213.69L690.09,212.78L694.93,209.09L699.73,207.56L704.57,211.83L709.41,225.73L714.21,234.06L719.05,222.69L723.89,221.89L728.69,220.27L733.53,221.17L738.37,211.56L743.17,209.5L748.01,209.5L752.85,207.98L757.65,214.78L762.49,210.89L767.33,209.33L772.13,209.83L776.97,213.21L781.81,209.07L786.61,209.98L791.45,209.25L796.29,210.17L801.09,209.66L805.93,210.64L810.73,210.48L815.57,209.86L820.41,210.99L825.21,210.05L830.05,223.92L839.69,221.65L844.53,223.57L849.37,208.08L854.17,211.75L859.01,208.28L863.85,210.11L868.64,212.47L873.48,213.44L878.32,209.96L883.12,210.05L887.96,215.7L892.8,214.46L902.44,218.8L907.28,212.29L912.08,211.15L916.92,214.13L921.72,215.08L926.56,213.89L931.4,215.11L936.2,213.08L941.04,213.4L945.88,210.49L950.68,214.36L955.52,206.67L960.36,211.15L965.16,208L970,208" style="vector-effect: non-scaling-stroke; fill: none; stroke: rgb(140, 86, 75); stroke-opacity: 1; stroke-width: 2px; opacity: 1;"/><g class="points"/></g></g></g><g class="overplot"/><path class="xlines-above crisp" d="M79,880.5H1051M79,671.5H1051" style="fill: none; stroke-width: 1px; stroke: rgb(68, 68, 68); stroke-opacity: 1;"/><path class="ylines-above crisp" d="M79.5,672V880M1050.5,672V880" style="fill: none; stroke-width: 1px; stroke: rgb(68, 68, 68); stroke-opacity: 1;"/><g class="overlines-above"/><g class="xaxislayer-above"><g class="x6tick"><text text-anchor="middle" x="0" y="895.4" transform="translate(189.69,0)" style="font-family: 'Open Sans', verdana, arial, sans-serif; font-size: 12px; fill: rgb(68, 68, 68); fill-opacity: 1; white-space: pre;">−10</text></g><g class="x6tick"><text text-anchor="middle" x="0" y="895.4" transform="translate(340.43,0)" style="font-family: 'Open Sans', verdana, arial, sans-serif; font-size: 12px; fill: rgb(68, 68, 68); fill-opacity: 1; white-space: pre;">0</text></g><g class="x6tick"><text text-anchor="middle" x="0" y="895.4" transform="translate(491.17,0)" style="font-family: 'Open Sans', verdana, arial, sans-serif; font-size: 12px; fill: rgb(68, 68, 68); fill-opacity: 1; white-space: pre;">10</text></g><g class="x6tick"><text text-anchor="middle" x="0" y="895.4" transform="translate(641.91,0)" style="font-family: 'Open Sans', verdana, arial, sans-serif; font-size: 12px; fill: rgb(68, 68, 68); fill-opacity: 1; white-space: pre;">20</text></g><g class="x6tick"><text text-anchor="middle" x="0" y="895.4" transform="translate(792.65,0)" style="font-family: 'Open Sans', verdana, arial, sans-serif; font-size: 12px; fill: rgb(68, 68, 68); fill-opacity: 1; white-space: pre;">30</text></g><g class="x6tick"><text text-anchor="middle" x="0" y="895.4" transform="translate(943.38,0)" style="font-family: 'Open Sans', verdana, arial, sans-serif; font-size: 12px; fill: rgb(68, 68, 68); fill-opacity: 1; white-space: pre;">40</text></g></g><g class="yaxislayer-above"><g class="y6tick"><text text-anchor="end" x="76.6" y="4.199999999999999" transform="translate(0,880)" style="font-family: 'Open Sans', verdana, arial, sans-serif; font-size: 12px; fill: rgb(68, 68, 68); fill-opacity: 1; white-space: pre;">0</text></g><g class="y6tick"><text text-anchor="end" x="76.6" y="4.199999999999999" transform="translate(0,825.09)" style="font-family: 'Open Sans', verdana, arial, sans-serif; font-size: 12px; fill: rgb(68, 68, 68); fill-opacity: 1; white-space: pre;">2</text></g><g class="y6tick"><text text-anchor="end" x="76.6" y="4.199999999999999" transform="translate(0,770.1800000000001)" style="font-family: 'Open Sans', verdana, arial, sans-serif; font-size: 12px; fill: rgb(68, 68, 68); fill-opacity: 1; white-space: pre;">4</text></g><g class="y6tick"><text text-anchor="end" x="76.6" y="4.199999999999999" transform="translate(0,715.27)" style="font-family: 'Open Sans', verdana, arial, sans-serif; font-size: 12px; fill: rgb(68, 68, 68); fill-opacity: 1; white-space: pre;">6</text></g></g><g class="overaxes-above"/></g><g class="subplot x7y7"><g class="layer-subplot"><g class="shapelayer"/><g class="imagelayer"/></g><g class="gridlayer"><g class="x7"><path class="x7grid crisp" d="M0,412.00000000000006v207.99999999999994" transform="translate(189.69,0)" style="stroke: rgb(238, 238, 238); stroke-opacity: 1; stroke-width: 1px;"/><path class="x7grid crisp" d="M0,412.00000000000006v207.99999999999994" transform="translate(340.43,0)" style="stroke: rgb(238, 238, 238); stroke-opacity: 1; stroke-width: 1px;"/><path class="x7grid crisp" d="M0,412.00000000000006v207.99999999999994" transform="translate(491.17,0)" style="stroke: rgb(238, 238, 238); stroke-opacity: 1; stroke-width: 1px;"/><path class="x7grid crisp" d="M0,412.00000000000006v207.99999999999994" transform="translate(641.91,0)" style="stroke: rgb(238, 238, 238); stroke-opacity: 1; stroke-width: 1px;"/><path class="x7grid crisp" d="M0,412.00000000000006v207.99999999999994" transform="translate(792.65,0)" style="stroke: rgb(238, 238, 238); stroke-opacity: 1; stroke-width: 1px;"/><path class="x7grid crisp" d="M0,412.00000000000006v207.99999999999994" transform="translate(943.38,0)" style="stroke: rgb(238, 238, 238); stroke-opacity: 1; stroke-width: 1px;"/></g><g class="y7"><path class="y7grid crisp" d="M80,0h970" transform="translate(0,569.22)" style="stroke: rgb(238, 238, 238); stroke-opacity: 1; stroke-width: 1px;"/><path class="y7grid crisp" d="M80,0h970" transform="translate(0,518.4300000000001)" style="stroke: rgb(238, 238, 238); stroke-opacity: 1; stroke-width: 1px;"/><path class="y7grid crisp" d="M80,0h970" transform="translate(0,467.65000000000003)" style="stroke: rgb(238, 238, 238); stroke-opacity: 1; stroke-width: 1px;"/><path class="y7grid crisp" d="M80,0h970" transform="translate(0,416.87000000000006)" style="stroke: rgb(238, 238, 238); stroke-opacity: 1; stroke-width: 1px;"/></g></g><g class="zerolinelayer"/><path class="xlines-below"/><path class="ylines-below"/><g class="overlines-below"/><g class="xaxislayer-below"/><g class="yaxislayer-below"/><g class="overaxes-below"/><g class="plot" transform="translate(80, 412.00000000000006)" clip-path="url(#clipaa8263x7y7plot)"><g class="imagelayer"/><g class="maplayer"/><g class="barlayer"/><g class="carpetlayer"/><g class="violinlayer"/><g class="boxlayer"/><g class="scatterlayer"><g class="trace scatter trace335cbd" style="stroke-miterlimit: 2;"><path class="js-fill js-tozero" d="M970,208L0,208L0,208L4.83,208L9.65,199.17L14.48,205.63L19.31,205.77L24.13,205.91L28.96,207.09L33.78,205.85L38.61,207.77L43.43,206.73L48.26,206.91L53.09,206.54L57.91,207.49L72.39,208L77.22,208L188.21,208L193.03,196.51L202.69,149.13L207.51,48.17L212.34,12.3L217.17,142.51L221.99,90.14L226.82,149.36L231.64,118L236.47,167.09L241.29,80.06L246.12,63.95L250.95,128.58L255.77,93.4L260.6,208L265.42,208L318.51,208L323.34,188.61L328.16,183.61L332.99,182.39L342.64,208L347.46,208L376.42,207.96L381.25,208.81L386.07,216.8L390.9,207.94L400.55,209.59L405.38,208.55L415.03,208L419.85,208.24L434.33,205.3L439.15,204.98L448.81,205.96L453.63,207.92L463.29,216.5L468.11,214.69L472.94,212.16L477.76,210.83L482.59,208.13L487.42,208L492.24,197.57L497.07,179.13L501.89,181.66L506.72,188.58L511.54,189.92L516.37,193.63L521.19,197.08L526.02,195.52L530.85,192.66L535.67,194.89L540.5,200.9L545.33,202.86L550.15,198.44L554.98,191.35L559.8,194.23L564.63,168.72L574.28,121.33L579.11,168.15L588.76,169.68L593.58,154.13L598.41,153.8L603.23,191.86L608.06,172.56L612.89,192.53L617.71,160.51L622.54,183.63L627.37,182.04L632.19,186.91L637.02,186.9L641.84,188.74L646.67,184.55L651.49,183.34L656.32,185.12L661.14,188.06L665.97,190.32L670.82,181.45L675.61,199.58L680.45,194.74L685.29,184.58L690.09,197.26L694.93,201.37L699.73,193.34L704.57,194.9L709.41,187.57L714.21,179.66L719.05,169.92L723.89,165.53L728.69,184.49L733.53,186.28L738.37,198.11L743.17,202.7L748.01,198.35L752.85,209.97L757.65,160.78L762.49,195.64L767.33,207.34L772.13,196.98L776.97,205.34L781.81,194.98L786.61,203.74L791.45,204.34L796.29,195.86L801.09,197.25L805.93,211.49L810.73,203.48L815.57,201.1L820.41,196.51L825.21,194.09L834.89,169.02L839.69,177.94L844.53,184.1L849.37,205L854.17,200.33L859.01,205.57L863.85,201.84L868.64,200.89L873.48,195.08L878.32,207.56L883.12,205.16L887.96,201.89L892.8,215.66L897.6,195.47L902.44,190.47L907.28,210.94L916.92,195.92L921.72,198.2L926.56,202.2L931.4,199.84L936.2,200.96L941.04,203.54L945.88,203.97L950.68,205.27L955.52,208.42L960.36,203.78L965.16,208L970,208" style="fill: rgb(227, 119, 194); fill-opacity: 0.5; stroke-width: 0;"/><path class="js-line" d="M0,208L4.83,208L9.65,199.17L14.48,205.63L19.31,205.77L24.13,205.91L28.96,207.09L33.78,205.85L38.61,207.77L43.43,206.73L48.26,206.91L53.09,206.54L57.91,207.49L72.39,208L77.22,208L188.21,208L193.03,196.51L202.69,149.13L207.51,48.17L212.34,12.3L217.17,142.51L221.99,90.14L226.82,149.36L231.64,118L236.47,167.09L241.29,80.06L246.12,63.95L250.95,128.58L255.77,93.4L260.6,208L265.42,208L318.51,208L323.34,188.61L328.16,183.61L332.99,182.39L342.64,208L347.46,208L376.42,207.96L381.25,208.81L386.07,216.8L390.9,207.94L400.55,209.59L405.38,208.55L415.03,208L419.85,208.24L434.33,205.3L439.15,204.98L448.81,205.96L453.63,207.92L463.29,216.5L468.11,214.69L472.94,212.16L477.76,210.83L482.59,208.13L487.42,208L492.24,197.57L497.07,179.13L501.89,181.66L506.72,188.58L511.54,189.92L516.37,193.63L521.19,197.08L526.02,195.52L530.85,192.66L535.67,194.89L540.5,200.9L545.33,202.86L550.15,198.44L554.98,191.35L559.8,194.23L564.63,168.72L574.28,121.33L579.11,168.15L588.76,169.68L593.58,154.13L598.41,153.8L603.23,191.86L608.06,172.56L612.89,192.53L617.71,160.51L622.54,183.63L627.37,182.04L632.19,186.91L637.02,186.9L641.84,188.74L646.67,184.55L651.49,183.34L656.32,185.12L661.14,188.06L665.97,190.32L670.82,181.45L675.61,199.58L680.45,194.74L685.29,184.58L690.09,197.26L694.93,201.37L699.73,193.34L704.57,194.9L709.41,187.57L714.21,179.66L719.05,169.92L723.89,165.53L728.69,184.49L733.53,186.28L738.37,198.11L743.17,202.7L748.01,198.35L752.85,209.97L757.65,160.78L762.49,195.64L767.33,207.34L772.13,196.98L776.97,205.34L781.81,194.98L786.61,203.74L791.45,204.34L796.29,195.86L801.09,197.25L805.93,211.49L810.73,203.48L815.57,201.1L820.41,196.51L825.21,194.09L834.89,169.02L839.69,177.94L844.53,184.1L849.37,205L854.17,200.33L859.01,205.57L863.85,201.84L868.64,200.89L873.48,195.08L878.32,207.56L883.12,205.16L887.96,201.89L892.8,215.66L897.6,195.47L902.44,190.47L907.28,210.94L916.92,195.92L921.72,198.2L926.56,202.2L931.4,199.84L936.2,200.96L941.04,203.54L945.88,203.97L950.68,205.27L955.52,208.42L960.36,203.78L965.16,208L970,208" style="vector-effect: non-scaling-stroke; fill: none; stroke: rgb(227, 119, 194); stroke-opacity: 1; stroke-width: 2px; opacity: 1;"/><g class="points"/></g></g></g><g class="overplot"/><path class="xlines-above crisp" d="M79,620.5H1051M79,411.50000000000006H1051" style="fill: none; stroke-width: 1px; stroke: rgb(68, 68, 68); stroke-opacity: 1;"/><path class="ylines-above crisp" d="M79.5,412.00000000000006V620M1050.5,412.00000000000006V620" style="fill: none; stroke-width: 1px; stroke: rgb(68, 68, 68); stroke-opacity: 1;"/><g class="overlines-above"/><g class="xaxislayer-above"><g class="x7tick"><text text-anchor="middle" x="0" y="635.4" transform="translate(189.69,0)" style="font-family: 'Open Sans', verdana, arial, sans-serif; font-size: 12px; fill: rgb(68, 68, 68); fill-opacity: 1; white-space: pre;">−10</text></g><g class="x7tick"><text text-anchor="middle" x="0" y="635.4" transform="translate(340.43,0)" style="font-family: 'Open Sans', verdana, arial, sans-serif; font-size: 12px; fill: rgb(68, 68, 68); fill-opacity: 1; white-space: pre;">0</text></g><g class="x7tick"><text text-anchor="middle" x="0" y="635.4" transform="translate(491.17,0)" style="font-family: 'Open Sans', verdana, arial, sans-serif; font-size: 12px; fill: rgb(68, 68, 68); fill-opacity: 1; white-space: pre;">10</text></g><g class="x7tick"><text text-anchor="middle" x="0" y="635.4" transform="translate(641.91,0)" style="font-family: 'Open Sans', verdana, arial, sans-serif; font-size: 12px; fill: rgb(68, 68, 68); fill-opacity: 1; white-space: pre;">20</text></g><g class="x7tick"><text text-anchor="middle" x="0" y="635.4" transform="translate(792.65,0)" style="font-family: 'Open Sans', verdana, arial, sans-serif; font-size: 12px; fill: rgb(68, 68, 68); fill-opacity: 1; white-space: pre;">30</text></g><g class="x7tick"><text text-anchor="middle" x="0" y="635.4" transform="translate(943.38,0)" style="font-family: 'Open Sans', verdana, arial, sans-serif; font-size: 12px; fill: rgb(68, 68, 68); fill-opacity: 1; white-space: pre;">40</text></g></g><g class="yaxislayer-above"><g class="y7tick"><text text-anchor="end" x="76.6" y="4.199999999999999" transform="translate(0,620)" style="font-family: 'Open Sans', verdana, arial, sans-serif; font-size: 12px; fill: rgb(68, 68, 68); fill-opacity: 1; white-space: pre;">0</text></g><g class="y7tick"><text text-anchor="end" x="76.6" y="4.199999999999999" transform="translate(0,569.22)" style="font-family: 'Open Sans', verdana, arial, sans-serif; font-size: 12px; fill: rgb(68, 68, 68); fill-opacity: 1; white-space: pre;">10</text></g><g class="y7tick"><text text-anchor="end" x="76.6" y="4.199999999999999" transform="translate(0,518.4300000000001)" style="font-family: 'Open Sans', verdana, arial, sans-serif; font-size: 12px; fill: rgb(68, 68, 68); fill-opacity: 1; white-space: pre;">20</text></g><g class="y7tick"><text text-anchor="end" x="76.6" y="4.199999999999999" transform="translate(0,467.65000000000003)" style="font-family: 'Open Sans', verdana, arial, sans-serif; font-size: 12px; fill: rgb(68, 68, 68); fill-opacity: 1; white-space: pre;">30</text></g><g class="y7tick"><text text-anchor="end" x="76.6" y="4.199999999999999" transform="translate(0,416.87000000000006)" style="font-family: 'Open Sans', verdana, arial, sans-serif; font-size: 12px; fill: rgb(68, 68, 68); fill-opacity: 1; white-space: pre;">40</text></g></g><g class="overaxes-above"/></g><g class="subplot x8y8"><g class="layer-subplot"><g class="shapelayer"/><g class="imagelayer"/></g><g class="gridlayer"><g class="x8"><path class="x8grid crisp" d="M0,152.00000000000006v207.99999999999994" transform="translate(189.69,0)" style="stroke: rgb(238, 238, 238); stroke-opacity: 1; stroke-width: 1px;"/><path class="x8grid crisp" d="M0,152.00000000000006v207.99999999999994" transform="translate(340.43,0)" style="stroke: rgb(238, 238, 238); stroke-opacity: 1; stroke-width: 1px;"/><path class="x8grid crisp" d="M0,152.00000000000006v207.99999999999994" transform="translate(491.17,0)" style="stroke: rgb(238, 238, 238); stroke-opacity: 1; stroke-width: 1px;"/><path class="x8grid crisp" d="M0,152.00000000000006v207.99999999999994" transform="translate(641.91,0)" style="stroke: rgb(238, 238, 238); stroke-opacity: 1; stroke-width: 1px;"/><path class="x8grid crisp" d="M0,152.00000000000006v207.99999999999994" transform="translate(792.65,0)" style="stroke: rgb(238, 238, 238); stroke-opacity: 1; stroke-width: 1px;"/><path class="x8grid crisp" d="M0,152.00000000000006v207.99999999999994" transform="translate(943.38,0)" style="stroke: rgb(238, 238, 238); stroke-opacity: 1; stroke-width: 1px;"/></g><g class="y8"><path class="y8grid crisp" d="M80,0h970" transform="translate(0,324.12000000000006)" style="stroke: rgb(238, 238, 238); stroke-opacity: 1; stroke-width: 1px;"/><path class="y8grid crisp" d="M80,0h970" transform="translate(0,288.24000000000007)" style="stroke: rgb(238, 238, 238); stroke-opacity: 1; stroke-width: 1px;"/><path class="y8grid crisp" d="M80,0h970" transform="translate(0,252.36000000000007)" style="stroke: rgb(238, 238, 238); stroke-opacity: 1; stroke-width: 1px;"/><path class="y8grid crisp" d="M80,0h970" transform="translate(0,216.48000000000008)" style="stroke: rgb(238, 238, 238); stroke-opacity: 1; stroke-width: 1px;"/><path class="y8grid crisp" d="M80,0h970" transform="translate(0,180.60000000000005)" style="stroke: rgb(238, 238, 238); stroke-opacity: 1; stroke-width: 1px;"/></g></g><g class="zerolinelayer"/><path class="xlines-below"/><path class="ylines-below"/><g class="overlines-below"/><g class="xaxislayer-below"/><g class="yaxislayer-below"/><g class="overaxes-below"/><g class="plot" transform="translate(80, 152.00000000000006)" clip-path="url(#clipaa8263x8y8plot)"><g class="imagelayer"/><g class="maplayer"/><g class="barlayer"/><g class="carpetlayer"/><g class="violinlayer"/><g class="boxlayer"/><g class="scatterlayer"><g class="trace scatter trace0761a5" style="stroke-miterlimit: 2;"><path class="js-fill js-tozero" d="M970,208L0,208L0,208L4.83,208L9.65,189L14.48,199.28L19.31,200.48L24.13,201.45L28.96,204.79L33.78,200.01L38.61,207.27L43.43,201.4L48.26,200.71L53.09,198.06L57.91,204.63L62.74,206.17L67.56,209.43L72.39,208L77.22,208L188.21,208L193.03,206.02L202.69,198.92L207.51,183.85L212.34,179.11L217.17,198.04L221.99,190.22L226.82,199.39L231.64,194.2L236.47,201.6L241.29,187.15L246.12,184.05L250.95,195.06L255.77,189.54L260.6,208L265.42,208L318.51,208L323.34,71.72L328.16,12.3L332.99,90.6L337.81,175.91L342.64,208L376.42,207.95L381.25,200.52L386.07,185.43L390.9,193.13L395.72,199.44L400.55,199.32L405.38,203.92L410.2,206.78L415.03,208L419.85,206.98L429.5,199.26L434.33,198.68L439.15,202.83L443.98,199.67L448.81,200.61L453.63,197.76L458.46,194.73L463.29,197.42L468.11,202.49L472.94,203.46L477.76,206.92L482.59,208.03L487.42,208L492.24,206.4L497.07,204.32L501.89,204.88L506.72,205.83L511.54,205.95L526.02,206.4L530.85,205.94L545.33,206.99L550.15,206.23L554.98,205.04L559.8,205.8L564.63,202.08L569.45,200.23L574.28,196.02L579.11,202.96L583.93,203.73L588.76,202.6L598.41,201.17L603.23,203.93L608.06,202.62L612.89,204.62L617.71,198.01L622.54,200.82L632.19,200.17L637.02,202.29L646.67,199.87L651.49,200.59L661.14,204.85L665.97,205.58L670.82,199.22L675.61,205.81L680.45,202.5L685.29,201.11L690.09,204.31L694.93,206.58L699.73,206.97L704.57,204.73L709.41,202.25L714.21,192.52L719.05,201.66L723.89,197.35L728.69,200.63L733.53,199.59L743.17,206.58L748.01,204.93L752.85,208.42L757.65,201.32L767.33,206.1L772.13,202.55L776.97,200.51L781.81,200.12L786.61,202.82L791.45,198.78L801.09,202.89L805.93,205.19L810.73,203.61L815.57,204.47L825.21,199.59L830.05,197.39L834.89,192.3L839.69,197.2L844.53,195.56L849.37,198.78L854.17,199.6L859.01,202.62L863.85,201.04L868.64,201.8L873.48,200.81L878.32,204.09L883.12,204.27L887.96,198.06L892.8,198.07L897.6,200.98L902.44,200.3L907.28,202.35L912.08,207.12L916.92,205.78L921.72,205.56L926.56,204.45L931.4,200.48L936.2,202.14L941.04,200.39L945.88,202.65L950.68,201.19L955.52,208.22L960.36,203.47L965.16,208L970,208" style="fill: rgb(127, 127, 127); fill-opacity: 0.5; stroke-width: 0;"/><path class="js-line" d="M0,208L4.83,208L9.65,189L14.48,199.28L19.31,200.48L24.13,201.45L28.96,204.79L33.78,200.01L38.61,207.27L43.43,201.4L48.26,200.71L53.09,198.06L57.91,204.63L62.74,206.17L67.56,209.43L72.39,208L77.22,208L188.21,208L193.03,206.02L202.69,198.92L207.51,183.85L212.34,179.11L217.17,198.04L221.99,190.22L226.82,199.39L231.64,194.2L236.47,201.6L241.29,187.15L246.12,184.05L250.95,195.06L255.77,189.54L260.6,208L265.42,208L318.51,208L323.34,71.72L328.16,12.3L332.99,90.6L337.81,175.91L342.64,208L376.42,207.95L381.25,200.52L386.07,185.43L390.9,193.13L395.72,199.44L400.55,199.32L405.38,203.92L410.2,206.78L415.03,208L419.85,206.98L429.5,199.26L434.33,198.68L439.15,202.83L443.98,199.67L448.81,200.61L453.63,197.76L458.46,194.73L463.29,197.42L468.11,202.49L472.94,203.46L477.76,206.92L482.59,208.03L487.42,208L492.24,206.4L497.07,204.32L501.89,204.88L506.72,205.83L511.54,205.95L526.02,206.4L530.85,205.94L545.33,206.99L550.15,206.23L554.98,205.04L559.8,205.8L564.63,202.08L569.45,200.23L574.28,196.02L579.11,202.96L583.93,203.73L588.76,202.6L598.41,201.17L603.23,203.93L608.06,202.62L612.89,204.62L617.71,198.01L622.54,200.82L632.19,200.17L637.02,202.29L646.67,199.87L651.49,200.59L661.14,204.85L665.97,205.58L670.82,199.22L675.61,205.81L680.45,202.5L685.29,201.11L690.09,204.31L694.93,206.58L699.73,206.97L704.57,204.73L709.41,202.25L714.21,192.52L719.05,201.66L723.89,197.35L728.69,200.63L733.53,199.59L743.17,206.58L748.01,204.93L752.85,208.42L757.65,201.32L767.33,206.1L772.13,202.55L776.97,200.51L781.81,200.12L786.61,202.82L791.45,198.78L801.09,202.89L805.93,205.19L810.73,203.61L815.57,204.47L825.21,199.59L830.05,197.39L834.89,192.3L839.69,197.2L844.53,195.56L849.37,198.78L854.17,199.6L859.01,202.62L863.85,201.04L868.64,201.8L873.48,200.81L878.32,204.09L883.12,204.27L887.96,198.06L892.8,198.07L897.6,200.98L902.44,200.3L907.28,202.35L912.08,207.12L916.92,205.78L921.72,205.56L926.56,204.45L931.4,200.48L936.2,202.14L941.04,200.39L945.88,202.65L950.68,201.19L955.52,208.22L960.36,203.47L965.16,208L970,208" style="vector-effect: non-scaling-stroke; fill: none; stroke: rgb(127, 127, 127); stroke-opacity: 1; stroke-width: 2px; opacity: 1;"/><g class="points"/></g></g></g><g class="overplot"/><path class="xlines-above crisp" d="M79,360.5H1051M79,151.50000000000006H1051" style="fill: none; stroke-width: 1px; stroke: rgb(68, 68, 68); stroke-opacity: 1;"/><path class="ylines-above crisp" d="M79.5,152.00000000000006V360M1050.5,152.00000000000006V360" style="fill: none; stroke-width: 1px; stroke: rgb(68, 68, 68); stroke-opacity: 1;"/><g class="overlines-above"/><g class="xaxislayer-above"><g class="x8tick"><text text-anchor="middle" x="0" y="375.4" transform="translate(189.69,0)" style="font-family: 'Open Sans', verdana, arial, sans-serif; font-size: 12px; fill: rgb(68, 68, 68); fill-opacity: 1; white-space: pre;">−10</text></g><g class="x8tick"><text text-anchor="middle" x="0" y="375.4" transform="translate(340.43,0)" style="font-family: 'Open Sans', verdana, arial, sans-serif; font-size: 12px; fill: rgb(68, 68, 68); fill-opacity: 1; white-space: pre;">0</text></g><g class="x8tick"><text text-anchor="middle" x="0" y="375.4" transform="translate(491.17,0)" style="font-family: 'Open Sans', verdana, arial, sans-serif; font-size: 12px; fill: rgb(68, 68, 68); fill-opacity: 1; white-space: pre;">10</text></g><g class="x8tick"><text text-anchor="middle" x="0" y="375.4" transform="translate(641.91,0)" style="font-family: 'Open Sans', verdana, arial, sans-serif; font-size: 12px; fill: rgb(68, 68, 68); fill-opacity: 1; white-space: pre;">20</text></g><g class="x8tick"><text text-anchor="middle" x="0" y="375.4" transform="translate(792.65,0)" style="font-family: 'Open Sans', verdana, arial, sans-serif; font-size: 12px; fill: rgb(68, 68, 68); fill-opacity: 1; white-space: pre;">30</text></g><g class="x8tick"><text text-anchor="middle" x="0" y="375.4" transform="translate(943.38,0)" style="font-family: 'Open Sans', verdana, arial, sans-serif; font-size: 12px; fill: rgb(68, 68, 68); fill-opacity: 1; white-space: pre;">40</text></g></g><g class="yaxislayer-above"><g class="y8tick"><text text-anchor="end" x="76.6" y="4.199999999999999" transform="translate(0,360.00000000000006)" style="font-family: 'Open Sans', verdana, arial, sans-serif; font-size: 12px; fill: rgb(68, 68, 68); fill-opacity: 1; white-space: pre;">0</text></g><g class="y8tick"><text text-anchor="end" x="76.6" y="4.199999999999999" transform="translate(0,324.12000000000006)" style="font-family: 'Open Sans', verdana, arial, sans-serif; font-size: 12px; fill: rgb(68, 68, 68); fill-opacity: 1; white-space: pre;">200</text></g><g class="y8tick"><text text-anchor="end" x="76.6" y="4.199999999999999" transform="translate(0,288.24000000000007)" style="font-family: 'Open Sans', verdana, arial, sans-serif; font-size: 12px; fill: rgb(68, 68, 68); fill-opacity: 1; white-space: pre;">400</text></g><g class="y8tick"><text text-anchor="end" x="76.6" y="4.199999999999999" transform="translate(0,252.36000000000007)" style="font-family: 'Open Sans', verdana, arial, sans-serif; font-size: 12px; fill: rgb(68, 68, 68); fill-opacity: 1; white-space: pre;">600</text></g><g class="y8tick"><text text-anchor="end" x="76.6" y="4.199999999999999" transform="translate(0,216.48000000000008)" style="font-family: 'Open Sans', verdana, arial, sans-serif; font-size: 12px; fill: rgb(68, 68, 68); fill-opacity: 1; white-space: pre;">800</text></g><g class="y8tick"><text text-anchor="end" x="76.6" y="4.199999999999999" transform="translate(0,180.60000000000005)" style="font-family: 'Open Sans', verdana, arial, sans-serif; font-size: 12px; fill: rgb(68, 68, 68); fill-opacity: 1; white-space: pre;">1000</text></g></g><g class="overaxes-above"/></g></g><g class="polarlayer"/><g class="ternarylayer"/><g class="geolayer"/><g class="pielayer"/><g class="glimages"/><defs id="topdefs-aa8263"><g class="clips"/></defs><g class="layer-above"><g class="imagelayer"/><g class="shapelayer"><path data-index="0" fill-rule="evenodd" d="M340.43,2180L340.43,1972" clip-path="url(#clipaa8263xy)" style="opacity: 1; stroke: rgb(255, 0, 0); stroke-opacity: 1; fill: rgb(0, 0, 0); fill-opacity: 0; stroke-width: 2px;"/><path data-index="1" fill-rule="evenodd" d="M340.43,1920L340.43,1713" clip-path="url(#clipaa8263xy2)" style="opacity: 1; stroke: rgb(255, 0, 0); stroke-opacity: 1; fill: rgb(0, 0, 0); fill-opacity: 0; stroke-width: 2px;"/><path data-index="2" fill-rule="evenodd" d="M340.43,1660L340.43,1452" clip-path="url(#clipaa8263xy3)" style="opacity: 1; stroke: rgb(255, 0, 0); stroke-opacity: 1; fill: rgb(0, 0, 0); fill-opacity: 0; stroke-width: 2px;"/><path data-index="3" fill-rule="evenodd" d="M340.43,1400L340.43,1193" clip-path="url(#clipaa8263xy4)" style="opacity: 1; stroke: rgb(255, 0, 0); stroke-opacity: 1; fill: rgb(0, 0, 0); fill-opacity: 0; stroke-width: 2px;"/><path data-index="4" fill-rule="evenodd" d="M340.43,1140L340.43,932" clip-path="url(#clipaa8263xy5)" style="opacity: 1; stroke: rgb(255, 0, 0); stroke-opacity: 1; fill: rgb(0, 0, 0); fill-opacity: 0; stroke-width: 2px;"/><path data-index="5" fill-rule="evenodd" d="M340.43,880L340.43,672" clip-path="url(#clipaa8263xy6)" style="opacity: 1; stroke: rgb(255, 0, 0); stroke-opacity: 1; fill: rgb(0, 0, 0); fill-opacity: 0; stroke-width: 2px;"/><path data-index="6" fill-rule="evenodd" d="M340.43,620L340.43,413.00000000000006" clip-path="url(#clipaa8263xy7)" style="opacity: 1; stroke: rgb(255, 0, 0); stroke-opacity: 1; fill: rgb(0, 0, 0); fill-opacity: 0; stroke-width: 2px;"/><path data-index="7" fill-rule="evenodd" d="M340.43,360.00000000000006L340.43,153.00000000000006" clip-path="url(#clipaa8263xy8)" style="opacity: 1; stroke: rgb(255, 0, 0); stroke-opacity: 1; fill: rgb(0, 0, 0); fill-opacity: 0; stroke-width: 2px;"/></g></g><g class="infolayer"><g class="g-gtitle"><text class="gtitle" x="565" y="50" text-anchor="middle" style="font-family: 'Open Sans', verdana, arial, sans-serif; font-size: 17px; fill: rgb(68, 68, 68); opacity: 1; font-weight: normal; white-space: pre;">DENSITY OF STATES PBE0-D3</text></g><g class="g-xtitle"><text class="xtitle" x="565" y="2232" text-anchor="middle" style="font-family: 'Open Sans', verdana, arial, sans-serif; font-size: 14px; fill: rgb(68, 68, 68); opacity: 1; font-weight: normal; white-space: pre;">E-EFERMI (eV)</text></g><g class="g-x2title"/><g class="g-x3title"/><g class="g-x4title"/><g class="g-x5title"/><g class="g-x6title"/><g class="g-x7title"/><g class="g-x8title"/><g class="g-ytitle" transform="translate(-2.8000011444091797,0)"><text class="ytitle" transform="rotate(-90,48,2076)" x="48" y="2076" text-anchor="middle" style="font-family: 'Open Sans', verdana, arial, sans-serif; font-size: 11px; fill: rgb(68, 68, 68); opacity: 1; font-weight: normal; white-space: pre;">1 2 S H</text></g><g class="g-y2title"><text class="y2title" transform="rotate(-90,48,1816)" x="48" y="1816" text-anchor="middle" style="font-family: 'Open Sans', verdana, arial, sans-serif; font-size: 11px; fill: rgb(68, 68, 68); opacity: 1; font-weight: normal; white-space: pre;">61 62 66 s N</text></g><g class="g-y3title"><text class="y3title" transform="rotate(-90,48,1556)" x="48" y="1556" text-anchor="middle" style="font-family: 'Open Sans', verdana, arial, sans-serif; font-size: 11px; fill: rgb(68, 68, 68); opacity: 1; font-weight: normal; white-space: pre;">3 4 px py H</text></g><g class="g-y4title"><text class="y4title" transform="rotate(-90,48,1296)" x="48" y="1296" text-anchor="middle" style="font-family: 'Open Sans', verdana, arial, sans-serif; font-size: 11px; fill: rgb(68, 68, 68); opacity: 1; font-weight: normal; white-space: pre;">63 64 67 67 px py N</text></g><g class="g-y5title" transform="translate(-2.8000011444091797,0)"><text class="y5title" transform="rotate(-90,48,1036)" x="48" y="1036" text-anchor="middle" style="font-family: 'Open Sans', verdana, arial, sans-serif; font-size: 11px; fill: rgb(68, 68, 68); opacity: 1; font-weight: normal; white-space: pre;">3 pz H</text></g><g class="g-y6title"><text class="y6title" transform="rotate(-90,48,776)" x="48" y="776" text-anchor="middle" style="font-family: 'Open Sans', verdana, arial, sans-serif; font-size: 11px; fill: rgb(68, 68, 68); opacity: 1; font-weight: normal; white-space: pre;">65 69 pz N</text></g><g class="g-y7title"><text class="y7title" transform="rotate(-90,48,516)" x="48" y="516" text-anchor="middle" style="font-family: 'Open Sans', verdana, arial, sans-serif; font-size: 11px; fill: rgb(68, 68, 68); opacity: 1; font-weight: normal; white-space: pre;">70 71 72 73 73 d N</text></g><g class="g-y8title"><text class="y8title" transform="rotate(-90,48,256)" x="48" y="256" text-anchor="middle" style="font-family: 'Open Sans', verdana, arial, sans-serif; font-size: 11px; fill: rgb(68, 68, 68); opacity: 1; font-weight: normal; white-space: pre;">Total</text></g></g></svg>