<svg class="main-svg" xmlns="http://www.w3.org/2000/svg" xmlns:xlink="http://www.w3.org/1999/xlink" width="1130" height="2260" style="" viewBox="0 0 1130 2260"><rect x="0" y="0" width="1130" height="2260" style="fill: rgb(238, 238, 238); fill-opacity: 1;"/><defs id="defs-5964d0"><g class="clips"><clipPath class="plotclip" id="clip5964d0xyplot"><rect width="970" height="208"/></clipPath><clipPath class="plotclip" id="clip5964d0x2y2plot"><rect width="970" height="208"/></clipPath><clipPath class="plotclip" id="clip5964d0x3y3plot"><rect width="970" height="207.99999999999994"/></clipPath><clipPath class="plotclip" id="clip5964d0x4y4plot"><rect width="970" height="207.99999999999994"/></clipPath><clipPath class="plotclip" id="clip5964d0x5y5plot"><rect width="970" height="207.99999999999994"/></clipPath><clipPath class="plotclip" id="clip5964d0x6y6plot"><rect width="970" height="207.99999999999994"/></clipPath><clipPath class="plotclip" id="clip5964d0x7y7plot"><rect width="970" height="207.99999999999994"/></clipPath><clipPath class="plotclip" id="clip5964d0x8y8plot"><rect width="970" height="207.99999999999994"/></clipPath><clipPath class="axesclip" id="clip5964d0x"><rect x="80" y="0" width="970" height="2260"/></clipPath><clipPath class="axesclip" id="clip5964d0y"><rect x="0" y="1972" width="1130" height="208"/></clipPath><clipPath class="axesclip" id="clip5964d0xy"><rect x="80" y="1972" width="970" height="208"/></clipPath><clipPath class="axesclip" id="clip5964d0y2"><rect x="0" y="1712" width="1130" height="208"/></clipPath><clipPath class="axesclip" id="clip5964d0xy2"><rect x="80" y="1712" width="970" height="208"/></clipPath><clipPath class="axesclip" id="clip5964d0y3"><rect x="0" y="1452" width="1130" height="207.99999999999994"/></clipPath><clipPath class="axesclip" id="clip5964d0xy3"><rect x="80" y="1452" width="970" height="207.99999999999994"/></clipPath><clipPath class="axesclip" id="clip5964d0y4"><rect x="0" y="1192" width="1130" height="207.99999999999994"/></clipPath><clipPath class="axesclip" id="clip5964d0xy4"><rect x="80" y="1192" width="970" height="207.99999999999994"/></clipPath><clipPath class="axesclip" id="clip5964d0y5"><rect x="0" y="932" width="1130" height="207.99999999999994"/></clipPath><clipPath class="axesclip" id="clip5964d0xy5"><rect x="80" y="932" width="970" height="207.99999999999994"/></clipPath><clipPath class="axesclip" id="clip5964d0y6"><rect x="0" y="672" width="1130" height="207.99999999999994"/></clipPath><clipPath class="axesclip" id="clip5964d0xy6"><rect x="80" y="672" width="970" height="207.99999999999994"/></clipPath><clipPath class="axesclip" id="clip5964d0y7"><rect x="0" y="412.00000000000006" width="1130" height="207.99999999999994"/></clipPath><clipPath class="axesclip" id="clip5964d0xy7"><rect x="80" y="412.00000000000006" width="970" height="207.99999999999994"/></clipPath><clipPath class="axesclip" id="clip5964d0y8"><rect x="0" y="152.00000000000006" width="1130" height="207.99999999999994"/></clipPath><clipPath class="axesclip" id="clip5964d0xy8"><rect x="80" y="152.00000000000006" width="970" height="207.99999999999994"/></clipPath><clipPath class="axesclip" id="clip5964d0x2"><rect x="80" y="0" width="970" height="2260"/></clipPath><clipPath class="axesclip" id="clip5964d0x2y"><rect x="80" y="1972" width="970" height="208"/></clipPath><clipPath class="axesclip" id="clip5964d0x2y2"><rect x="80" y="1712" width="970" height="208"/></clipPath><clipPath class="axesclip" id="clip5964d0x2y3"><rect x="80" y="1452" width="970" height="207.99999999999994"/></clipPath><clipPath class="axesclip" id="clip5964d0x2y4"><rect x="80" y="1192" width="970" height="207.99999999999994"/></clipPath><clipPath class="axesclip" id="clip5964d0x2y5"><rect x="80" y="932" width="970" height="207.99999999999994"/></clipPath><clipPath class="axesclip" id="clip5964d0x2y6"><rect x="80" y="672" width="970" height="207.99999999999994"/></clipPath><clipPath class="axesclip" id="clip5964d0x2y7"><rect x="80" y="412.00000000000006" width="970" height="207.99999999999994"/></clipPath><clipPath class="axesclip" id="clip5964d0x2y8"><rect x="80" y="152.00000000000006" width="970" height="207.99999999999994"/></clipPath><clipPath class="axesclip" id="clip5964d0x3"><rect x="80" y="0" width="970" height="2260"/></clipPath><clipPath class="axesclip" id="clip5964d0x3y"><rect x="80" y="1972" width="970" height="208"/></clipPath><clipPath class="axesclip" id="clip5964d0x3y2"><rect x="80" y="1712" width="970" height="208"/></clipPath><clipPath class="axesclip" id="clip5964d0x3y3"><rect x="80" y="1452" width="970" height="207.99999999999994"/></clipPath><clipPath class="axesclip" id="clip5964d0x3y4"><rect x="80" y="1192" width="970" height="207.99999999999994"/></clipPath><clipPath class="axesclip" id="clip5964d0x3y5"><rect x="80" y="932" width="970" height="207.99999999999994"/></clipPath><clipPath class="axesclip" id="clip5964d0x3y6"><rect x="80" y="672" width="970" height="207.99999999999994"/></clipPath><clipPath class="axesclip" id="clip5964d0x3y7"><rect x="80" y="412.00000000000006" width="970" height="207.99999999999994"/></clipPath><clipPath class="axesclip" id="clip5964d0x3y8"><rect x="80" y="152.00000000000006" width="970" height="207.99999999999994"/></clipPath><clipPath class="axesclip" id="clip5964d0x4"><rect x="80" y="0" width="970" height="2260"/></clipPath><clipPath class="axesclip" id="clip5964d0x4y"><rect x="80" y="1972" width="970" height="208"/></clipPath><clipPath class="axesclip" id="clip5964d0x4y2"><rect x="80" y="1712" width="970" height="208"/></clipPath><clipPath class="axesclip" id="clip5964d0x4y3"><rect x="80" y="1452" width="970" height="207.99999999999994"/></clipPath><clipPath class="axesclip" id="clip5964d0x4y4"><rect x="80" y="1192" width="970" height="207.99999999999994"/></clipPath><clipPath class="axesclip" id="clip5964d0x4y5"><rect x="80" y="932" width="970" height="207.99999999999994"/></clipPath><clipPath class="axesclip" id="clip5964d0x4y6"><rect x="80" y="672" width="970" height="207.99999999999994"/></clipPath><clipPath class="axesclip" id="clip5964d0x4y7"><rect x="80" y="412.00000000000006" width="970" height="207.99999999999994"/></clipPath><clipPath class="axesclip" id="clip5964d0x4y8"><rect x="80" y="152.00000000000006" width="970" height="207.99999999999994"/></clipPath><clipPath class="axesclip" id="clip5964d0x5"><rect x="80" y="0" width="970" height="2260"/></clipPath><clipPath class="axesclip" id="clip5964d0x5y"><rect x="80" y="1972" width="970" height="208"/></clipPath><clipPath class="axesclip" id="clip5964d0x5y2"><rect x="80" y="1712" width="970" height="208"/></clipPath><clipPath class="axesclip" id="clip5964d0x5y3"><rect x="80" y="1452" width="970" height="207.99999999999994"/></clipPath><clipPath class="axesclip" id="clip5964d0x5y4"><rect x="80" y="1192" width="970" height="207.99999999999994"/></clipPath><clipPath class="axesclip" id="clip5964d0x5y5"><rect x="80" y="932" width="970" height="207.99999999999994"/></clipPath><clipPath class="axesclip" id="clip5964d0x5y6"><rect x="80" y="672" width="970" height="207.99999999999994"/></clipPath><clipPath class="axesclip" id="clip5964d0x5y7"><rect x="80" y="412.00000000000006" width="970" height="207.99999999999994"/></clipPath><clipPath class="axesclip" id="clip5964d0x5y8"><rect x="80" y="152.00000000000006" width="970" height="207.99999999999994"/></clipPath><clipPath class="axesclip" id="clip5964d0x6"><rect x="80" y="0" width="970" height="2260"/></clipPath><clipPath class="axesclip" id="clip5964d0x6y"><rect x="80" y="1972" width="970" height="208"/></clipPath><clipPath class="axesclip" id="clip5964d0x6y2"><rect x="80" y="1712" width="970" height="208"/></clipPath><clipPath class="axesclip" id="clip5964d0x6y3"><rect x="80" y="1452" width="970" height="207.99999999999994"/></clipPath><clipPath class="axesclip" id="clip5964d0x6y4"><rect x="80" y="1192" width="970" height="207.99999999999994"/></clipPath><clipPath class="axesclip" id="clip5964d0x6y5"><rect x="80" y="932" width="970" height="207.99999999999994"/></clipPath><clipPath class="axesclip" id="clip5964d0x6y6"><rect x="80" y="672" width="970" height="207.99999999999994"/></clipPath><clipPath class="axesclip" id="clip5964d0x6y7"><rect x="80" y="412.00000000000006" width="970" height="207.99999999999994"/></clipPath><clipPath class="axesclip" id="clip5964d0x6y8"><rect x="80" y="152.00000000000006" width="970" height="207.99999999999994"/></clipPath><clipPath class="axesclip" id="clip5964d0x7"><rect x="80" y="0" width="970" height="2260"/></clipPath><clipPath class="axesclip" id="clip5964d0x7y"><rect x="80" y="1972" width="970" height="208"/></clipPath><clipPath class="axesclip" id="clip5964d0x7y2"><rect x="80" y="1712" width="970" height="208"/></clipPath><clipPath class="axesclip" id="clip5964d0x7y3"><rect x="80" y="1452" width="970" height="207.99999999999994"/></clipPath><clipPath class="axesclip" id="clip5964d0x7y4"><rect x="80" y="1192" width="970" height="207.99999999999994"/></clipPath><clipPath class="axesclip" id="clip5964d0x7y5"><rect x="80" y="932" width="970" height="207.99999999999994"/></clipPath><clipPath class="axesclip" id="clip5964d0x7y6"><rect x="80" y="672" width="970" height="207.99999999999994"/></clipPath><clipPath class="axesclip" id="clip5964d0x7y7"><rect x="80" y="412.00000000000006" width="970" height="207.99999999999994"/></clipPath><clipPath class="axesclip" id="clip5964d0x7y8"><rect x="80" y="152.00000000000006" width="970" height="207.99999999999994"/></clipPath><clipPath class="axesclip" id="clip5964d0x8"><rect x="80" y="0" width="970" height="2260"/></clipPath><clipPath class="axesclip" id="clip5964d0x8y"><rect x="80" y="1972" width="970" height="208"/></clipPath><clipPath class="axesclip" id="clip5964d0x8y2"><rect x="80" y="1712" width="970" height="208"/></clipPath><clipPath class="axesclip" id="clip5964d0x8y3"><rect x="80" y="1452" width="970" height="207.99999999999994"/></clipPath><clipPath class="axesclip" id="clip5964d0x8y4"><rect x="80" y="1192" width="970" height="207.99999999999994"/></clipPath><clipPath class="axesclip" id="clip5964d0x8y5"><rect x="80" y="932" width="970" height="207.99999999999994"/></clipPath><clipPath class="axesclip" id="clip5964d0x8y6"><rect x="80" y="672" width="970" height="207.99999999999994"/></clipPath><clipPath class="axesclip" id="clip5964d0x8y7"><rect x="80" y="412.00000000000006" width="970" height="207.99999999999994"/></clipPath><clipPath class="axesclip" id="clip5964d0x8y8"><rect x="80" y="152.00000000000006" width="970" height="207.99999999999994"/></clipPath></g><g class="gradients"/></defs><g class="bglayer"><rect class="bg" x="80" y="1972" width="970" height="208" style="fill: rgb(255, 255, 255); fill-opacity: 1; stroke-width: 0;"/><rect class="bg" x="80" y="1712" width="970" height="208" style="fill: rgb(255, 255, 255); fill-opacity: 1; stroke-width: 0;"/><rect class="bg" x="80" y="1452" width="970" height="207.99999999999994" style="fill: rgb(255, 255, 255); fill-opacity: 1; stroke-width: 0;"/><rect class="bg" x="80" y="1192" width="970" height="207.99999999999994" style="fill: rgb(255, 255, 255); fill-opacity: 1; stroke-width: 0;"/><rect class="bg" x="80" y="932" width="970" height="207.99999999999994" style="fill: rgb(255, 255, 255); fill-opacity: 1; stroke-width: 0;"/><rect class="bg" x="80" y="672" width="970" height="207.99999999999994" style="fill: rgb(255, 255, 255); fill-opacity: 1; stroke-width: 0;"/><rect class="bg" x="80" y="412.00000000000006" width="970" height="207.99999999999994" style="fill: rgb(255, 255, 255); fill-opacity: 1; stroke-width: 0;"/><rect class="bg" x="80" y="152.00000000000006" width="970" height="207.99999999999994" style="fill: rgb(255, 255, 255); fill-opacity: 1; stroke-width: 0;"/></g><g class="layer-below"><g class="imagelayer"/><g class="shapelayer"/></g><g class="cartesianlayer"><g class="subplot xy"><g class="layer-subplot"><g class="shapelayer"/><g class="imagelayer"/></g><g class="gridlayer"><g class="x"><path class="xgrid crisp" d="M0,1972v208" transform="translate(166.92000000000002,0)" style="stroke: rgb(238, 238, 238); stroke-opacity: 1; stroke-width: 1px;"/><path class="xgrid crisp" d="M0,1972v208" transform="translate(329.99,0)" style="stroke: rgb(238, 238, 238); stroke-opacity: 1; stroke-width: 1px;"/><path class="xgrid crisp" d="M0,1972v208" transform="translate(493.06,0)" style="stroke: rgb(238, 238, 238); stroke-opacity: 1; stroke-width: 1px;"/><path class="xgrid crisp" d="M0,1972v208" transform="translate(656.13,0)" style="stroke: rgb(238, 238, 238); stroke-opacity: 1; stroke-width: 1px;"/><path class="xgrid crisp" d="M0,1972v208" transform="translate(819.2,0)" style="stroke: rgb(238, 238, 238); stroke-opacity: 1; stroke-width: 1px;"/><path class="xgrid crisp" d="M0,1972v208" transform="translate(982.27,0)" style="stroke: rgb(238, 238, 238); stroke-opacity: 1; stroke-width: 1px;"/></g><g class="y"><path class="ygrid crisp" d="M80,0h970" transform="translate(0,2138.43)" style="stroke: rgb(238, 238, 238); stroke-opacity: 1; stroke-width: 1px;"/><path class="ygrid crisp" d="M80,0h970" transform="translate(0,2096.86)" style="stroke: rgb(238, 238, 238); stroke-opacity: 1; stroke-width: 1px;"/><path class="ygrid crisp" d="M80,0h970" transform="translate(0,2055.28)" style="stroke: rgb(238, 238, 238); stroke-opacity: 1; stroke-width: 1px;"/><path class="ygrid crisp" d="M80,0h970" transform="translate(0,2013.71)" style="stroke: rgb(238, 238, 238); stroke-opacity: 1; stroke-width: 1px;"/></g></g><g class="zerolinelayer"/><path class="xlines-below"/><path class="ylines-below"/><g class="overlines-below"/><g class="xaxislayer-below"/><g class="yaxislayer-below"/><g class="overaxes-below"/><g class="plot" transform="translate(80, 1972)" clip-path="url(#clip5964d0xyplot)"><g class="imagelayer"/><g class="maplayer"/><g class="barlayer"/><g class="carpetlayer"/><g class="violinlayer"/><g class="boxlayer"/><g class="scatterlayer"><g class="trace scatter trace69f934" style="stroke-miterlimit: 2;"><path class="js-fill js-tozero" d="M970,208L0,208L0,208L14.47,208.19L19.3,206.25L24.13,201.29L28.95,204.45L33.78,199.67L38.61,201.38L43.43,194.41L48.26,192.64L57.91,200.16L62.74,206.37L67.56,206.3L72.39,208.63L82.04,208L86.87,208L178.56,208L183.38,206.03L188.21,177.52L193.03,172.47L197.86,95.81L202.69,189.84L207.51,188.04L212.34,145.87L217.16,157.07L221.99,171.79L226.81,202.29L231.64,192.9L236.47,199.15L241.29,187.57L250.94,208L255.77,208L279.9,208L284.72,199.88L289.55,186.83L294.38,193.49L299.2,207.46L304.03,208L342.64,208L347.46,183.18L352.29,188.6L357.11,203.58L361.94,207.79L366.77,206.6L371.59,205.96L376.42,203.76L381.24,208.63L386.07,208L390.89,207.18L395.72,208.2L400.54,207.17L405.37,205.27L410.19,201.5L415.02,202.88L419.85,202.05L424.67,198.41L429.5,199.01L434.33,206.38L439.15,208.5L443.98,204.81L448.8,208.74L453.63,206.82L458.46,198.74L463.28,180.35L468.11,175.46L472.93,183.55L477.76,190.67L482.59,192.08L487.41,190.68L492.24,190.6L497.06,193.38L501.89,197.3L506.71,199.36L511.54,198.07L516.37,195.22L521.19,194.59L526.02,219.2L530.84,187.85L535.67,47.73L540.49,10.4L545.32,36.18L550.15,169.62L554.97,72.94L559.8,140.06L564.62,164.47L569.45,105.79L574.28,147.01L579.1,205.05L583.93,176.09L588.75,178.66L593.58,170.33L598.41,112L603.23,98.78L608.06,170.37L612.88,182.78L617.71,162.5L622.54,140.54L627.36,132.51L632.19,142.75L637.01,167.07L641.84,192.65L646.66,207.94L651.49,298.18L656.31,147.02L661.14,217.51L665.97,127.22L670.79,171.23L675.62,172.91L680.44,196.1L685.27,230.11L690.1,188.67L694.93,207.26L699.76,186.15L704.56,207.08L709.39,156.59L714.23,147.16L719.07,159.02L723.86,195.8L728.7,206.64L733.53,206.13L738.37,200.78L743.16,207.23L752.84,207.31L757.67,203.79L762.46,196.66L767.3,181.05L772.14,197.95L776.97,186.42L781.77,193.4L786.6,167.94L791.44,208.98L796.28,190.18L801.07,174.1L805.91,185.37L810.74,206.93L815.58,205.13L820.42,188.12L825.21,184.99L830.05,196.77L834.88,191.14L839.72,195.29L844.51,200.89L849.35,205.23L854.18,203.33L859.02,196.63L863.81,198.29L868.65,206.66L873.49,206.24L878.32,204.23L883.12,205.69L892.79,205.11L897.63,206.86L902.42,208.73L907.26,206.55L912.09,208.07L916.93,211.29L921.72,210.14L926.56,204.57L931.39,209.19L936.23,199.78L945.86,200.88L950.7,200.78L955.53,209.17L960.33,199.09L965.16,208L970,208" style="fill: rgb(31, 119, 180); fill-opacity: 0.5; stroke-width: 0;"/><path class="js-line" d="M0,208L14.47,208.19L19.3,206.25L24.13,201.29L28.95,204.45L33.78,199.67L38.61,201.38L43.43,194.41L48.26,192.64L57.91,200.16L62.74,206.37L67.56,206.3L72.39,208.63L82.04,208L86.87,208L178.56,208L183.38,206.03L188.21,177.52L193.03,172.47L197.86,95.81L202.69,189.84L207.51,188.04L212.34,145.87L217.16,157.07L221.99,171.79L226.81,202.29L231.64,192.9L236.47,199.15L241.29,187.57L250.94,208L255.77,208L279.9,208L284.72,199.88L289.55,186.83L294.38,193.49L299.2,207.46L304.03,208L342.64,208L347.46,183.18L352.29,188.6L357.11,203.58L361.94,207.79L366.77,206.6L371.59,205.96L376.42,203.76L381.24,208.63L386.07,208L390.89,207.18L395.72,208.2L400.54,207.17L405.37,205.27L410.19,201.5L415.02,202.88L419.85,202.05L424.67,198.41L429.5,199.01L434.33,206.38L439.15,208.5L443.98,204.81L448.8,208.74L453.63,206.82L458.46,198.74L463.28,180.35L468.11,175.46L472.93,183.55L477.76,190.67L482.59,192.08L487.41,190.68L492.24,190.6L497.06,193.38L501.89,197.3L506.71,199.36L511.54,198.07L516.37,195.22L521.19,194.59L526.02,219.2L530.84,187.85L535.67,47.73L540.49,10.4L545.32,36.18L550.15,169.62L554.97,72.94L559.8,140.06L564.62,164.47L569.45,105.79L574.28,147.01L579.1,205.05L583.93,176.09L588.75,178.66L593.58,170.33L598.41,112L603.23,98.78L608.06,170.37L612.88,182.78L617.71,162.5L622.54,140.54L627.36,132.51L632.19,142.75L637.01,167.07L641.84,192.65L646.66,207.94L651.49,298.18L656.31,147.02L661.14,217.51L665.97,127.22L670.79,171.23L675.62,172.91L680.44,196.1L685.27,230.11L690.1,188.67L694.93,207.26L699.76,186.15L704.56,207.08L709.39,156.59L714.23,147.16L719.07,159.02L723.86,195.8L728.7,206.64L733.53,206.13L738.37,200.78L743.16,207.23L752.84,207.31L757.67,203.79L762.46,196.66L767.3,181.05L772.14,197.95L776.97,186.42L781.77,193.4L786.6,167.94L791.44,208.98L796.28,190.18L801.07,174.1L805.91,185.37L810.74,206.93L815.58,205.13L820.42,188.12L825.21,184.99L830.05,196.77L834.88,191.14L839.72,195.29L844.51,200.89L849.35,205.23L854.18,203.33L859.02,196.63L863.81,198.29L868.65,206.66L873.49,206.24L878.32,204.23L883.12,205.69L892.79,205.11L897.63,206.86L902.42,208.73L907.26,206.55L912.09,208.07L916.93,211.29L921.72,210.14L926.56,204.57L931.39,209.19L936.23,199.78L945.86,200.88L950.7,200.78L955.53,209.17L960.33,199.09L965.16,208L970,208" style="vector-effect: non-scaling-stroke; fill: none; stroke: rgb(31, 119, 180); stroke-opacity: 1; stroke-width: 2px; opacity: 1;"/><g class="points"/></g></g></g><g class="overplot"/><path class="xlines-above crisp" d="M79,2180.5H1051M79,1971.5H1051" style="fill: none; stroke-width: 1px; stroke: rgb(68, 68, 68); stroke-opacity: 1;"/><path class="ylines-above crisp" d="M79.5,1972V2180M1050.5,1972V2180" style="fill: none; stroke-width: 1px; stroke: rgb(68, 68, 68); stroke-opacity: 1;"/><g class="overlines-above"/><g class="xaxislayer-above"><g class="xtick"><text text-anchor="middle" x="0" y="2195.4" transform="translate(166.92000000000002,0)" style="font-family: 'Open Sans', verdana, arial, sans-serif; font-size: 12px; fill: rgb(68, 68, 68); fill-opacity: 1; white-space: pre;">−10</text></g><g class="xtick"><text text-anchor="middle" x="0" y="2195.4" transform="translate(329.99,0)" style="font-family: 'Open Sans', verdana, arial, sans-serif; font-size: 12px; fill: rgb(68, 68, 68); fill-opacity: 1; white-space: pre;">0</text></g><g class="xtick"><text text-anchor="middle" x="0" y="2195.4" transform="translate(493.06,0)" style="font-family: 'Open Sans', verdana, arial, sans-serif; font-size: 12px; fill: rgb(68, 68, 68); fill-opacity: 1; white-space: pre;">10</text></g><g class="xtick"><text text-anchor="middle" x="0" y="2195.4" transform="translate(656.13,0)" style="font-family: 'Open Sans', verdana, arial, sans-serif; font-size: 12px; fill: rgb(68, 68, 68); fill-opacity: 1; white-space: pre;">20</text></g><g class="xtick"><text text-anchor="middle" x="0" y="2195.4" transform="translate(819.2,0)" style="font-family: 'Open Sans', verdana, arial, sans-serif; font-size: 12px; fill: rgb(68, 68, 68); fill-opacity: 1; white-space: pre;">30</text></g><g class="xtick"><text text-anchor="middle" x="0" y="2195.4" transform="translate(982.27,0)" style="font-family: 'Open Sans', verdana, arial, sans-serif; font-size: 12px; fill: rgb(68, 68, 68); fill-opacity: 1; white-space: pre;">40</text></g></g><g class="yaxislayer-above"><g class="ytick"><text text-anchor="end" x="76.6" y="4.199999999999999" transform="translate(0,2180)" style="font-family: 'Open Sans', verdana, arial, sans-serif; font-size: 12px; fill: rgb(68, 68, 68); fill-opacity: 1; white-space: pre;">0</text></g><g class="ytick"><text text-anchor="end" x="76.6" y="4.199999999999999" transform="translate(0,2138.43)" style="font-family: 'Open Sans', verdana, arial, sans-serif; font-size: 12px; fill: rgb(68, 68, 68); fill-opacity: 1; white-space: pre;">0.02</text></g><g class="ytick"><text text-anchor="end" x="76.6" y="4.199999999999999" transform="translate(0,2096.86)" style="font-family: 'Open Sans', verdana, arial, sans-serif; font-size: 12px; fill: rgb(68, 68, 68); fill-opacity: 1; white-space: pre;">0.04</text></g><g class="ytick"><text text-anchor="end" x="76.6" y="4.199999999999999" transform="translate(0,2055.28)" style="font-family: 'Open Sans', verdana, arial, sans-serif; font-size: 12px; fill: rgb(68, 68, 68); fill-opacity: 1; white-space: pre;">0.06</text></g><g class="ytick"><text text-anchor="end" x="76.6" y="4.199999999999999" transform="translate(0,2013.71)" style="font-family: 'Open Sans', verdana, arial, sans-serif; font-size: 12px; fill: rgb(68, 68, 68); fill-opacity: 1; white-space: pre;">0.08</text></g><g class="ytick"><text text-anchor="end" x="76.6" y="4.199999999999999" transform="translate(0,1972.14)" style="font-family: 'Open Sans', verdana, arial, sans-serif; font-size: 12px; fill: rgb(68, 68, 68); fill-opacity: 1; white-space: pre;">0.1</text></g></g><g class="overaxes-above"/></g><g class="subplot x2y2"><g class="layer-subplot"><g class="shapelayer"/><g class="imagelayer"/></g><g class="gridlayer"><g class="x2"><path class="x2grid crisp" d="M0,1712v208" transform="translate(166.92000000000002,0)" style="stroke: rgb(238, 238, 238); stroke-opacity: 1; stroke-width: 1px;"/><path class="x2grid crisp" d="M0,1712v208" transform="translate(329.99,0)" style="stroke: rgb(238, 238, 238); stroke-opacity: 1; stroke-width: 1px;"/><path class="x2grid crisp" d="M0,1712v208" transform="translate(493.06,0)" style="stroke: rgb(238, 238, 238); stroke-opacity: 1; stroke-width: 1px;"/><path class="x2grid crisp" d="M0,1712v208" transform="translate(656.13,0)" style="stroke: rgb(238, 238, 238); stroke-opacity: 1; stroke-width: 1px;"/><path class="x2grid crisp" d="M0,1712v208" transform="translate(819.2,0)" style="stroke: rgb(238, 238, 238); stroke-opacity: 1; stroke-width: 1px;"/><path class="x2grid crisp" d="M0,1712v208" transform="translate(982.27,0)" style="stroke: rgb(238, 238, 238); stroke-opacity: 1; stroke-width: 1px;"/></g><g class="y2"><path class="y2grid crisp" d="M80,0h970" transform="translate(0,1857.2)" style="stroke: rgb(238, 238, 238); stroke-opacity: 1; stroke-width: 1px;"/><path class="y2grid crisp" d="M80,0h970" transform="translate(0,1794.39)" style="stroke: rgb(238, 238, 238); stroke-opacity: 1; stroke-width: 1px;"/><path class="y2grid crisp" d="M80,0h970" transform="translate(0,1731.59)" style="stroke: rgb(238, 238, 238); stroke-opacity: 1; stroke-width: 1px;"/></g></g><g class="zerolinelayer"/><path class="xlines-below"/><path class="ylines-below"/><g class="overlines-below"/><g class="xaxislayer-below"/><g class="yaxislayer-below"/><g class="overaxes-below"/><g class="plot" transform="translate(80, 1712)" clip-path="url(#clip5964d0x2y2plot)"><g class="imagelayer"/><g class="maplayer"/><g class="barlayer"/><g class="carpetlayer"/><g class="violinlayer"/><g class="boxlayer"/><g class="scatterlayer"><g class="trace scatter trace151a41" style="stroke-miterlimit: 2;"><path class="js-fill js-tozero" d="M970,208L0,208L0,208L4.82,208L9.65,206.37L14.47,207.35L19.3,207.22L33.78,206.91L38.61,207.34L57.91,206.53L62.74,207.87L67.56,207.42L72.39,208.09L115.82,208L120.65,208L178.56,208L183.38,206.99L188.21,198.4L193.03,194.83L197.86,177.72L202.69,193.1L207.51,193.97L212.34,175.26L217.16,187.56L221.99,179.77L226.81,192.98L231.64,151.25L236.47,157.84L241.29,160.24L246.12,169.52L250.94,208L279.9,208L284.72,29.93L289.55,12.3L294.38,146.38L299.2,194.62L304.03,208L342.64,208L347.46,203.16L352.29,199.11L357.11,200.01L361.94,207.1L366.77,205.27L381.24,207.49L386.07,208L395.72,207.67L400.54,206.58L415.02,204.75L419.85,203.22L424.67,204.24L429.5,198.65L434.33,197.03L439.15,198.43L443.98,200.29L448.8,207.51L453.63,204.33L458.46,207.31L463.28,205.1L468.11,203.97L472.93,205.7L477.76,206.34L511.54,207.09L516.37,207.29L521.19,206.85L526.02,207.9L530.84,207.17L535.67,203.29L540.49,196.89L545.32,200.83L550.15,199.77L554.97,201.39L559.8,202.95L564.62,201.59L569.45,201.74L574.28,204.63L579.1,203.84L583.93,202.15L588.75,203.86L593.58,202.29L598.41,204.47L603.23,204.78L608.06,203.46L612.88,206.35L622.54,205.13L627.36,204.27L632.19,204.37L637.01,205.52L646.66,206.93L651.49,207.5L656.31,205.41L661.14,207.49L665.97,205.65L670.79,206.07L675.62,207.46L680.44,206.37L685.27,207.55L690.1,203.05L704.56,202.36L709.39,205.49L714.23,203.3L719.07,203.96L723.86,207.54L728.7,206.28L738.37,207.48L743.16,201.8L752.84,205.24L757.67,202.87L762.46,204.42L767.3,196.53L772.14,203.58L776.97,202.1L786.6,200L791.44,207.97L796.28,204.18L801.07,202.79L805.91,200.81L810.74,193.11L815.58,195.96L820.42,187.71L825.21,188.83L830.05,188.6L834.88,194.88L839.72,189.99L844.51,194.66L849.35,194.14L859.02,199.78L863.81,192.65L868.65,200.89L873.49,203.79L878.32,205.83L883.12,192.54L887.95,191.42L892.79,193.45L897.63,195.27L902.42,188.96L907.26,206.63L912.09,205.48L916.93,207.4L921.72,206.97L926.56,200.39L931.39,203.01L936.23,200.19L941.02,201.76L945.86,205.02L950.7,203.66L955.53,209.44L960.33,205.61L965.16,208L970,208" style="fill: rgb(255, 127, 14); fill-opacity: 0.5; stroke-width: 0;"/><path class="js-line" d="M0,208L4.82,208L9.65,206.37L14.47,207.35L19.3,207.22L33.78,206.91L38.61,207.34L57.91,206.53L62.74,207.87L67.56,207.42L72.39,208.09L115.82,208L120.65,208L178.56,208L183.38,206.99L188.21,198.4L193.03,194.83L197.86,177.72L202.69,193.1L207.51,193.97L212.34,175.26L217.16,187.56L221.99,179.77L226.81,192.98L231.64,151.25L236.47,157.84L241.29,160.24L246.12,169.52L250.94,208L279.9,208L284.72,29.93L289.55,12.3L294.38,146.38L299.2,194.62L304.03,208L342.64,208L347.46,203.16L352.29,199.11L357.11,200.01L361.94,207.1L366.77,205.27L381.24,207.49L386.07,208L395.72,207.67L400.54,206.58L415.02,204.75L419.85,203.22L424.67,204.24L429.5,198.65L434.33,197.03L439.15,198.43L443.98,200.29L448.8,207.51L453.63,204.33L458.46,207.31L463.28,205.1L468.11,203.97L472.93,205.7L477.76,206.34L511.54,207.09L516.37,207.29L521.19,206.85L526.02,207.9L530.84,207.17L535.67,203.29L540.49,196.89L545.32,200.83L550.15,199.77L554.97,201.39L559.8,202.95L564.62,201.59L569.45,201.74L574.28,204.63L579.1,203.84L583.93,202.15L588.75,203.86L593.58,202.29L598.41,204.47L603.23,204.78L608.06,203.46L612.88,206.35L622.54,205.13L627.36,204.27L632.19,204.37L637.01,205.52L646.66,206.93L651.49,207.5L656.31,205.41L661.14,207.49L665.97,205.65L670.79,206.07L675.62,207.46L680.44,206.37L685.27,207.55L690.1,203.05L704.56,202.36L709.39,205.49L714.23,203.3L719.07,203.96L723.86,207.54L728.7,206.28L738.37,207.48L743.16,201.8L752.84,205.24L757.67,202.87L762.46,204.42L767.3,196.53L772.14,203.58L776.97,202.1L786.6,200L791.44,207.97L796.28,204.18L801.07,202.79L805.91,200.81L810.74,193.11L815.58,195.96L820.42,187.71L825.21,188.83L830.05,188.6L834.88,194.88L839.72,189.99L844.51,194.66L849.35,194.14L859.02,199.78L863.81,192.65L868.65,200.89L873.49,203.79L878.32,205.83L883.12,192.54L887.95,191.42L892.79,193.45L897.63,195.27L902.42,188.96L907.26,206.63L912.09,205.48L916.93,207.4L921.72,206.97L926.56,200.39L931.39,203.01L936.23,200.19L941.02,201.76L945.86,205.02L950.7,203.66L955.53,209.44L960.33,205.61L965.16,208L970,208" style="vector-effect: non-scaling-stroke; fill: none; stroke: rgb(255, 127, 14); stroke-opacity: 1; stroke-width: 2px; opacity: 1;"/><g class="points"/></g></g></g><g class="overplot"/><path class="xlines-above crisp" d="M79,1920.5H1051M79,1711.5H1051" style="fill: none; stroke-width: 1px; stroke: rgb(68, 68, 68); stroke-opacity: 1;"/><path class="ylines-above crisp" d="M79.5,1712V1920M1050.5,1712V1920" style="fill: none; stroke-width: 1px; stroke: rgb(68, 68, 68); stroke-opacity: 1;"/><g class="overlines-above"/><g class="xaxislayer-above"><g class="x2tick"><text text-anchor="middle" x="0" y="1935.4" transform="translate(166.92000000000002,0)" style="font-family: 'Open Sans', verdana, arial, sans-serif; font-size: 12px; fill: rgb(68, 68, 68); fill-opacity: 1; white-space: pre;">−10</text></g><g class="x2tick"><text text-anchor="middle" x="0" y="1935.4" transform="translate(329.99,0)" style="font-family: 'Open Sans', verdana, arial, sans-serif; font-size: 12px; fill: rgb(68, 68, 68); fill-opacity: 1; white-space: pre;">0</text></g><g class="x2tick"><text text-anchor="middle" x="0" y="1935.4" transform="translate(493.06,0)" style="font-family: 'Open Sans', verdana, arial, sans-serif; font-size: 12px; fill: rgb(68, 68, 68); fill-opacity: 1; white-space: pre;">10</text></g><g class="x2tick"><text text-anchor="middle" x="0" y="1935.4" transform="translate(656.13,0)" style="font-family: 'Open Sans', verdana, arial, sans-serif; font-size: 12px; fill: rgb(68, 68, 68); fill-opacity: 1; white-space: pre;">20</text></g><g class="x2tick"><text text-anchor="middle" x="0" y="1935.4" transform="translate(819.2,0)" style="font-family: 'Open Sans', verdana, arial, sans-serif; font-size: 12px; fill: rgb(68, 68, 68); fill-opacity: 1; white-space: pre;">30</text></g><g class="x2tick"><text text-anchor="middle" x="0" y="1935.4" transform="translate(982.27,0)" style="font-family: 'Open Sans', verdana, arial, sans-serif; font-size: 12px; fill: rgb(68, 68, 68); fill-opacity: 1; white-space: pre;">40</text></g></g><g class="yaxislayer-above"><g class="y2tick"><text text-anchor="end" x="76.6" y="4.199999999999999" transform="translate(0,1920)" style="font-family: 'Open Sans', verdana, arial, sans-serif; font-size: 12px; fill: rgb(68, 68, 68); fill-opacity: 1; white-space: pre;">0</text></g><g class="y2tick"><text text-anchor="end" x="76.6" y="4.199999999999999" transform="translate(0,1857.2)" style="font-family: 'Open Sans', verdana, arial, sans-serif; font-size: 12px; fill: rgb(68, 68, 68); fill-opacity: 1; white-space: pre;">10</text></g><g class="y2tick"><text text-anchor="end" x="76.6" y="4.199999999999999" transform="translate(0,1794.39)" style="font-family: 'Open Sans', verdana, arial, sans-serif; font-size: 12px; fill: rgb(68, 68, 68); fill-opacity: 1; white-space: pre;">20</text></g><g class="y2tick"><text text-anchor="end" x="76.6" y="4.199999999999999" transform="translate(0,1731.59)" style="font-family: 'Open Sans', verdana, arial, sans-serif; font-size: 12px; fill: rgb(68, 68, 68); fill-opacity: 1; white-space: pre;">30</text></g></g><g class="overaxes-above"/></g><g class="subplot x3y3"><g class="layer-subplot"><g class="shapelayer"/><g class="imagelayer"/></g><g class="gridlayer"><g class="x3"><path class="x3grid crisp" d="M0,1452v207.99999999999994" transform="translate(166.92000000000002,0)" style="stroke: rgb(238, 238, 238); stroke-opacity: 1; stroke-width: 1px;"/><path class="x3grid crisp" d="M0,1452v207.99999999999994" transform="translate(329.99,0)" style="stroke: rgb(238, 238, 238); stroke-opacity: 1; stroke-width: 1px;"/><path class="x3grid crisp" d="M0,1452v207.99999999999994" transform="translate(493.06,0)" style="stroke: rgb(238, 238, 238); stroke-opacity: 1; stroke-width: 1px;"/><path class="x3grid crisp" d="M0,1452v207.99999999999994" transform="translate(656.13,0)" style="stroke: rgb(238, 238, 238); stroke-opacity: 1; stroke-width: 1px;"/><path class="x3grid crisp" d="M0,1452v207.99999999999994" transform="translate(819.2,0)" style="stroke: rgb(238, 238, 238); stroke-opacity: 1; stroke-width: 1px;"/><path class="x3grid crisp" d="M0,1452v207.99999999999994" transform="translate(982.27,0)" style="stroke: rgb(238, 238, 238); stroke-opacity: 1; stroke-width: 1px;"/></g><g class="y3"><path class="y3grid crisp" d="M80,0h970" transform="translate(0,1611.21)" style="stroke: rgb(238, 238, 238); stroke-opacity: 1; stroke-width: 1px;"/><path class="y3grid crisp" d="M80,0h970" transform="translate(0,1562.43)" style="stroke: rgb(238, 238, 238); stroke-opacity: 1; stroke-width: 1px;"/><path class="y3grid crisp" d="M80,0h970" transform="translate(0,1513.64)" style="stroke: rgb(238, 238, 238); stroke-opacity: 1; stroke-width: 1px;"/><path class="y3grid crisp" d="M80,0h970" transform="translate(0,1464.86)" style="stroke: rgb(238, 238, 238); stroke-opacity: 1; stroke-width: 1px;"/></g></g><g class="zerolinelayer"/><path class="xlines-below"/><path class="ylines-below"/><g class="overlines-below"/><g class="xaxislayer-below"/><g class="yaxislayer-below"/><g class="overaxes-below"/><g class="plot" transform="translate(80, 1452)" clip-path="url(#clip5964d0x3y3plot)"><g class="imagelayer"/><g class="maplayer"/><g class="barlayer"/><g class="carpetlayer"/><g class="violinlayer"/><g class="boxlayer"/><g class="scatterlayer"><g class="trace scatter trace73f125" style="stroke-miterlimit: 2;"><path class="js-fill js-tozero" d="M970,208L0,208L0,208L14.47,208.2L19.3,206.1L24.13,200.65L28.95,203.88L33.78,198.87L38.61,200.73L43.43,193.37L48.26,191.72L57.91,200L62.74,206.36L67.56,206.3L72.39,208.63L82.04,208L86.87,208L178.56,208L183.38,206.23L188.21,178.45L193.03,174.05L197.86,103.23L202.69,191.3L207.51,189.65L212.34,151.69L217.16,162.24L221.99,175.95L226.81,203.04L231.64,195.12L236.47,200.48L241.29,190.03L250.94,208L255.77,208L279.9,208L284.72,198.93L289.55,183.16L294.38,190.92L299.2,207.39L304.03,208L342.64,208L347.46,186.66L352.29,190.72L357.11,202.4L361.94,208.06L366.77,206.77L371.59,206.16L376.42,203.99L381.24,208.57L386.07,208L390.89,207.34L395.72,208.22L405.37,205.78L410.19,203.33L415.02,204.62L419.85,203.73L424.67,200.72L429.5,201.21L434.33,206.87L439.15,208.39L443.98,205.34L448.8,208.38L453.63,207.19L458.46,200.86L463.28,185L468.11,180.82L477.76,192.91L482.59,194.61L492.24,192.92L497.06,194.81L501.89,198.1L506.71,200.09L511.54,199.01L516.37,196.12L521.19,194.98L526.02,218.87L530.84,186.79L535.67,42.18L540.49,10.4L545.32,23.41L550.15,168.08L554.97,71.18L559.8,137.95L564.62,160.8L569.45,95.7L574.28,139.56L579.1,205.49L583.93,170.22L588.75,168.98L593.58,161.56L598.41,88.66L603.23,62.04L608.06,159.21L612.88,172.3L617.71,144.48L622.54,111.83L627.36,98.92L632.19,113.56L641.84,186.33L646.66,208.34L651.49,329.81L656.31,122.68L661.14,217.22L665.97,91.71L670.79,152.1L675.62,158.05L685.27,238.75L690.1,181.33L694.93,206.77L699.76,175.32L704.56,207.9L709.39,134.96L714.23,114.64L719.07,131.97L723.86,190.1L728.7,205.16L733.53,205.27L738.37,195.92L743.16,206.65L748,206.7L752.84,207.03L757.67,200.7L762.46,192.7L767.3,167.42L772.14,192.72L776.97,173.94L781.77,185.35L786.6,147.12L791.44,209.61L796.28,181.03L801.07,157.52L805.91,174.61L810.74,206.28L815.58,203.48L820.42,178.79L825.21,173.76L830.05,189.97L834.88,182.68L839.72,189.5L844.51,197.56L849.35,204.41L854.18,201.41L859.02,191.58L863.81,193.78L868.65,206.13L873.49,205.61L878.32,202.14L883.12,204.45L887.95,205.41L892.79,204.72L897.63,206.43L902.42,209.14L907.26,205.89L912.09,208.04L916.93,213.01L921.72,211.39L926.56,202.82L931.39,209.56L936.23,195.5L941.02,196.2L950.7,197.49L955.53,209.57L960.33,193.87L965.16,208L970,208" style="fill: rgb(44, 160, 44); fill-opacity: 0.5; stroke-width: 0;"/><path class="js-line" d="M0,208L14.47,208.2L19.3,206.1L24.13,200.65L28.95,203.88L33.78,198.87L38.61,200.73L43.43,193.37L48.26,191.72L57.91,200L62.74,206.36L67.56,206.3L72.39,208.63L82.04,208L86.87,208L178.56,208L183.38,206.23L188.21,178.45L193.03,174.05L197.86,103.23L202.69,191.3L207.51,189.65L212.34,151.69L217.16,162.24L221.99,175.95L226.81,203.04L231.64,195.12L236.47,200.48L241.29,190.03L250.94,208L255.77,208L279.9,208L284.72,198.93L289.55,183.16L294.38,190.92L299.2,207.39L304.03,208L342.64,208L347.46,186.66L352.29,190.72L357.11,202.4L361.94,208.06L366.77,206.77L371.59,206.16L376.42,203.99L381.24,208.57L386.07,208L390.89,207.34L395.72,208.22L405.37,205.78L410.19,203.33L415.02,204.62L419.85,203.73L424.67,200.72L429.5,201.21L434.33,206.87L439.15,208.39L443.98,205.34L448.8,208.38L453.63,207.19L458.46,200.86L463.28,185L468.11,180.82L477.76,192.91L482.59,194.61L492.24,192.92L497.06,194.81L501.89,198.1L506.71,200.09L511.54,199.01L516.37,196.12L521.19,194.98L526.02,218.87L530.84,186.79L535.67,42.18L540.49,10.4L545.32,23.41L550.15,168.08L554.97,71.18L559.8,137.95L564.62,160.8L569.45,95.7L574.28,139.56L579.1,205.49L583.93,170.22L588.75,168.98L593.58,161.56L598.41,88.66L603.23,62.04L608.06,159.21L612.88,172.3L617.71,144.48L622.54,111.83L627.36,98.92L632.19,113.56L641.84,186.33L646.66,208.34L651.49,329.81L656.31,122.68L661.14,217.22L665.97,91.71L670.79,152.1L675.62,158.05L685.27,238.75L690.1,181.33L694.93,206.77L699.76,175.32L704.56,207.9L709.39,134.96L714.23,114.64L719.07,131.97L723.86,190.1L728.7,205.16L733.53,205.27L738.37,195.92L743.16,206.65L748,206.7L752.84,207.03L757.67,200.7L762.46,192.7L767.3,167.42L772.14,192.72L776.97,173.94L781.77,185.35L786.6,147.12L791.44,209.61L796.28,181.03L801.07,157.52L805.91,174.61L810.74,206.28L815.58,203.48L820.42,178.79L825.21,173.76L830.05,189.97L834.88,182.68L839.72,189.5L844.51,197.56L849.35,204.41L854.18,201.41L859.02,191.58L863.81,193.78L868.65,206.13L873.49,205.61L878.32,202.14L883.12,204.45L887.95,205.41L892.79,204.72L897.63,206.43L902.42,209.14L907.26,205.89L912.09,208.04L916.93,213.01L921.72,211.39L926.56,202.82L931.39,209.56L936.23,195.5L941.02,196.2L950.7,197.49L955.53,209.57L960.33,193.87L965.16,208L970,208" style="vector-effect: non-scaling-stroke; fill: none; stroke: rgb(44, 160, 44); stroke-opacity: 1; stroke-width: 2px; opacity: 1;"/><g class="points"/></g></g></g><g class="overplot"/><path class="xlines-above crisp" d="M79,1660.5H1051M79,1451.5H1051" style="fill: none; stroke-width: 1px; stroke: rgb(68, 68, 68); stroke-opacity: 1;"/><path class="ylines-above crisp" d="M79.5,1452V1660M1050.5,1452V1660" style="fill: none; stroke-width: 1px; stroke: rgb(68, 68, 68); stroke-opacity: 1;"/><g class="overlines-above"/><g class="xaxislayer-above"><g class="x3tick"><text text-anchor="middle" x="0" y="1675.4" transform="translate(166.92000000000002,0)" style="font-family: 'Open Sans', verdana, arial, sans-serif; font-size: 12px; fill: rgb(68, 68, 68); fill-opacity: 1; white-space: pre;">−10</text></g><g class="x3tick"><text text-anchor="middle" x="0" y="1675.4" transform="translate(329.99,0)" style="font-family: 'Open Sans', verdana, arial, sans-serif; font-size: 12px; fill: rgb(68, 68, 68); fill-opacity: 1; white-space: pre;">0</text></g><g class="x3tick"><text text-anchor="middle" x="0" y="1675.4" transform="translate(493.06,0)" style="font-family: 'Open Sans', verdana, arial, sans-serif; font-size: 12px; fill: rgb(68, 68, 68); fill-opacity: 1; white-space: pre;">10</text></g><g class="x3tick"><text text-anchor="middle" x="0" y="1675.4" transform="translate(656.13,0)" style="font-family: 'Open Sans', verdana, arial, sans-serif; font-size: 12px; fill: rgb(68, 68, 68); fill-opacity: 1; white-space: pre;">20</text></g><g class="x3tick"><text text-anchor="middle" x="0" y="1675.4" transform="translate(819.2,0)" style="font-family: 'Open Sans', verdana, arial, sans-serif; font-size: 12px; fill: rgb(68, 68, 68); fill-opacity: 1; white-space: pre;">30</text></g><g class="x3tick"><text text-anchor="middle" x="0" y="1675.4" transform="translate(982.27,0)" style="font-family: 'Open Sans', verdana, arial, sans-serif; font-size: 12px; fill: rgb(68, 68, 68); fill-opacity: 1; white-space: pre;">40</text></g></g><g class="yaxislayer-above"><g class="y3tick"><text text-anchor="end" x="76.6" y="4.199999999999999" transform="translate(0,1660)" style="font-family: 'Open Sans', verdana, arial, sans-serif; font-size: 12px; fill: rgb(68, 68, 68); fill-opacity: 1; white-space: pre;">0</text></g><g class="y3tick"><text text-anchor="end" x="76.6" y="4.199999999999999" transform="translate(0,1611.21)" style="font-family: 'Open Sans', verdana, arial, sans-serif; font-size: 12px; fill: rgb(68, 68, 68); fill-opacity: 1; white-space: pre;">0.5</text></g><g class="y3tick"><text text-anchor="end" x="76.6" y="4.199999999999999" transform="translate(0,1562.43)" style="font-family: 'Open Sans', verdana, arial, sans-serif; font-size: 12px; fill: rgb(68, 68, 68); fill-opacity: 1; white-space: pre;">1</text></g><g class="y3tick"><text text-anchor="end" x="76.6" y="4.199999999999999" transform="translate(0,1513.64)" style="font-family: 'Open Sans', verdana, arial, sans-serif; font-size: 12px; fill: rgb(68, 68, 68); fill-opacity: 1; white-space: pre;">1.5</text></g><g class="y3tick"><text text-anchor="end" x="76.6" y="4.199999999999999" transform="translate(0,1464.86)" style="font-family: 'Open Sans', verdana, arial, sans-serif; font-size: 12px; fill: rgb(68, 68, 68); fill-opacity: 1; white-space: pre;">2</text></g></g><g class="overaxes-above"/></g><g class="subplot x4y4"><g class="layer-subplot"><g class="shapelayer"/><g class="imagelayer"/></g><g class="gridlayer"><g class="x4"><path class="x4grid crisp" d="M0,1192v207.99999999999994" transform="translate(166.92000000000002,0)" style="stroke: rgb(238, 238, 238); stroke-opacity: 1; stroke-width: 1px;"/><path class="x4grid crisp" d="M0,1192v207.99999999999994" transform="translate(329.99,0)" style="stroke: rgb(238, 238, 238); stroke-opacity: 1; stroke-width: 1px;"/><path class="x4grid crisp" d="M0,1192v207.99999999999994" transform="translate(493.06,0)" style="stroke: rgb(238, 238, 238); stroke-opacity: 1; stroke-width: 1px;"/><path class="x4grid crisp" d="M0,1192v207.99999999999994" transform="translate(656.13,0)" style="stroke: rgb(238, 238, 238); stroke-opacity: 1; stroke-width: 1px;"/><path class="x4grid crisp" d="M0,1192v207.99999999999994" transform="translate(819.2,0)" style="stroke: rgb(238, 238, 238); stroke-opacity: 1; stroke-width: 1px;"/><path class="x4grid crisp" d="M0,1192v207.99999999999994" transform="translate(982.27,0)" style="stroke: rgb(238, 238, 238); stroke-opacity: 1; stroke-width: 1px;"/></g><g class="y4"><path class="y4grid crisp" d="M80,0h970" transform="translate(0,1342.73)" style="stroke: rgb(238, 238, 238); stroke-opacity: 1; stroke-width: 1px;"/><path class="y4grid crisp" d="M80,0h970" transform="translate(0,1285.46)" style="stroke: rgb(238, 238, 238); stroke-opacity: 1; stroke-width: 1px;"/><path class="y4grid crisp" d="M80,0h970" transform="translate(0,1228.19)" style="stroke: rgb(238, 238, 238); stroke-opacity: 1; stroke-width: 1px;"/></g></g><g class="zerolinelayer"/><path class="xlines-below"/><path class="ylines-below"/><g class="overlines-below"/><g class="xaxislayer-below"/><g class="yaxislayer-below"/><g class="overaxes-below"/><g class="plot" transform="translate(80, 1192)" clip-path="url(#clip5964d0x4y4plot)"><g class="imagelayer"/><g class="maplayer"/><g class="barlayer"/><g class="carpetlayer"/><g class="violinlayer"/><g class="boxlayer"/><g class="scatterlayer"><g class="trace scatter trace144bb7" style="stroke-miterlimit: 2;"><path class="js-fill js-tozero" d="M970,208L0,208L0,208L4.82,208L9.65,202.45L14.47,202.11L19.3,189.15L24.13,182.88L28.95,194.21L33.78,179.98L38.61,190.8L43.43,185.05L48.26,181.44L53.08,159.92L57.91,167.47L62.74,204.09L67.56,190.58L72.39,210.59L77.21,208L178.56,208L183.38,204.4L188.21,173.08L193.03,160.59L197.86,99.8L202.69,154.2L207.51,158.01L212.34,92.47L217.16,136.28L221.99,108.92L226.81,154.08L231.64,12.3L236.47,41.1L241.29,58.25L246.12,83.09L250.94,208L279.9,208L284.72,184.1L289.55,146.88L294.38,141.24L299.2,182.5L304.03,208L342.64,208L347.46,190.35L352.29,175.2L357.11,178.61L361.94,204.68L366.77,197.92L371.59,199.66L376.42,203.11L381.24,206.15L386.07,208L390.89,206.55L395.72,203.34L400.54,193.12L405.37,187.32L415.02,191.14L419.85,183.18L424.67,189.95L429.5,171.48L434.33,165.83L439.15,173.01L443.98,179.27L448.8,205.71L453.63,194.72L458.46,204.18L463.28,195.19L468.11,191.02L472.93,197.51L477.76,200.49L492.24,203.4L497.06,202.68L501.89,201.84L506.71,202.58L511.54,204.25L516.37,204.6L521.19,203.14L526.02,207.37L530.84,204.28L535.67,188.65L540.49,167.92L545.32,180.96L550.15,181.99L554.97,185.72L559.8,191.71L564.62,189.69L569.45,188.12L574.28,197.55L579.1,197.55L583.93,196.19L588.75,198.64L593.58,194.87L598.41,198.95L603.23,200.36L608.06,200.24L612.88,205.1L617.71,203.55L622.54,203.51L627.36,202.17L632.19,201.71L651.49,206.08L656.31,202.3L661.14,206.32L665.97,203.27L670.79,203.49L675.62,207.68L680.44,204.29L685.27,205.35L690.1,195.93L694.93,196.36L699.76,195.35L704.56,191.93L709.39,202.66L714.23,197.25L719.07,196.77L723.86,209.02L728.7,205.07L733.53,207.29L738.37,205.36L743.16,197.41L748,200.77L752.84,201.6L757.67,199.78L762.46,201.43L767.3,192.05L772.14,203.45L776.97,195.5L781.77,197.28L786.6,202.88L791.44,204.95L796.28,208.27L801.07,199.76L805.91,199.61L810.74,190.49L815.58,182.08L820.42,176.17L825.21,188.41L830.05,179.1L834.88,199.8L839.72,196.73L844.51,201.94L849.35,198.84L859.02,205.16L863.81,200.85L868.65,205.07L873.49,206.47L878.32,207.26L883.12,202.94L887.95,201.26L892.79,201.51L897.63,202.76L902.42,202.59L907.26,201.6L912.09,204.19L916.93,207.74L921.72,207.61L926.56,202.42L931.39,202.67L936.23,204.86L941.02,205L950.7,205.69L955.53,208.77L960.33,206.64L965.16,208L970,208" style="fill: rgb(214, 39, 40); fill-opacity: 0.5; stroke-width: 0;"/><path class="js-line" d="M0,208L4.82,208L9.65,202.45L14.47,202.11L19.3,189.15L24.13,182.88L28.95,194.21L33.78,179.98L38.61,190.8L43.43,185.05L48.26,181.44L53.08,159.92L57.91,167.47L62.74,204.09L67.56,190.58L72.39,210.59L77.21,208L178.56,208L183.38,204.4L188.21,173.08L193.03,160.59L197.86,99.8L202.69,154.2L207.51,158.01L212.34,92.47L217.16,136.28L221.99,108.92L226.81,154.08L231.64,12.3L236.47,41.1L241.29,58.25L246.12,83.09L250.94,208L279.9,208L284.72,184.1L289.55,146.88L294.38,141.24L299.2,182.5L304.03,208L342.64,208L347.46,190.35L352.29,175.2L357.11,178.61L361.94,204.68L366.77,197.92L371.59,199.66L376.42,203.11L381.24,206.15L386.07,208L390.89,206.55L395.72,203.34L400.54,193.12L405.37,187.32L415.02,191.14L419.85,183.18L424.67,189.95L429.5,171.48L434.33,165.83L439.15,173.01L443.98,179.27L448.8,205.71L453.63,194.72L458.46,204.18L463.28,195.19L468.11,191.02L472.93,197.51L477.76,200.49L492.24,203.4L497.06,202.68L501.89,201.84L506.71,202.58L511.54,204.25L516.37,204.6L521.19,203.14L526.02,207.37L530.84,204.28L535.67,188.65L540.49,167.92L545.32,180.96L550.15,181.99L554.97,185.72L559.8,191.71L564.62,189.69L569.45,188.12L574.28,197.55L579.1,197.55L583.93,196.19L588.75,198.64L593.58,194.87L598.41,198.95L603.23,200.36L608.06,200.24L612.88,205.1L617.71,203.55L622.54,203.51L627.36,202.17L632.19,201.71L651.49,206.08L656.31,202.3L661.14,206.32L665.97,203.27L670.79,203.49L675.62,207.68L680.44,204.29L685.27,205.35L690.1,195.93L694.93,196.36L699.76,195.35L704.56,191.93L709.39,202.66L714.23,197.25L719.07,196.77L723.86,209.02L728.7,205.07L733.53,207.29L738.37,205.36L743.16,197.41L748,200.77L752.84,201.6L757.67,199.78L762.46,201.43L767.3,192.05L772.14,203.45L776.97,195.5L781.77,197.28L786.6,202.88L791.44,204.95L796.28,208.27L801.07,199.76L805.91,199.61L810.74,190.49L815.58,182.08L820.42,176.17L825.21,188.41L830.05,179.1L834.88,199.8L839.72,196.73L844.51,201.94L849.35,198.84L859.02,205.16L863.81,200.85L868.65,205.07L873.49,206.47L878.32,207.26L883.12,202.94L887.95,201.26L892.79,201.51L897.63,202.76L902.42,202.59L907.26,201.6L912.09,204.19L916.93,207.74L921.72,207.61L926.56,202.42L931.39,202.67L936.23,204.86L941.02,205L950.7,205.69L955.53,208.77L960.33,206.64L965.16,208L970,208" style="vector-effect: non-scaling-stroke; fill: none; stroke: rgb(214, 39, 40); stroke-opacity: 1; stroke-width: 2px; opacity: 1;"/><g class="points"/></g></g></g><g class="overplot"/><path class="xlines-above crisp" d="M79,1400.5H1051M79,1191.5H1051" style="fill: none; stroke-width: 1px; stroke: rgb(68, 68, 68); stroke-opacity: 1;"/><path class="ylines-above crisp" d="M79.5,1192V1400M1050.5,1192V1400" style="fill: none; stroke-width: 1px; stroke: rgb(68, 68, 68); stroke-opacity: 1;"/><g class="overlines-above"/><g class="xaxislayer-above"><g class="x4tick"><text text-anchor="middle" x="0" y="1415.4" transform="translate(166.92000000000002,0)" style="font-family: 'Open Sans', verdana, arial, sans-serif; font-size: 12px; fill: rgb(68, 68, 68); fill-opacity: 1; white-space: pre;">−10</text></g><g class="x4tick"><text text-anchor="middle" x="0" y="1415.4" transform="translate(329.99,0)" style="font-family: 'Open Sans', verdana, arial, sans-serif; font-size: 12px; fill: rgb(68, 68, 68); fill-opacity: 1; white-space: pre;">0</text></g><g class="x4tick"><text text-anchor="middle" x="0" y="1415.4" transform="translate(493.06,0)" style="font-family: 'Open Sans', verdana, arial, sans-serif; font-size: 12px; fill: rgb(68, 68, 68); fill-opacity: 1; white-space: pre;">10</text></g><g class="x4tick"><text text-anchor="middle" x="0" y="1415.4" transform="translate(656.13,0)" style="font-family: 'Open Sans', verdana, arial, sans-serif; font-size: 12px; fill: rgb(68, 68, 68); fill-opacity: 1; white-space: pre;">20</text></g><g class="x4tick"><text text-anchor="middle" x="0" y="1415.4" transform="translate(819.2,0)" style="font-family: 'Open Sans', verdana, arial, sans-serif; font-size: 12px; fill: rgb(68, 68, 68); fill-opacity: 1; white-space: pre;">30</text></g><g class="x4tick"><text text-anchor="middle" x="0" y="1415.4" transform="translate(982.27,0)" style="font-family: 'Open Sans', verdana, arial, sans-serif; font-size: 12px; fill: rgb(68, 68, 68); fill-opacity: 1; white-space: pre;">40</text></g></g><g class="yaxislayer-above"><g class="y4tick"><text text-anchor="end" x="76.6" y="4.199999999999999" transform="translate(0,1400)" style="font-family: 'Open Sans', verdana, arial, sans-serif; font-size: 12px; fill: rgb(68, 68, 68); fill-opacity: 1; white-space: pre;">0</text></g><g class="y4tick"><text text-anchor="end" x="76.6" y="4.199999999999999" transform="translate(0,1342.73)" style="font-family: 'Open Sans', verdana, arial, sans-serif; font-size: 12px; fill: rgb(68, 68, 68); fill-opacity: 1; white-space: pre;">5</text></g><g class="y4tick"><text text-anchor="end" x="76.6" y="4.199999999999999" transform="translate(0,1285.46)" style="font-family: 'Open Sans', verdana, arial, sans-serif; font-size: 12px; fill: rgb(68, 68, 68); fill-opacity: 1; white-space: pre;">10</text></g><g class="y4tick"><text text-anchor="end" x="76.6" y="4.199999999999999" transform="translate(0,1228.19)" style="font-family: 'Open Sans', verdana, arial, sans-serif; font-size: 12px; fill: rgb(68, 68, 68); fill-opacity: 1; white-space: pre;">15</text></g></g><g class="overaxes-above"/></g><g class="subplot x5y5"><g class="layer-subplot"><g class="shapelayer"/><g class="imagelayer"/></g><g class="gridlayer"><g class="x5"><path class="x5grid crisp" d="M0,932v207.99999999999994" transform="translate(166.92000000000002,0)" style="stroke: rgb(238, 238, 238); stroke-opacity: 1; stroke-width: 1px;"/><path class="x5grid crisp" d="M0,932v207.99999999999994" transform="translate(329.99,0)" style="stroke: rgb(238, 238, 238); stroke-opacity: 1; stroke-width: 1px;"/><path class="x5grid crisp" d="M0,932v207.99999999999994" transform="translate(493.06,0)" style="stroke: rgb(238, 238, 238); stroke-opacity: 1; stroke-width: 1px;"/><path class="x5grid crisp" d="M0,932v207.99999999999994" transform="translate(656.13,0)" style="stroke: rgb(238, 238, 238); stroke-opacity: 1; stroke-width: 1px;"/><path class="x5grid crisp" d="M0,932v207.99999999999994" transform="translate(819.2,0)" style="stroke: rgb(238, 238, 238); stroke-opacity: 1; stroke-width: 1px;"/><path class="x5grid crisp" d="M0,932v207.99999999999994" transform="translate(982.27,0)" style="stroke: rgb(238, 238, 238); stroke-opacity: 1; stroke-width: 1px;"/></g><g class="y5"><path class="y5grid crisp" d="M80,0h970" transform="translate(0,1087.16)" style="stroke: rgb(238, 238, 238); stroke-opacity: 1; stroke-width: 1px;"/><path class="y5grid crisp" d="M80,0h970" transform="translate(0,1034.33)" style="stroke: rgb(238, 238, 238); stroke-opacity: 1; stroke-width: 1px;"/><path class="y5grid crisp" d="M80,0h970" transform="translate(0,981.49)" style="stroke: rgb(238, 238, 238); stroke-opacity: 1; stroke-width: 1px;"/></g></g><g class="zerolinelayer"/><path class="xlines-below"/><path class="ylines-below"/><g class="overlines-below"/><g class="xaxislayer-below"/><g class="yaxislayer-below"/><g class="overaxes-below"/><g class="plot" transform="translate(80, 932)" clip-path="url(#clip5964d0x5y5plot)"><g class="imagelayer"/><g class="maplayer"/><g class="barlayer"/><g class="carpetlayer"/><g class="violinlayer"/><g class="boxlayer"/><g class="scatterlayer"><g class="trace scatter tracea13ff1" style="stroke-miterlimit: 2;"><path class="js-fill js-tozero" d="M970,208L0,208L0,208L14.47,207.7L19.3,210.81L24.13,218.79L28.95,213.81L33.78,221.45L38.61,218.72L43.43,229.96L48.26,232.8L57.91,220.62L62.74,210.62L67.56,210.74L72.39,206.99L77.21,208L82.04,208L178.56,208L183.38,211.3L188.21,259.56L193.03,268.03L197.86,397.4L202.69,238.6L207.51,241.75L212.34,312.91L221.99,269.08L226.81,217.61L231.64,233.36L236.47,222.87L241.29,242.66L246.12,224.69L250.94,208L255.77,208L279.9,208L284.72,222.72L289.55,246.84L294.38,234.66L299.2,208.98L304.03,208L342.64,208L347.46,251.76L352.29,242.5L357.11,216.51L361.94,208.26L366.77,210.5L371.59,211.66L376.42,215.68L381.24,206.87L386.07,208L390.89,209.47L395.72,207.61L400.54,209.56L405.37,212.91L410.19,219.36L415.02,216.82L419.85,218.42L424.67,225L429.5,223.92L434.33,210.82L439.15,207.12L443.98,213.77L448.8,206.77L453.63,210.06L458.46,224.68L463.28,258.6L468.11,267.54L472.93,253.26L477.76,240.28L482.59,237.38L492.24,240.43L497.06,235.63L501.89,228.34L506.71,224.36L511.54,226.83L516.37,232.52L521.19,233.99L526.02,185.85L530.84,247.71L535.67,524.19L540.49,596.48L545.32,551.54L550.15,284.67L554.97,475.82L559.8,343.34L564.62,295.89L569.45,415.54L574.28,332.44L579.1,213.68L583.93,274.34L588.75,271.04L593.58,287.3L598.41,410.89L603.23,444.12L608.06,288.7L612.88,263.45L617.71,307.68L627.36,375.59L632.19,353.18L641.84,242.04L646.66,207.94L651.49,10.4L656.31,343.31L661.14,189.2L665.97,389.4L670.79,292.91L675.62,286.87L680.44,233.66L685.27,159L690.1,250.87L694.93,209.82L699.76,258.7L704.56,209.08L714.23,350.66L719.07,323.86L723.86,236.14L728.7,211.62L733.53,212.25L738.37,226.01L743.16,209.92L748,209.8L752.84,209.55L757.67,218.52L762.46,233.85L767.3,272.18L772.14,231.96L776.97,260.51L781.77,243.31L786.6,304.46L791.44,205.63L796.28,251.07L801.07,289.61L805.91,262.32L810.74,210.74L815.58,215.05L820.42,255.84L825.21,263.74L830.05,235.92L834.88,249.31L844.51,225.29L849.35,214.56L854.18,219.32L859.02,235.8L863.81,231.9L868.65,211.34L873.49,212.31L878.32,217.48L883.12,213.79L887.95,213.71L892.79,214.77L897.63,210.75L902.42,206.2L907.26,211.54L912.09,207.85L916.93,199.44L921.72,202.35L926.56,216.92L931.39,204.95L936.23,229.36L945.86,226.82L950.7,226.62L955.53,205.05L960.33,231.44L965.16,208L970,208" style="fill: rgb(148, 103, 189); fill-opacity: 0.5; stroke-width: 0;"/><path class="js-line" d="M0,208L14.47,207.7L19.3,210.81L24.13,218.79L28.95,213.81L33.78,221.45L38.61,218.72L43.43,229.96L48.26,232.8L57.91,220.62L62.74,210.62L67.56,210.74L72.39,206.99L77.21,208L82.04,208L178.56,208L183.38,211.3L188.21,259.56L193.03,268.03L197.86,397.4L202.69,238.6L207.51,241.75L212.34,312.91L221.99,269.08L226.81,217.61L231.64,233.36L236.47,222.87L241.29,242.66L246.12,224.69L250.94,208L255.77,208L279.9,208L284.72,222.72L289.55,246.84L294.38,234.66L299.2,208.98L304.03,208L342.64,208L347.46,251.76L352.29,242.5L357.11,216.51L361.94,208.26L366.77,210.5L371.59,211.66L376.42,215.68L381.24,206.87L386.07,208L390.89,209.47L395.72,207.61L400.54,209.56L405.37,212.91L410.19,219.36L415.02,216.82L419.85,218.42L424.67,225L429.5,223.92L434.33,210.82L439.15,207.12L443.98,213.77L448.8,206.77L453.63,210.06L458.46,224.68L463.28,258.6L468.11,267.54L472.93,253.26L477.76,240.28L482.59,237.38L492.24,240.43L497.06,235.63L501.89,228.34L506.71,224.36L511.54,226.83L516.37,232.52L521.19,233.99L526.02,185.85L530.84,247.71L535.67,524.19L540.49,596.48L545.32,551.54L550.15,284.67L554.97,475.82L559.8,343.34L564.62,295.89L569.45,415.54L574.28,332.44L579.1,213.68L583.93,274.34L588.75,271.04L593.58,287.3L598.41,410.89L603.23,444.12L608.06,288.7L612.88,263.45L617.71,307.68L627.36,375.59L632.19,353.18L641.84,242.04L646.66,207.94L651.49,10.4L656.31,343.31L661.14,189.2L665.97,389.4L670.79,292.91L675.62,286.87L680.44,233.66L685.27,159L690.1,250.87L694.93,209.82L699.76,258.7L704.56,209.08L714.23,350.66L719.07,323.86L723.86,236.14L728.7,211.62L733.53,212.25L738.37,226.01L743.16,209.92L748,209.8L752.84,209.55L757.67,218.52L762.46,233.85L767.3,272.18L772.14,231.96L776.97,260.51L781.77,243.31L786.6,304.46L791.44,205.63L796.28,251.07L801.07,289.61L805.91,262.32L810.74,210.74L815.58,215.05L820.42,255.84L825.21,263.74L830.05,235.92L834.88,249.31L844.51,225.29L849.35,214.56L854.18,219.32L859.02,235.8L863.81,231.9L868.65,211.34L873.49,212.31L878.32,217.48L883.12,213.79L887.95,213.71L892.79,214.77L897.63,210.75L902.42,206.2L907.26,211.54L912.09,207.85L916.93,199.44L921.72,202.35L926.56,216.92L931.39,204.95L936.23,229.36L945.86,226.82L950.7,226.62L955.53,205.05L960.33,231.44L965.16,208L970,208" style="vector-effect: non-scaling-stroke; fill: none; stroke: rgb(148, 103, 189); stroke-opacity: 1; stroke-width: 2px; opacity: 1;"/><g class="points"/></g></g></g><g class="overplot"/><path class="xlines-above crisp" d="M79,1140.5H1051M79,931.5H1051" style="fill: none; stroke-width: 1px; stroke: rgb(68, 68, 68); stroke-opacity: 1;"/><path class="ylines-above crisp" d="M79.5,932V1140M1050.5,932V1140" style="fill: none; stroke-width: 1px; stroke: rgb(68, 68, 68); stroke-opacity: 1;"/><g class="overlines-above"/><g class="xaxislayer-above"><g class="x5tick"><text text-anchor="middle" x="0" y="1155.4" transform="translate(166.92000000000002,0)" style="font-family: 'Open Sans', verdana, arial, sans-serif; font-size: 12px; fill: rgb(68, 68, 68); fill-opacity: 1; white-space: pre;">−10</text></g><g class="x5tick"><text text-anchor="middle" x="0" y="1155.4" transform="translate(329.99,0)" style="font-family: 'Open Sans', verdana, arial, sans-serif; font-size: 12px; fill: rgb(68, 68, 68); fill-opacity: 1; white-space: pre;">0</text></g><g class="x5tick"><text text-anchor="middle" x="0" y="1155.4" transform="translate(493.06,0)" style="font-family: 'Open Sans', verdana, arial, sans-serif; font-size: 12px; fill: rgb(68, 68, 68); fill-opacity: 1; white-space: pre;">10</text></g><g class="x5tick"><text text-anchor="middle" x="0" y="1155.4" transform="translate(656.13,0)" style="font-family: 'Open Sans', verdana, arial, sans-serif; font-size: 12px; fill: rgb(68, 68, 68); fill-opacity: 1; white-space: pre;">20</text></g><g class="x5tick"><text text-anchor="middle" x="0" y="1155.4" transform="translate(819.2,0)" style="font-family: 'Open Sans', verdana, arial, sans-serif; font-size: 12px; fill: rgb(68, 68, 68); fill-opacity: 1; white-space: pre;">30</text></g><g class="x5tick"><text text-anchor="middle" x="0" y="1155.4" transform="translate(982.27,0)" style="font-family: 'Open Sans', verdana, arial, sans-serif; font-size: 12px; fill: rgb(68, 68, 68); fill-opacity: 1; white-space: pre;">40</text></g></g><g class="yaxislayer-above"><g class="y5tick"><text text-anchor="end" x="76.6" y="4.199999999999999" transform="translate(0,1140)" style="font-family: 'Open Sans', verdana, arial, sans-serif; font-size: 12px; fill: rgb(68, 68, 68); fill-opacity: 1; white-space: pre;">0</text></g><g class="y5tick"><text text-anchor="end" x="76.6" y="4.199999999999999" transform="translate(0,1087.16)" style="font-family: 'Open Sans', verdana, arial, sans-serif; font-size: 12px; fill: rgb(68, 68, 68); fill-opacity: 1; white-space: pre;">0.05</text></g><g class="y5tick"><text text-anchor="end" x="76.6" y="4.199999999999999" transform="translate(0,1034.33)" style="font-family: 'Open Sans', verdana, arial, sans-serif; font-size: 12px; fill: rgb(68, 68, 68); fill-opacity: 1; white-space: pre;">0.1</text></g><g class="y5tick"><text text-anchor="end" x="76.6" y="4.199999999999999" transform="translate(0,981.49)" style="font-family: 'Open Sans', verdana, arial, sans-serif; font-size: 12px; fill: rgb(68, 68, 68); fill-opacity: 1; white-space: pre;">0.15</text></g></g><g class="overaxes-above"/></g><g class="subplot x6y6"><g class="layer-subplot"><g class="shapelayer"/><g class="imagelayer"/></g><g class="gridlayer"><g class="x6"><path class="x6grid crisp" d="M0,672v207.99999999999994" transform="translate(166.92000000000002,0)" style="stroke: rgb(238, 238, 238); stroke-opacity: 1; stroke-width: 1px;"/><path class="x6grid crisp" d="M0,672v207.99999999999994" transform="translate(329.99,0)" style="stroke: rgb(238, 238, 238); stroke-opacity: 1; stroke-width: 1px;"/><path class="x6grid crisp" d="M0,672v207.99999999999994" transform="translate(493.06,0)" style="stroke: rgb(238, 238, 238); stroke-opacity: 1; stroke-width: 1px;"/><path class="x6grid crisp" d="M0,672v207.99999999999994" transform="translate(656.13,0)" style="stroke: rgb(238, 238, 238); stroke-opacity: 1; stroke-width: 1px;"/><path class="x6grid crisp" d="M0,672v207.99999999999994" transform="translate(819.2,0)" style="stroke: rgb(238, 238, 238); stroke-opacity: 1; stroke-width: 1px;"/><path class="x6grid crisp" d="M0,672v207.99999999999994" transform="translate(982.27,0)" style="stroke: rgb(238, 238, 238); stroke-opacity: 1; stroke-width: 1px;"/></g><g class="y6"><path class="y6grid crisp" d="M80,0h970" transform="translate(0,826.67)" style="stroke: rgb(238, 238, 238); stroke-opacity: 1; stroke-width: 1px;"/><path class="y6grid crisp" d="M80,0h970" transform="translate(0,773.34)" style="stroke: rgb(238, 238, 238); stroke-opacity: 1; stroke-width: 1px;"/><path class="y6grid crisp" d="M80,0h970" transform="translate(0,720.01)" style="stroke: rgb(238, 238, 238); stroke-opacity: 1; stroke-width: 1px;"/></g></g><g class="zerolinelayer"/><path class="xlines-below"/><path class="ylines-below"/><g class="overlines-below"/><g class="xaxislayer-below"/><g class="yaxislayer-below"/><g class="overaxes-below"/><g class="plot" transform="translate(80, 672)" clip-path="url(#clip5964d0x6y6plot)"><g class="imagelayer"/><g class="maplayer"/><g class="barlayer"/><g class="carpetlayer"/><g class="violinlayer"/><g class="boxlayer"/><g class="scatterlayer"><g class="trace scatter trace1e834a" style="stroke-miterlimit: 2;"><path class="js-fill js-tozero" d="M970,208L0,208L0,208L4.82,208L9.65,197.69L14.47,188.62L19.3,135.56L24.13,113.4L28.95,155.92L33.78,105.57L38.61,144.25L43.43,122.68L48.26,110.16L53.08,35.48L57.91,64.3L62.74,194.62L67.56,147.37L72.39,216.97L77.21,208L178.56,208L183.38,203.83L188.21,166.87L193.03,152.63L197.86,85.49L202.69,148.1L207.51,152.91L212.34,83.69L217.16,132.33L221.99,105.12L226.81,153.96L231.64,10.4L236.47,43.37L241.29,65.5L246.12,91.32L250.94,208L279.9,208L284.72,184.97L289.55,155.17L294.38,154.03L299.2,188.17L304.03,208L342.64,208L347.46,195.83L352.29,185.75L357.11,187.23L361.94,205.9L366.77,201.95L376.42,205.12L381.24,206.89L386.07,208L390.89,208.13L395.72,208.1L400.54,209.52L410.19,210.64L415.02,207.94L424.67,206.4L429.5,195.84L434.33,192.27L439.15,193.34L443.98,197.49L448.8,207.19L453.63,203.06L458.46,207.13L463.28,202.97L468.11,200.92L472.93,204.73L477.76,205.89L487.41,207.58L492.24,208.33L506.71,208.33L511.54,209.14L526.02,210.6L530.84,209.83L535.67,205.87L540.49,204.16L545.32,203.02L550.15,204.5L554.97,203.62L559.8,205.62L564.62,205.38L569.45,206.63L574.28,208.56L579.1,207.67L583.93,207.44L588.75,208.07L593.58,210.24L598.41,210.56L603.23,208.92L608.06,209.75L612.88,209.43L617.71,210.72L622.54,211.17L627.36,212.76L632.19,212.2L637.01,209.91L641.84,208.62L646.66,209.05L651.49,207.82L656.31,215.93L661.14,207.26L665.97,211.3L670.79,212.57L675.62,210.33L680.44,211.97L685.27,207.67L690.1,231.44L694.93,228.27L699.76,225.76L704.56,225.54L709.39,216.97L714.23,219.59L719.07,218.28L723.86,207.88L728.7,210.87L733.53,208.76L738.37,208.92L743.16,212.61L748,209.62L752.84,209.83L757.67,209.8L762.46,211.89L767.3,211.82L772.14,208.2L776.97,209.2L781.77,212.88L786.6,208.74L791.44,209.88L796.28,210.15L801.07,213.89L805.91,210.66L810.74,213.25L820.42,226.76L825.21,218.92L830.05,221.9L834.88,212.03L839.72,209.62L844.51,209.66L854.18,210.67L859.02,211.97L863.81,215.32L868.65,210.79L873.49,208.62L878.32,210.72L887.95,217.86L892.79,218.83L897.63,216.78L902.42,216.32L907.26,217.01L912.09,213.01L916.93,208.67L921.72,209.55L926.56,215.7L931.39,214.44L936.23,211.33L941.02,211.58L945.86,212.16L950.7,210.85L955.53,206.96L960.33,209.81L965.16,208L970,208" style="fill: rgb(140, 86, 75); fill-opacity: 0.5; stroke-width: 0;"/><path class="js-line" d="M0,208L4.82,208L9.65,197.69L14.47,188.62L19.3,135.56L24.13,113.4L28.95,155.92L33.78,105.57L38.61,144.25L43.43,122.68L48.26,110.16L53.08,35.48L57.91,64.3L62.74,194.62L67.56,147.37L72.39,216.97L77.21,208L178.56,208L183.38,203.83L188.21,166.87L193.03,152.63L197.86,85.49L202.69,148.1L207.51,152.91L212.34,83.69L217.16,132.33L221.99,105.12L226.81,153.96L231.64,10.4L236.47,43.37L241.29,65.5L246.12,91.32L250.94,208L279.9,208L284.72,184.97L289.55,155.17L294.38,154.03L299.2,188.17L304.03,208L342.64,208L347.46,195.83L352.29,185.75L357.11,187.23L361.94,205.9L366.77,201.95L376.42,205.12L381.24,206.89L386.07,208L390.89,208.13L395.72,208.1L400.54,209.52L410.19,210.64L415.02,207.94L424.67,206.4L429.5,195.84L434.33,192.27L439.15,193.34L443.98,197.49L448.8,207.19L453.63,203.06L458.46,207.13L463.28,202.97L468.11,200.92L472.93,204.73L477.76,205.89L487.41,207.58L492.24,208.33L506.71,208.33L511.54,209.14L526.02,210.6L530.84,209.83L535.67,205.87L540.49,204.16L545.32,203.02L550.15,204.5L554.97,203.62L559.8,205.62L564.62,205.38L569.45,206.63L574.28,208.56L579.1,207.67L583.93,207.44L588.75,208.07L593.58,210.24L598.41,210.56L603.23,208.92L608.06,209.75L612.88,209.43L617.71,210.72L622.54,211.17L627.36,212.76L632.19,212.2L637.01,209.91L641.84,208.62L646.66,209.05L651.49,207.82L656.31,215.93L661.14,207.26L665.97,211.3L670.79,212.57L675.62,210.33L680.44,211.97L685.27,207.67L690.1,231.44L694.93,228.27L699.76,225.76L704.56,225.54L709.39,216.97L714.23,219.59L719.07,218.28L723.86,207.88L728.7,210.87L733.53,208.76L738.37,208.92L743.16,212.61L748,209.62L752.84,209.83L757.67,209.8L762.46,211.89L767.3,211.82L772.14,208.2L776.97,209.2L781.77,212.88L786.6,208.74L791.44,209.88L796.28,210.15L801.07,213.89L805.91,210.66L810.74,213.25L820.42,226.76L825.21,218.92L830.05,221.9L834.88,212.03L839.72,209.62L844.51,209.66L854.18,210.67L859.02,211.97L863.81,215.32L868.65,210.79L873.49,208.62L878.32,210.72L887.95,217.86L892.79,218.83L897.63,216.78L902.42,216.32L907.26,217.01L912.09,213.01L916.93,208.67L921.72,209.55L926.56,215.7L931.39,214.44L936.23,211.33L941.02,211.58L945.86,212.16L950.7,210.85L955.53,206.96L960.33,209.81L965.16,208L970,208" style="vector-effect: non-scaling-stroke; fill: none; stroke: rgb(140, 86, 75); stroke-opacity: 1; stroke-width: 2px; opacity: 1;"/><g class="points"/></g></g></g><g class="overplot"/><path class="xlines-above crisp" d="M79,880.5H1051M79,671.5H1051" style="fill: none; stroke-width: 1px; stroke: rgb(68, 68, 68); stroke-opacity: 1;"/><path class="ylines-above crisp" d="M79.5,672V880M1050.5,672V880" style="fill: none; stroke-width: 1px; stroke: rgb(68, 68, 68); stroke-opacity: 1;"/><g class="overlines-above"/><g class="xaxislayer-above"><g class="x6tick"><text text-anchor="middle" x="0" y="895.4" transform="translate(166.92000000000002,0)" style="font-family: 'Open Sans', verdana, arial, sans-serif; font-size: 12px; fill: rgb(68, 68, 68); fill-opacity: 1; white-space: pre;">−10</text></g><g class="x6tick"><text text-anchor="middle" x="0" y="895.4" transform="translate(329.99,0)" style="font-family: 'Open Sans', verdana, arial, sans-serif; font-size: 12px; fill: rgb(68, 68, 68); fill-opacity: 1; white-space: pre;">0</text></g><g class="x6tick"><text text-anchor="middle" x="0" y="895.4" transform="translate(493.06,0)" style="font-family: 'Open Sans', verdana, arial, sans-serif; font-size: 12px; fill: rgb(68, 68, 68); fill-opacity: 1; white-space: pre;">10</text></g><g class="x6tick"><text text-anchor="middle" x="0" y="895.4" transform="translate(656.13,0)" style="font-family: 'Open Sans', verdana, arial, sans-serif; font-size: 12px; fill: rgb(68, 68, 68); fill-opacity: 1; white-space: pre;">20</text></g><g class="x6tick"><text text-anchor="middle" x="0" y="895.4" transform="translate(819.2,0)" style="font-family: 'Open Sans', verdana, arial, sans-serif; font-size: 12px; fill: rgb(68, 68, 68); fill-opacity: 1; white-space: pre;">30</text></g><g class="x6tick"><text text-anchor="middle" x="0" y="895.4" transform="translate(982.27,0)" style="font-family: 'Open Sans', verdana, arial, sans-serif; font-size: 12px; fill: rgb(68, 68, 68); fill-opacity: 1; white-space: pre;">40</text></g></g><g class="yaxislayer-above"><g class="y6tick"><text text-anchor="end" x="76.6" y="4.199999999999999" transform="translate(0,880)" style="font-family: 'Open Sans', verdana, arial, sans-serif; font-size: 12px; fill: rgb(68, 68, 68); fill-opacity: 1; white-space: pre;">0</text></g><g class="y6tick"><text text-anchor="end" x="76.6" y="4.199999999999999" transform="translate(0,826.67)" style="font-family: 'Open Sans', verdana, arial, sans-serif; font-size: 12px; fill: rgb(68, 68, 68); fill-opacity: 1; white-space: pre;">2</text></g><g class="y6tick"><text text-anchor="end" x="76.6" y="4.199999999999999" transform="translate(0,773.34)" style="font-family: 'Open Sans', verdana, arial, sans-serif; font-size: 12px; fill: rgb(68, 68, 68); fill-opacity: 1; white-space: pre;">4</text></g><g class="y6tick"><text text-anchor="end" x="76.6" y="4.199999999999999" transform="translate(0,720.01)" style="font-family: 'Open Sans', verdana, arial, sans-serif; font-size: 12px; fill: rgb(68, 68, 68); fill-opacity: 1; white-space: pre;">6</text></g></g><g class="overaxes-above"/></g><g class="subplot x7y7"><g class="layer-subplot"><g class="shapelayer"/><g class="imagelayer"/></g><g class="gridlayer"><g class="x7"><path class="x7grid crisp" d="M0,412.00000000000006v207.99999999999994" transform="translate(166.92000000000002,0)" style="stroke: rgb(238, 238, 238); stroke-opacity: 1; stroke-width: 1px;"/><path class="x7grid crisp" d="M0,412.00000000000006v207.99999999999994" transform="translate(329.99,0)" style="stroke: rgb(238, 238, 238); stroke-opacity: 1; stroke-width: 1px;"/><path class="x7grid crisp" d="M0,412.00000000000006v207.99999999999994" transform="translate(493.06,0)" style="stroke: rgb(238, 238, 238); stroke-opacity: 1; stroke-width: 1px;"/><path class="x7grid crisp" d="M0,412.00000000000006v207.99999999999994" transform="translate(656.13,0)" style="stroke: rgb(238, 238, 238); stroke-opacity: 1; stroke-width: 1px;"/><path class="x7grid crisp" d="M0,412.00000000000006v207.99999999999994" transform="translate(819.2,0)" style="stroke: rgb(238, 238, 238); stroke-opacity: 1; stroke-width: 1px;"/><path class="x7grid crisp" d="M0,412.00000000000006v207.99999999999994" transform="translate(982.27,0)" style="stroke: rgb(238, 238, 238); stroke-opacity: 1; stroke-width: 1px;"/></g><g class="y7"><path class="y7grid crisp" d="M80,0h970" transform="translate(0,560.3100000000001)" style="stroke: rgb(238, 238, 238); stroke-opacity: 1; stroke-width: 1px;"/><path class="y7grid crisp" d="M80,0h970" transform="translate(0,500.62000000000006)" style="stroke: rgb(238, 238, 238); stroke-opacity: 1; stroke-width: 1px;"/><path class="y7grid crisp" d="M80,0h970" transform="translate(0,440.93000000000006)" style="stroke: rgb(238, 238, 238); stroke-opacity: 1; stroke-width: 1px;"/></g></g><g class="zerolinelayer"/><path class="xlines-below"/><path class="ylines-below"/><g class="overlines-below"/><g class="xaxislayer-below"/><g class="yaxislayer-below"/><g class="overaxes-below"/><g class="plot" transform="translate(80, 412.00000000000006)" clip-path="url(#clip5964d0x7y7plot)"><g class="imagelayer"/><g class="maplayer"/><g class="barlayer"/><g class="carpetlayer"/><g class="violinlayer"/><g class="boxlayer"/><g class="scatterlayer"><g class="trace scatter traceeb4e52" style="stroke-miterlimit: 2;"><path class="js-fill js-tozero" d="M970,208L0,208L0,208L4.82,208L9.65,195.63L14.47,203.71L19.3,205.61L24.13,204.91L28.95,206.85L33.78,205.54L38.61,206.97L43.43,206.45L48.26,206.8L53.08,205.98L57.91,206.29L62.74,207.89L67.56,207.66L77.21,208L82.04,208L178.56,208L183.38,203.69L188.21,161.11L193.03,145.11L197.86,59.7L202.69,139.21L207.51,147L212.34,65.83L217.16,121.48L221.99,97.88L226.81,150.45L231.64,10.4L236.47,51.96L241.29,72.45L246.12,98.91L250.94,208L279.9,208L284.72,188.3L289.55,169.89L294.38,169.52L299.2,193.31L304.03,208L342.64,208L347.46,210.29L352.29,212.16L357.11,204.16L361.94,208.31L366.77,209.53L371.59,209.73L376.42,208.96L390.89,207.5L395.72,207.93L405.37,206.05L410.19,202.88L419.85,205.32L424.67,205.02L429.5,209.43L434.33,216.76L439.15,221.37L443.98,216.98L448.8,209.52L453.63,211.61L463.28,188.24L468.11,170.19L472.93,179.59L477.76,185.98L482.59,188.69L487.41,192.85L492.24,195.25L497.06,192.79L501.89,189.54L506.71,191.63L511.54,198.13L516.37,201.4L521.19,197.7L526.02,206.65L530.84,197.11L535.67,159.9L540.49,99.29L545.32,130.14L550.15,124.96L554.97,147.12L559.8,156.19L564.62,134.46L569.45,141.32L574.28,184.12L579.1,170.38L583.93,170.07L588.75,168.98L593.58,164.41L598.41,187.01L603.23,179.76L608.06,171.79L612.88,192.24L617.71,191.9L622.54,187.45L627.36,176.51L632.19,174.9L641.84,188.73L646.66,190.87L651.49,193.93L656.31,179.07L661.14,203.13L665.97,176.32L670.79,181.88L675.62,201.22L680.44,189.12L685.27,189.54L690.1,178.17L694.93,174.74L699.76,168.6L704.56,148.69L709.39,195.82L714.23,183.2L719.07,175.72L723.86,204.08L728.7,198.19L733.53,197.66L738.37,207.39L743.16,186.82L748,202.25L752.84,203.71L757.67,193.31L762.46,209.75L767.3,185.63L772.14,205.04L776.97,201.66L781.77,194.7L786.6,195.76L791.44,203.9L796.28,209.77L801.07,195.55L805.91,194.87L810.74,185.48L820.42,161.21L825.21,180.46L830.05,174.03L834.88,198.4L839.72,200.01L844.51,204.57L849.35,202.38L854.18,197.34L859.02,199.49L863.81,191.33L868.65,202.27L873.49,206.78L878.32,205.02L883.12,198.76L887.95,206.26L892.79,201.65L897.63,192.66L902.42,202.99L907.26,188.08L912.09,197.75L916.93,207.19L921.72,208.07L926.56,198.11L931.39,199.01L936.23,206.43L941.02,202.58L945.86,204.33L950.7,207.22L955.53,208.58L960.33,204.58L965.16,208L970,208" style="fill: rgb(227, 119, 194); fill-opacity: 0.5; stroke-width: 0;"/><path class="js-line" d="M0,208L4.82,208L9.65,195.63L14.47,203.71L19.3,205.61L24.13,204.91L28.95,206.85L33.78,205.54L38.61,206.97L43.43,206.45L48.26,206.8L53.08,205.98L57.91,206.29L62.74,207.89L67.56,207.66L77.21,208L82.04,208L178.56,208L183.38,203.69L188.21,161.11L193.03,145.11L197.86,59.7L202.69,139.21L207.51,147L212.34,65.83L217.16,121.48L221.99,97.88L226.81,150.45L231.64,10.4L236.47,51.96L241.29,72.45L246.12,98.91L250.94,208L279.9,208L284.72,188.3L289.55,169.89L294.38,169.52L299.2,193.31L304.03,208L342.64,208L347.46,210.29L352.29,212.16L357.11,204.16L361.94,208.31L366.77,209.53L371.59,209.73L376.42,208.96L390.89,207.5L395.72,207.93L405.37,206.05L410.19,202.88L419.85,205.32L424.67,205.02L429.5,209.43L434.33,216.76L439.15,221.37L443.98,216.98L448.8,209.52L453.63,211.61L463.28,188.24L468.11,170.19L472.93,179.59L477.76,185.98L482.59,188.69L487.41,192.85L492.24,195.25L497.06,192.79L501.89,189.54L506.71,191.63L511.54,198.13L516.37,201.4L521.19,197.7L526.02,206.65L530.84,197.11L535.67,159.9L540.49,99.29L545.32,130.14L550.15,124.96L554.97,147.12L559.8,156.19L564.62,134.46L569.45,141.32L574.28,184.12L579.1,170.38L583.93,170.07L588.75,168.98L593.58,164.41L598.41,187.01L603.23,179.76L608.06,171.79L612.88,192.24L617.71,191.9L622.54,187.45L627.36,176.51L632.19,174.9L641.84,188.73L646.66,190.87L651.49,193.93L656.31,179.07L661.14,203.13L665.97,176.32L670.79,181.88L675.62,201.22L680.44,189.12L685.27,189.54L690.1,178.17L694.93,174.74L699.76,168.6L704.56,148.69L709.39,195.82L714.23,183.2L719.07,175.72L723.86,204.08L728.7,198.19L733.53,197.66L738.37,207.39L743.16,186.82L748,202.25L752.84,203.71L757.67,193.31L762.46,209.75L767.3,185.63L772.14,205.04L776.97,201.66L781.77,194.7L786.6,195.76L791.44,203.9L796.28,209.77L801.07,195.55L805.91,194.87L810.74,185.48L820.42,161.21L825.21,180.46L830.05,174.03L834.88,198.4L839.72,200.01L844.51,204.57L849.35,202.38L854.18,197.34L859.02,199.49L863.81,191.33L868.65,202.27L873.49,206.78L878.32,205.02L883.12,198.76L887.95,206.26L892.79,201.65L897.63,192.66L902.42,202.99L907.26,188.08L912.09,197.75L916.93,207.19L921.72,208.07L926.56,198.11L931.39,199.01L936.23,206.43L941.02,202.58L945.86,204.33L950.7,207.22L955.53,208.58L960.33,204.58L965.16,208L970,208" style="vector-effect: non-scaling-stroke; fill: none; stroke: rgb(227, 119, 194); stroke-opacity: 1; stroke-width: 2px; opacity: 1;"/><g class="points"/></g></g></g><g class="overplot"/><path class="xlines-above crisp" d="M79,620.5H1051M79,411.50000000000006H1051" style="fill: none; stroke-width: 1px; stroke: rgb(68, 68, 68); stroke-opacity: 1;"/><path class="ylines-above crisp" d="M79.5,412.00000000000006V620M1050.5,412.00000000000006V620" style="fill: none; stroke-width: 1px; stroke: rgb(68, 68, 68); stroke-opacity: 1;"/><g class="overlines-above"/><g class="xaxislayer-above"><g class="x7tick"><text text-anchor="middle" x="0" y="635.4" transform="translate(166.92000000000002,0)" style="font-family: 'Open Sans', verdana, arial, sans-serif; font-size: 12px; fill: rgb(68, 68, 68); fill-opacity: 1; white-space: pre;">−10</text></g><g class="x7tick"><text text-anchor="middle" x="0" y="635.4" transform="translate(329.99,0)" style="font-family: 'Open Sans', verdana, arial, sans-serif; font-size: 12px; fill: rgb(68, 68, 68); fill-opacity: 1; white-space: pre;">0</text></g><g class="x7tick"><text text-anchor="middle" x="0" y="635.4" transform="translate(493.06,0)" style="font-family: 'Open Sans', verdana, arial, sans-serif; font-size: 12px; fill: rgb(68, 68, 68); fill-opacity: 1; white-space: pre;">10</text></g><g class="x7tick"><text text-anchor="middle" x="0" y="635.4" transform="translate(656.13,0)" style="font-family: 'Open Sans', verdana, arial, sans-serif; font-size: 12px; fill: rgb(68, 68, 68); fill-opacity: 1; white-space: pre;">20</text></g><g class="x7tick"><text text-anchor="middle" x="0" y="635.4" transform="translate(819.2,0)" style="font-family: 'Open Sans', verdana, arial, sans-serif; font-size: 12px; fill: rgb(68, 68, 68); fill-opacity: 1; white-space: pre;">30</text></g><g class="x7tick"><text text-anchor="middle" x="0" y="635.4" transform="translate(982.27,0)" style="font-family: 'Open Sans', verdana, arial, sans-serif; font-size: 12px; fill: rgb(68, 68, 68); fill-opacity: 1; white-space: pre;">40</text></g></g><g class="yaxislayer-above"><g class="y7tick"><text text-anchor="end" x="76.6" y="4.199999999999999" transform="translate(0,620)" style="font-family: 'Open Sans', verdana, arial, sans-serif; font-size: 12px; fill: rgb(68, 68, 68); fill-opacity: 1; white-space: pre;">0</text></g><g class="y7tick"><text text-anchor="end" x="76.6" y="4.199999999999999" transform="translate(0,560.3100000000001)" style="font-family: 'Open Sans', verdana, arial, sans-serif; font-size: 12px; fill: rgb(68, 68, 68); fill-opacity: 1; white-space: pre;">10</text></g><g class="y7tick"><text text-anchor="end" x="76.6" y="4.199999999999999" transform="translate(0,500.62000000000006)" style="font-family: 'Open Sans', verdana, arial, sans-serif; font-size: 12px; fill: rgb(68, 68, 68); fill-opacity: 1; white-space: pre;">20</text></g><g class="y7tick"><text text-anchor="end" x="76.6" y="4.199999999999999" transform="translate(0,440.93000000000006)" style="font-family: 'Open Sans', verdana, arial, sans-serif; font-size: 12px; fill: rgb(68, 68, 68); fill-opacity: 1; white-space: pre;">30</text></g></g><g class="overaxes-above"/></g><g class="subplot x8y8"><g class="layer-subplot"><g class="shapelayer"/><g class="imagelayer"/></g><g class="gridlayer"><g class="x8"><path class="x8grid crisp" d="M0,152.00000000000006v207.99999999999994" transform="translate(166.92000000000002,0)" style="stroke: rgb(238, 238, 238); stroke-opacity: 1; stroke-width: 1px;"/><path class="x8grid crisp" d="M0,152.00000000000006v207.99999999999994" transform="translate(329.99,0)" style="stroke: rgb(238, 238, 238); stroke-opacity: 1; stroke-width: 1px;"/><path class="x8grid crisp" d="M0,152.00000000000006v207.99999999999994" transform="translate(493.06,0)" style="stroke: rgb(238, 238, 238); stroke-opacity: 1; stroke-width: 1px;"/><path class="x8grid crisp" d="M0,152.00000000000006v207.99999999999994" transform="translate(656.13,0)" style="stroke: rgb(238, 238, 238); stroke-opacity: 1; stroke-width: 1px;"/><path class="x8grid crisp" d="M0,152.00000000000006v207.99999999999994" transform="translate(819.2,0)" style="stroke: rgb(238, 238, 238); stroke-opacity: 1; stroke-width: 1px;"/><path class="x8grid crisp" d="M0,152.00000000000006v207.99999999999994" transform="translate(982.27,0)" style="stroke: rgb(238, 238, 238); stroke-opacity: 1; stroke-width: 1px;"/></g><g class="y8"><path class="y8grid crisp" d="M80,0h970" transform="translate(0,325.46000000000004)" style="stroke: rgb(238, 238, 238); stroke-opacity: 1; stroke-width: 1px;"/><path class="y8grid crisp" d="M80,0h970" transform="translate(0,290.9200000000001)" style="stroke: rgb(238, 238, 238); stroke-opacity: 1; stroke-width: 1px;"/><path class="y8grid crisp" d="M80,0h970" transform="translate(0,256.38000000000005)" style="stroke: rgb(238, 238, 238); stroke-opacity: 1; stroke-width: 1px;"/><path class="y8grid crisp" d="M80,0h970" transform="translate(0,221.84000000000006)" style="stroke: rgb(238, 238, 238); stroke-opacity: 1; stroke-width: 1px;"/><path class="y8grid crisp" d="M80,0h970" transform="translate(0,187.30000000000007)" style="stroke: rgb(238, 238, 238); stroke-opacity: 1; stroke-width: 1px;"/></g></g><g class="zerolinelayer"/><path class="xlines-below"/><path class="ylines-below"/><g class="overlines-below"/><g class="xaxislayer-below"/><g class="yaxislayer-below"/><g class="overaxes-below"/><g class="plot" transform="translate(80, 152.00000000000006)" clip-path="url(#clip5964d0x8y8plot)"><g class="imagelayer"/><g class="maplayer"/><g class="barlayer"/><g class="carpetlayer"/><g class="violinlayer"/><g class="boxlayer"/><g class="scatterlayer"><g class="trace scatter trace7e2174" style="stroke-miterlimit: 2;"><path class="js-fill js-tozero" d="M970,208L0,208L0,208L4.82,208L9.65,187.38L14.47,198L19.3,201.63L24.13,200.3L28.95,204.83L33.78,201.03L38.61,204.45L43.43,202.78L48.26,202.46L53.08,198.71L57.91,200.2L62.74,207.2L67.56,204.69L72.39,208.5L77.21,208L183.38,207.41L188.21,201.74L193.03,199.68L197.86,189.63L202.69,199.34L207.51,200.07L212.34,189.93L217.16,197.19L221.99,193.61L226.81,200.26L231.64,179.9L236.47,184.79L246.12,192.19L250.94,208L279.9,208L284.72,36.85L289.55,12.3L294.38,141.37L299.2,191.42L304.03,208L342.64,208L347.46,203.27L352.29,195.97L357.11,191.5L361.94,202.26L366.77,199.64L371.59,200.36L376.42,201.87L381.24,204.04L386.07,208L395.72,206.1L400.54,201.48L405.37,199.16L410.19,199.96L415.02,201.57L419.85,198.71L424.67,201.6L429.5,194.6L434.33,194.19L439.15,198.87L443.98,201.2L448.8,207.49L453.63,205.27L458.46,207.07L468.11,204.04L472.93,205.21L487.41,206.55L492.24,206.69L506.71,206.22L511.54,206.79L526.02,207.28L530.84,206.44L535.67,202.28L540.49,197.02L545.32,199.47L550.15,199.81L554.97,202.35L559.8,202.69L564.62,200.85L569.45,201.32L574.28,204.51L579.1,203.15L583.93,201.4L588.75,203.25L593.58,200.56L598.41,201.84L603.23,201.2L608.06,199.75L612.88,204.8L617.71,202.09L622.54,201.48L627.36,199.9L632.19,200.32L637.01,202.9L641.84,205.19L646.66,205.93L651.49,208.73L656.31,198.83L661.14,207.28L665.97,200.22L675.62,205.03L680.44,204.62L685.27,208.15L690.1,200.46L694.93,201.25L699.76,196.04L704.56,197.28L709.39,202.94L714.23,197.67L719.07,200.91L723.86,205.47L728.7,204.52L738.37,207.57L743.16,202.3L752.84,205.54L757.67,203.98L762.46,201.98L767.3,197.5L772.14,204.53L776.97,202.07L781.77,199.23L786.6,201.05L791.44,206.73L796.28,203.36L805.91,200.28L810.74,199.04L815.58,197.17L820.42,194.48L825.21,198.4L830.05,197.28L834.88,200.92L839.72,198.94L844.51,200.99L849.35,200.82L859.02,202.28L863.81,199.92L868.65,203.66L873.49,205.13L878.32,204.81L883.12,198.53L887.95,197.78L892.79,197.98L897.63,201.79L902.42,200.72L907.26,206.87L912.09,206.48L916.93,207.76L921.72,206.68L926.56,200.43L931.39,201.5L936.23,202.53L941.02,201.1L945.86,203.18L950.7,202.86L955.53,207.39L960.33,205.75L965.16,208L970,208" style="fill: rgb(127, 127, 127); fill-opacity: 0.5; stroke-width: 0;"/><path class="js-line" d="M0,208L4.82,208L9.65,187.38L14.47,198L19.3,201.63L24.13,200.3L28.95,204.83L33.78,201.03L38.61,204.45L43.43,202.78L48.26,202.46L53.08,198.71L57.91,200.2L62.74,207.2L67.56,204.69L72.39,208.5L77.21,208L183.38,207.41L188.21,201.74L193.03,199.68L197.86,189.63L202.69,199.34L207.51,200.07L212.34,189.93L217.16,197.19L221.99,193.61L226.81,200.26L231.64,179.9L236.47,184.79L246.12,192.19L250.94,208L279.9,208L284.72,36.85L289.55,12.3L294.38,141.37L299.2,191.42L304.03,208L342.64,208L347.46,203.27L352.29,195.97L357.11,191.5L361.94,202.26L366.77,199.64L371.59,200.36L376.42,201.87L381.24,204.04L386.07,208L395.72,206.1L400.54,201.48L405.37,199.16L410.19,199.96L415.02,201.57L419.85,198.71L424.67,201.6L429.5,194.6L434.33,194.19L439.15,198.87L443.98,201.2L448.8,207.49L453.63,205.27L458.46,207.07L468.11,204.04L472.93,205.21L487.41,206.55L492.24,206.69L506.71,206.22L511.54,206.79L526.02,207.28L530.84,206.44L535.67,202.28L540.49,197.02L545.32,199.47L550.15,199.81L554.97,202.35L559.8,202.69L564.62,200.85L569.45,201.32L574.28,204.51L579.1,203.15L583.93,201.4L588.75,203.25L593.58,200.56L598.41,201.84L603.23,201.2L608.06,199.75L612.88,204.8L617.71,202.09L622.54,201.48L627.36,199.9L632.19,200.32L637.01,202.9L641.84,205.19L646.66,205.93L651.49,208.73L656.31,198.83L661.14,207.28L665.97,200.22L675.62,205.03L680.44,204.62L685.27,208.15L690.1,200.46L694.93,201.25L699.76,196.04L704.56,197.28L709.39,202.94L714.23,197.67L719.07,200.91L723.86,205.47L728.7,204.52L738.37,207.57L743.16,202.3L752.84,205.54L757.67,203.98L762.46,201.98L767.3,197.5L772.14,204.53L776.97,202.07L781.77,199.23L786.6,201.05L791.44,206.73L796.28,203.36L805.91,200.28L810.74,199.04L815.58,197.17L820.42,194.48L825.21,198.4L830.05,197.28L834.88,200.92L839.72,198.94L844.51,200.99L849.35,200.82L859.02,202.28L863.81,199.92L868.65,203.66L873.49,205.13L878.32,204.81L883.12,198.53L887.95,197.78L892.79,197.98L897.63,201.79L902.42,200.72L907.26,206.87L912.09,206.48L916.93,207.76L921.72,206.68L926.56,200.43L931.39,201.5L936.23,202.53L941.02,201.1L945.86,203.18L950.7,202.86L955.53,207.39L960.33,205.75L965.16,208L970,208" style="vector-effect: non-scaling-stroke; fill: none; stroke: rgb(127, 127, 127); stroke-opacity: 1; stroke-width: 2px; opacity: 1;"/><g class="points"/></g></g></g><g class="overplot"/><path class="xlines-above crisp" d="M79,360.5H1051M79,151.50000000000006H1051" style="fill: none; stroke-width: 1px; stroke: rgb(68, 68, 68); stroke-opacity: 1;"/><path class="ylines-above crisp" d="M79.5,152.00000000000006V360M1050.5,152.00000000000006V360" style="fill: none; stroke-width: 1px; stroke: rgb(68, 68, 68); stroke-opacity: 1;"/><g class="overlines-above"/><g class="xaxislayer-above"><g class="x8tick"><text text-anchor="middle" x="0" y="375.4" transform="translate(166.92000000000002,0)" style="font-family: 'Open Sans', verdana, arial, sans-serif; font-size: 12px; fill: rgb(68, 68, 68); fill-opacity: 1; white-space: pre;">−10</text></g><g class="x8tick"><text text-anchor="middle" x="0" y="375.4" transform="translate(329.99,0)" style="font-family: 'Open Sans', verdana, arial, sans-serif; font-size: 12px; fill: rgb(68, 68, 68); fill-opacity: 1; white-space: pre;">0</text></g><g class="x8tick"><text text-anchor="middle" x="0" y="375.4" transform="translate(493.06,0)" style="font-family: 'Open Sans', verdana, arial, sans-serif; font-size: 12px; fill: rgb(68, 68, 68); fill-opacity: 1; white-space: pre;">10</text></g><g class="x8tick"><text text-anchor="middle" x="0" y="375.4" transform="translate(656.13,0)" style="font-family: 'Open Sans', verdana, arial, sans-serif; font-size: 12px; fill: rgb(68, 68, 68); fill-opacity: 1; white-space: pre;">20</text></g><g class="x8tick"><text text-anchor="middle" x="0" y="375.4" transform="translate(819.2,0)" style="font-family: 'Open Sans', verdana, arial, sans-serif; font-size: 12px; fill: rgb(68, 68, 68); fill-opacity: 1; white-space: pre;">30</text></g><g class="x8tick"><text text-anchor="middle" x="0" y="375.4" transform="translate(982.27,0)" style="font-family: 'Open Sans', verdana, arial, sans-serif; font-size: 12px; fill: rgb(68, 68, 68); fill-opacity: 1; white-space: pre;">40</text></g></g><g class="yaxislayer-above"><g class="y8tick"><text text-anchor="end" x="76.6" y="4.199999999999999" transform="translate(0,360.00000000000006)" style="font-family: 'Open Sans', verdana, arial, sans-serif; font-size: 12px; fill: rgb(68, 68, 68); fill-opacity: 1; white-space: pre;">0</text></g><g class="y8tick"><text text-anchor="end" x="76.6" y="4.199999999999999" transform="translate(0,325.46000000000004)" style="font-family: 'Open Sans', verdana, arial, sans-serif; font-size: 12px; fill: rgb(68, 68, 68); fill-opacity: 1; white-space: pre;">200</text></g><g class="y8tick"><text text-anchor="end" x="76.6" y="4.199999999999999" transform="translate(0,290.9200000000001)" style="font-family: 'Open Sans', verdana, arial, sans-serif; font-size: 12px; fill: rgb(68, 68, 68); fill-opacity: 1; white-space: pre;">400</text></g><g class="y8tick"><text text-anchor="end" x="76.6" y="4.199999999999999" transform="translate(0,256.38000000000005)" style="font-family: 'Open Sans', verdana, arial, sans-serif; font-size: 12px; fill: rgb(68, 68, 68); fill-opacity: 1; white-space: pre;">600</text></g><g class="y8tick"><text text-anchor="end" x="76.6" y="4.199999999999999" transform="translate(0,221.84000000000006)" style="font-family: 'Open Sans', verdana, arial, sans-serif; font-size: 12px; fill: rgb(68, 68, 68); fill-opacity: 1; white-space: pre;">800</text></g><g class="y8tick"><text text-anchor="end" x="76.6" y="4.199999999999999" transform="translate(0,187.30000000000007)" style="font-family: 'Open Sans', verdana, arial, sans-serif; font-size: 12px; fill: rgb(68, 68, 68); fill-opacity: 1; white-space: pre;">1000</text></g><g class="y8tick"><text text-anchor="end" x="76.6" y="4.199999999999999" transform="translate(0,152.76000000000005)" style="font-family: 'Open Sans', verdana, arial, sans-serif; font-size: 12px; fill: rgb(68, 68, 68); fill-opacity: 1; white-space: pre;">1200</text></g></g><g class="overaxes-above"/></g></g><g class="polarlayer"/><g class="ternarylayer"/><g class="geolayer"/><g class="pielayer"/><g class="glimages"/><defs id="topdefs-5964d0"><g class="clips"/></defs><g class="layer-above"><g class="imagelayer"/><g class="shapelayer"><path data-index="0" fill-rule="evenodd" d="M329.99,2180L329.99,1972" clip-path="url(#clip5964d0xy)" style="opacity: 1; stroke: rgb(255, 0, 0); stroke-opacity: 1; fill: rgb(0, 0, 0); fill-opacity: 0; stroke-width: 2px;"/><path data-index="1" fill-rule="evenodd" d="M329.99,1920L329.99,1713" clip-path="url(#clip5964d0xy2)" style="opacity: 1; stroke: rgb(255, 0, 0); stroke-opacity: 1; fill: rgb(0, 0, 0); fill-opacity: 0; stroke-width: 2px;"/><path data-index="2" fill-rule="evenodd" d="M329.99,1660L329.99,1452" clip-path="url(#clip5964d0xy3)" style="opacity: 1; stroke: rgb(255, 0, 0); stroke-opacity: 1; fill: rgb(0, 0, 0); fill-opacity: 0; stroke-width: 2px;"/><path data-index="3" fill-rule="evenodd" d="M329.99,1400L329.99,1193" clip-path="url(#clip5964d0xy4)" style="opacity: 1; stroke: rgb(255, 0, 0); stroke-opacity: 1; fill: rgb(0, 0, 0); fill-opacity: 0; stroke-width: 2px;"/><path data-index="4" fill-rule="evenodd" d="M329.99,1140L329.99,932" clip-path="url(#clip5964d0xy5)" style="opacity: 1; stroke: rgb(255, 0, 0); stroke-opacity: 1; fill: rgb(0, 0, 0); fill-opacity: 0; stroke-width: 2px;"/><path data-index="5" fill-rule="evenodd" d="M329.99,880L329.99,672" clip-path="url(#clip5964d0xy6)" style="opacity: 1; stroke: rgb(255, 0, 0); stroke-opacity: 1; fill: rgb(0, 0, 0); fill-opacity: 0; stroke-width: 2px;"/><path data-index="6" fill-rule="evenodd" d="M329.99,620L329.99,412.00000000000006" clip-path="url(#clip5964d0xy7)" style="opacity: 1; stroke: rgb(255, 0, 0); stroke-opacity: 1; fill: rgb(0, 0, 0); fill-opacity: 0; stroke-width: 2px;"/><path data-index="7" fill-rule="evenodd" d="M329.99,360.00000000000006L329.99,153.00000000000006" clip-path="url(#clip5964d0xy8)" style="opacity: 1; stroke: rgb(255, 0, 0); stroke-opacity: 1; fill: rgb(0, 0, 0); fill-opacity: 0; stroke-width: 2px;"/></g></g><g class="infolayer"><g class="g-gtitle"><text class="gtitle" x="565" y="50" text-anchor="middle" style="font-family: 'Open Sans', verdana, arial, sans-serif; font-size: 17px; fill: rgb(68, 68, 68); opacity: 1; font-weight: normal; white-space: pre;">DENSITY OF STATES SVWN</text></g><g class="g-xtitle"><text class="xtitle" x="565" y="2232" text-anchor="middle" style="font-family: 'Open Sans', verdana, arial, sans-serif; font-size: 14px; fill: rgb(68, 68, 68); opacity: 1; font-weight: normal; white-space: pre;">E-EFERMI (eV)</text></g><g class="g-x2title"/><g class="g-x3title"/><g class="g-x4title"/><g class="g-x5title"/><g class="g-x6title"/><g class="g-x7title"/><g class="g-x8title"/><g class="g-ytitle" transform="translate(-2.8000011444091797,0)"><text class="ytitle" transform="rotate(-90,48,2076)" x="48" y="2076" text-anchor="middle" style="font-family: 'Open Sans', verdana, arial, sans-serif; font-size: 11px; fill: rgb(68, 68, 68); opacity: 1; font-weight: normal; white-space: pre;">1 2 S H</text></g><g class="g-y2title"><text class="y2title" transform="rotate(-90,48,1816)" x="48" y="1816" text-anchor="middle" style="font-family: 'Open Sans', verdana, arial, sans-serif; font-size: 11px; fill: rgb(68, 68, 68); opacity: 1; font-weight: normal; white-space: pre;">61 62 66 s N</text></g><g class="g-y3title"><text class="y3title" transform="rotate(-90,48,1556)" x="48" y="1556" text-anchor="middle" style="font-family: 'Open Sans', verdana, arial, sans-serif; font-size: 11px; fill: rgb(68, 68, 68); opacity: 1; font-weight: normal; white-space: pre;">3 4 px py H</text></g><g class="g-y4title"><text class="y4title" transform="rotate(-90,48,1296)" x="48" y="1296" text-anchor="middle" style="font-family: 'Open Sans', verdana, arial, sans-serif; font-size: 11px; fill: rgb(68, 68, 68); opacity: 1; font-weight: normal; white-space: pre;">63 64 67 67 px py N</text></g><g class="g-y5title"><text class="y5title" transform="rotate(-90,48,1036)" x="48" y="1036" text-anchor="middle" style="font-family: 'Open Sans', verdana, arial, sans-serif; font-size: 11px; fill: rgb(68, 68, 68); opacity: 1; font-weight: normal; white-space: pre;">3 pz H</text></g><g class="g-y6title"><text class="y6title" transform="rotate(-90,48,776)" x="48" y="776" text-anchor="middle" style="font-family: 'Open Sans', verdana, arial, sans-serif; font-size: 11px; fill: rgb(68, 68, 68); opacity: 1; font-weight: normal; white-space: pre;">65 69 pz N</text></g><g class="g-y7title"><text class="y7title" transform="rotate(-90,48,516)" x="48" y="516" text-anchor="middle" style="font-family: 'Open Sans', verdana, arial, sans-serif; font-size: 11px; fill: rgb(68, 68, 68); opacity: 1; font-weight: normal; white-space: pre;">70 71 72 73 73 d N</text></g><g class="g-y8title"><text class="y8title" transform="rotate(-90,48,256)" x="48" y="256" text-anchor="middle" style="font-family: 'Open Sans', verdana, arial, sans-serif; font-size: 11px; fill: rgb(68, 68, 68); opacity: 1; font-weight: normal; white-space: pre;">Total</text></g></g></svg>