<svg class="main-svg" xmlns="http://www.w3.org/2000/svg" xmlns:xlink="http://www.w3.org/1999/xlink" width="1130" height="2260" style="" viewBox="0 0 1130 2260"><rect x="0" y="0" width="1130" height="2260" style="fill: rgb(238, 238, 238); fill-opacity: 1;"/><defs id="defs-c03a07"><g class="clips"><clipPath class="plotclip" id="clipc03a07xyplot"><rect width="970" height="208"/></clipPath><clipPath class="plotclip" id="clipc03a07x2y2plot"><rect width="970" height="208"/></clipPath><clipPath class="plotclip" id="clipc03a07x3y3plot"><rect width="970" height="207.99999999999994"/></clipPath><clipPath class="plotclip" id="clipc03a07x4y4plot"><rect width="970" height="207.99999999999994"/></clipPath><clipPath class="plotclip" id="clipc03a07x5y5plot"><rect width="970" height="207.99999999999994"/></clipPath><clipPath class="plotclip" id="clipc03a07x6y6plot"><rect width="970" height="207.99999999999994"/></clipPath><clipPath class="plotclip" id="clipc03a07x7y7plot"><rect width="970" height="207.99999999999994"/></clipPath><clipPath class="plotclip" id="clipc03a07x8y8plot"><rect width="970" height="207.99999999999994"/></clipPath><clipPath class="axesclip" id="clipc03a07x"><rect x="80" y="0" width="970" height="2260"/></clipPath><clipPath class="axesclip" id="clipc03a07y"><rect x="0" y="1972" width="1130" height="208"/></clipPath><clipPath class="axesclip" id="clipc03a07xy"><rect x="80" y="1972" width="970" height="208"/></clipPath><clipPath class="axesclip" id="clipc03a07y2"><rect x="0" y="1712" width="1130" height="208"/></clipPath><clipPath class="axesclip" id="clipc03a07xy2"><rect x="80" y="1712" width="970" height="208"/></clipPath><clipPath class="axesclip" id="clipc03a07y3"><rect x="0" y="1452" width="1130" height="207.99999999999994"/></clipPath><clipPath class="axesclip" id="clipc03a07xy3"><rect x="80" y="1452" width="970" height="207.99999999999994"/></clipPath><clipPath class="axesclip" id="clipc03a07y4"><rect x="0" y="1192" width="1130" height="207.99999999999994"/></clipPath><clipPath class="axesclip" id="clipc03a07xy4"><rect x="80" y="1192" width="970" height="207.99999999999994"/></clipPath><clipPath class="axesclip" id="clipc03a07y5"><rect x="0" y="932" width="1130" height="207.99999999999994"/></clipPath><clipPath class="axesclip" id="clipc03a07xy5"><rect x="80" y="932" width="970" height="207.99999999999994"/></clipPath><clipPath class="axesclip" id="clipc03a07y6"><rect x="0" y="672" width="1130" height="207.99999999999994"/></clipPath><clipPath class="axesclip" id="clipc03a07xy6"><rect x="80" y="672" width="970" height="207.99999999999994"/></clipPath><clipPath class="axesclip" id="clipc03a07y7"><rect x="0" y="412.00000000000006" width="1130" height="207.99999999999994"/></clipPath><clipPath class="axesclip" id="clipc03a07xy7"><rect x="80" y="412.00000000000006" width="970" height="207.99999999999994"/></clipPath><clipPath class="axesclip" id="clipc03a07y8"><rect x="0" y="152.00000000000006" width="1130" height="207.99999999999994"/></clipPath><clipPath class="axesclip" id="clipc03a07xy8"><rect x="80" y="152.00000000000006" width="970" height="207.99999999999994"/></clipPath><clipPath class="axesclip" id="clipc03a07x2"><rect x="80" y="0" width="970" height="2260"/></clipPath><clipPath class="axesclip" id="clipc03a07x2y"><rect x="80" y="1972" width="970" height="208"/></clipPath><clipPath class="axesclip" id="clipc03a07x2y2"><rect x="80" y="1712" width="970" height="208"/></clipPath><clipPath class="axesclip" id="clipc03a07x2y3"><rect x="80" y="1452" width="970" height="207.99999999999994"/></clipPath><clipPath class="axesclip" id="clipc03a07x2y4"><rect x="80" y="1192" width="970" height="207.99999999999994"/></clipPath><clipPath class="axesclip" id="clipc03a07x2y5"><rect x="80" y="932" width="970" height="207.99999999999994"/></clipPath><clipPath class="axesclip" id="clipc03a07x2y6"><rect x="80" y="672" width="970" height="207.99999999999994"/></clipPath><clipPath class="axesclip" id="clipc03a07x2y7"><rect x="80" y="412.00000000000006" width="970" height="207.99999999999994"/></clipPath><clipPath class="axesclip" id="clipc03a07x2y8"><rect x="80" y="152.00000000000006" width="970" height="207.99999999999994"/></clipPath><clipPath class="axesclip" id="clipc03a07x3"><rect x="80" y="0" width="970" height="2260"/></clipPath><clipPath class="axesclip" id="clipc03a07x3y"><rect x="80" y="1972" width="970" height="208"/></clipPath><clipPath class="axesclip" id="clipc03a07x3y2"><rect x="80" y="1712" width="970" height="208"/></clipPath><clipPath class="axesclip" id="clipc03a07x3y3"><rect x="80" y="1452" width="970" height="207.99999999999994"/></clipPath><clipPath class="axesclip" id="clipc03a07x3y4"><rect x="80" y="1192" width="970" height="207.99999999999994"/></clipPath><clipPath class="axesclip" id="clipc03a07x3y5"><rect x="80" y="932" width="970" height="207.99999999999994"/></clipPath><clipPath class="axesclip" id="clipc03a07x3y6"><rect x="80" y="672" width="970" height="207.99999999999994"/></clipPath><clipPath class="axesclip" id="clipc03a07x3y7"><rect x="80" y="412.00000000000006" width="970" height="207.99999999999994"/></clipPath><clipPath class="axesclip" id="clipc03a07x3y8"><rect x="80" y="152.00000000000006" width="970" height="207.99999999999994"/></clipPath><clipPath class="axesclip" id="clipc03a07x4"><rect x="80" y="0" width="970" height="2260"/></clipPath><clipPath class="axesclip" id="clipc03a07x4y"><rect x="80" y="1972" width="970" height="208"/></clipPath><clipPath class="axesclip" id="clipc03a07x4y2"><rect x="80" y="1712" width="970" height="208"/></clipPath><clipPath class="axesclip" id="clipc03a07x4y3"><rect x="80" y="1452" width="970" height="207.99999999999994"/></clipPath><clipPath class="axesclip" id="clipc03a07x4y4"><rect x="80" y="1192" width="970" height="207.99999999999994"/></clipPath><clipPath class="axesclip" id="clipc03a07x4y5"><rect x="80" y="932" width="970" height="207.99999999999994"/></clipPath><clipPath class="axesclip" id="clipc03a07x4y6"><rect x="80" y="672" width="970" height="207.99999999999994"/></clipPath><clipPath class="axesclip" id="clipc03a07x4y7"><rect x="80" y="412.00000000000006" width="970" height="207.99999999999994"/></clipPath><clipPath class="axesclip" id="clipc03a07x4y8"><rect x="80" y="152.00000000000006" width="970" height="207.99999999999994"/></clipPath><clipPath class="axesclip" id="clipc03a07x5"><rect x="80" y="0" width="970" height="2260"/></clipPath><clipPath class="axesclip" id="clipc03a07x5y"><rect x="80" y="1972" width="970" height="208"/></clipPath><clipPath class="axesclip" id="clipc03a07x5y2"><rect x="80" y="1712" width="970" height="208"/></clipPath><clipPath class="axesclip" id="clipc03a07x5y3"><rect x="80" y="1452" width="970" height="207.99999999999994"/></clipPath><clipPath class="axesclip" id="clipc03a07x5y4"><rect x="80" y="1192" width="970" height="207.99999999999994"/></clipPath><clipPath class="axesclip" id="clipc03a07x5y5"><rect x="80" y="932" width="970" height="207.99999999999994"/></clipPath><clipPath class="axesclip" id="clipc03a07x5y6"><rect x="80" y="672" width="970" height="207.99999999999994"/></clipPath><clipPath class="axesclip" id="clipc03a07x5y7"><rect x="80" y="412.00000000000006" width="970" height="207.99999999999994"/></clipPath><clipPath class="axesclip" id="clipc03a07x5y8"><rect x="80" y="152.00000000000006" width="970" height="207.99999999999994"/></clipPath><clipPath class="axesclip" id="clipc03a07x6"><rect x="80" y="0" width="970" height="2260"/></clipPath><clipPath class="axesclip" id="clipc03a07x6y"><rect x="80" y="1972" width="970" height="208"/></clipPath><clipPath class="axesclip" id="clipc03a07x6y2"><rect x="80" y="1712" width="970" height="208"/></clipPath><clipPath class="axesclip" id="clipc03a07x6y3"><rect x="80" y="1452" width="970" height="207.99999999999994"/></clipPath><clipPath class="axesclip" id="clipc03a07x6y4"><rect x="80" y="1192" width="970" height="207.99999999999994"/></clipPath><clipPath class="axesclip" id="clipc03a07x6y5"><rect x="80" y="932" width="970" height="207.99999999999994"/></clipPath><clipPath class="axesclip" id="clipc03a07x6y6"><rect x="80" y="672" width="970" height="207.99999999999994"/></clipPath><clipPath class="axesclip" id="clipc03a07x6y7"><rect x="80" y="412.00000000000006" width="970" height="207.99999999999994"/></clipPath><clipPath class="axesclip" id="clipc03a07x6y8"><rect x="80" y="152.00000000000006" width="970" height="207.99999999999994"/></clipPath><clipPath class="axesclip" id="clipc03a07x7"><rect x="80" y="0" width="970" height="2260"/></clipPath><clipPath class="axesclip" id="clipc03a07x7y"><rect x="80" y="1972" width="970" height="208"/></clipPath><clipPath class="axesclip" id="clipc03a07x7y2"><rect x="80" y="1712" width="970" height="208"/></clipPath><clipPath class="axesclip" id="clipc03a07x7y3"><rect x="80" y="1452" width="970" height="207.99999999999994"/></clipPath><clipPath class="axesclip" id="clipc03a07x7y4"><rect x="80" y="1192" width="970" height="207.99999999999994"/></clipPath><clipPath class="axesclip" id="clipc03a07x7y5"><rect x="80" y="932" width="970" height="207.99999999999994"/></clipPath><clipPath class="axesclip" id="clipc03a07x7y6"><rect x="80" y="672" width="970" height="207.99999999999994"/></clipPath><clipPath class="axesclip" id="clipc03a07x7y7"><rect x="80" y="412.00000000000006" width="970" height="207.99999999999994"/></clipPath><clipPath class="axesclip" id="clipc03a07x7y8"><rect x="80" y="152.00000000000006" width="970" height="207.99999999999994"/></clipPath><clipPath class="axesclip" id="clipc03a07x8"><rect x="80" y="0" width="970" height="2260"/></clipPath><clipPath class="axesclip" id="clipc03a07x8y"><rect x="80" y="1972" width="970" height="208"/></clipPath><clipPath class="axesclip" id="clipc03a07x8y2"><rect x="80" y="1712" width="970" height="208"/></clipPath><clipPath class="axesclip" id="clipc03a07x8y3"><rect x="80" y="1452" width="970" height="207.99999999999994"/></clipPath><clipPath class="axesclip" id="clipc03a07x8y4"><rect x="80" y="1192" width="970" height="207.99999999999994"/></clipPath><clipPath class="axesclip" id="clipc03a07x8y5"><rect x="80" y="932" width="970" height="207.99999999999994"/></clipPath><clipPath class="axesclip" id="clipc03a07x8y6"><rect x="80" y="672" width="970" height="207.99999999999994"/></clipPath><clipPath class="axesclip" id="clipc03a07x8y7"><rect x="80" y="412.00000000000006" width="970" height="207.99999999999994"/></clipPath><clipPath class="axesclip" id="clipc03a07x8y8"><rect x="80" y="152.00000000000006" width="970" height="207.99999999999994"/></clipPath></g><g class="gradients"/></defs><g class="bglayer"><rect class="bg" x="80" y="1972" width="970" height="208" style="fill: rgb(255, 255, 255); fill-opacity: 1; stroke-width: 0;"/><rect class="bg" x="80" y="1712" width="970" height="208" style="fill: rgb(255, 255, 255); fill-opacity: 1; stroke-width: 0;"/><rect class="bg" x="80" y="1452" width="970" height="207.99999999999994" style="fill: rgb(255, 255, 255); fill-opacity: 1; stroke-width: 0;"/><rect class="bg" x="80" y="1192" width="970" height="207.99999999999994" style="fill: rgb(255, 255, 255); fill-opacity: 1; stroke-width: 0;"/><rect class="bg" x="80" y="932" width="970" height="207.99999999999994" style="fill: rgb(255, 255, 255); fill-opacity: 1; stroke-width: 0;"/><rect class="bg" x="80" y="672" width="970" height="207.99999999999994" style="fill: rgb(255, 255, 255); fill-opacity: 1; stroke-width: 0;"/><rect class="bg" x="80" y="412.00000000000006" width="970" height="207.99999999999994" style="fill: rgb(255, 255, 255); fill-opacity: 1; stroke-width: 0;"/><rect class="bg" x="80" y="152.00000000000006" width="970" height="207.99999999999994" style="fill: rgb(255, 255, 255); fill-opacity: 1; stroke-width: 0;"/></g><g class="layer-below"><g class="imagelayer"/><g class="shapelayer"/></g><g class="cartesianlayer"><g class="subplot xy"><g class="layer-subplot"><g class="shapelayer"/><g class="imagelayer"/></g><g class="gridlayer"><g class="x"><path class="xgrid crisp" d="M0,1972v208" transform="translate(169.32,0)" style="stroke: rgb(238, 238, 238); stroke-opacity: 1; stroke-width: 1px;"/><path class="xgrid crisp" d="M0,1972v208" transform="translate(335.09000000000003,0)" style="stroke: rgb(238, 238, 238); stroke-opacity: 1; stroke-width: 1px;"/><path class="xgrid crisp" d="M0,1972v208" transform="translate(500.86,0)" style="stroke: rgb(238, 238, 238); stroke-opacity: 1; stroke-width: 1px;"/><path class="xgrid crisp" d="M0,1972v208" transform="translate(666.63,0)" style="stroke: rgb(238, 238, 238); stroke-opacity: 1; stroke-width: 1px;"/><path class="xgrid crisp" d="M0,1972v208" transform="translate(832.39,0)" style="stroke: rgb(238, 238, 238); stroke-opacity: 1; stroke-width: 1px;"/><path class="xgrid crisp" d="M0,1972v208" transform="translate(998.16,0)" style="stroke: rgb(238, 238, 238); stroke-opacity: 1; stroke-width: 1px;"/></g><g class="y"><path class="ygrid crisp" d="M80,0h970" transform="translate(0,2138.09)" style="stroke: rgb(238, 238, 238); stroke-opacity: 1; stroke-width: 1px;"/><path class="ygrid crisp" d="M80,0h970" transform="translate(0,2096.17)" style="stroke: rgb(238, 238, 238); stroke-opacity: 1; stroke-width: 1px;"/><path class="ygrid crisp" d="M80,0h970" transform="translate(0,2054.26)" style="stroke: rgb(238, 238, 238); stroke-opacity: 1; stroke-width: 1px;"/><path class="ygrid crisp" d="M80,0h970" transform="translate(0,2012.35)" style="stroke: rgb(238, 238, 238); stroke-opacity: 1; stroke-width: 1px;"/></g></g><g class="zerolinelayer"/><path class="xlines-below"/><path class="ylines-below"/><g class="overlines-below"/><g class="xaxislayer-below"/><g class="yaxislayer-below"/><g class="overaxes-below"/><g class="plot" transform="translate(80, 1972)" clip-path="url(#clipc03a07xyplot)"><g class="imagelayer"/><g class="maplayer"/><g class="barlayer"/><g class="carpetlayer"/><g class="violinlayer"/><g class="boxlayer"/><g class="scatterlayer"><g class="trace scatter trace184d07" style="stroke-miterlimit: 2;"><path class="js-fill js-tozero" d="M970,208L0,208L0,208L9.65,207.57L14.48,208.79L19.31,202.86L24.13,204.62L28.96,201.84L33.78,201.79L38.61,196.62L43.43,195.33L53.09,203.56L57.91,207.68L62.74,209.31L67.57,208L188.21,208L193.04,206.75L197.86,159.12L202.69,171.77L207.52,107.97L212.34,104.85L217.17,168.43L221.99,147.29L226.82,164.93L231.64,190.43L236.47,187.18L241.3,202.92L246.12,205.96L250.95,187.65L255.77,208L260.6,208L279.9,208L284.73,206.87L289.55,191.06L294.38,188.11L299.21,205.42L304.03,208.02L357.12,208.04L361.94,202.79L366.77,207.8L371.6,206.5L376.42,205.53L381.25,205.64L390.9,207.86L395.72,208.3L400.55,206.55L405.38,205.67L410.2,204.32L415.03,204.08L419.85,203L424.68,203.64L429.5,201.26L434.33,203.81L439.16,207.53L443.98,206.2L448.81,208.6L453.64,208.21L463.29,208L468.11,162.43L472.94,169.2L477.76,187.79L482.59,181.47L487.42,178.42L492.24,185.26L497.07,189.85L501.89,189.72L506.72,191.62L511.55,196.22L516.37,196.64L521.2,191.24L526.02,188.6L530.85,194.28L535.67,10.4L540.5,126.91L545.33,21.97L550.15,98.07L554.98,48.74L559.8,95.02L564.63,162.45L574.28,121.63L579.11,166.39L583.93,202.31L588.76,194.19L593.59,169.16L598.41,153.56L603.24,147.51L608.06,125.22L612.89,140.2L617.72,206.26L622.54,128.26L627.37,173.14L632.19,140.46L637.02,124.21L641.84,149.67L646.67,188.54L656.32,235.71L661.15,215.87L670.8,128.82L675.62,171.13L680.45,174.76L685.28,228.76L690.1,202.36L694.93,188.31L699.76,233.55L704.58,190.8L709.41,161.28L714.24,174.92L719.07,137.96L723.89,186.58L728.72,212.17L733.55,195.37L738.37,218.6L743.2,212.58L748.03,207.17L752.85,203.67L757.68,209.34L762.51,192.42L767.33,189.67L772.16,196.53L776.99,185.26L781.81,184.79L786.64,171.55L791.46,186.95L796.29,185.83L801.12,188.4L805.94,211.05L810.77,196.86L815.6,195.87L820.42,199.91L825.21,181.33L830.03,197.53L834.86,198.57L839.68,194.61L849.34,204L854.16,201.83L858.99,198.4L863.82,196.51L868.64,205.42L873.47,206.99L878.3,204.13L883.12,205.32L887.95,206.8L892.78,207.48L897.6,205.69L902.43,207.82L907.26,206.51L912.08,208.16L926.56,207.7L931.39,206.94L936.21,206.36L941.04,206.61L945.87,202.16L950.69,208.34L955.52,206.49L960.35,208.9L965.17,208L970,208" style="fill: rgb(31, 119, 180); fill-opacity: 0.5; stroke-width: 0;"/><path class="js-line" d="M0,208L9.65,207.57L14.48,208.79L19.31,202.86L24.13,204.62L28.96,201.84L33.78,201.79L38.61,196.62L43.43,195.33L53.09,203.56L57.91,207.68L62.74,209.31L67.57,208L188.21,208L193.04,206.75L197.86,159.12L202.69,171.77L207.52,107.97L212.34,104.85L217.17,168.43L221.99,147.29L226.82,164.93L231.64,190.43L236.47,187.18L241.3,202.92L246.12,205.96L250.95,187.65L255.77,208L260.6,208L279.9,208L284.73,206.87L289.55,191.06L294.38,188.11L299.21,205.42L304.03,208.02L357.12,208.04L361.94,202.79L366.77,207.8L371.6,206.5L376.42,205.53L381.25,205.64L390.9,207.86L395.72,208.3L400.55,206.55L405.38,205.67L410.2,204.32L415.03,204.08L419.85,203L424.68,203.64L429.5,201.26L434.33,203.81L439.16,207.53L443.98,206.2L448.81,208.6L453.64,208.21L463.29,208L468.11,162.43L472.94,169.2L477.76,187.79L482.59,181.47L487.42,178.42L492.24,185.26L497.07,189.85L501.89,189.72L506.72,191.62L511.55,196.22L516.37,196.64L521.2,191.24L526.02,188.6L530.85,194.28L535.67,10.4L540.5,126.91L545.33,21.97L550.15,98.07L554.98,48.74L559.8,95.02L564.63,162.45L574.28,121.63L579.11,166.39L583.93,202.31L588.76,194.19L593.59,169.16L598.41,153.56L603.24,147.51L608.06,125.22L612.89,140.2L617.72,206.26L622.54,128.26L627.37,173.14L632.19,140.46L637.02,124.21L641.84,149.67L646.67,188.54L656.32,235.71L661.15,215.87L670.8,128.82L675.62,171.13L680.45,174.76L685.28,228.76L690.1,202.36L694.93,188.31L699.76,233.55L704.58,190.8L709.41,161.28L714.24,174.92L719.07,137.96L723.89,186.58L728.72,212.17L733.55,195.37L738.37,218.6L743.2,212.58L748.03,207.17L752.85,203.67L757.68,209.34L762.51,192.42L767.33,189.67L772.16,196.53L776.99,185.26L781.81,184.79L786.64,171.55L791.46,186.95L796.29,185.83L801.12,188.4L805.94,211.05L810.77,196.86L815.6,195.87L820.42,199.91L825.21,181.33L830.03,197.53L834.86,198.57L839.68,194.61L849.34,204L854.16,201.83L858.99,198.4L863.82,196.51L868.64,205.42L873.47,206.99L878.3,204.13L883.12,205.32L887.95,206.8L892.78,207.48L897.6,205.69L902.43,207.82L907.26,206.51L912.08,208.16L926.56,207.7L931.39,206.94L936.21,206.36L941.04,206.61L945.87,202.16L950.69,208.34L955.52,206.49L960.35,208.9L965.17,208L970,208" style="vector-effect: non-scaling-stroke; fill: none; stroke: rgb(31, 119, 180); stroke-opacity: 1; stroke-width: 2px; opacity: 1;"/><g class="points"/></g></g></g><g class="overplot"/><path class="xlines-above crisp" d="M79,2180.5H1051M79,1971.5H1051" style="fill: none; stroke-width: 1px; stroke: rgb(68, 68, 68); stroke-opacity: 1;"/><path class="ylines-above crisp" d="M79.5,1972V2180M1050.5,1972V2180" style="fill: none; stroke-width: 1px; stroke: rgb(68, 68, 68); stroke-opacity: 1;"/><g class="overlines-above"/><g class="xaxislayer-above"><g class="xtick"><text text-anchor="middle" x="0" y="2195.4" transform="translate(169.32,0)" style="font-family: 'Open Sans', verdana, arial, sans-serif; font-size: 12px; fill: rgb(68, 68, 68); fill-opacity: 1; white-space: pre;">−10</text></g><g class="xtick"><text text-anchor="middle" x="0" y="2195.4" transform="translate(335.09000000000003,0)" style="font-family: 'Open Sans', verdana, arial, sans-serif; font-size: 12px; fill: rgb(68, 68, 68); fill-opacity: 1; white-space: pre;">0</text></g><g class="xtick"><text text-anchor="middle" x="0" y="2195.4" transform="translate(500.86,0)" style="font-family: 'Open Sans', verdana, arial, sans-serif; font-size: 12px; fill: rgb(68, 68, 68); fill-opacity: 1; white-space: pre;">10</text></g><g class="xtick"><text text-anchor="middle" x="0" y="2195.4" transform="translate(666.63,0)" style="font-family: 'Open Sans', verdana, arial, sans-serif; font-size: 12px; fill: rgb(68, 68, 68); fill-opacity: 1; white-space: pre;">20</text></g><g class="xtick"><text text-anchor="middle" x="0" y="2195.4" transform="translate(832.39,0)" style="font-family: 'Open Sans', verdana, arial, sans-serif; font-size: 12px; fill: rgb(68, 68, 68); fill-opacity: 1; white-space: pre;">30</text></g><g class="xtick"><text text-anchor="middle" x="0" y="2195.4" transform="translate(998.16,0)" style="font-family: 'Open Sans', verdana, arial, sans-serif; font-size: 12px; fill: rgb(68, 68, 68); fill-opacity: 1; white-space: pre;">40</text></g></g><g class="yaxislayer-above"><g class="ytick"><text text-anchor="end" x="76.6" y="4.199999999999999" transform="translate(0,2180)" style="font-family: 'Open Sans', verdana, arial, sans-serif; font-size: 12px; fill: rgb(68, 68, 68); fill-opacity: 1; white-space: pre;">0</text></g><g class="ytick"><text text-anchor="end" x="76.6" y="4.199999999999999" transform="translate(0,2138.09)" style="font-family: 'Open Sans', verdana, arial, sans-serif; font-size: 12px; fill: rgb(68, 68, 68); fill-opacity: 1; white-space: pre;">0.02</text></g><g class="ytick"><text text-anchor="end" x="76.6" y="4.199999999999999" transform="translate(0,2096.17)" style="font-family: 'Open Sans', verdana, arial, sans-serif; font-size: 12px; fill: rgb(68, 68, 68); fill-opacity: 1; white-space: pre;">0.04</text></g><g class="ytick"><text text-anchor="end" x="76.6" y="4.199999999999999" transform="translate(0,2054.26)" style="font-family: 'Open Sans', verdana, arial, sans-serif; font-size: 12px; fill: rgb(68, 68, 68); fill-opacity: 1; white-space: pre;">0.06</text></g><g class="ytick"><text text-anchor="end" x="76.6" y="4.199999999999999" transform="translate(0,2012.35)" style="font-family: 'Open Sans', verdana, arial, sans-serif; font-size: 12px; fill: rgb(68, 68, 68); fill-opacity: 1; white-space: pre;">0.08</text></g></g><g class="overaxes-above"/></g><g class="subplot x2y2"><g class="layer-subplot"><g class="shapelayer"/><g class="imagelayer"/></g><g class="gridlayer"><g class="x2"><path class="x2grid crisp" d="M0,1712v208" transform="translate(169.32,0)" style="stroke: rgb(238, 238, 238); stroke-opacity: 1; stroke-width: 1px;"/><path class="x2grid crisp" d="M0,1712v208" transform="translate(335.09000000000003,0)" style="stroke: rgb(238, 238, 238); stroke-opacity: 1; stroke-width: 1px;"/><path class="x2grid crisp" d="M0,1712v208" transform="translate(500.86,0)" style="stroke: rgb(238, 238, 238); stroke-opacity: 1; stroke-width: 1px;"/><path class="x2grid crisp" d="M0,1712v208" transform="translate(666.63,0)" style="stroke: rgb(238, 238, 238); stroke-opacity: 1; stroke-width: 1px;"/><path class="x2grid crisp" d="M0,1712v208" transform="translate(832.39,0)" style="stroke: rgb(238, 238, 238); stroke-opacity: 1; stroke-width: 1px;"/><path class="x2grid crisp" d="M0,1712v208" transform="translate(998.16,0)" style="stroke: rgb(238, 238, 238); stroke-opacity: 1; stroke-width: 1px;"/></g><g class="y2"><path class="y2grid crisp" d="M80,0h970" transform="translate(0,1854.8600000000001)" style="stroke: rgb(238, 238, 238); stroke-opacity: 1; stroke-width: 1px;"/><path class="y2grid crisp" d="M80,0h970" transform="translate(0,1789.71)" style="stroke: rgb(238, 238, 238); stroke-opacity: 1; stroke-width: 1px;"/><path class="y2grid crisp" d="M80,0h970" transform="translate(0,1724.57)" style="stroke: rgb(238, 238, 238); stroke-opacity: 1; stroke-width: 1px;"/></g></g><g class="zerolinelayer"/><path class="xlines-below"/><path class="ylines-below"/><g class="overlines-below"/><g class="xaxislayer-below"/><g class="yaxislayer-below"/><g class="overaxes-below"/><g class="plot" transform="translate(80, 1712)" clip-path="url(#clipc03a07x2y2plot)"><g class="imagelayer"/><g class="maplayer"/><g class="barlayer"/><g class="carpetlayer"/><g class="violinlayer"/><g class="boxlayer"/><g class="scatterlayer"><g class="trace scatter trace8d6603" style="stroke-miterlimit: 2;"><path class="js-fill js-tozero" d="M970,208L0,208L0,208L4.83,208L9.65,206.83L14.48,207.48L19.31,206.95L28.96,207.14L33.78,207.06L43.43,206.79L48.26,205.92L57.91,207.67L62.74,208.38L72.39,208L77.21,208L188.21,208L193.04,208.86L197.86,196.82L202.69,192.38L207.52,169.23L212.34,155.52L217.17,184.68L221.99,169.06L226.82,185.75L231.64,181.99L236.47,166.5L241.3,170.68L246.12,185.84L250.95,135.12L255.77,208L260.6,208L279.9,208L284.73,114.05L289.55,12.3L294.38,56.59L299.21,159.68L304.03,203.89L308.86,208L313.69,208L352.29,207.28L357.12,208.32L361.94,197.39L366.77,208.26L371.6,205.37L376.42,205.6L381.25,207.44L386.07,207.89L395.72,207.68L400.55,206.35L405.38,206.22L410.2,205.15L415.03,204.82L419.85,202.62L424.68,204.74L429.5,196.02L434.33,195.63L439.16,200.75L443.98,200.83L448.81,204.91L453.64,208.39L458.46,208L463.29,208L468.11,205.38L472.94,204.21L477.76,206.68L482.59,206.39L487.42,205.29L501.89,207.23L506.72,206.55L511.55,206.17L516.37,206.58L526.02,206.86L530.85,206.5L535.67,202.05L540.5,206.33L545.33,197.9L550.15,202.83L554.98,198.71L559.8,198.48L564.63,204.34L569.45,203.49L574.28,199.5L579.11,205.31L583.93,204.77L588.76,202.66L593.59,205.87L598.41,201.83L608.06,205.55L612.89,203.03L617.72,205.3L622.54,205.12L637.02,204.02L641.84,204.97L651.5,206.69L656.32,206.33L665.97,206.8L670.8,204.99L675.62,206.74L680.45,207.28L685.28,206.46L690.1,207.37L699.76,204.78L704.58,197.8L709.41,203.38L714.24,203.29L719.07,203.81L723.89,205.34L728.72,206.21L733.55,206.06L738.37,208.01L743.2,207.63L748.03,207.96L752.85,202.5L757.68,206.06L762.51,201.25L767.33,202.61L772.16,205.9L776.99,194.34L781.81,199.55L786.64,206.39L791.46,203.91L796.29,202.97L801.12,205.95L805.94,205.49L810.77,183.46L815.6,195.85L820.42,198.63L825.21,179.83L830.03,190.36L834.86,185.42L839.68,197.58L844.51,187.43L849.34,195.07L854.16,194.82L858.99,195.7L863.82,199.73L868.64,194.5L878.3,201.98L883.12,208.15L887.95,189.91L892.78,198.34L897.6,191.5L902.43,192.56L907.26,195.01L912.08,193.5L916.91,210.38L921.74,203.98L926.56,203.51L931.39,200.08L936.21,205L941.04,196.79L950.69,205.11L955.52,204.93L965.17,208L970,208" style="fill: rgb(255, 127, 14); fill-opacity: 0.5; stroke-width: 0;"/><path class="js-line" d="M0,208L4.83,208L9.65,206.83L14.48,207.48L19.31,206.95L28.96,207.14L33.78,207.06L43.43,206.79L48.26,205.92L57.91,207.67L62.74,208.38L72.39,208L77.21,208L188.21,208L193.04,208.86L197.86,196.82L202.69,192.38L207.52,169.23L212.34,155.52L217.17,184.68L221.99,169.06L226.82,185.75L231.64,181.99L236.47,166.5L241.3,170.68L246.12,185.84L250.95,135.12L255.77,208L260.6,208L279.9,208L284.73,114.05L289.55,12.3L294.38,56.59L299.21,159.68L304.03,203.89L308.86,208L313.69,208L352.29,207.28L357.12,208.32L361.94,197.39L366.77,208.26L371.6,205.37L376.42,205.6L381.25,207.44L386.07,207.89L395.72,207.68L400.55,206.35L405.38,206.22L410.2,205.15L415.03,204.82L419.85,202.62L424.68,204.74L429.5,196.02L434.33,195.63L439.16,200.75L443.98,200.83L448.81,204.91L453.64,208.39L458.46,208L463.29,208L468.11,205.38L472.94,204.21L477.76,206.68L482.59,206.39L487.42,205.29L501.89,207.23L506.72,206.55L511.55,206.17L516.37,206.58L526.02,206.86L530.85,206.5L535.67,202.05L540.5,206.33L545.33,197.9L550.15,202.83L554.98,198.71L559.8,198.48L564.63,204.34L569.45,203.49L574.28,199.5L579.11,205.31L583.93,204.77L588.76,202.66L593.59,205.87L598.41,201.83L608.06,205.55L612.89,203.03L617.72,205.3L622.54,205.12L637.02,204.02L641.84,204.97L651.5,206.69L656.32,206.33L665.97,206.8L670.8,204.99L675.62,206.74L680.45,207.28L685.28,206.46L690.1,207.37L699.76,204.78L704.58,197.8L709.41,203.38L714.24,203.29L719.07,203.81L723.89,205.34L728.72,206.21L733.55,206.06L738.37,208.01L743.2,207.63L748.03,207.96L752.85,202.5L757.68,206.06L762.51,201.25L767.33,202.61L772.16,205.9L776.99,194.34L781.81,199.55L786.64,206.39L791.46,203.91L796.29,202.97L801.12,205.95L805.94,205.49L810.77,183.46L815.6,195.85L820.42,198.63L825.21,179.83L830.03,190.36L834.86,185.42L839.68,197.58L844.51,187.43L849.34,195.07L854.16,194.82L858.99,195.7L863.82,199.73L868.64,194.5L878.3,201.98L883.12,208.15L887.95,189.91L892.78,198.34L897.6,191.5L902.43,192.56L907.26,195.01L912.08,193.5L916.91,210.38L921.74,203.98L926.56,203.51L931.39,200.08L936.21,205L941.04,196.79L950.69,205.11L955.52,204.93L965.17,208L970,208" style="vector-effect: non-scaling-stroke; fill: none; stroke: rgb(255, 127, 14); stroke-opacity: 1; stroke-width: 2px; opacity: 1;"/><g class="points"/></g></g></g><g class="overplot"/><path class="xlines-above crisp" d="M79,1920.5H1051M79,1711.5H1051" style="fill: none; stroke-width: 1px; stroke: rgb(68, 68, 68); stroke-opacity: 1;"/><path class="ylines-above crisp" d="M79.5,1712V1920M1050.5,1712V1920" style="fill: none; stroke-width: 1px; stroke: rgb(68, 68, 68); stroke-opacity: 1;"/><g class="overlines-above"/><g class="xaxislayer-above"><g class="x2tick"><text text-anchor="middle" x="0" y="1935.4" transform="translate(169.32,0)" style="font-family: 'Open Sans', verdana, arial, sans-serif; font-size: 12px; fill: rgb(68, 68, 68); fill-opacity: 1; white-space: pre;">−10</text></g><g class="x2tick"><text text-anchor="middle" x="0" y="1935.4" transform="translate(335.09000000000003,0)" style="font-family: 'Open Sans', verdana, arial, sans-serif; font-size: 12px; fill: rgb(68, 68, 68); fill-opacity: 1; white-space: pre;">0</text></g><g class="x2tick"><text text-anchor="middle" x="0" y="1935.4" transform="translate(500.86,0)" style="font-family: 'Open Sans', verdana, arial, sans-serif; font-size: 12px; fill: rgb(68, 68, 68); fill-opacity: 1; white-space: pre;">10</text></g><g class="x2tick"><text text-anchor="middle" x="0" y="1935.4" transform="translate(666.63,0)" style="font-family: 'Open Sans', verdana, arial, sans-serif; font-size: 12px; fill: rgb(68, 68, 68); fill-opacity: 1; white-space: pre;">20</text></g><g class="x2tick"><text text-anchor="middle" x="0" y="1935.4" transform="translate(832.39,0)" style="font-family: 'Open Sans', verdana, arial, sans-serif; font-size: 12px; fill: rgb(68, 68, 68); fill-opacity: 1; white-space: pre;">30</text></g><g class="x2tick"><text text-anchor="middle" x="0" y="1935.4" transform="translate(998.16,0)" style="font-family: 'Open Sans', verdana, arial, sans-serif; font-size: 12px; fill: rgb(68, 68, 68); fill-opacity: 1; white-space: pre;">40</text></g></g><g class="yaxislayer-above"><g class="y2tick"><text text-anchor="end" x="76.6" y="4.199999999999999" transform="translate(0,1920)" style="font-family: 'Open Sans', verdana, arial, sans-serif; font-size: 12px; fill: rgb(68, 68, 68); fill-opacity: 1; white-space: pre;">0</text></g><g class="y2tick"><text text-anchor="end" x="76.6" y="4.199999999999999" transform="translate(0,1854.8600000000001)" style="font-family: 'Open Sans', verdana, arial, sans-serif; font-size: 12px; fill: rgb(68, 68, 68); fill-opacity: 1; white-space: pre;">10</text></g><g class="y2tick"><text text-anchor="end" x="76.6" y="4.199999999999999" transform="translate(0,1789.71)" style="font-family: 'Open Sans', verdana, arial, sans-serif; font-size: 12px; fill: rgb(68, 68, 68); fill-opacity: 1; white-space: pre;">20</text></g><g class="y2tick"><text text-anchor="end" x="76.6" y="4.199999999999999" transform="translate(0,1724.57)" style="font-family: 'Open Sans', verdana, arial, sans-serif; font-size: 12px; fill: rgb(68, 68, 68); fill-opacity: 1; white-space: pre;">30</text></g></g><g class="overaxes-above"/></g><g class="subplot x3y3"><g class="layer-subplot"><g class="shapelayer"/><g class="imagelayer"/></g><g class="gridlayer"><g class="x3"><path class="x3grid crisp" d="M0,1452v207.99999999999994" transform="translate(169.32,0)" style="stroke: rgb(238, 238, 238); stroke-opacity: 1; stroke-width: 1px;"/><path class="x3grid crisp" d="M0,1452v207.99999999999994" transform="translate(335.09000000000003,0)" style="stroke: rgb(238, 238, 238); stroke-opacity: 1; stroke-width: 1px;"/><path class="x3grid crisp" d="M0,1452v207.99999999999994" transform="translate(500.86,0)" style="stroke: rgb(238, 238, 238); stroke-opacity: 1; stroke-width: 1px;"/><path class="x3grid crisp" d="M0,1452v207.99999999999994" transform="translate(666.63,0)" style="stroke: rgb(238, 238, 238); stroke-opacity: 1; stroke-width: 1px;"/><path class="x3grid crisp" d="M0,1452v207.99999999999994" transform="translate(832.39,0)" style="stroke: rgb(238, 238, 238); stroke-opacity: 1; stroke-width: 1px;"/><path class="x3grid crisp" d="M0,1452v207.99999999999994" transform="translate(998.16,0)" style="stroke: rgb(238, 238, 238); stroke-opacity: 1; stroke-width: 1px;"/></g><g class="y3"><path class="y3grid crisp" d="M80,0h970" transform="translate(0,1615.3899999999999)" style="stroke: rgb(238, 238, 238); stroke-opacity: 1; stroke-width: 1px;"/><path class="y3grid crisp" d="M80,0h970" transform="translate(0,1570.78)" style="stroke: rgb(238, 238, 238); stroke-opacity: 1; stroke-width: 1px;"/><path class="y3grid crisp" d="M80,0h970" transform="translate(0,1526.17)" style="stroke: rgb(238, 238, 238); stroke-opacity: 1; stroke-width: 1px;"/><path class="y3grid crisp" d="M80,0h970" transform="translate(0,1481.56)" style="stroke: rgb(238, 238, 238); stroke-opacity: 1; stroke-width: 1px;"/></g></g><g class="zerolinelayer"/><path class="xlines-below"/><path class="ylines-below"/><g class="overlines-below"/><g class="xaxislayer-below"/><g class="yaxislayer-below"/><g class="overaxes-below"/><g class="plot" transform="translate(80, 1452)" clip-path="url(#clipc03a07x3y3plot)"><g class="imagelayer"/><g class="maplayer"/><g class="barlayer"/><g class="carpetlayer"/><g class="violinlayer"/><g class="boxlayer"/><g class="scatterlayer"><g class="trace scatter trace4c26c8" style="stroke-miterlimit: 2;"><path class="js-fill js-tozero" d="M970,208L0,208L0,208L9.65,207.57L14.48,208.79L19.31,202.83L24.13,204.34L28.96,201.68L33.78,201.61L38.61,196.52L43.43,195.42L57.91,207.71L62.74,209.23L67.57,208L72.39,208L188.21,208L193.04,207.06L197.86,164.01L202.69,175.71L207.52,120.53L212.34,118.37L217.17,173.94L221.99,156.39L226.82,171.43L231.64,193.62L236.47,190.52L241.3,203.64L246.12,206.37L250.95,190.58L255.77,208L260.6,208L279.9,208L284.73,206.9L289.55,189.26L294.38,185.98L299.21,205.34L304.03,208.02L357.12,208.26L361.94,202.7L366.77,208.23L371.6,206.68L376.42,205.72L381.25,205.8L390.9,207.93L395.72,208.28L400.55,206.68L405.38,205.99L419.85,204.19L424.68,204.75L429.5,202.75L434.33,204.59L439.16,207.61L443.98,206.47L448.81,208.47L453.64,208.11L463.29,208L468.11,168.62L472.94,176.12L477.76,190.95L482.59,183.93L487.42,181.56L492.24,188.44L497.07,192.58L501.89,191.91L506.72,193.17L511.55,197.3L516.37,197.83L521.2,192.78L526.02,189.83L530.85,194.51L535.67,10.4L540.5,124.53L545.33,29.39L550.15,92.88L554.98,49.5L559.8,92.12L564.63,161.62L574.28,119.72L579.11,160.35L583.93,201.62L588.76,194.15L593.59,161.31L598.41,145.81L603.24,136.4L608.06,101.39L612.89,122.83L617.72,206.52L622.54,101.02L627.37,160.53L632.19,114.12L637.02,92.48L641.84,128.03L646.67,181.29L656.32,243.36L661.15,217.2L670.8,98.34L675.62,155.65L680.45,164.23L685.28,235.86L690.1,200.86L694.93,181.77L699.76,242.2L704.58,183.98L709.41,145.43L714.24,160.02L719.07,107.34L723.89,176.79L728.72,214.13L733.55,189.11L738.37,224.03L743.2,213.86L748.03,206.97L752.85,201.74L757.68,209.86L762.51,186.46L767.33,182.51L772.16,192.65L776.99,174.47L781.81,172.81L786.64,156.46L791.46,178.22L796.29,177.16L801.12,180.53L805.94,212.48L810.77,192.76L815.6,190.99L820.42,195.74L825.21,171.02L830.03,193.24L834.86,194.34L839.68,189.25L849.34,202.11L854.16,199.63L858.99,195.05L863.82,193L868.64,204.07L873.47,206.43L878.3,203.05L883.12,204.36L892.78,207.77L897.6,205.59L902.43,207.92L907.26,206.14L912.08,208.26L916.91,208.12L926.56,207.75L931.39,206.42L936.21,205.58L941.04,206.72L945.87,199.14L950.69,208.49L955.52,205.72L960.35,209.37L965.17,208L970,208" style="fill: rgb(44, 160, 44); fill-opacity: 0.5; stroke-width: 0;"/><path class="js-line" d="M0,208L9.65,207.57L14.48,208.79L19.31,202.83L24.13,204.34L28.96,201.68L33.78,201.61L38.61,196.52L43.43,195.42L57.91,207.71L62.74,209.23L67.57,208L72.39,208L188.21,208L193.04,207.06L197.86,164.01L202.69,175.71L207.52,120.53L212.34,118.37L217.17,173.94L221.99,156.39L226.82,171.43L231.64,193.62L236.47,190.52L241.3,203.64L246.12,206.37L250.95,190.58L255.77,208L260.6,208L279.9,208L284.73,206.9L289.55,189.26L294.38,185.98L299.21,205.34L304.03,208.02L357.12,208.26L361.94,202.7L366.77,208.23L371.6,206.68L376.42,205.72L381.25,205.8L390.9,207.93L395.72,208.28L400.55,206.68L405.38,205.99L419.85,204.19L424.68,204.75L429.5,202.75L434.33,204.59L439.16,207.61L443.98,206.47L448.81,208.47L453.64,208.11L463.29,208L468.11,168.62L472.94,176.12L477.76,190.95L482.59,183.93L487.42,181.56L492.24,188.44L497.07,192.58L501.89,191.91L506.72,193.17L511.55,197.3L516.37,197.83L521.2,192.78L526.02,189.83L530.85,194.51L535.67,10.4L540.5,124.53L545.33,29.39L550.15,92.88L554.98,49.5L559.8,92.12L564.63,161.62L574.28,119.72L579.11,160.35L583.93,201.62L588.76,194.15L593.59,161.31L598.41,145.81L603.24,136.4L608.06,101.39L612.89,122.83L617.72,206.52L622.54,101.02L627.37,160.53L632.19,114.12L637.02,92.48L641.84,128.03L646.67,181.29L656.32,243.36L661.15,217.2L670.8,98.34L675.62,155.65L680.45,164.23L685.28,235.86L690.1,200.86L694.93,181.77L699.76,242.2L704.58,183.98L709.41,145.43L714.24,160.02L719.07,107.34L723.89,176.79L728.72,214.13L733.55,189.11L738.37,224.03L743.2,213.86L748.03,206.97L752.85,201.74L757.68,209.86L762.51,186.46L767.33,182.51L772.16,192.65L776.99,174.47L781.81,172.81L786.64,156.46L791.46,178.22L796.29,177.16L801.12,180.53L805.94,212.48L810.77,192.76L815.6,190.99L820.42,195.74L825.21,171.02L830.03,193.24L834.86,194.34L839.68,189.25L849.34,202.11L854.16,199.63L858.99,195.05L863.82,193L868.64,204.07L873.47,206.43L878.3,203.05L883.12,204.36L892.78,207.77L897.6,205.59L902.43,207.92L907.26,206.14L912.08,208.26L916.91,208.12L926.56,207.75L931.39,206.42L936.21,205.58L941.04,206.72L945.87,199.14L950.69,208.49L955.52,205.72L960.35,209.37L965.17,208L970,208" style="vector-effect: non-scaling-stroke; fill: none; stroke: rgb(44, 160, 44); stroke-opacity: 1; stroke-width: 2px; opacity: 1;"/><g class="points"/></g></g></g><g class="overplot"/><path class="xlines-above crisp" d="M79,1660.5H1051M79,1451.5H1051" style="fill: none; stroke-width: 1px; stroke: rgb(68, 68, 68); stroke-opacity: 1;"/><path class="ylines-above crisp" d="M79.5,1452V1660M1050.5,1452V1660" style="fill: none; stroke-width: 1px; stroke: rgb(68, 68, 68); stroke-opacity: 1;"/><g class="overlines-above"/><g class="xaxislayer-above"><g class="x3tick"><text text-anchor="middle" x="0" y="1675.4" transform="translate(169.32,0)" style="font-family: 'Open Sans', verdana, arial, sans-serif; font-size: 12px; fill: rgb(68, 68, 68); fill-opacity: 1; white-space: pre;">−10</text></g><g class="x3tick"><text text-anchor="middle" x="0" y="1675.4" transform="translate(335.09000000000003,0)" style="font-family: 'Open Sans', verdana, arial, sans-serif; font-size: 12px; fill: rgb(68, 68, 68); fill-opacity: 1; white-space: pre;">0</text></g><g class="x3tick"><text text-anchor="middle" x="0" y="1675.4" transform="translate(500.86,0)" style="font-family: 'Open Sans', verdana, arial, sans-serif; font-size: 12px; fill: rgb(68, 68, 68); fill-opacity: 1; white-space: pre;">10</text></g><g class="x3tick"><text text-anchor="middle" x="0" y="1675.4" transform="translate(666.63,0)" style="font-family: 'Open Sans', verdana, arial, sans-serif; font-size: 12px; fill: rgb(68, 68, 68); fill-opacity: 1; white-space: pre;">20</text></g><g class="x3tick"><text text-anchor="middle" x="0" y="1675.4" transform="translate(832.39,0)" style="font-family: 'Open Sans', verdana, arial, sans-serif; font-size: 12px; fill: rgb(68, 68, 68); fill-opacity: 1; white-space: pre;">30</text></g><g class="x3tick"><text text-anchor="middle" x="0" y="1675.4" transform="translate(998.16,0)" style="font-family: 'Open Sans', verdana, arial, sans-serif; font-size: 12px; fill: rgb(68, 68, 68); fill-opacity: 1; white-space: pre;">40</text></g></g><g class="yaxislayer-above"><g class="y3tick"><text text-anchor="end" x="76.6" y="4.199999999999999" transform="translate(0,1660)" style="font-family: 'Open Sans', verdana, arial, sans-serif; font-size: 12px; fill: rgb(68, 68, 68); fill-opacity: 1; white-space: pre;">0</text></g><g class="y3tick"><text text-anchor="end" x="76.6" y="4.199999999999999" transform="translate(0,1615.3899999999999)" style="font-family: 'Open Sans', verdana, arial, sans-serif; font-size: 12px; fill: rgb(68, 68, 68); fill-opacity: 1; white-space: pre;">0.5</text></g><g class="y3tick"><text text-anchor="end" x="76.6" y="4.199999999999999" transform="translate(0,1570.78)" style="font-family: 'Open Sans', verdana, arial, sans-serif; font-size: 12px; fill: rgb(68, 68, 68); fill-opacity: 1; white-space: pre;">1</text></g><g class="y3tick"><text text-anchor="end" x="76.6" y="4.199999999999999" transform="translate(0,1526.17)" style="font-family: 'Open Sans', verdana, arial, sans-serif; font-size: 12px; fill: rgb(68, 68, 68); fill-opacity: 1; white-space: pre;">1.5</text></g><g class="y3tick"><text text-anchor="end" x="76.6" y="4.199999999999999" transform="translate(0,1481.56)" style="font-family: 'Open Sans', verdana, arial, sans-serif; font-size: 12px; fill: rgb(68, 68, 68); fill-opacity: 1; white-space: pre;">2</text></g></g><g class="overaxes-above"/></g><g class="subplot x4y4"><g class="layer-subplot"><g class="shapelayer"/><g class="imagelayer"/></g><g class="gridlayer"><g class="x4"><path class="x4grid crisp" d="M0,1192v207.99999999999994" transform="translate(169.32,0)" style="stroke: rgb(238, 238, 238); stroke-opacity: 1; stroke-width: 1px;"/><path class="x4grid crisp" d="M0,1192v207.99999999999994" transform="translate(335.09000000000003,0)" style="stroke: rgb(238, 238, 238); stroke-opacity: 1; stroke-width: 1px;"/><path class="x4grid crisp" d="M0,1192v207.99999999999994" transform="translate(500.86,0)" style="stroke: rgb(238, 238, 238); stroke-opacity: 1; stroke-width: 1px;"/><path class="x4grid crisp" d="M0,1192v207.99999999999994" transform="translate(666.63,0)" style="stroke: rgb(238, 238, 238); stroke-opacity: 1; stroke-width: 1px;"/><path class="x4grid crisp" d="M0,1192v207.99999999999994" transform="translate(832.39,0)" style="stroke: rgb(238, 238, 238); stroke-opacity: 1; stroke-width: 1px;"/><path class="x4grid crisp" d="M0,1192v207.99999999999994" transform="translate(998.16,0)" style="stroke: rgb(238, 238, 238); stroke-opacity: 1; stroke-width: 1px;"/></g><g class="y4"><path class="y4grid crisp" d="M80,0h970" transform="translate(0,1351.3899999999999)" style="stroke: rgb(238, 238, 238); stroke-opacity: 1; stroke-width: 1px;"/><path class="y4grid crisp" d="M80,0h970" transform="translate(0,1302.78)" style="stroke: rgb(238, 238, 238); stroke-opacity: 1; stroke-width: 1px;"/><path class="y4grid crisp" d="M80,0h970" transform="translate(0,1254.16)" style="stroke: rgb(238, 238, 238); stroke-opacity: 1; stroke-width: 1px;"/><path class="y4grid crisp" d="M80,0h970" transform="translate(0,1205.55)" style="stroke: rgb(238, 238, 238); stroke-opacity: 1; stroke-width: 1px;"/></g></g><g class="zerolinelayer"/><path class="xlines-below"/><path class="ylines-below"/><g class="overlines-below"/><g class="xaxislayer-below"/><g class="yaxislayer-below"/><g class="overaxes-below"/><g class="plot" transform="translate(80, 1192)" clip-path="url(#clipc03a07x4y4plot)"><g class="imagelayer"/><g class="maplayer"/><g class="barlayer"/><g class="carpetlayer"/><g class="violinlayer"/><g class="boxlayer"/><g class="scatterlayer"><g class="trace scatter trace1ebf91" style="stroke-miterlimit: 2;"><path class="js-fill js-tozero" d="M970,208L0,208L0,208L4.83,208L9.65,204.43L14.48,198.72L19.31,184.6L24.13,191.42L28.96,187.75L33.78,185.76L38.61,184.78L43.43,179.75L48.26,157.57L53.09,185.56L57.91,199.19L62.74,217.74L67.57,208L188.21,208L193.04,210.66L197.86,174.83L202.69,161.83L207.52,94.31L212.34,52.87L217.17,140.46L221.99,95.09L226.82,144.52L231.64,132.76L236.47,92.04L241.3,103.74L246.12,150.04L250.95,10.4L255.77,208L260.6,208L279.9,208L284.73,204.31L289.55,172.46L294.38,126.08L304.03,194.09L308.86,208L347.47,208L352.29,205.79L357.12,208.97L361.94,175.84L366.77,208.74L371.6,200.05L376.42,200.74L381.25,206.27L386.07,207.65L390.9,206.77L395.72,204.32L400.55,194.01L405.38,192.99L410.2,193.43L415.03,193.97L419.85,185.76L424.68,196.18L429.5,170.06L434.33,168.83L439.16,186.82L443.98,185.61L448.81,199.37L453.64,208.82L458.46,208L463.29,208L468.11,196.05L472.94,194.33L477.76,202.7L482.59,200.93L487.42,197.89L492.24,200.57L497.07,204.53L501.89,204.84L506.72,202.71L511.55,201.97L516.37,203.36L521.2,204.4L526.02,203.63L530.85,202.89L535.67,187.79L540.5,201.38L545.33,177.61L550.15,192.73L554.98,181.71L559.8,182.29L564.63,198.26L569.45,195.75L574.28,186.65L579.11,200.62L583.93,200.77L588.76,195.95L593.59,201.93L598.41,193.94L603.24,199.93L608.06,204.46L612.89,199.09L617.72,205.8L622.54,202.2L627.37,203.29L632.19,203.02L641.84,202.99L646.67,204.11L651.5,205.5L656.32,204.13L661.15,205.56L665.97,205.8L670.8,202.48L675.62,206.45L680.45,206.78L685.28,204.04L690.1,206.38L694.93,203.65L699.76,199.71L704.58,188.2L709.41,198.99L714.24,201.05L719.07,197.16L723.89,204.07L728.72,207.15L733.55,203.76L738.37,210.11L743.2,207L748.03,207.69L752.85,198.88L757.68,206.47L762.51,198.66L767.33,200.44L772.16,205.22L776.99,193.23L781.81,196.79L786.64,209.7L791.46,203.47L796.29,203.19L801.12,205.3L805.94,201.96L810.77,181.82L815.6,177.76L820.42,187.58L825.21,181.39L830.03,197.22L834.86,195.56L839.68,205.7L844.51,198.33L849.34,202.55L854.16,202.66L858.99,204.37L863.82,206.36L868.64,202.05L873.47,203.77L878.3,207.95L883.12,211.19L887.95,196.88L892.78,204.45L897.6,205.35L902.43,200.21L907.26,201.84L912.08,206.53L916.91,208.72L926.56,205.81L931.39,202.11L936.21,205.44L941.04,203.37L945.87,203.08L950.69,205.3L955.52,206.4L960.35,205.8L965.17,208L970,208" style="fill: rgb(214, 39, 40); fill-opacity: 0.5; stroke-width: 0;"/><path class="js-line" d="M0,208L4.83,208L9.65,204.43L14.48,198.72L19.31,184.6L24.13,191.42L28.96,187.75L33.78,185.76L38.61,184.78L43.43,179.75L48.26,157.57L53.09,185.56L57.91,199.19L62.74,217.74L67.57,208L188.21,208L193.04,210.66L197.86,174.83L202.69,161.83L207.52,94.31L212.34,52.87L217.17,140.46L221.99,95.09L226.82,144.52L231.64,132.76L236.47,92.04L241.3,103.74L246.12,150.04L250.95,10.4L255.77,208L260.6,208L279.9,208L284.73,204.31L289.55,172.46L294.38,126.08L304.03,194.09L308.86,208L347.47,208L352.29,205.79L357.12,208.97L361.94,175.84L366.77,208.74L371.6,200.05L376.42,200.74L381.25,206.27L386.07,207.65L390.9,206.77L395.72,204.32L400.55,194.01L405.38,192.99L410.2,193.43L415.03,193.97L419.85,185.76L424.68,196.18L429.5,170.06L434.33,168.83L439.16,186.82L443.98,185.61L448.81,199.37L453.64,208.82L458.46,208L463.29,208L468.11,196.05L472.94,194.33L477.76,202.7L482.59,200.93L487.42,197.89L492.24,200.57L497.07,204.53L501.89,204.84L506.72,202.71L511.55,201.97L516.37,203.36L521.2,204.4L526.02,203.63L530.85,202.89L535.67,187.79L540.5,201.38L545.33,177.61L550.15,192.73L554.98,181.71L559.8,182.29L564.63,198.26L569.45,195.75L574.28,186.65L579.11,200.62L583.93,200.77L588.76,195.95L593.59,201.93L598.41,193.94L603.24,199.93L608.06,204.46L612.89,199.09L617.72,205.8L622.54,202.2L627.37,203.29L632.19,203.02L641.84,202.99L646.67,204.11L651.5,205.5L656.32,204.13L661.15,205.56L665.97,205.8L670.8,202.48L675.62,206.45L680.45,206.78L685.28,204.04L690.1,206.38L694.93,203.65L699.76,199.71L704.58,188.2L709.41,198.99L714.24,201.05L719.07,197.16L723.89,204.07L728.72,207.15L733.55,203.76L738.37,210.11L743.2,207L748.03,207.69L752.85,198.88L757.68,206.47L762.51,198.66L767.33,200.44L772.16,205.22L776.99,193.23L781.81,196.79L786.64,209.7L791.46,203.47L796.29,203.19L801.12,205.3L805.94,201.96L810.77,181.82L815.6,177.76L820.42,187.58L825.21,181.39L830.03,197.22L834.86,195.56L839.68,205.7L844.51,198.33L849.34,202.55L854.16,202.66L858.99,204.37L863.82,206.36L868.64,202.05L873.47,203.77L878.3,207.95L883.12,211.19L887.95,196.88L892.78,204.45L897.6,205.35L902.43,200.21L907.26,201.84L912.08,206.53L916.91,208.72L926.56,205.81L931.39,202.11L936.21,205.44L941.04,203.37L945.87,203.08L950.69,205.3L955.52,206.4L960.35,205.8L965.17,208L970,208" style="vector-effect: non-scaling-stroke; fill: none; stroke: rgb(214, 39, 40); stroke-opacity: 1; stroke-width: 2px; opacity: 1;"/><g class="points"/></g></g></g><g class="overplot"/><path class="xlines-above crisp" d="M79,1400.5H1051M79,1191.5H1051" style="fill: none; stroke-width: 1px; stroke: rgb(68, 68, 68); stroke-opacity: 1;"/><path class="ylines-above crisp" d="M79.5,1192V1400M1050.5,1192V1400" style="fill: none; stroke-width: 1px; stroke: rgb(68, 68, 68); stroke-opacity: 1;"/><g class="overlines-above"/><g class="xaxislayer-above"><g class="x4tick"><text text-anchor="middle" x="0" y="1415.4" transform="translate(169.32,0)" style="font-family: 'Open Sans', verdana, arial, sans-serif; font-size: 12px; fill: rgb(68, 68, 68); fill-opacity: 1; white-space: pre;">−10</text></g><g class="x4tick"><text text-anchor="middle" x="0" y="1415.4" transform="translate(335.09000000000003,0)" style="font-family: 'Open Sans', verdana, arial, sans-serif; font-size: 12px; fill: rgb(68, 68, 68); fill-opacity: 1; white-space: pre;">0</text></g><g class="x4tick"><text text-anchor="middle" x="0" y="1415.4" transform="translate(500.86,0)" style="font-family: 'Open Sans', verdana, arial, sans-serif; font-size: 12px; fill: rgb(68, 68, 68); fill-opacity: 1; white-space: pre;">10</text></g><g class="x4tick"><text text-anchor="middle" x="0" y="1415.4" transform="translate(666.63,0)" style="font-family: 'Open Sans', verdana, arial, sans-serif; font-size: 12px; fill: rgb(68, 68, 68); fill-opacity: 1; white-space: pre;">20</text></g><g class="x4tick"><text text-anchor="middle" x="0" y="1415.4" transform="translate(832.39,0)" style="font-family: 'Open Sans', verdana, arial, sans-serif; font-size: 12px; fill: rgb(68, 68, 68); fill-opacity: 1; white-space: pre;">30</text></g><g class="x4tick"><text text-anchor="middle" x="0" y="1415.4" transform="translate(998.16,0)" style="font-family: 'Open Sans', verdana, arial, sans-serif; font-size: 12px; fill: rgb(68, 68, 68); fill-opacity: 1; white-space: pre;">40</text></g></g><g class="yaxislayer-above"><g class="y4tick"><text text-anchor="end" x="76.6" y="4.199999999999999" transform="translate(0,1400)" style="font-family: 'Open Sans', verdana, arial, sans-serif; font-size: 12px; fill: rgb(68, 68, 68); fill-opacity: 1; white-space: pre;">0</text></g><g class="y4tick"><text text-anchor="end" x="76.6" y="4.199999999999999" transform="translate(0,1351.3899999999999)" style="font-family: 'Open Sans', verdana, arial, sans-serif; font-size: 12px; fill: rgb(68, 68, 68); fill-opacity: 1; white-space: pre;">5</text></g><g class="y4tick"><text text-anchor="end" x="76.6" y="4.199999999999999" transform="translate(0,1302.78)" style="font-family: 'Open Sans', verdana, arial, sans-serif; font-size: 12px; fill: rgb(68, 68, 68); fill-opacity: 1; white-space: pre;">10</text></g><g class="y4tick"><text text-anchor="end" x="76.6" y="4.199999999999999" transform="translate(0,1254.16)" style="font-family: 'Open Sans', verdana, arial, sans-serif; font-size: 12px; fill: rgb(68, 68, 68); fill-opacity: 1; white-space: pre;">15</text></g><g class="y4tick"><text text-anchor="end" x="76.6" y="4.199999999999999" transform="translate(0,1205.55)" style="font-family: 'Open Sans', verdana, arial, sans-serif; font-size: 12px; fill: rgb(68, 68, 68); fill-opacity: 1; white-space: pre;">20</text></g></g><g class="overaxes-above"/></g><g class="subplot x5y5"><g class="layer-subplot"><g class="shapelayer"/><g class="imagelayer"/></g><g class="gridlayer"><g class="x5"><path class="x5grid crisp" d="M0,932v207.99999999999994" transform="translate(169.32,0)" style="stroke: rgb(238, 238, 238); stroke-opacity: 1; stroke-width: 1px;"/><path class="x5grid crisp" d="M0,932v207.99999999999994" transform="translate(335.09000000000003,0)" style="stroke: rgb(238, 238, 238); stroke-opacity: 1; stroke-width: 1px;"/><path class="x5grid crisp" d="M0,932v207.99999999999994" transform="translate(500.86,0)" style="stroke: rgb(238, 238, 238); stroke-opacity: 1; stroke-width: 1px;"/><path class="x5grid crisp" d="M0,932v207.99999999999994" transform="translate(666.63,0)" style="stroke: rgb(238, 238, 238); stroke-opacity: 1; stroke-width: 1px;"/><path class="x5grid crisp" d="M0,932v207.99999999999994" transform="translate(832.39,0)" style="stroke: rgb(238, 238, 238); stroke-opacity: 1; stroke-width: 1px;"/><path class="x5grid crisp" d="M0,932v207.99999999999994" transform="translate(998.16,0)" style="stroke: rgb(238, 238, 238); stroke-opacity: 1; stroke-width: 1px;"/></g><g class="y5"><path class="y5grid crisp" d="M80,0h970" transform="translate(0,1073.55)" style="stroke: rgb(238, 238, 238); stroke-opacity: 1; stroke-width: 1px;"/><path class="y5grid crisp" d="M80,0h970" transform="translate(0,1007.1)" style="stroke: rgb(238, 238, 238); stroke-opacity: 1; stroke-width: 1px;"/><path class="y5grid crisp" d="M80,0h970" transform="translate(0,940.65)" style="stroke: rgb(238, 238, 238); stroke-opacity: 1; stroke-width: 1px;"/></g></g><g class="zerolinelayer"/><path class="xlines-below"/><path class="ylines-below"/><g class="overlines-below"/><g class="xaxislayer-below"/><g class="yaxislayer-below"/><g class="overaxes-below"/><g class="plot" transform="translate(80, 932)" clip-path="url(#clipc03a07x5y5plot)"><g class="imagelayer"/><g class="maplayer"/><g class="barlayer"/><g class="carpetlayer"/><g class="violinlayer"/><g class="boxlayer"/><g class="scatterlayer"><g class="trace scatter tracec37fe8" style="stroke-miterlimit: 2;"><path class="js-fill js-tozero" d="M970,208L0,208L0,208L4.83,208L9.65,210.2L14.48,203.9L19.31,234.68L24.13,225.87L28.96,240.26L33.78,240.58L38.61,267.56L43.43,274.24L48.26,255.03L57.91,209.65L62.74,201.21L67.57,208L72.39,208L188.21,208L193.04,214.84L212.34,774.05L217.17,425.34L221.99,541.11L226.82,444.7L231.64,303.96L236.47,322.55L241.3,236.13L246.12,219.16L250.95,320.9L255.77,208L260.6,208L279.9,208L284.73,214.55L294.38,326.75L299.21,223.21L304.03,207.89L308.86,208L347.47,208L352.29,209.39L357.12,207.46L361.94,239.25L366.77,208.53L371.6,216.81L376.42,222.66L381.25,222.04L390.9,208.73L395.72,206.18L400.55,216.74L405.38,221.81L410.2,229.2L415.03,230.59L419.85,236.91L424.68,233.19L429.5,247.33L434.33,232.68L439.16,210.84L443.98,218.74L448.81,204.52L453.64,206.88L458.46,208L463.29,208L468.11,484.04L472.94,440.26L477.76,330.1L487.42,389.62L492.24,346.44L497.07,318.65L501.89,320.64L506.72,309.61L511.55,281.24L516.37,278.72L521.2,312.88L526.02,330.22L530.85,295.55L535.67,1477.71L559.8,946.58L564.63,505.5L574.28,773.98L579.11,490.38L583.93,246.2L588.76,298.23L608.06,795.08L612.89,685.54L617.72,218.69L637.02,818.24L641.84,632.64L646.67,350.18L651.5,192.89L656.32,10.4L661.15,153.61L670.8,793.45L675.62,484.97L680.45,448.42L685.28,56.83L690.1,248.77L694.93,351.24L699.76,21.61L719.07,743.85L723.89,373.81L728.72,174.8L733.55,307.12L738.37,123.88L743.2,175.38L752.85,242.13L757.68,197.4L767.33,349.35L772.16,295.46L786.64,492.3L791.46,372.49L796.29,381.3L801.12,360.96L805.94,184.52L810.77,295.22L815.6,303.27L820.42,273.26L825.21,418.34L830.03,291.19L834.86,283.75L839.68,314.38L849.34,240.49L854.16,256.96L863.82,298.11L868.64,229.4L873.47,216.6L878.3,238.34L883.12,229.44L887.95,218.16L892.78,211.37L897.6,224.99L902.43,209.21L907.26,219.53L912.08,206.71L916.91,206.94L926.56,210.26L931.39,216.95L936.21,221.82L941.04,218.25L945.87,258.79L950.69,205.17L955.52,221.11L960.35,200.17L965.17,208L970,208" style="fill: rgb(148, 103, 189); fill-opacity: 0.5; stroke-width: 0;"/><path class="js-line" d="M0,208L4.83,208L9.65,210.2L14.48,203.9L19.31,234.68L24.13,225.87L28.96,240.26L33.78,240.58L38.61,267.56L43.43,274.24L48.26,255.03L57.91,209.65L62.74,201.21L67.57,208L72.39,208L188.21,208L193.04,214.84L212.34,774.05L217.17,425.34L221.99,541.11L226.82,444.7L231.64,303.96L236.47,322.55L241.3,236.13L246.12,219.16L250.95,320.9L255.77,208L260.6,208L279.9,208L284.73,214.55L294.38,326.75L299.21,223.21L304.03,207.89L308.86,208L347.47,208L352.29,209.39L357.12,207.46L361.94,239.25L366.77,208.53L371.6,216.81L376.42,222.66L381.25,222.04L390.9,208.73L395.72,206.18L400.55,216.74L405.38,221.81L410.2,229.2L415.03,230.59L419.85,236.91L424.68,233.19L429.5,247.33L434.33,232.68L439.16,210.84L443.98,218.74L448.81,204.52L453.64,206.88L458.46,208L463.29,208L468.11,484.04L472.94,440.26L477.76,330.1L487.42,389.62L492.24,346.44L497.07,318.65L501.89,320.64L506.72,309.61L511.55,281.24L516.37,278.72L521.2,312.88L526.02,330.22L530.85,295.55L535.67,1477.71L559.8,946.58L564.63,505.5L574.28,773.98L579.11,490.38L583.93,246.2L588.76,298.23L608.06,795.08L612.89,685.54L617.72,218.69L637.02,818.24L641.84,632.64L646.67,350.18L651.5,192.89L656.32,10.4L661.15,153.61L670.8,793.45L675.62,484.97L680.45,448.42L685.28,56.83L690.1,248.77L694.93,351.24L699.76,21.61L719.07,743.85L723.89,373.81L728.72,174.8L733.55,307.12L738.37,123.88L743.2,175.38L752.85,242.13L757.68,197.4L767.33,349.35L772.16,295.46L786.64,492.3L791.46,372.49L796.29,381.3L801.12,360.96L805.94,184.52L810.77,295.22L815.6,303.27L820.42,273.26L825.21,418.34L830.03,291.19L834.86,283.75L839.68,314.38L849.34,240.49L854.16,256.96L863.82,298.11L868.64,229.4L873.47,216.6L878.3,238.34L883.12,229.44L887.95,218.16L892.78,211.37L897.6,224.99L902.43,209.21L907.26,219.53L912.08,206.71L916.91,206.94L926.56,210.26L931.39,216.95L936.21,221.82L941.04,218.25L945.87,258.79L950.69,205.17L955.52,221.11L960.35,200.17L965.17,208L970,208" style="vector-effect: non-scaling-stroke; fill: none; stroke: rgb(148, 103, 189); stroke-opacity: 1; stroke-width: 2px; opacity: 1;"/><g class="points"/></g></g></g><g class="overplot"/><path class="xlines-above crisp" d="M79,1140.5H1051M79,931.5H1051" style="fill: none; stroke-width: 1px; stroke: rgb(68, 68, 68); stroke-opacity: 1;"/><path class="ylines-above crisp" d="M79.5,932V1140M1050.5,932V1140" style="fill: none; stroke-width: 1px; stroke: rgb(68, 68, 68); stroke-opacity: 1;"/><g class="overlines-above"/><g class="xaxislayer-above"><g class="x5tick"><text text-anchor="middle" x="0" y="1155.4" transform="translate(169.32,0)" style="font-family: 'Open Sans', verdana, arial, sans-serif; font-size: 12px; fill: rgb(68, 68, 68); fill-opacity: 1; white-space: pre;">−10</text></g><g class="x5tick"><text text-anchor="middle" x="0" y="1155.4" transform="translate(335.09000000000003,0)" style="font-family: 'Open Sans', verdana, arial, sans-serif; font-size: 12px; fill: rgb(68, 68, 68); fill-opacity: 1; white-space: pre;">0</text></g><g class="x5tick"><text text-anchor="middle" x="0" y="1155.4" transform="translate(500.86,0)" style="font-family: 'Open Sans', verdana, arial, sans-serif; font-size: 12px; fill: rgb(68, 68, 68); fill-opacity: 1; white-space: pre;">10</text></g><g class="x5tick"><text text-anchor="middle" x="0" y="1155.4" transform="translate(666.63,0)" style="font-family: 'Open Sans', verdana, arial, sans-serif; font-size: 12px; fill: rgb(68, 68, 68); fill-opacity: 1; white-space: pre;">20</text></g><g class="x5tick"><text text-anchor="middle" x="0" y="1155.4" transform="translate(832.39,0)" style="font-family: 'Open Sans', verdana, arial, sans-serif; font-size: 12px; fill: rgb(68, 68, 68); fill-opacity: 1; white-space: pre;">30</text></g><g class="x5tick"><text text-anchor="middle" x="0" y="1155.4" transform="translate(998.16,0)" style="font-family: 'Open Sans', verdana, arial, sans-serif; font-size: 12px; fill: rgb(68, 68, 68); fill-opacity: 1; white-space: pre;">40</text></g></g><g class="yaxislayer-above"><g class="y5tick"><text text-anchor="end" x="76.6" y="4.199999999999999" transform="translate(0,1140)" style="font-family: 'Open Sans', verdana, arial, sans-serif; font-size: 12px; fill: rgb(68, 68, 68); fill-opacity: 1; white-space: pre;">0</text></g><g class="y5tick"><text text-anchor="end" x="76.6" y="4.199999999999999" transform="translate(0,1073.55)" style="font-family: 'Open Sans', verdana, arial, sans-serif; font-size: 12px; fill: rgb(68, 68, 68); fill-opacity: 1; white-space: pre;">0.02</text></g><g class="y5tick"><text text-anchor="end" x="76.6" y="4.199999999999999" transform="translate(0,1007.1)" style="font-family: 'Open Sans', verdana, arial, sans-serif; font-size: 12px; fill: rgb(68, 68, 68); fill-opacity: 1; white-space: pre;">0.04</text></g><g class="y5tick"><text text-anchor="end" x="76.6" y="4.199999999999999" transform="translate(0,940.65)" style="font-family: 'Open Sans', verdana, arial, sans-serif; font-size: 12px; fill: rgb(68, 68, 68); fill-opacity: 1; white-space: pre;">0.06</text></g></g><g class="overaxes-above"/></g><g class="subplot x6y6"><g class="layer-subplot"><g class="shapelayer"/><g class="imagelayer"/></g><g class="gridlayer"><g class="x6"><path class="x6grid crisp" d="M0,672v207.99999999999994" transform="translate(169.32,0)" style="stroke: rgb(238, 238, 238); stroke-opacity: 1; stroke-width: 1px;"/><path class="x6grid crisp" d="M0,672v207.99999999999994" transform="translate(335.09000000000003,0)" style="stroke: rgb(238, 238, 238); stroke-opacity: 1; stroke-width: 1px;"/><path class="x6grid crisp" d="M0,672v207.99999999999994" transform="translate(500.86,0)" style="stroke: rgb(238, 238, 238); stroke-opacity: 1; stroke-width: 1px;"/><path class="x6grid crisp" d="M0,672v207.99999999999994" transform="translate(666.63,0)" style="stroke: rgb(238, 238, 238); stroke-opacity: 1; stroke-width: 1px;"/><path class="x6grid crisp" d="M0,672v207.99999999999994" transform="translate(832.39,0)" style="stroke: rgb(238, 238, 238); stroke-opacity: 1; stroke-width: 1px;"/><path class="x6grid crisp" d="M0,672v207.99999999999994" transform="translate(998.16,0)" style="stroke: rgb(238, 238, 238); stroke-opacity: 1; stroke-width: 1px;"/></g><g class="y6"><path class="y6grid crisp" d="M80,0h970" transform="translate(0,834.02)" style="stroke: rgb(238, 238, 238); stroke-opacity: 1; stroke-width: 1px;"/><path class="y6grid crisp" d="M80,0h970" transform="translate(0,788.03)" style="stroke: rgb(238, 238, 238); stroke-opacity: 1; stroke-width: 1px;"/><path class="y6grid crisp" d="M80,0h970" transform="translate(0,742.05)" style="stroke: rgb(238, 238, 238); stroke-opacity: 1; stroke-width: 1px;"/><path class="y6grid crisp" d="M80,0h970" transform="translate(0,696.06)" style="stroke: rgb(238, 238, 238); stroke-opacity: 1; stroke-width: 1px;"/></g></g><g class="zerolinelayer"/><path class="xlines-below"/><path class="ylines-below"/><g class="overlines-below"/><g class="xaxislayer-below"/><g class="yaxislayer-below"/><g class="overaxes-below"/><g class="plot" transform="translate(80, 672)" clip-path="url(#clipc03a07x6y6plot)"><g class="imagelayer"/><g class="maplayer"/><g class="barlayer"/><g class="carpetlayer"/><g class="violinlayer"/><g class="boxlayer"/><g class="scatterlayer"><g class="trace scatter traceb71cf6" style="stroke-miterlimit: 2;"><path class="js-fill js-tozero" d="M970,208L0,208L0,208L4.83,208L9.65,200.9L14.48,172.14L19.31,118.69L24.13,145.16L28.96,132.53L33.78,125.57L38.61,121.32L43.43,103.5L48.26,25.79L53.09,127.89L57.91,177.15L62.74,242.33L67.57,208L188.21,208L193.04,210.95L197.86,166.78L202.69,151.8L207.52,74.19L212.34,28.89L217.17,131.02L221.99,81.03L226.82,139.01L231.64,126.47L236.47,85.29L241.3,97.32L246.12,149.24L250.95,10.4L255.77,208L260.6,208L279.9,208L284.73,204.07L289.55,176.11L294.38,136.26L299.21,164.26L304.03,198.07L308.86,208L313.69,208L347.47,208L352.29,206.47L357.12,208.65L361.94,184.16L366.77,208.52L371.6,202.8L376.42,203.36L381.25,206.92L390.9,208.31L395.72,208.42L400.55,210.5L405.38,210.98L419.85,206.32L424.68,206.11L429.5,193.1L434.33,192.25L439.16,197.75L443.98,199.12L453.64,208.47L458.46,208L463.29,208L468.11,204.77L472.94,202.12L477.76,206.94L487.42,204.93L492.24,206.48L497.07,208.31L501.89,208.39L506.72,207.85L511.55,208.08L521.2,208.87L526.02,208.95L530.85,209.64L535.67,206.64L540.5,207.12L545.33,204.07L550.15,202.92L554.98,202.66L559.8,202.62L564.63,205.82L574.28,206.31L579.11,207.22L583.93,208.06L588.76,206.72L598.41,209.06L603.24,208.86L608.06,208.42L612.89,208.87L617.72,210.38L622.54,208.69L632.19,211.9L637.02,211.81L646.67,208.88L651.5,208.75L656.32,212.55L661.15,211.44L665.97,207.94L670.8,211.84L675.62,212.32L680.45,209.84L685.28,209.04L690.1,209.45L694.93,213.72L699.76,216.45L704.58,235.41L709.41,217.06L714.24,217.11L719.07,215.5L723.89,212.14L728.72,211.37L738.37,207.95L743.2,209.62L748.03,208.48L752.85,211.31L757.68,208.53L762.51,210.8L772.16,209.45L776.99,210.42L781.81,209.05L786.64,208.5L791.46,209.11L796.29,212.36L801.12,211.31L805.94,209.01L810.77,219.27L815.6,220.91L820.42,219.46L825.21,220.38L830.03,211.53L834.86,208.1L839.68,209.82L844.51,207.92L854.16,209.72L858.99,209.42L868.64,214.11L873.47,210.75L878.3,207.34L883.12,207.39L887.95,222.78L892.78,216.84L897.6,211.9L902.43,217.57L907.26,216.7L912.08,208.81L916.91,206.62L921.74,209.86L926.56,211.55L931.39,215.27L936.21,211.15L941.04,212.81L945.87,214.46L950.69,210.16L960.35,209.41L965.17,208L970,208" style="fill: rgb(140, 86, 75); fill-opacity: 0.5; stroke-width: 0;"/><path class="js-line" d="M0,208L4.83,208L9.65,200.9L14.48,172.14L19.31,118.69L24.13,145.16L28.96,132.53L33.78,125.57L38.61,121.32L43.43,103.5L48.26,25.79L53.09,127.89L57.91,177.15L62.74,242.33L67.57,208L188.21,208L193.04,210.95L197.86,166.78L202.69,151.8L207.52,74.19L212.34,28.89L217.17,131.02L221.99,81.03L226.82,139.01L231.64,126.47L236.47,85.29L241.3,97.32L246.12,149.24L250.95,10.4L255.77,208L260.6,208L279.9,208L284.73,204.07L289.55,176.11L294.38,136.26L299.21,164.26L304.03,198.07L308.86,208L313.69,208L347.47,208L352.29,206.47L357.12,208.65L361.94,184.16L366.77,208.52L371.6,202.8L376.42,203.36L381.25,206.92L390.9,208.31L395.72,208.42L400.55,210.5L405.38,210.98L419.85,206.32L424.68,206.11L429.5,193.1L434.33,192.25L439.16,197.75L443.98,199.12L453.64,208.47L458.46,208L463.29,208L468.11,204.77L472.94,202.12L477.76,206.94L487.42,204.93L492.24,206.48L497.07,208.31L501.89,208.39L506.72,207.85L511.55,208.08L521.2,208.87L526.02,208.95L530.85,209.64L535.67,206.64L540.5,207.12L545.33,204.07L550.15,202.92L554.98,202.66L559.8,202.62L564.63,205.82L574.28,206.31L579.11,207.22L583.93,208.06L588.76,206.72L598.41,209.06L603.24,208.86L608.06,208.42L612.89,208.87L617.72,210.38L622.54,208.69L632.19,211.9L637.02,211.81L646.67,208.88L651.5,208.75L656.32,212.55L661.15,211.44L665.97,207.94L670.8,211.84L675.62,212.32L680.45,209.84L685.28,209.04L690.1,209.45L694.93,213.72L699.76,216.45L704.58,235.41L709.41,217.06L714.24,217.11L719.07,215.5L723.89,212.14L728.72,211.37L738.37,207.95L743.2,209.62L748.03,208.48L752.85,211.31L757.68,208.53L762.51,210.8L772.16,209.45L776.99,210.42L781.81,209.05L786.64,208.5L791.46,209.11L796.29,212.36L801.12,211.31L805.94,209.01L810.77,219.27L815.6,220.91L820.42,219.46L825.21,220.38L830.03,211.53L834.86,208.1L839.68,209.82L844.51,207.92L854.16,209.72L858.99,209.42L868.64,214.11L873.47,210.75L878.3,207.34L883.12,207.39L887.95,222.78L892.78,216.84L897.6,211.9L902.43,217.57L907.26,216.7L912.08,208.81L916.91,206.62L921.74,209.86L926.56,211.55L931.39,215.27L936.21,211.15L941.04,212.81L945.87,214.46L950.69,210.16L960.35,209.41L965.17,208L970,208" style="vector-effect: non-scaling-stroke; fill: none; stroke: rgb(140, 86, 75); stroke-opacity: 1; stroke-width: 2px; opacity: 1;"/><g class="points"/></g></g></g><g class="overplot"/><path class="xlines-above crisp" d="M79,880.5H1051M79,671.5H1051" style="fill: none; stroke-width: 1px; stroke: rgb(68, 68, 68); stroke-opacity: 1;"/><path class="ylines-above crisp" d="M79.5,672V880M1050.5,672V880" style="fill: none; stroke-width: 1px; stroke: rgb(68, 68, 68); stroke-opacity: 1;"/><g class="overlines-above"/><g class="xaxislayer-above"><g class="x6tick"><text text-anchor="middle" x="0" y="895.4" transform="translate(169.32,0)" style="font-family: 'Open Sans', verdana, arial, sans-serif; font-size: 12px; fill: rgb(68, 68, 68); fill-opacity: 1; white-space: pre;">−10</text></g><g class="x6tick"><text text-anchor="middle" x="0" y="895.4" transform="translate(335.09000000000003,0)" style="font-family: 'Open Sans', verdana, arial, sans-serif; font-size: 12px; fill: rgb(68, 68, 68); fill-opacity: 1; white-space: pre;">0</text></g><g class="x6tick"><text text-anchor="middle" x="0" y="895.4" transform="translate(500.86,0)" style="font-family: 'Open Sans', verdana, arial, sans-serif; font-size: 12px; fill: rgb(68, 68, 68); fill-opacity: 1; white-space: pre;">10</text></g><g class="x6tick"><text text-anchor="middle" x="0" y="895.4" transform="translate(666.63,0)" style="font-family: 'Open Sans', verdana, arial, sans-serif; font-size: 12px; fill: rgb(68, 68, 68); fill-opacity: 1; white-space: pre;">20</text></g><g class="x6tick"><text text-anchor="middle" x="0" y="895.4" transform="translate(832.39,0)" style="font-family: 'Open Sans', verdana, arial, sans-serif; font-size: 12px; fill: rgb(68, 68, 68); fill-opacity: 1; white-space: pre;">30</text></g><g class="x6tick"><text text-anchor="middle" x="0" y="895.4" transform="translate(998.16,0)" style="font-family: 'Open Sans', verdana, arial, sans-serif; font-size: 12px; fill: rgb(68, 68, 68); fill-opacity: 1; white-space: pre;">40</text></g></g><g class="yaxislayer-above"><g class="y6tick"><text text-anchor="end" x="76.6" y="4.199999999999999" transform="translate(0,880)" style="font-family: 'Open Sans', verdana, arial, sans-serif; font-size: 12px; fill: rgb(68, 68, 68); fill-opacity: 1; white-space: pre;">0</text></g><g class="y6tick"><text text-anchor="end" x="76.6" y="4.199999999999999" transform="translate(0,834.02)" style="font-family: 'Open Sans', verdana, arial, sans-serif; font-size: 12px; fill: rgb(68, 68, 68); fill-opacity: 1; white-space: pre;">2</text></g><g class="y6tick"><text text-anchor="end" x="76.6" y="4.199999999999999" transform="translate(0,788.03)" style="font-family: 'Open Sans', verdana, arial, sans-serif; font-size: 12px; fill: rgb(68, 68, 68); fill-opacity: 1; white-space: pre;">4</text></g><g class="y6tick"><text text-anchor="end" x="76.6" y="4.199999999999999" transform="translate(0,742.05)" style="font-family: 'Open Sans', verdana, arial, sans-serif; font-size: 12px; fill: rgb(68, 68, 68); fill-opacity: 1; white-space: pre;">6</text></g><g class="y6tick"><text text-anchor="end" x="76.6" y="4.199999999999999" transform="translate(0,696.06)" style="font-family: 'Open Sans', verdana, arial, sans-serif; font-size: 12px; fill: rgb(68, 68, 68); fill-opacity: 1; white-space: pre;">8</text></g></g><g class="overaxes-above"/></g><g class="subplot x7y7"><g class="layer-subplot"><g class="shapelayer"/><g class="imagelayer"/></g><g class="gridlayer"><g class="x7"><path class="x7grid crisp" d="M0,412.00000000000006v207.99999999999994" transform="translate(169.32,0)" style="stroke: rgb(238, 238, 238); stroke-opacity: 1; stroke-width: 1px;"/><path class="x7grid crisp" d="M0,412.00000000000006v207.99999999999994" transform="translate(335.09000000000003,0)" style="stroke: rgb(238, 238, 238); stroke-opacity: 1; stroke-width: 1px;"/><path class="x7grid crisp" d="M0,412.00000000000006v207.99999999999994" transform="translate(500.86,0)" style="stroke: rgb(238, 238, 238); stroke-opacity: 1; stroke-width: 1px;"/><path class="x7grid crisp" d="M0,412.00000000000006v207.99999999999994" transform="translate(666.63,0)" style="stroke: rgb(238, 238, 238); stroke-opacity: 1; stroke-width: 1px;"/><path class="x7grid crisp" d="M0,412.00000000000006v207.99999999999994" transform="translate(832.39,0)" style="stroke: rgb(238, 238, 238); stroke-opacity: 1; stroke-width: 1px;"/><path class="x7grid crisp" d="M0,412.00000000000006v207.99999999999994" transform="translate(998.16,0)" style="stroke: rgb(238, 238, 238); stroke-opacity: 1; stroke-width: 1px;"/></g><g class="y7"><path class="y7grid crisp" d="M80,0h970" transform="translate(0,573.1100000000001)" style="stroke: rgb(238, 238, 238); stroke-opacity: 1; stroke-width: 1px;"/><path class="y7grid crisp" d="M80,0h970" transform="translate(0,526.22)" style="stroke: rgb(238, 238, 238); stroke-opacity: 1; stroke-width: 1px;"/><path class="y7grid crisp" d="M80,0h970" transform="translate(0,479.33000000000004)" style="stroke: rgb(238, 238, 238); stroke-opacity: 1; stroke-width: 1px;"/><path class="y7grid crisp" d="M80,0h970" transform="translate(0,432.44000000000005)" style="stroke: rgb(238, 238, 238); stroke-opacity: 1; stroke-width: 1px;"/></g></g><g class="zerolinelayer"/><path class="xlines-below"/><path class="ylines-below"/><g class="overlines-below"/><g class="xaxislayer-below"/><g class="yaxislayer-below"/><g class="overaxes-below"/><g class="plot" transform="translate(80, 412.00000000000006)" clip-path="url(#clipc03a07x7y7plot)"><g class="imagelayer"/><g class="maplayer"/><g class="barlayer"/><g class="carpetlayer"/><g class="violinlayer"/><g class="boxlayer"/><g class="scatterlayer"><g class="trace scatter trace248a4b" style="stroke-miterlimit: 2;"><path class="js-fill js-tozero" d="M970,208L0,208L0,208L4.83,208L9.65,199.93L14.48,206.31L19.31,205.62L24.13,206.61L28.96,206.53L43.43,206.99L48.26,206.46L57.91,207.94L62.74,208.15L91.69,208L96.52,208L188.21,208L193.04,211.75L197.86,164.63L202.69,150.44L207.52,64.67L212.34,10.4L217.17,129.01L221.99,79.45L226.82,138.22L231.64,131.11L236.47,94.17L241.3,110.72L246.12,157.09L250.95,41.88L255.77,208L260.6,208L279.9,208L284.73,202.48L289.55,184.76L294.38,162.77L304.03,200.31L308.86,208L357.12,207.88L361.94,205.66L366.77,207.8L371.6,208.51L376.42,208.8L381.25,208.22L395.72,207.97L400.55,206.91L415.03,206.46L419.85,207.06L424.68,207.76L429.5,210.93L434.33,214.75L439.16,214.35L443.98,213.71L448.81,211.08L453.64,207.93L458.46,208L463.29,208L468.11,186.3L472.94,179.42L477.76,196.63L482.59,191.05L487.42,182.24L492.24,188.34L497.07,199.36L501.89,201.26L506.72,195.37L511.55,192.34L516.37,196.4L521.2,201.18L526.02,200.3L530.85,197.37L535.67,166.8L540.5,198.71L545.33,136.82L550.15,157.66L554.98,137.5L559.8,132.36L564.63,184.57L569.45,174.7L574.28,137.1L579.11,187.26L583.93,190.68L588.76,168.91L593.59,192.85L598.41,166.22L603.24,186.89L608.06,195.46L612.89,175.82L617.72,192.68L622.54,198.91L627.37,189.02L632.19,183.34L637.02,181.7L641.84,185.4L646.67,189.95L651.5,192.79L656.32,187.81L661.15,197.39L665.97,196.75L670.8,181.66L675.62,200.31L680.45,199.53L685.28,186.97L690.1,200.13L694.93,195.65L699.76,188.49L704.58,159.58L709.41,175.61L714.24,186.74L719.07,190.16L723.89,199.7L728.72,196.96L733.55,199.61L738.37,207.82L743.2,202.39L748.03,206.93L752.85,195.69L757.68,205.83L762.51,199.27L767.33,202.6L772.16,205.88L776.99,187L781.81,202.85L786.64,211.82L791.46,200.94L796.29,199.05L801.12,202.59L805.94,202.85L810.77,169.63L815.6,174.39L820.42,176.93L825.21,171.46L830.03,193.88L834.86,195.73L839.68,205.85L844.51,202.92L849.34,204.05L854.16,203.76L858.99,204.88L863.82,204.17L868.64,192.61L873.47,199.71L883.12,218.14L887.95,181.84L892.78,204.62L897.6,208.87L902.43,193.01L907.26,196.51L912.08,209.02L916.91,209.72L921.74,206.08L926.56,206.65L931.39,197.84L936.21,202.23L941.04,203.51L945.87,202.85L950.69,204.13L955.52,206.49L960.35,205.33L965.17,208L970,208" style="fill: rgb(227, 119, 194); fill-opacity: 0.5; stroke-width: 0;"/><path class="js-line" d="M0,208L4.83,208L9.65,199.93L14.48,206.31L19.31,205.62L24.13,206.61L28.96,206.53L43.43,206.99L48.26,206.46L57.91,207.94L62.74,208.15L91.69,208L96.52,208L188.21,208L193.04,211.75L197.86,164.63L202.69,150.44L207.52,64.67L212.34,10.4L217.17,129.01L221.99,79.45L226.82,138.22L231.64,131.11L236.47,94.17L241.3,110.72L246.12,157.09L250.95,41.88L255.77,208L260.6,208L279.9,208L284.73,202.48L289.55,184.76L294.38,162.77L304.03,200.31L308.86,208L357.12,207.88L361.94,205.66L366.77,207.8L371.6,208.51L376.42,208.8L381.25,208.22L395.72,207.97L400.55,206.91L415.03,206.46L419.85,207.06L424.68,207.76L429.5,210.93L434.33,214.75L439.16,214.35L443.98,213.71L448.81,211.08L453.64,207.93L458.46,208L463.29,208L468.11,186.3L472.94,179.42L477.76,196.63L482.59,191.05L487.42,182.24L492.24,188.34L497.07,199.36L501.89,201.26L506.72,195.37L511.55,192.34L516.37,196.4L521.2,201.18L526.02,200.3L530.85,197.37L535.67,166.8L540.5,198.71L545.33,136.82L550.15,157.66L554.98,137.5L559.8,132.36L564.63,184.57L569.45,174.7L574.28,137.1L579.11,187.26L583.93,190.68L588.76,168.91L593.59,192.85L598.41,166.22L603.24,186.89L608.06,195.46L612.89,175.82L617.72,192.68L622.54,198.91L627.37,189.02L632.19,183.34L637.02,181.7L641.84,185.4L646.67,189.95L651.5,192.79L656.32,187.81L661.15,197.39L665.97,196.75L670.8,181.66L675.62,200.31L680.45,199.53L685.28,186.97L690.1,200.13L694.93,195.65L699.76,188.49L704.58,159.58L709.41,175.61L714.24,186.74L719.07,190.16L723.89,199.7L728.72,196.96L733.55,199.61L738.37,207.82L743.2,202.39L748.03,206.93L752.85,195.69L757.68,205.83L762.51,199.27L767.33,202.6L772.16,205.88L776.99,187L781.81,202.85L786.64,211.82L791.46,200.94L796.29,199.05L801.12,202.59L805.94,202.85L810.77,169.63L815.6,174.39L820.42,176.93L825.21,171.46L830.03,193.88L834.86,195.73L839.68,205.85L844.51,202.92L849.34,204.05L854.16,203.76L858.99,204.88L863.82,204.17L868.64,192.61L873.47,199.71L883.12,218.14L887.95,181.84L892.78,204.62L897.6,208.87L902.43,193.01L907.26,196.51L912.08,209.02L916.91,209.72L921.74,206.08L926.56,206.65L931.39,197.84L936.21,202.23L941.04,203.51L945.87,202.85L950.69,204.13L955.52,206.49L960.35,205.33L965.17,208L970,208" style="vector-effect: non-scaling-stroke; fill: none; stroke: rgb(227, 119, 194); stroke-opacity: 1; stroke-width: 2px; opacity: 1;"/><g class="points"/></g></g></g><g class="overplot"/><path class="xlines-above crisp" d="M79,620.5H1051M79,411.50000000000006H1051" style="fill: none; stroke-width: 1px; stroke: rgb(68, 68, 68); stroke-opacity: 1;"/><path class="ylines-above crisp" d="M79.5,412.00000000000006V620M1050.5,412.00000000000006V620" style="fill: none; stroke-width: 1px; stroke: rgb(68, 68, 68); stroke-opacity: 1;"/><g class="overlines-above"/><g class="xaxislayer-above"><g class="x7tick"><text text-anchor="middle" x="0" y="635.4" transform="translate(169.32,0)" style="font-family: 'Open Sans', verdana, arial, sans-serif; font-size: 12px; fill: rgb(68, 68, 68); fill-opacity: 1; white-space: pre;">−10</text></g><g class="x7tick"><text text-anchor="middle" x="0" y="635.4" transform="translate(335.09000000000003,0)" style="font-family: 'Open Sans', verdana, arial, sans-serif; font-size: 12px; fill: rgb(68, 68, 68); fill-opacity: 1; white-space: pre;">0</text></g><g class="x7tick"><text text-anchor="middle" x="0" y="635.4" transform="translate(500.86,0)" style="font-family: 'Open Sans', verdana, arial, sans-serif; font-size: 12px; fill: rgb(68, 68, 68); fill-opacity: 1; white-space: pre;">10</text></g><g class="x7tick"><text text-anchor="middle" x="0" y="635.4" transform="translate(666.63,0)" style="font-family: 'Open Sans', verdana, arial, sans-serif; font-size: 12px; fill: rgb(68, 68, 68); fill-opacity: 1; white-space: pre;">20</text></g><g class="x7tick"><text text-anchor="middle" x="0" y="635.4" transform="translate(832.39,0)" style="font-family: 'Open Sans', verdana, arial, sans-serif; font-size: 12px; fill: rgb(68, 68, 68); fill-opacity: 1; white-space: pre;">30</text></g><g class="x7tick"><text text-anchor="middle" x="0" y="635.4" transform="translate(998.16,0)" style="font-family: 'Open Sans', verdana, arial, sans-serif; font-size: 12px; fill: rgb(68, 68, 68); fill-opacity: 1; white-space: pre;">40</text></g></g><g class="yaxislayer-above"><g class="y7tick"><text text-anchor="end" x="76.6" y="4.199999999999999" transform="translate(0,620)" style="font-family: 'Open Sans', verdana, arial, sans-serif; font-size: 12px; fill: rgb(68, 68, 68); fill-opacity: 1; white-space: pre;">0</text></g><g class="y7tick"><text text-anchor="end" x="76.6" y="4.199999999999999" transform="translate(0,573.1100000000001)" style="font-family: 'Open Sans', verdana, arial, sans-serif; font-size: 12px; fill: rgb(68, 68, 68); fill-opacity: 1; white-space: pre;">10</text></g><g class="y7tick"><text text-anchor="end" x="76.6" y="4.199999999999999" transform="translate(0,526.22)" style="font-family: 'Open Sans', verdana, arial, sans-serif; font-size: 12px; fill: rgb(68, 68, 68); fill-opacity: 1; white-space: pre;">20</text></g><g class="y7tick"><text text-anchor="end" x="76.6" y="4.199999999999999" transform="translate(0,479.33000000000004)" style="font-family: 'Open Sans', verdana, arial, sans-serif; font-size: 12px; fill: rgb(68, 68, 68); fill-opacity: 1; white-space: pre;">30</text></g><g class="y7tick"><text text-anchor="end" x="76.6" y="4.199999999999999" transform="translate(0,432.44000000000005)" style="font-family: 'Open Sans', verdana, arial, sans-serif; font-size: 12px; fill: rgb(68, 68, 68); fill-opacity: 1; white-space: pre;">40</text></g></g><g class="overaxes-above"/></g><g class="subplot x8y8"><g class="layer-subplot"><g class="shapelayer"/><g class="imagelayer"/></g><g class="gridlayer"><g class="x8"><path class="x8grid crisp" d="M0,152.00000000000006v207.99999999999994" transform="translate(169.32,0)" style="stroke: rgb(238, 238, 238); stroke-opacity: 1; stroke-width: 1px;"/><path class="x8grid crisp" d="M0,152.00000000000006v207.99999999999994" transform="translate(335.09000000000003,0)" style="stroke: rgb(238, 238, 238); stroke-opacity: 1; stroke-width: 1px;"/><path class="x8grid crisp" d="M0,152.00000000000006v207.99999999999994" transform="translate(500.86,0)" style="stroke: rgb(238, 238, 238); stroke-opacity: 1; stroke-width: 1px;"/><path class="x8grid crisp" d="M0,152.00000000000006v207.99999999999994" transform="translate(666.63,0)" style="stroke: rgb(238, 238, 238); stroke-opacity: 1; stroke-width: 1px;"/><path class="x8grid crisp" d="M0,152.00000000000006v207.99999999999994" transform="translate(832.39,0)" style="stroke: rgb(238, 238, 238); stroke-opacity: 1; stroke-width: 1px;"/><path class="x8grid crisp" d="M0,152.00000000000006v207.99999999999994" transform="translate(998.16,0)" style="stroke: rgb(238, 238, 238); stroke-opacity: 1; stroke-width: 1px;"/></g><g class="y8"><path class="y8grid crisp" d="M80,0h970" transform="translate(0,323.5400000000001)" style="stroke: rgb(238, 238, 238); stroke-opacity: 1; stroke-width: 1px;"/><path class="y8grid crisp" d="M80,0h970" transform="translate(0,287.08000000000004)" style="stroke: rgb(238, 238, 238); stroke-opacity: 1; stroke-width: 1px;"/><path class="y8grid crisp" d="M80,0h970" transform="translate(0,250.63000000000005)" style="stroke: rgb(238, 238, 238); stroke-opacity: 1; stroke-width: 1px;"/><path class="y8grid crisp" d="M80,0h970" transform="translate(0,214.17000000000007)" style="stroke: rgb(238, 238, 238); stroke-opacity: 1; stroke-width: 1px;"/><path class="y8grid crisp" d="M80,0h970" transform="translate(0,177.71000000000006)" style="stroke: rgb(238, 238, 238); stroke-opacity: 1; stroke-width: 1px;"/></g></g><g class="zerolinelayer"/><path class="xlines-below"/><path class="ylines-below"/><g class="overlines-below"/><g class="xaxislayer-below"/><g class="yaxislayer-below"/><g class="overaxes-below"/><g class="plot" transform="translate(80, 152.00000000000006)" clip-path="url(#clipc03a07x8y8plot)"><g class="imagelayer"/><g class="maplayer"/><g class="barlayer"/><g class="carpetlayer"/><g class="violinlayer"/><g class="boxlayer"/><g class="scatterlayer"><g class="trace scatter trace35d1ec" style="stroke-miterlimit: 2;"><path class="js-fill js-tozero" d="M970,208L0,208L0,208L4.83,208L9.65,183.88L14.48,201.88L19.31,198.48L24.13,202.61L28.96,201.56L33.78,202.03L38.61,201.47L43.43,200.71L48.26,195.78L53.09,202.55L57.91,205.89L62.74,210.3L67.57,208L193.04,208.63L197.86,200.42L202.69,197.92L207.52,184.14L212.34,175.58L217.17,194.64L221.99,186.24L226.82,196.42L231.64,194.39L236.47,187.27L241.3,189.41L246.12,198.22L250.95,176.59L255.77,208L279.9,208L284.73,123.52L289.55,12.3L294.38,44.8L299.21,157.65L304.03,201.12L308.86,208L313.69,208L347.47,208L352.29,206.62L357.12,208.13L361.94,187.59L366.77,203.3L371.6,198.41L376.42,197.94L381.25,204.56L390.9,207.23L395.72,205.96L400.55,199.81L405.38,199.31L415.03,200.98L419.85,197.45L424.68,202.59L429.5,188.99L434.33,192.25L439.16,201.08L443.98,200.82L448.81,206L453.64,208L458.46,208L463.29,208L468.11,204.63L472.94,204.12L477.76,206.33L487.42,204.65L492.24,205.47L497.07,206.82L501.89,206.93L511.55,205.64L516.37,206.17L521.2,206.75L526.02,206.48L530.85,205.93L535.67,201.27L540.5,206.22L545.33,197.03L550.15,201.86L554.98,198.12L559.8,197.98L564.63,205.2L569.45,203.97L574.28,197.78L579.11,204.97L583.93,204.13L588.76,202.43L593.59,205.66L598.41,200.03L603.24,201.8L608.06,202.32L612.89,198.42L617.72,203.22L622.54,201.03L627.37,200.68L632.19,199.24L637.02,199.1L641.84,201.34L646.67,204.01L651.5,205.56L656.32,200.95L661.15,204.55L665.97,203.56L670.8,199.12L675.62,204.07L680.45,204.94L690.1,207.2L694.93,202.73L699.76,202.1L704.58,191.19L709.41,199.94L714.24,199.2L723.89,201.85L728.72,204.12L733.55,205.26L738.37,207.25L743.2,207.07L748.03,207.77L752.85,202.6L757.68,206.31L762.51,200.66L767.33,201.83L772.16,204.72L776.99,195.97L781.81,198.38L786.64,205.17L791.46,202.46L796.29,201.31L801.12,205.2L805.94,203.04L810.77,191.78L815.6,195.19L820.42,198.51L825.21,194.3L830.03,200.54L834.86,198.42L839.68,202.91L844.51,198.59L849.34,200.53L854.16,200.15L863.82,202.12L868.64,200.56L873.47,202.33L878.3,203.3L883.12,206.75L887.95,194.4L892.78,200.44L897.6,199.93L902.43,199.68L907.26,201.43L912.08,203.37L916.91,209.13L921.74,206.04L926.56,204.38L931.39,198.68L936.21,204.15L941.04,200.42L945.87,198.39L950.69,203.19L955.52,204.76L960.35,205.26L965.17,208L970,208" style="fill: rgb(127, 127, 127); fill-opacity: 0.5; stroke-width: 0;"/><path class="js-line" d="M0,208L4.83,208L9.65,183.88L14.48,201.88L19.31,198.48L24.13,202.61L28.96,201.56L33.78,202.03L38.61,201.47L43.43,200.71L48.26,195.78L53.09,202.55L57.91,205.89L62.74,210.3L67.57,208L193.04,208.63L197.86,200.42L202.69,197.92L207.52,184.14L212.34,175.58L217.17,194.64L221.99,186.24L226.82,196.42L231.64,194.39L236.47,187.27L241.3,189.41L246.12,198.22L250.95,176.59L255.77,208L279.9,208L284.73,123.52L289.55,12.3L294.38,44.8L299.21,157.65L304.03,201.12L308.86,208L313.69,208L347.47,208L352.29,206.62L357.12,208.13L361.94,187.59L366.77,203.3L371.6,198.41L376.42,197.94L381.25,204.56L390.9,207.23L395.72,205.96L400.55,199.81L405.38,199.31L415.03,200.98L419.85,197.45L424.68,202.59L429.5,188.99L434.33,192.25L439.16,201.08L443.98,200.82L448.81,206L453.64,208L458.46,208L463.29,208L468.11,204.63L472.94,204.12L477.76,206.33L487.42,204.65L492.24,205.47L497.07,206.82L501.89,206.93L511.55,205.64L516.37,206.17L521.2,206.75L526.02,206.48L530.85,205.93L535.67,201.27L540.5,206.22L545.33,197.03L550.15,201.86L554.98,198.12L559.8,197.98L564.63,205.2L569.45,203.97L574.28,197.78L579.11,204.97L583.93,204.13L588.76,202.43L593.59,205.66L598.41,200.03L603.24,201.8L608.06,202.32L612.89,198.42L617.72,203.22L622.54,201.03L627.37,200.68L632.19,199.24L637.02,199.1L641.84,201.34L646.67,204.01L651.5,205.56L656.32,200.95L661.15,204.55L665.97,203.56L670.8,199.12L675.62,204.07L680.45,204.94L690.1,207.2L694.93,202.73L699.76,202.1L704.58,191.19L709.41,199.94L714.24,199.2L723.89,201.85L728.72,204.12L733.55,205.26L738.37,207.25L743.2,207.07L748.03,207.77L752.85,202.6L757.68,206.31L762.51,200.66L767.33,201.83L772.16,204.72L776.99,195.97L781.81,198.38L786.64,205.17L791.46,202.46L796.29,201.31L801.12,205.2L805.94,203.04L810.77,191.78L815.6,195.19L820.42,198.51L825.21,194.3L830.03,200.54L834.86,198.42L839.68,202.91L844.51,198.59L849.34,200.53L854.16,200.15L863.82,202.12L868.64,200.56L873.47,202.33L878.3,203.3L883.12,206.75L887.95,194.4L892.78,200.44L897.6,199.93L902.43,199.68L907.26,201.43L912.08,203.37L916.91,209.13L921.74,206.04L926.56,204.38L931.39,198.68L936.21,204.15L941.04,200.42L945.87,198.39L950.69,203.19L955.52,204.76L960.35,205.26L965.17,208L970,208" style="vector-effect: non-scaling-stroke; fill: none; stroke: rgb(127, 127, 127); stroke-opacity: 1; stroke-width: 2px; opacity: 1;"/><g class="points"/></g></g></g><g class="overplot"/><path class="xlines-above crisp" d="M79,360.5H1051M79,151.50000000000006H1051" style="fill: none; stroke-width: 1px; stroke: rgb(68, 68, 68); stroke-opacity: 1;"/><path class="ylines-above crisp" d="M79.5,152.00000000000006V360M1050.5,152.00000000000006V360" style="fill: none; stroke-width: 1px; stroke: rgb(68, 68, 68); stroke-opacity: 1;"/><g class="overlines-above"/><g class="xaxislayer-above"><g class="x8tick"><text text-anchor="middle" x="0" y="375.4" transform="translate(169.32,0)" style="font-family: 'Open Sans', verdana, arial, sans-serif; font-size: 12px; fill: rgb(68, 68, 68); fill-opacity: 1; white-space: pre;">−10</text></g><g class="x8tick"><text text-anchor="middle" x="0" y="375.4" transform="translate(335.09000000000003,0)" style="font-family: 'Open Sans', verdana, arial, sans-serif; font-size: 12px; fill: rgb(68, 68, 68); fill-opacity: 1; white-space: pre;">0</text></g><g class="x8tick"><text text-anchor="middle" x="0" y="375.4" transform="translate(500.86,0)" style="font-family: 'Open Sans', verdana, arial, sans-serif; font-size: 12px; fill: rgb(68, 68, 68); fill-opacity: 1; white-space: pre;">10</text></g><g class="x8tick"><text text-anchor="middle" x="0" y="375.4" transform="translate(666.63,0)" style="font-family: 'Open Sans', verdana, arial, sans-serif; font-size: 12px; fill: rgb(68, 68, 68); fill-opacity: 1; white-space: pre;">20</text></g><g class="x8tick"><text text-anchor="middle" x="0" y="375.4" transform="translate(832.39,0)" style="font-family: 'Open Sans', verdana, arial, sans-serif; font-size: 12px; fill: rgb(68, 68, 68); fill-opacity: 1; white-space: pre;">30</text></g><g class="x8tick"><text text-anchor="middle" x="0" y="375.4" transform="translate(998.16,0)" style="font-family: 'Open Sans', verdana, arial, sans-serif; font-size: 12px; fill: rgb(68, 68, 68); fill-opacity: 1; white-space: pre;">40</text></g></g><g class="yaxislayer-above"><g class="y8tick"><text text-anchor="end" x="76.6" y="4.199999999999999" transform="translate(0,360.00000000000006)" style="font-family: 'Open Sans', verdana, arial, sans-serif; font-size: 12px; fill: rgb(68, 68, 68); fill-opacity: 1; white-space: pre;">0</text></g><g class="y8tick"><text text-anchor="end" x="76.6" y="4.199999999999999" transform="translate(0,323.5400000000001)" style="font-family: 'Open Sans', verdana, arial, sans-serif; font-size: 12px; fill: rgb(68, 68, 68); fill-opacity: 1; white-space: pre;">200</text></g><g class="y8tick"><text text-anchor="end" x="76.6" y="4.199999999999999" transform="translate(0,287.08000000000004)" style="font-family: 'Open Sans', verdana, arial, sans-serif; font-size: 12px; fill: rgb(68, 68, 68); fill-opacity: 1; white-space: pre;">400</text></g><g class="y8tick"><text text-anchor="end" x="76.6" y="4.199999999999999" transform="translate(0,250.63000000000005)" style="font-family: 'Open Sans', verdana, arial, sans-serif; font-size: 12px; fill: rgb(68, 68, 68); fill-opacity: 1; white-space: pre;">600</text></g><g class="y8tick"><text text-anchor="end" x="76.6" y="4.199999999999999" transform="translate(0,214.17000000000007)" style="font-family: 'Open Sans', verdana, arial, sans-serif; font-size: 12px; fill: rgb(68, 68, 68); fill-opacity: 1; white-space: pre;">800</text></g><g class="y8tick"><text text-anchor="end" x="76.6" y="4.199999999999999" transform="translate(0,177.71000000000006)" style="font-family: 'Open Sans', verdana, arial, sans-serif; font-size: 12px; fill: rgb(68, 68, 68); fill-opacity: 1; white-space: pre;">1000</text></g></g><g class="overaxes-above"/></g></g><g class="polarlayer"/><g class="ternarylayer"/><g class="geolayer"/><g class="pielayer"/><g class="glimages"/><defs id="topdefs-c03a07"><g class="clips"/></defs><g class="layer-above"><g class="imagelayer"/><g class="shapelayer"><path data-index="0" fill-rule="evenodd" d="M335.09000000000003,2180L335.09000000000003,1972" clip-path="url(#clipc03a07xy)" style="opacity: 1; stroke: rgb(255, 0, 0); stroke-opacity: 1; fill: rgb(0, 0, 0); fill-opacity: 0; stroke-width: 2px;"/><path data-index="1" fill-rule="evenodd" d="M335.09000000000003,1920L335.09000000000003,1713" clip-path="url(#clipc03a07xy2)" style="opacity: 1; stroke: rgb(255, 0, 0); stroke-opacity: 1; fill: rgb(0, 0, 0); fill-opacity: 0; stroke-width: 2px;"/><path data-index="2" fill-rule="evenodd" d="M335.09000000000003,1660L335.09000000000003,1452" clip-path="url(#clipc03a07xy3)" style="opacity: 1; stroke: rgb(255, 0, 0); stroke-opacity: 1; fill: rgb(0, 0, 0); fill-opacity: 0; stroke-width: 2px;"/><path data-index="3" fill-rule="evenodd" d="M335.09000000000003,1400L335.09000000000003,1192" clip-path="url(#clipc03a07xy4)" style="opacity: 1; stroke: rgb(255, 0, 0); stroke-opacity: 1; fill: rgb(0, 0, 0); fill-opacity: 0; stroke-width: 2px;"/><path data-index="4" fill-rule="evenodd" d="M335.09000000000003,1140L335.09000000000003,932" clip-path="url(#clipc03a07xy5)" style="opacity: 1; stroke: rgb(255, 0, 0); stroke-opacity: 1; fill: rgb(0, 0, 0); fill-opacity: 0; stroke-width: 2px;"/><path data-index="5" fill-rule="evenodd" d="M335.09000000000003,880L335.09000000000003,672" clip-path="url(#clipc03a07xy6)" style="opacity: 1; stroke: rgb(255, 0, 0); stroke-opacity: 1; fill: rgb(0, 0, 0); fill-opacity: 0; stroke-width: 2px;"/><path data-index="6" fill-rule="evenodd" d="M335.09000000000003,620L335.09000000000003,412.00000000000006" clip-path="url(#clipc03a07xy7)" style="opacity: 1; stroke: rgb(255, 0, 0); stroke-opacity: 1; fill: rgb(0, 0, 0); fill-opacity: 0; stroke-width: 2px;"/><path data-index="7" fill-rule="evenodd" d="M335.09000000000003,360.00000000000006L335.09000000000003,153.00000000000006" clip-path="url(#clipc03a07xy8)" style="opacity: 1; stroke: rgb(255, 0, 0); stroke-opacity: 1; fill: rgb(0, 0, 0); fill-opacity: 0; stroke-width: 2px;"/></g></g><g class="infolayer"><g class="g-gtitle"><text class="gtitle" x="565" y="50" text-anchor="middle" style="font-family: 'Open Sans', verdana, arial, sans-serif; font-size: 17px; fill: rgb(68, 68, 68); opacity: 1; font-weight: normal; white-space: pre;">DENSITY OF STATES  PBE</text></g><g class="g-xtitle"><text class="xtitle" x="565" y="2232" text-anchor="middle" style="font-family: 'Open Sans', verdana, arial, sans-serif; font-size: 14px; fill: rgb(68, 68, 68); opacity: 1; font-weight: normal; white-space: pre;">E-EFERMI (eV)</text></g><g class="g-x2title"/><g class="g-x3title"/><g class="g-x4title"/><g class="g-x5title"/><g class="g-x6title"/><g class="g-x7title"/><g class="g-x8title"/><g class="g-ytitle" transform="translate(-2.8000011444091797,0)"><text class="ytitle" transform="rotate(-90,48,2076)" x="48" y="2076" text-anchor="middle" style="font-family: 'Open Sans', verdana, arial, sans-serif; font-size: 11px; fill: rgb(68, 68, 68); opacity: 1; font-weight: normal; white-space: pre;">1 2 S H</text></g><g class="g-y2title"><text class="y2title" transform="rotate(-90,48,1816)" x="48" y="1816" text-anchor="middle" style="font-family: 'Open Sans', verdana, arial, sans-serif; font-size: 11px; fill: rgb(68, 68, 68); opacity: 1; font-weight: normal; white-space: pre;">61 62 66 s N</text></g><g class="g-y3title"><text class="y3title" transform="rotate(-90,48,1556)" x="48" y="1556" text-anchor="middle" style="font-family: 'Open Sans', verdana, arial, sans-serif; font-size: 11px; fill: rgb(68, 68, 68); opacity: 1; font-weight: normal; white-space: pre;">3 4 px py H</text></g><g class="g-y4title"><text class="y4title" transform="rotate(-90,48,1296)" x="48" y="1296" text-anchor="middle" style="font-family: 'Open Sans', verdana, arial, sans-serif; font-size: 11px; fill: rgb(68, 68, 68); opacity: 1; font-weight: normal; white-space: pre;">63 64 67 67 px py N</text></g><g class="g-y5title"><text class="y5title" transform="rotate(-90,48,1036)" x="48" y="1036" text-anchor="middle" style="font-family: 'Open Sans', verdana, arial, sans-serif; font-size: 11px; fill: rgb(68, 68, 68); opacity: 1; font-weight: normal; white-space: pre;">3 pz H</text></g><g class="g-y6title"><text class="y6title" transform="rotate(-90,48,776)" x="48" y="776" text-anchor="middle" style="font-family: 'Open Sans', verdana, arial, sans-serif; font-size: 11px; fill: rgb(68, 68, 68); opacity: 1; font-weight: normal; white-space: pre;">65 69 pz N</text></g><g class="g-y7title"><text class="y7title" transform="rotate(-90,48,516)" x="48" y="516" text-anchor="middle" style="font-family: 'Open Sans', verdana, arial, sans-serif; font-size: 11px; fill: rgb(68, 68, 68); opacity: 1; font-weight: normal; white-space: pre;">70 71 72 73 73 d N</text></g><g class="g-y8title"><text class="y8title" transform="rotate(-90,48,256)" x="48" y="256" text-anchor="middle" style="font-family: 'Open Sans', verdana, arial, sans-serif; font-size: 11px; fill: rgb(68, 68, 68); opacity: 1; font-weight: normal; white-space: pre;">Total</text></g></g></svg>